G04 #@! TF.GenerationSoftware,KiCad,Pcbnew,7.0.8*
G04 #@! TF.CreationDate,2023-11-27T13:48:00+01:00*
G04 #@! TF.ProjectId,ESP32-POE-Wiegand-Relay-REV-A,45535033-322d-4504-9f45-2d5769656761,rev?*
G04 #@! TF.SameCoordinates,Original*
G04 #@! TF.FileFunction,Copper,L3,Inr*
G04 #@! TF.FilePolarity,Positive*
%FSLAX46Y46*%
G04 Gerber Fmt 4.6, Leading zero omitted, Abs format (unit mm)*
G04 Created by KiCad (PCBNEW 7.0.8) date 2023-11-27 13:48:00*
%MOMM*%
%LPD*%
G01*
G04 APERTURE LIST*
G04 #@! TA.AperFunction,ComponentPad*
%ADD10C,1.500000*%
G04 #@! TD*
G04 #@! TA.AperFunction,ComponentPad*
%ADD11C,2.000000*%
G04 #@! TD*
G04 #@! TA.AperFunction,ComponentPad*
%ADD12O,1.700000X1.700000*%
G04 #@! TD*
G04 #@! TA.AperFunction,ComponentPad*
%ADD13R,1.700000X1.700000*%
G04 #@! TD*
G04 #@! TA.AperFunction,ComponentPad*
%ADD14C,1.600000*%
G04 #@! TD*
G04 #@! TA.AperFunction,ComponentPad*
%ADD15R,1.600000X1.600000*%
G04 #@! TD*
G04 #@! TA.AperFunction,ComponentPad*
%ADD16C,6.400000*%
G04 #@! TD*
G04 #@! TA.AperFunction,ComponentPad*
%ADD17C,1.550000*%
G04 #@! TD*
G04 #@! TA.AperFunction,ComponentPad*
%ADD18C,1.200000*%
G04 #@! TD*
G04 #@! TA.AperFunction,ComponentPad*
%ADD19C,1.650000*%
G04 #@! TD*
G04 #@! TA.AperFunction,ComponentPad*
%ADD20C,2.355000*%
G04 #@! TD*
G04 #@! TA.AperFunction,ComponentPad*
%ADD21C,2.100000*%
G04 #@! TD*
G04 #@! TA.AperFunction,ComponentPad*
%ADD22C,2.250000*%
G04 #@! TD*
G04 #@! TA.AperFunction,ViaPad*
%ADD23C,0.700000*%
G04 #@! TD*
G04 #@! TA.AperFunction,ViaPad*
%ADD24C,0.900000*%
G04 #@! TD*
G04 #@! TA.AperFunction,ViaPad*
%ADD25C,0.800000*%
G04 #@! TD*
G04 APERTURE END LIST*
D10*
X183900000Y-74300000D03*
X183900000Y-70800000D03*
X183900000Y-67300000D03*
X183900000Y-63800000D03*
X183900000Y-60300000D03*
X183900000Y-56800000D03*
X183900000Y-53300000D03*
X183900000Y-49800000D03*
X183900000Y-46300000D03*
X183900000Y-42800000D03*
X183900000Y-39300000D03*
X183900000Y-35800000D03*
D11*
X239700000Y-110200000D03*
X246200000Y-110200000D03*
X239700000Y-105700000D03*
X246200000Y-105700000D03*
D12*
X217020000Y-107500000D03*
X214480000Y-107500000D03*
X211940000Y-107500000D03*
X209400000Y-107500000D03*
X206860000Y-107500000D03*
D13*
X204320000Y-107500000D03*
D10*
X260200000Y-36900000D03*
X260200000Y-40400000D03*
D14*
X238252651Y-27300000D03*
D15*
X241752651Y-27300000D03*
D16*
X182000000Y-109000000D03*
X262000000Y-109000000D03*
D10*
X260200000Y-78500000D03*
X260200000Y-82000000D03*
X260200000Y-85500000D03*
X260200000Y-89000000D03*
X260200000Y-92500000D03*
X260200000Y-96000000D03*
D17*
X244860000Y-53990000D03*
X244860000Y-56030000D03*
X244860000Y-58070000D03*
X244860000Y-60110000D03*
X244860000Y-62150000D03*
X244860000Y-64190000D03*
X242320000Y-52970000D03*
X242320000Y-55010000D03*
X242320000Y-57050000D03*
X242320000Y-61130000D03*
X242320000Y-63170000D03*
X242320000Y-65210000D03*
D18*
X251970000Y-53500000D03*
X251970000Y-64680000D03*
X253500000Y-53500000D03*
X253500000Y-64680000D03*
D19*
X239780000Y-52995000D03*
X239780000Y-55535000D03*
X239780000Y-62645000D03*
X239780000Y-65185000D03*
D20*
X263270000Y-51025000D03*
X263270000Y-67155000D03*
D14*
X229327621Y-34400000D03*
D15*
X226827621Y-34400000D03*
D21*
X227800000Y-89915000D03*
X243040000Y-89915000D03*
X245580000Y-97535000D03*
X237960000Y-97535000D03*
X227800000Y-97535000D03*
D22*
X227605000Y-44500000D03*
D21*
X227840000Y-75380000D03*
X243080000Y-75380000D03*
X245620000Y-83000000D03*
X238000000Y-83000000D03*
X227840000Y-83000000D03*
D16*
X262000000Y-24000000D03*
X182000000Y-24000000D03*
D23*
X235840000Y-62700000D03*
X210631018Y-101531018D03*
X209900000Y-99900000D03*
D24*
X207150000Y-89100000D03*
X207150000Y-87850000D03*
X207150000Y-86600000D03*
X216700000Y-54700000D03*
X209700000Y-50800000D03*
D25*
X217300000Y-62700000D03*
D24*
X233000000Y-30800000D03*
D23*
X231100000Y-56500000D03*
D24*
X219200000Y-93300000D03*
X188005000Y-94872500D03*
X189295000Y-88827500D03*
D23*
X185200000Y-104000000D03*
D24*
X233000000Y-29700000D03*
X234100000Y-27500000D03*
X219200000Y-31900000D03*
X226900000Y-66800000D03*
X185027500Y-93305000D03*
X219000000Y-87400000D03*
D23*
X228400000Y-57400000D03*
D24*
X190900000Y-91900000D03*
X212000000Y-74900000D03*
X190900000Y-93300000D03*
D23*
X213700000Y-60567500D03*
D24*
X187895000Y-88827500D03*
X234100000Y-30800000D03*
X186495000Y-88827500D03*
D23*
X196800000Y-68100000D03*
X204100000Y-70300000D03*
D24*
X217700000Y-76700000D03*
X234100000Y-29700000D03*
X217800000Y-79800000D03*
X220800000Y-54500000D03*
X233000000Y-28600000D03*
X190900000Y-90500000D03*
X180300000Y-97100000D03*
X186605000Y-94872500D03*
X215200000Y-59100000D03*
X234100000Y-28600000D03*
D23*
X199800000Y-77624500D03*
X196400000Y-96100000D03*
X212300000Y-62700000D03*
D24*
X189405000Y-94872500D03*
X224400000Y-63000000D03*
X259000000Y-71000000D03*
X212800000Y-91800000D03*
X233000000Y-27500000D03*
X180300000Y-83700000D03*
X185027500Y-91905000D03*
X223000000Y-45390000D03*
X206900000Y-34600000D03*
X236500000Y-55500000D03*
X204900000Y-38900000D03*
D23*
X198700000Y-65200000D03*
D24*
X185027500Y-90505000D03*
X207150000Y-85350000D03*
X220700000Y-73400000D03*
D23*
X181500000Y-102200000D03*
D24*
X207100000Y-39100000D03*
D23*
X196600000Y-73000000D03*
D24*
X201900000Y-29400000D03*
D23*
X219000000Y-61800000D03*
X191700000Y-102200000D03*
X225800000Y-66900000D03*
X222800000Y-66700000D03*
X193378158Y-101722548D03*
X220490000Y-60874500D03*
X217200000Y-65100000D03*
X192600000Y-102200000D03*
X219900000Y-64400000D03*
X223000000Y-70400000D03*
X219800000Y-65900000D03*
X230970000Y-62025000D03*
X233700000Y-61500000D03*
X230186062Y-61400500D03*
X234900000Y-63300000D03*
X230911292Y-63309869D03*
X230300000Y-62650000D03*
X228500000Y-60700000D03*
X233900000Y-54200000D03*
X208300000Y-95600000D03*
X234100000Y-107000000D03*
X211233411Y-98533411D03*
X199000000Y-82000000D03*
D25*
X227000000Y-49000000D03*
D23*
X219100000Y-30600000D03*
X224424500Y-58900000D03*
X226600000Y-68400000D03*
X229900000Y-60500000D03*
X228500000Y-63774500D03*
D24*
X244990000Y-29900000D03*
X222100000Y-83900000D03*
X247200000Y-28800000D03*
X246100000Y-27700000D03*
X246100000Y-29900000D03*
X221400000Y-98600000D03*
X246100000Y-28800000D03*
X224900000Y-83000000D03*
X221900000Y-48100000D03*
X221400000Y-86100000D03*
X244990000Y-27700000D03*
X247200000Y-29900000D03*
X221900000Y-49300000D03*
X224900000Y-97500000D03*
X244990000Y-28800000D03*
X247200000Y-27700000D03*
D23*
X200426000Y-84800000D03*
X207700000Y-96300000D03*
X228800000Y-107800000D03*
X210533411Y-99233411D03*
X209700000Y-53000000D03*
X187950000Y-96897500D03*
X186650000Y-96897500D03*
X213000000Y-58800000D03*
D24*
X207500000Y-33300000D03*
D23*
X185350000Y-96797500D03*
X184100000Y-96800000D03*
X208700000Y-34600000D03*
X195775000Y-95225000D03*
X206650353Y-69950353D03*
X208500000Y-82300000D03*
X198500500Y-77200000D03*
X201675500Y-86000000D03*
X195500000Y-97500000D03*
X207641942Y-69841942D03*
X202100000Y-72200000D03*
X201100000Y-63475500D03*
X206940000Y-96980000D03*
X185700000Y-83800000D03*
X184200000Y-84000000D03*
X206220000Y-97520000D03*
X211289429Y-100872607D03*
X209300000Y-100600000D03*
X237300000Y-60500000D03*
X233200000Y-58500000D03*
X225600000Y-58100000D03*
X208300000Y-79800000D03*
X220131844Y-63525500D03*
X220100000Y-58475500D03*
D24*
X212500000Y-63900000D03*
D23*
X222300000Y-68200000D03*
X215400000Y-60100000D03*
D25*
X220600994Y-62674500D03*
D24*
X226400000Y-52900000D03*
X219500000Y-69900000D03*
G04 #@! TA.AperFunction,Conductor*
G36*
X262001719Y-21400596D02*
G01*
X262287582Y-21416650D01*
X262294475Y-21417426D01*
X262575010Y-21465091D01*
X262581785Y-21466638D01*
X262855219Y-21545412D01*
X262861773Y-21547706D01*
X263124672Y-21656601D01*
X263130920Y-21659611D01*
X263159784Y-21675563D01*
X263379966Y-21797254D01*
X263385858Y-21800956D01*
X263617919Y-21965612D01*
X263623359Y-21969950D01*
X263835525Y-22159554D01*
X263840445Y-22164474D01*
X264030049Y-22376640D01*
X264034387Y-22382080D01*
X264199043Y-22614141D01*
X264202745Y-22620033D01*
X264340384Y-22869070D01*
X264343401Y-22875335D01*
X264347202Y-22884511D01*
X264452291Y-23138220D01*
X264454589Y-23144787D01*
X264533360Y-23418209D01*
X264534908Y-23424992D01*
X264582571Y-23705512D01*
X264583350Y-23712426D01*
X264599402Y-23998264D01*
X264599500Y-24001741D01*
X264599500Y-49685324D01*
X264579815Y-49752363D01*
X264527011Y-49798118D01*
X264457853Y-49808062D01*
X264394297Y-49779037D01*
X264391159Y-49776223D01*
X264319149Y-49709408D01*
X264265584Y-49672888D01*
X264111353Y-49567735D01*
X264111349Y-49567733D01*
X264111346Y-49567731D01*
X264111345Y-49567730D01*
X263884763Y-49458615D01*
X263884765Y-49458615D01*
X263644445Y-49384486D01*
X263644441Y-49384485D01*
X263644437Y-49384484D01*
X263524813Y-49366453D01*
X263395754Y-49347000D01*
X263395749Y-49347000D01*
X263144251Y-49347000D01*
X263144245Y-49347000D01*
X263003042Y-49368284D01*
X262895563Y-49384484D01*
X262895560Y-49384485D01*
X262895554Y-49384486D01*
X262655238Y-49458614D01*
X262428651Y-49567733D01*
X262428647Y-49567735D01*
X262220853Y-49709406D01*
X262036493Y-49880465D01*
X261879684Y-50077099D01*
X261753935Y-50294901D01*
X261662055Y-50529008D01*
X261662049Y-50529027D01*
X261606088Y-50774210D01*
X261606087Y-50774215D01*
X261587295Y-51024995D01*
X261587295Y-51025004D01*
X261606087Y-51275783D01*
X261606194Y-51276490D01*
X261606159Y-51276743D01*
X261606435Y-51280421D01*
X261605648Y-51280479D01*
X261596725Y-51345715D01*
X261551334Y-51398832D01*
X261484431Y-51418976D01*
X261417258Y-51399752D01*
X261400832Y-51387330D01*
X261249327Y-51251580D01*
X261249324Y-51251578D01*
X261249323Y-51251577D01*
X261020359Y-51100096D01*
X260771779Y-50983567D01*
X260624362Y-50939216D01*
X260508879Y-50904472D01*
X260375915Y-50884904D01*
X260237269Y-50864500D01*
X260031453Y-50864500D01*
X260031448Y-50864500D01*
X259826195Y-50879523D01*
X259826185Y-50879524D01*
X259558229Y-50939214D01*
X259558224Y-50939216D01*
X259301799Y-51037290D01*
X259062392Y-51171652D01*
X259062387Y-51171655D01*
X258845097Y-51339441D01*
X258845088Y-51339450D01*
X258654549Y-51537080D01*
X258654547Y-51537082D01*
X258494805Y-51760361D01*
X258494802Y-51760366D01*
X258369275Y-52004515D01*
X258369271Y-52004525D01*
X258280632Y-52264344D01*
X258280629Y-52264358D01*
X258230765Y-52534314D01*
X258230763Y-52534334D01*
X258220737Y-52808678D01*
X258250762Y-53081559D01*
X258250763Y-53081569D01*
X258320202Y-53347178D01*
X258417961Y-53577225D01*
X258427577Y-53599852D01*
X258538982Y-53782396D01*
X258570592Y-53834191D01*
X258570599Y-53834201D01*
X258746199Y-54045207D01*
X258746204Y-54045212D01*
X258746209Y-54045218D01*
X258746216Y-54045224D01*
X258950672Y-54228419D01*
X258950674Y-54228420D01*
X258950677Y-54228423D01*
X259179641Y-54379904D01*
X259428221Y-54496433D01*
X259691119Y-54575527D01*
X259962731Y-54615500D01*
X259962736Y-54615500D01*
X260168552Y-54615500D01*
X260220744Y-54611679D01*
X260373805Y-54600477D01*
X260641775Y-54540784D01*
X260898198Y-54442711D01*
X261137609Y-54308347D01*
X261354904Y-54140557D01*
X261545454Y-53942916D01*
X261705196Y-53719637D01*
X261830727Y-53475479D01*
X261919370Y-53215646D01*
X261969236Y-52945674D01*
X261979262Y-52671320D01*
X261949236Y-52398429D01*
X261949232Y-52398415D01*
X261948414Y-52393982D01*
X261950136Y-52393663D01*
X261952007Y-52331191D01*
X261991524Y-52273569D01*
X262055920Y-52246460D01*
X262124750Y-52258469D01*
X262154222Y-52278770D01*
X262220851Y-52340592D01*
X262428648Y-52482265D01*
X262655239Y-52591386D01*
X262895563Y-52665516D01*
X263144251Y-52703000D01*
X263144252Y-52703000D01*
X263395748Y-52703000D01*
X263395749Y-52703000D01*
X263644437Y-52665516D01*
X263884761Y-52591386D01*
X264111353Y-52482265D01*
X264319149Y-52340592D01*
X264391160Y-52273775D01*
X264453691Y-52242608D01*
X264523148Y-52250195D01*
X264577476Y-52294128D01*
X264599428Y-52360460D01*
X264599500Y-52364675D01*
X264599500Y-65815324D01*
X264579815Y-65882363D01*
X264527011Y-65928118D01*
X264457853Y-65938062D01*
X264394297Y-65909037D01*
X264391159Y-65906223D01*
X264319149Y-65839408D01*
X264249944Y-65792225D01*
X264111353Y-65697735D01*
X264111349Y-65697733D01*
X264111346Y-65697731D01*
X264111345Y-65697730D01*
X263884763Y-65588615D01*
X263884765Y-65588615D01*
X263644445Y-65514486D01*
X263644441Y-65514485D01*
X263644437Y-65514484D01*
X263524813Y-65496453D01*
X263395754Y-65477000D01*
X263395749Y-65477000D01*
X263144251Y-65477000D01*
X263144245Y-65477000D01*
X262989373Y-65500344D01*
X262895563Y-65514484D01*
X262895560Y-65514485D01*
X262895554Y-65514486D01*
X262655238Y-65588614D01*
X262428651Y-65697733D01*
X262428647Y-65697735D01*
X262220853Y-65839406D01*
X262148234Y-65906786D01*
X262085701Y-65937954D01*
X262016244Y-65930367D01*
X261961916Y-65886433D01*
X261939965Y-65820101D01*
X261941955Y-65793368D01*
X261969236Y-65645674D01*
X261979262Y-65371320D01*
X261949236Y-65098429D01*
X261903162Y-64922194D01*
X261879797Y-64832821D01*
X261878677Y-64830186D01*
X261772423Y-64580148D01*
X261629405Y-64345804D01*
X261575267Y-64280750D01*
X261453800Y-64134792D01*
X261453795Y-64134787D01*
X261453791Y-64134782D01*
X261361591Y-64052170D01*
X261249327Y-63951580D01*
X261249324Y-63951578D01*
X261249323Y-63951577D01*
X261020359Y-63800096D01*
X260771779Y-63683567D01*
X260624362Y-63639216D01*
X260508879Y-63604472D01*
X260375915Y-63584904D01*
X260237269Y-63564500D01*
X260031453Y-63564500D01*
X260031448Y-63564500D01*
X259826195Y-63579523D01*
X259826185Y-63579524D01*
X259558229Y-63639214D01*
X259558224Y-63639216D01*
X259301799Y-63737290D01*
X259062392Y-63871652D01*
X259062387Y-63871655D01*
X258845097Y-64039441D01*
X258845088Y-64039450D01*
X258654549Y-64237080D01*
X258654547Y-64237082D01*
X258494805Y-64460361D01*
X258494802Y-64460366D01*
X258369275Y-64704515D01*
X258369271Y-64704525D01*
X258280632Y-64964344D01*
X258280629Y-64964358D01*
X258230765Y-65234314D01*
X258230763Y-65234334D01*
X258220737Y-65508678D01*
X258250761Y-65781553D01*
X258250763Y-65781569D01*
X258320202Y-66047178D01*
X258412544Y-66264478D01*
X258427577Y-66299852D01*
X258563269Y-66522192D01*
X258570592Y-66534191D01*
X258570599Y-66534201D01*
X258746199Y-66745207D01*
X258746204Y-66745212D01*
X258746209Y-66745218D01*
X258746216Y-66745224D01*
X258950672Y-66928419D01*
X258950674Y-66928420D01*
X258950677Y-66928423D01*
X259179641Y-67079904D01*
X259428221Y-67196433D01*
X259691119Y-67275527D01*
X259962731Y-67315500D01*
X259962736Y-67315500D01*
X260168552Y-67315500D01*
X260220744Y-67311679D01*
X260373805Y-67300477D01*
X260641775Y-67240784D01*
X260898198Y-67142711D01*
X261137609Y-67008347D01*
X261354904Y-66840557D01*
X261394181Y-66799817D01*
X261454882Y-66765218D01*
X261524653Y-66768928D01*
X261581342Y-66809770D01*
X261606952Y-66874777D01*
X261606208Y-66899562D01*
X261606435Y-66899579D01*
X261587295Y-67154995D01*
X261587295Y-67155004D01*
X261606087Y-67405784D01*
X261606088Y-67405789D01*
X261662049Y-67650972D01*
X261662051Y-67650981D01*
X261662053Y-67650986D01*
X261753935Y-67885098D01*
X261879684Y-68102901D01*
X261940500Y-68179162D01*
X262036493Y-68299534D01*
X262123426Y-68380195D01*
X262220851Y-68470592D01*
X262428648Y-68612265D01*
X262655239Y-68721386D01*
X262895563Y-68795516D01*
X263144251Y-68833000D01*
X263144252Y-68833000D01*
X263395748Y-68833000D01*
X263395749Y-68833000D01*
X263644437Y-68795516D01*
X263884761Y-68721386D01*
X264111353Y-68612265D01*
X264319149Y-68470592D01*
X264391160Y-68403775D01*
X264453691Y-68372608D01*
X264523148Y-68380195D01*
X264577476Y-68424128D01*
X264599428Y-68490460D01*
X264599500Y-68494675D01*
X264599500Y-108998258D01*
X264599402Y-109001735D01*
X264583350Y-109287573D01*
X264582571Y-109294487D01*
X264534908Y-109575007D01*
X264533360Y-109581790D01*
X264454589Y-109855212D01*
X264452291Y-109861779D01*
X264343403Y-110124660D01*
X264340384Y-110130929D01*
X264202745Y-110379966D01*
X264199043Y-110385858D01*
X264034387Y-110617919D01*
X264030049Y-110623359D01*
X263840445Y-110835525D01*
X263835525Y-110840445D01*
X263623359Y-111030049D01*
X263617919Y-111034387D01*
X263385858Y-111199043D01*
X263379966Y-111202745D01*
X263130929Y-111340384D01*
X263124660Y-111343403D01*
X262861779Y-111452291D01*
X262855212Y-111454589D01*
X262581790Y-111533360D01*
X262575007Y-111534908D01*
X262294487Y-111582571D01*
X262287573Y-111583350D01*
X262001735Y-111599402D01*
X261998258Y-111599500D01*
X182001742Y-111599500D01*
X181998265Y-111599402D01*
X181712427Y-111583350D01*
X181705512Y-111582571D01*
X181424992Y-111534908D01*
X181418209Y-111533360D01*
X181144787Y-111454589D01*
X181138220Y-111452291D01*
X181006779Y-111397847D01*
X180875335Y-111343401D01*
X180869070Y-111340384D01*
X180620033Y-111202745D01*
X180614141Y-111199043D01*
X180382080Y-111034387D01*
X180376640Y-111030049D01*
X180164474Y-110840445D01*
X180159554Y-110835525D01*
X179969950Y-110623359D01*
X179965612Y-110617919D01*
X179800956Y-110385858D01*
X179797254Y-110379966D01*
X179709011Y-110220303D01*
X179659611Y-110130920D01*
X179656601Y-110124672D01*
X179547706Y-109861773D01*
X179545410Y-109855212D01*
X179466639Y-109581790D01*
X179465091Y-109575007D01*
X179457900Y-109532685D01*
X179417426Y-109294475D01*
X179416650Y-109287582D01*
X179408597Y-109144189D01*
X179400598Y-109001735D01*
X179400500Y-108998258D01*
X179400500Y-107500000D01*
X205504341Y-107500000D01*
X205524936Y-107735403D01*
X205524938Y-107735413D01*
X205586094Y-107963655D01*
X205586096Y-107963659D01*
X205586097Y-107963663D01*
X205666004Y-108135023D01*
X205685965Y-108177830D01*
X205685967Y-108177834D01*
X205773374Y-108302663D01*
X205821505Y-108371401D01*
X205988599Y-108538495D01*
X206085384Y-108606265D01*
X206182165Y-108674032D01*
X206182167Y-108674033D01*
X206182170Y-108674035D01*
X206396337Y-108773903D01*
X206624592Y-108835063D01*
X206812918Y-108851539D01*
X206859999Y-108855659D01*
X206860000Y-108855659D01*
X206860001Y-108855659D01*
X206899234Y-108852226D01*
X207095408Y-108835063D01*
X207323663Y-108773903D01*
X207537830Y-108674035D01*
X207731401Y-108538495D01*
X207898495Y-108371401D01*
X208028425Y-108185842D01*
X208083002Y-108142217D01*
X208152500Y-108135023D01*
X208214855Y-108166546D01*
X208231575Y-108185842D01*
X208361500Y-108371395D01*
X208361505Y-108371401D01*
X208528599Y-108538495D01*
X208625384Y-108606265D01*
X208722165Y-108674032D01*
X208722167Y-108674033D01*
X208722170Y-108674035D01*
X208936337Y-108773903D01*
X209164592Y-108835063D01*
X209352918Y-108851539D01*
X209399999Y-108855659D01*
X209400000Y-108855659D01*
X209400001Y-108855659D01*
X209439234Y-108852226D01*
X209635408Y-108835063D01*
X209863663Y-108773903D01*
X210077830Y-108674035D01*
X210271401Y-108538495D01*
X210438495Y-108371401D01*
X210568425Y-108185842D01*
X210623002Y-108142217D01*
X210692500Y-108135023D01*
X210754855Y-108166546D01*
X210771575Y-108185842D01*
X210901500Y-108371395D01*
X210901505Y-108371401D01*
X211068599Y-108538495D01*
X211165384Y-108606265D01*
X211262165Y-108674032D01*
X211262167Y-108674033D01*
X211262170Y-108674035D01*
X211476337Y-108773903D01*
X211704592Y-108835063D01*
X211892918Y-108851539D01*
X211939999Y-108855659D01*
X211940000Y-108855659D01*
X211940001Y-108855659D01*
X211979234Y-108852226D01*
X212175408Y-108835063D01*
X212403663Y-108773903D01*
X212617830Y-108674035D01*
X212811401Y-108538495D01*
X212978495Y-108371401D01*
X213108425Y-108185842D01*
X213163002Y-108142217D01*
X213232500Y-108135023D01*
X213294855Y-108166546D01*
X213311575Y-108185842D01*
X213441500Y-108371395D01*
X213441505Y-108371401D01*
X213608599Y-108538495D01*
X213705384Y-108606265D01*
X213802165Y-108674032D01*
X213802167Y-108674033D01*
X213802170Y-108674035D01*
X214016337Y-108773903D01*
X214244592Y-108835063D01*
X214432918Y-108851539D01*
X214479999Y-108855659D01*
X214480000Y-108855659D01*
X214480001Y-108855659D01*
X214519234Y-108852226D01*
X214715408Y-108835063D01*
X214943663Y-108773903D01*
X215157830Y-108674035D01*
X215351401Y-108538495D01*
X215518495Y-108371401D01*
X215648425Y-108185842D01*
X215703002Y-108142217D01*
X215772500Y-108135023D01*
X215834855Y-108166546D01*
X215851575Y-108185842D01*
X215981500Y-108371395D01*
X215981505Y-108371401D01*
X216148599Y-108538495D01*
X216245384Y-108606265D01*
X216342165Y-108674032D01*
X216342167Y-108674033D01*
X216342170Y-108674035D01*
X216556337Y-108773903D01*
X216784592Y-108835063D01*
X216972918Y-108851539D01*
X217019999Y-108855659D01*
X217020000Y-108855659D01*
X217020001Y-108855659D01*
X217059234Y-108852226D01*
X217255408Y-108835063D01*
X217483663Y-108773903D01*
X217697830Y-108674035D01*
X217891401Y-108538495D01*
X218058495Y-108371401D01*
X218194035Y-108177830D01*
X218293903Y-107963663D01*
X218337756Y-107800000D01*
X227944815Y-107800000D01*
X227963503Y-107977805D01*
X227963504Y-107977807D01*
X228018747Y-108147829D01*
X228018750Y-108147835D01*
X228108141Y-108302665D01*
X228149812Y-108348946D01*
X228227764Y-108435521D01*
X228227767Y-108435523D01*
X228227770Y-108435526D01*
X228372407Y-108540612D01*
X228535733Y-108613329D01*
X228710609Y-108650500D01*
X228710610Y-108650500D01*
X228889389Y-108650500D01*
X228889391Y-108650500D01*
X229064267Y-108613329D01*
X229227593Y-108540612D01*
X229372230Y-108435526D01*
X229491859Y-108302665D01*
X229581250Y-108147835D01*
X229636497Y-107977803D01*
X229655185Y-107800000D01*
X229636497Y-107622197D01*
X229581250Y-107452165D01*
X229491859Y-107297335D01*
X229445003Y-107245296D01*
X229372235Y-107164478D01*
X229372232Y-107164476D01*
X229372231Y-107164475D01*
X229372230Y-107164474D01*
X229227593Y-107059388D01*
X229094205Y-107000000D01*
X233244815Y-107000000D01*
X233263503Y-107177805D01*
X233263504Y-107177807D01*
X233318747Y-107347829D01*
X233318750Y-107347835D01*
X233408141Y-107502665D01*
X233449812Y-107548946D01*
X233527764Y-107635521D01*
X233527767Y-107635523D01*
X233527770Y-107635526D01*
X233672407Y-107740612D01*
X233835733Y-107813329D01*
X234010609Y-107850500D01*
X234010610Y-107850500D01*
X234189389Y-107850500D01*
X234189391Y-107850500D01*
X234364267Y-107813329D01*
X234527593Y-107740612D01*
X234672230Y-107635526D01*
X234791859Y-107502665D01*
X234881250Y-107347835D01*
X234936497Y-107177803D01*
X234955185Y-107000000D01*
X234936497Y-106822197D01*
X234881250Y-106652165D01*
X234791859Y-106497335D01*
X234719171Y-106416607D01*
X234672235Y-106364478D01*
X234672232Y-106364476D01*
X234672231Y-106364475D01*
X234672230Y-106364474D01*
X234527593Y-106259388D01*
X234364267Y-106186671D01*
X234364265Y-106186670D01*
X234236594Y-106159533D01*
X234189391Y-106149500D01*
X234010609Y-106149500D01*
X233979954Y-106156015D01*
X233835733Y-106186670D01*
X233835728Y-106186672D01*
X233672408Y-106259387D01*
X233527768Y-106364475D01*
X233408140Y-106497336D01*
X233318750Y-106652164D01*
X233318747Y-106652170D01*
X233263504Y-106822192D01*
X233263503Y-106822194D01*
X233244815Y-107000000D01*
X229094205Y-107000000D01*
X229064267Y-106986671D01*
X229064265Y-106986670D01*
X228936594Y-106959533D01*
X228889391Y-106949500D01*
X228710609Y-106949500D01*
X228679954Y-106956015D01*
X228535733Y-106986670D01*
X228535728Y-106986672D01*
X228372408Y-107059387D01*
X228227768Y-107164475D01*
X228108140Y-107297336D01*
X228018750Y-107452164D01*
X228018747Y-107452170D01*
X227963504Y-107622192D01*
X227963503Y-107622194D01*
X227944815Y-107800000D01*
X218337756Y-107800000D01*
X218355063Y-107735408D01*
X218375659Y-107500000D01*
X218355063Y-107264592D01*
X218293903Y-107036337D01*
X218194035Y-106822171D01*
X218188425Y-106814158D01*
X218058494Y-106628597D01*
X217891402Y-106461506D01*
X217891395Y-106461501D01*
X217697834Y-106325967D01*
X217697830Y-106325965D01*
X217697828Y-106325964D01*
X217483663Y-106226097D01*
X217483659Y-106226096D01*
X217483655Y-106226094D01*
X217255413Y-106164938D01*
X217255403Y-106164936D01*
X217020001Y-106144341D01*
X217019999Y-106144341D01*
X216784596Y-106164936D01*
X216784586Y-106164938D01*
X216556344Y-106226094D01*
X216556335Y-106226098D01*
X216342171Y-106325964D01*
X216342169Y-106325965D01*
X216148597Y-106461505D01*
X215981505Y-106628597D01*
X215851575Y-106814158D01*
X215796998Y-106857783D01*
X215727500Y-106864977D01*
X215665145Y-106833454D01*
X215648425Y-106814158D01*
X215518494Y-106628597D01*
X215351402Y-106461506D01*
X215351395Y-106461501D01*
X215157834Y-106325967D01*
X215157830Y-106325965D01*
X215157828Y-106325964D01*
X214943663Y-106226097D01*
X214943659Y-106226096D01*
X214943655Y-106226094D01*
X214715413Y-106164938D01*
X214715403Y-106164936D01*
X214480001Y-106144341D01*
X214479999Y-106144341D01*
X214244596Y-106164936D01*
X214244586Y-106164938D01*
X214016344Y-106226094D01*
X214016335Y-106226098D01*
X213802171Y-106325964D01*
X213802169Y-106325965D01*
X213608597Y-106461505D01*
X213441505Y-106628597D01*
X213311575Y-106814158D01*
X213256998Y-106857783D01*
X213187500Y-106864977D01*
X213125145Y-106833454D01*
X213108425Y-106814158D01*
X212978494Y-106628597D01*
X212811402Y-106461506D01*
X212811395Y-106461501D01*
X212617834Y-106325967D01*
X212617830Y-106325965D01*
X212617828Y-106325964D01*
X212403663Y-106226097D01*
X212403659Y-106226096D01*
X212403655Y-106226094D01*
X212175413Y-106164938D01*
X212175403Y-106164936D01*
X211940001Y-106144341D01*
X211939999Y-106144341D01*
X211704596Y-106164936D01*
X211704586Y-106164938D01*
X211476344Y-106226094D01*
X211476335Y-106226098D01*
X211262171Y-106325964D01*
X211262169Y-106325965D01*
X211068597Y-106461505D01*
X210901505Y-106628597D01*
X210771575Y-106814158D01*
X210716998Y-106857783D01*
X210647500Y-106864977D01*
X210585145Y-106833454D01*
X210568425Y-106814158D01*
X210438494Y-106628597D01*
X210271402Y-106461506D01*
X210271395Y-106461501D01*
X210077834Y-106325967D01*
X210077830Y-106325965D01*
X210077828Y-106325964D01*
X209863663Y-106226097D01*
X209863659Y-106226096D01*
X209863655Y-106226094D01*
X209635413Y-106164938D01*
X209635403Y-106164936D01*
X209400001Y-106144341D01*
X209399999Y-106144341D01*
X209164596Y-106164936D01*
X209164586Y-106164938D01*
X208936344Y-106226094D01*
X208936335Y-106226098D01*
X208722171Y-106325964D01*
X208722169Y-106325965D01*
X208528597Y-106461505D01*
X208361505Y-106628597D01*
X208231575Y-106814158D01*
X208176998Y-106857783D01*
X208107500Y-106864977D01*
X208045145Y-106833454D01*
X208028425Y-106814158D01*
X207898494Y-106628597D01*
X207731402Y-106461506D01*
X207731395Y-106461501D01*
X207537834Y-106325967D01*
X207537830Y-106325965D01*
X207537828Y-106325964D01*
X207323663Y-106226097D01*
X207323659Y-106226096D01*
X207323655Y-106226094D01*
X207095413Y-106164938D01*
X207095403Y-106164936D01*
X206860001Y-106144341D01*
X206859999Y-106144341D01*
X206624596Y-106164936D01*
X206624586Y-106164938D01*
X206396344Y-106226094D01*
X206396335Y-106226098D01*
X206182171Y-106325964D01*
X206182169Y-106325965D01*
X205988597Y-106461505D01*
X205821505Y-106628597D01*
X205685965Y-106822169D01*
X205685964Y-106822171D01*
X205586098Y-107036335D01*
X205586094Y-107036344D01*
X205524938Y-107264586D01*
X205524936Y-107264596D01*
X205504341Y-107499999D01*
X205504341Y-107500000D01*
X179400500Y-107500000D01*
X179400500Y-105700005D01*
X238194357Y-105700005D01*
X238214890Y-105947812D01*
X238214892Y-105947824D01*
X238275936Y-106188881D01*
X238375826Y-106416606D01*
X238511833Y-106624782D01*
X238511836Y-106624785D01*
X238680256Y-106807738D01*
X238876491Y-106960474D01*
X238876493Y-106960475D01*
X239016673Y-107036337D01*
X239095190Y-107078828D01*
X239330386Y-107159571D01*
X239575665Y-107200500D01*
X239824335Y-107200500D01*
X240069614Y-107159571D01*
X240304810Y-107078828D01*
X240523509Y-106960474D01*
X240719744Y-106807738D01*
X240888164Y-106624785D01*
X241024173Y-106416607D01*
X241124063Y-106188881D01*
X241185108Y-105947821D01*
X241205643Y-105700005D01*
X244694357Y-105700005D01*
X244714890Y-105947812D01*
X244714892Y-105947824D01*
X244775936Y-106188881D01*
X244875826Y-106416606D01*
X245011833Y-106624782D01*
X245011836Y-106624785D01*
X245180256Y-106807738D01*
X245376491Y-106960474D01*
X245376493Y-106960475D01*
X245516673Y-107036337D01*
X245595190Y-107078828D01*
X245830386Y-107159571D01*
X246075665Y-107200500D01*
X246324335Y-107200500D01*
X246569614Y-107159571D01*
X246804810Y-107078828D01*
X247023509Y-106960474D01*
X247219744Y-106807738D01*
X247388164Y-106624785D01*
X247524173Y-106416607D01*
X247624063Y-106188881D01*
X247685108Y-105947821D01*
X247705643Y-105700000D01*
X247685108Y-105452179D01*
X247624063Y-105211119D01*
X247524173Y-104983393D01*
X247388166Y-104775217D01*
X247366557Y-104751744D01*
X247219744Y-104592262D01*
X247023509Y-104439526D01*
X247023507Y-104439525D01*
X247023506Y-104439524D01*
X246804811Y-104321172D01*
X246804802Y-104321169D01*
X246569616Y-104240429D01*
X246324335Y-104199500D01*
X246075665Y-104199500D01*
X245830383Y-104240429D01*
X245595197Y-104321169D01*
X245595188Y-104321172D01*
X245376493Y-104439524D01*
X245180257Y-104592261D01*
X245011833Y-104775217D01*
X244875826Y-104983393D01*
X244775936Y-105211118D01*
X244714892Y-105452175D01*
X244714890Y-105452187D01*
X244694357Y-105699994D01*
X244694357Y-105700005D01*
X241205643Y-105700005D01*
X241205643Y-105700000D01*
X241185108Y-105452179D01*
X241124063Y-105211119D01*
X241024173Y-104983393D01*
X240888166Y-104775217D01*
X240866557Y-104751744D01*
X240719744Y-104592262D01*
X240523509Y-104439526D01*
X240523507Y-104439525D01*
X240523506Y-104439524D01*
X240304811Y-104321172D01*
X240304802Y-104321169D01*
X240069616Y-104240429D01*
X239824335Y-104199500D01*
X239575665Y-104199500D01*
X239330383Y-104240429D01*
X239095197Y-104321169D01*
X239095188Y-104321172D01*
X238876493Y-104439524D01*
X238680257Y-104592261D01*
X238511833Y-104775217D01*
X238375826Y-104983393D01*
X238275936Y-105211118D01*
X238214892Y-105452175D01*
X238214890Y-105452187D01*
X238194357Y-105699994D01*
X238194357Y-105700005D01*
X179400500Y-105700005D01*
X179400500Y-102200000D01*
X180644815Y-102200000D01*
X180663503Y-102377805D01*
X180663504Y-102377807D01*
X180718747Y-102547829D01*
X180718750Y-102547835D01*
X180808141Y-102702665D01*
X180849812Y-102748946D01*
X180927764Y-102835521D01*
X180927767Y-102835523D01*
X180927770Y-102835526D01*
X181072407Y-102940612D01*
X181235733Y-103013329D01*
X181410609Y-103050500D01*
X181410610Y-103050500D01*
X181589389Y-103050500D01*
X181589391Y-103050500D01*
X181764267Y-103013329D01*
X181927593Y-102940612D01*
X182072230Y-102835526D01*
X182191859Y-102702665D01*
X182281250Y-102547835D01*
X182336497Y-102377803D01*
X182355185Y-102200000D01*
X190844815Y-102200000D01*
X190863503Y-102377805D01*
X190863504Y-102377807D01*
X190918747Y-102547829D01*
X190918750Y-102547835D01*
X191008141Y-102702665D01*
X191049812Y-102748946D01*
X191127764Y-102835521D01*
X191127767Y-102835523D01*
X191127770Y-102835526D01*
X191272407Y-102940612D01*
X191435733Y-103013329D01*
X191610609Y-103050500D01*
X191610610Y-103050500D01*
X191789389Y-103050500D01*
X191789391Y-103050500D01*
X191964267Y-103013329D01*
X192099567Y-102953089D01*
X192168815Y-102943806D01*
X192200429Y-102953088D01*
X192335733Y-103013329D01*
X192510609Y-103050500D01*
X192510610Y-103050500D01*
X192689389Y-103050500D01*
X192689391Y-103050500D01*
X192864267Y-103013329D01*
X193027593Y-102940612D01*
X193172230Y-102835526D01*
X193291859Y-102702665D01*
X193318765Y-102656060D01*
X193330898Y-102635048D01*
X193381465Y-102586832D01*
X193438285Y-102573048D01*
X193467547Y-102573048D01*
X193467549Y-102573048D01*
X193642425Y-102535877D01*
X193805751Y-102463160D01*
X193950388Y-102358074D01*
X194070017Y-102225213D01*
X194159408Y-102070383D01*
X194214655Y-101900351D01*
X194233343Y-101722548D01*
X194214655Y-101544745D01*
X194172963Y-101416430D01*
X194159410Y-101374718D01*
X194159407Y-101374712D01*
X194144851Y-101349500D01*
X194070017Y-101219883D01*
X194023161Y-101167844D01*
X193950393Y-101087026D01*
X193950390Y-101087024D01*
X193950389Y-101087023D01*
X193950388Y-101087022D01*
X193805751Y-100981936D01*
X193642425Y-100909219D01*
X193642423Y-100909218D01*
X193514752Y-100882081D01*
X193467549Y-100872048D01*
X193288767Y-100872048D01*
X193258112Y-100878563D01*
X193113891Y-100909218D01*
X193113886Y-100909220D01*
X192950566Y-100981935D01*
X192805926Y-101087023D01*
X192686297Y-101219884D01*
X192647260Y-101287500D01*
X192596693Y-101335716D01*
X192539873Y-101349500D01*
X192510609Y-101349500D01*
X192479954Y-101356015D01*
X192335733Y-101386670D01*
X192335732Y-101386670D01*
X192200434Y-101446909D01*
X192131184Y-101456193D01*
X192099565Y-101446909D01*
X191964267Y-101386671D01*
X191964265Y-101386670D01*
X191836594Y-101359533D01*
X191789391Y-101349500D01*
X191610609Y-101349500D01*
X191579954Y-101356015D01*
X191435733Y-101386670D01*
X191435728Y-101386672D01*
X191272408Y-101459387D01*
X191127768Y-101564475D01*
X191008140Y-101697336D01*
X190918750Y-101852164D01*
X190918747Y-101852170D01*
X190863504Y-102022192D01*
X190863503Y-102022194D01*
X190844815Y-102200000D01*
X182355185Y-102200000D01*
X182336497Y-102022197D01*
X182296907Y-101900351D01*
X182281252Y-101852170D01*
X182281249Y-101852164D01*
X182234969Y-101772004D01*
X182191859Y-101697335D01*
X182145003Y-101645296D01*
X182072235Y-101564478D01*
X182072232Y-101564476D01*
X182072231Y-101564475D01*
X182072230Y-101564474D01*
X181927593Y-101459388D01*
X181764267Y-101386671D01*
X181764265Y-101386670D01*
X181636594Y-101359533D01*
X181589391Y-101349500D01*
X181410609Y-101349500D01*
X181379954Y-101356015D01*
X181235733Y-101386670D01*
X181235728Y-101386672D01*
X181072408Y-101459387D01*
X180927768Y-101564475D01*
X180808140Y-101697336D01*
X180718750Y-101852164D01*
X180718747Y-101852170D01*
X180663504Y-102022192D01*
X180663503Y-102022194D01*
X180644815Y-102200000D01*
X179400500Y-102200000D01*
X179400500Y-100600000D01*
X208444815Y-100600000D01*
X208463503Y-100777805D01*
X208463504Y-100777807D01*
X208518747Y-100947829D01*
X208518750Y-100947835D01*
X208608141Y-101102665D01*
X208649812Y-101148946D01*
X208727764Y-101235521D01*
X208727767Y-101235523D01*
X208727770Y-101235526D01*
X208872407Y-101340612D01*
X209035733Y-101413329D01*
X209210609Y-101450500D01*
X209210610Y-101450500D01*
X209389389Y-101450500D01*
X209389391Y-101450500D01*
X209564267Y-101413329D01*
X209602992Y-101396087D01*
X209672237Y-101386802D01*
X209735514Y-101416430D01*
X209772729Y-101475564D01*
X209776746Y-101522324D01*
X209775833Y-101531013D01*
X209775833Y-101531015D01*
X209775833Y-101531018D01*
X209779350Y-101564475D01*
X209794521Y-101708823D01*
X209794522Y-101708825D01*
X209849765Y-101878847D01*
X209849768Y-101878853D01*
X209939159Y-102033683D01*
X209972199Y-102070377D01*
X210058782Y-102166539D01*
X210058785Y-102166541D01*
X210058788Y-102166544D01*
X210203425Y-102271630D01*
X210366751Y-102344347D01*
X210541627Y-102381518D01*
X210541628Y-102381518D01*
X210720407Y-102381518D01*
X210720409Y-102381518D01*
X210895285Y-102344347D01*
X211058611Y-102271630D01*
X211203248Y-102166544D01*
X211322877Y-102033683D01*
X211412268Y-101878853D01*
X211446985Y-101772002D01*
X211486422Y-101714328D01*
X211539140Y-101689030D01*
X211553692Y-101685937D01*
X211553692Y-101685936D01*
X211553696Y-101685936D01*
X211717022Y-101613219D01*
X211861659Y-101508133D01*
X211981288Y-101375272D01*
X212070679Y-101220442D01*
X212125926Y-101050410D01*
X212144614Y-100872607D01*
X212125926Y-100694804D01*
X212095122Y-100600000D01*
X212070681Y-100524777D01*
X212070678Y-100524771D01*
X211981288Y-100369942D01*
X211934432Y-100317903D01*
X211861664Y-100237085D01*
X211861661Y-100237083D01*
X211861660Y-100237082D01*
X211861659Y-100237081D01*
X211717022Y-100131995D01*
X211553696Y-100059278D01*
X211553694Y-100059277D01*
X211426023Y-100032140D01*
X211378820Y-100022107D01*
X211246235Y-100022107D01*
X211179196Y-100002422D01*
X211133441Y-99949618D01*
X211123497Y-99880460D01*
X211152522Y-99816904D01*
X211154085Y-99815135D01*
X211164023Y-99804096D01*
X211225270Y-99736076D01*
X211314661Y-99581246D01*
X211360810Y-99439214D01*
X211400246Y-99381541D01*
X211452956Y-99356245D01*
X211497678Y-99346740D01*
X211661004Y-99274023D01*
X211805641Y-99168937D01*
X211925270Y-99036076D01*
X212014661Y-98881246D01*
X212069908Y-98711214D01*
X212081597Y-98600000D01*
X220444901Y-98600000D01*
X220463252Y-98786331D01*
X220463253Y-98786333D01*
X220517604Y-98965502D01*
X220605862Y-99130623D01*
X220605864Y-99130626D01*
X220724642Y-99275357D01*
X220869373Y-99394135D01*
X220869376Y-99394137D01*
X220953714Y-99439216D01*
X221034499Y-99482396D01*
X221213666Y-99536746D01*
X221213668Y-99536747D01*
X221230374Y-99538392D01*
X221400000Y-99555099D01*
X221586331Y-99536747D01*
X221765501Y-99482396D01*
X221930625Y-99394136D01*
X222075357Y-99275357D01*
X222194136Y-99130625D01*
X222282396Y-98965501D01*
X222336747Y-98786331D01*
X222355099Y-98600000D01*
X222336747Y-98413669D01*
X222282396Y-98234499D01*
X222250784Y-98175357D01*
X222194137Y-98069376D01*
X222194135Y-98069373D01*
X222075357Y-97924642D01*
X221930626Y-97805864D01*
X221930623Y-97805862D01*
X221765502Y-97717604D01*
X221586333Y-97663253D01*
X221586331Y-97663252D01*
X221400000Y-97644901D01*
X221213668Y-97663252D01*
X221213666Y-97663253D01*
X221034497Y-97717604D01*
X220869376Y-97805862D01*
X220869373Y-97805864D01*
X220724642Y-97924642D01*
X220605864Y-98069373D01*
X220605862Y-98069376D01*
X220517604Y-98234497D01*
X220463253Y-98413666D01*
X220463252Y-98413668D01*
X220444901Y-98600000D01*
X212081597Y-98600000D01*
X212088596Y-98533411D01*
X212069908Y-98355608D01*
X212030557Y-98234499D01*
X212014663Y-98185581D01*
X212014660Y-98185575D01*
X212008761Y-98175357D01*
X211925270Y-98030746D01*
X211878414Y-97978707D01*
X211805646Y-97897889D01*
X211805643Y-97897887D01*
X211805642Y-97897886D01*
X211805641Y-97897885D01*
X211661004Y-97792799D01*
X211497678Y-97720082D01*
X211497676Y-97720081D01*
X211338901Y-97686333D01*
X211322802Y-97682911D01*
X211144020Y-97682911D01*
X211127921Y-97686333D01*
X210969144Y-97720081D01*
X210969139Y-97720083D01*
X210805819Y-97792798D01*
X210661179Y-97897886D01*
X210541551Y-98030747D01*
X210452161Y-98185575D01*
X210452159Y-98185579D01*
X210406012Y-98327605D01*
X210366574Y-98385280D01*
X210313864Y-98410576D01*
X210269141Y-98420082D01*
X210269139Y-98420083D01*
X210105819Y-98492798D01*
X209961179Y-98597886D01*
X209841551Y-98730747D01*
X209752161Y-98885575D01*
X209752158Y-98885582D01*
X209712375Y-99008023D01*
X209672937Y-99065699D01*
X209641220Y-99083017D01*
X209641670Y-99084027D01*
X209472408Y-99159387D01*
X209327768Y-99264475D01*
X209208140Y-99397336D01*
X209118750Y-99552164D01*
X209118747Y-99552170D01*
X209061495Y-99728377D01*
X209059191Y-99727628D01*
X209031177Y-99779470D01*
X208993550Y-99805451D01*
X208872408Y-99859387D01*
X208727768Y-99964475D01*
X208608140Y-100097336D01*
X208518750Y-100252164D01*
X208518747Y-100252170D01*
X208463504Y-100422192D01*
X208463503Y-100422194D01*
X208444815Y-100600000D01*
X179400500Y-100600000D01*
X179400500Y-96800000D01*
X183244815Y-96800000D01*
X183263503Y-96977805D01*
X183263504Y-96977807D01*
X183318747Y-97147829D01*
X183318750Y-97147835D01*
X183408141Y-97302665D01*
X183443733Y-97342194D01*
X183527764Y-97435521D01*
X183527767Y-97435523D01*
X183527770Y-97435526D01*
X183672407Y-97540612D01*
X183835733Y-97613329D01*
X184010609Y-97650500D01*
X184010610Y-97650500D01*
X184189389Y-97650500D01*
X184189391Y-97650500D01*
X184364267Y-97613329D01*
X184527593Y-97540612D01*
X184653836Y-97448889D01*
X184719640Y-97425410D01*
X184787694Y-97441235D01*
X184799606Y-97448891D01*
X184922401Y-97538108D01*
X184922402Y-97538109D01*
X184922404Y-97538110D01*
X184922407Y-97538112D01*
X185085733Y-97610829D01*
X185260609Y-97648000D01*
X185260610Y-97648000D01*
X185439389Y-97648000D01*
X185439391Y-97648000D01*
X185614267Y-97610829D01*
X185777593Y-97538112D01*
X185871500Y-97469883D01*
X185937305Y-97446404D01*
X186005359Y-97462229D01*
X186036536Y-97487231D01*
X186077765Y-97533022D01*
X186077767Y-97533023D01*
X186077770Y-97533026D01*
X186222407Y-97638112D01*
X186385733Y-97710829D01*
X186560609Y-97748000D01*
X186560610Y-97748000D01*
X186739389Y-97748000D01*
X186739391Y-97748000D01*
X186914267Y-97710829D01*
X187077593Y-97638112D01*
X187222230Y-97533026D01*
X187222233Y-97533023D01*
X187227114Y-97529477D01*
X187292920Y-97505997D01*
X187360974Y-97521822D01*
X187372886Y-97529477D01*
X187377767Y-97533023D01*
X187377770Y-97533026D01*
X187522407Y-97638112D01*
X187685733Y-97710829D01*
X187860609Y-97748000D01*
X187860610Y-97748000D01*
X188039389Y-97748000D01*
X188039391Y-97748000D01*
X188214267Y-97710829D01*
X188377593Y-97638112D01*
X188522230Y-97533026D01*
X188551967Y-97500000D01*
X194644815Y-97500000D01*
X194663503Y-97677805D01*
X194663504Y-97677807D01*
X194718747Y-97847829D01*
X194718750Y-97847835D01*
X194808141Y-98002665D01*
X194849812Y-98048946D01*
X194927764Y-98135521D01*
X194927767Y-98135523D01*
X194927770Y-98135526D01*
X195072407Y-98240612D01*
X195235733Y-98313329D01*
X195410609Y-98350500D01*
X195410610Y-98350500D01*
X195589389Y-98350500D01*
X195589391Y-98350500D01*
X195764267Y-98313329D01*
X195927593Y-98240612D01*
X196072230Y-98135526D01*
X196191859Y-98002665D01*
X196281250Y-97847835D01*
X196336497Y-97677803D01*
X196353083Y-97520000D01*
X205364815Y-97520000D01*
X205383503Y-97697805D01*
X205383504Y-97697807D01*
X205438747Y-97867829D01*
X205438750Y-97867835D01*
X205528141Y-98022665D01*
X205569812Y-98068946D01*
X205647764Y-98155521D01*
X205647767Y-98155523D01*
X205647770Y-98155526D01*
X205792407Y-98260612D01*
X205955733Y-98333329D01*
X206130609Y-98370500D01*
X206130610Y-98370500D01*
X206309389Y-98370500D01*
X206309391Y-98370500D01*
X206484267Y-98333329D01*
X206647593Y-98260612D01*
X206792230Y-98155526D01*
X206911859Y-98022665D01*
X206994281Y-97879904D01*
X207044845Y-97831692D01*
X207075884Y-97820617D01*
X207148273Y-97805230D01*
X207204263Y-97793330D01*
X207204263Y-97793329D01*
X207204267Y-97793329D01*
X207367593Y-97720612D01*
X207512230Y-97615526D01*
X207514209Y-97613329D01*
X207538148Y-97586741D01*
X207616250Y-97500000D01*
X223944901Y-97500000D01*
X223963252Y-97686331D01*
X223963253Y-97686333D01*
X224017604Y-97865502D01*
X224105862Y-98030623D01*
X224105864Y-98030626D01*
X224224642Y-98175357D01*
X224369373Y-98294135D01*
X224369376Y-98294137D01*
X224512243Y-98370500D01*
X224534499Y-98382396D01*
X224658736Y-98420083D01*
X224713666Y-98436746D01*
X224713668Y-98436747D01*
X224730374Y-98438392D01*
X224900000Y-98455099D01*
X225086331Y-98436747D01*
X225265501Y-98382396D01*
X225430625Y-98294136D01*
X225575357Y-98175357D01*
X225694136Y-98030625D01*
X225782396Y-97865501D01*
X225836747Y-97686331D01*
X225851652Y-97535000D01*
X226244706Y-97535000D01*
X226263853Y-97778297D01*
X226263853Y-97778300D01*
X226263854Y-97778302D01*
X226292564Y-97897887D01*
X226320830Y-98015619D01*
X226414222Y-98241089D01*
X226541737Y-98449173D01*
X226541738Y-98449176D01*
X226541741Y-98449179D01*
X226700241Y-98634759D01*
X226812628Y-98730746D01*
X226885823Y-98793261D01*
X226885826Y-98793262D01*
X227093910Y-98920777D01*
X227319381Y-99014169D01*
X227319378Y-99014169D01*
X227319384Y-99014170D01*
X227319388Y-99014172D01*
X227556698Y-99071146D01*
X227800000Y-99090294D01*
X228043302Y-99071146D01*
X228280612Y-99014172D01*
X228506089Y-98920777D01*
X228714179Y-98793259D01*
X228899759Y-98634759D01*
X229058259Y-98449179D01*
X229185777Y-98241089D01*
X229279172Y-98015612D01*
X229336146Y-97778302D01*
X229355294Y-97535000D01*
X236404706Y-97535000D01*
X236423853Y-97778297D01*
X236423853Y-97778300D01*
X236423854Y-97778302D01*
X236452564Y-97897887D01*
X236480830Y-98015619D01*
X236574222Y-98241089D01*
X236701737Y-98449173D01*
X236701738Y-98449176D01*
X236701741Y-98449179D01*
X236860241Y-98634759D01*
X236972628Y-98730746D01*
X237045823Y-98793261D01*
X237045826Y-98793262D01*
X237253910Y-98920777D01*
X237479381Y-99014169D01*
X237479378Y-99014169D01*
X237479384Y-99014170D01*
X237479388Y-99014172D01*
X237716698Y-99071146D01*
X237960000Y-99090294D01*
X238203302Y-99071146D01*
X238440612Y-99014172D01*
X238666089Y-98920777D01*
X238874179Y-98793259D01*
X239059759Y-98634759D01*
X239218259Y-98449179D01*
X239345777Y-98241089D01*
X239439172Y-98015612D01*
X239496146Y-97778302D01*
X239515294Y-97535000D01*
X244024706Y-97535000D01*
X244043853Y-97778297D01*
X244043853Y-97778300D01*
X244043854Y-97778302D01*
X244072564Y-97897887D01*
X244100830Y-98015619D01*
X244194222Y-98241089D01*
X244321737Y-98449173D01*
X244321738Y-98449176D01*
X244321741Y-98449179D01*
X244480241Y-98634759D01*
X244592628Y-98730746D01*
X244665823Y-98793261D01*
X244665826Y-98793262D01*
X244873910Y-98920777D01*
X245099381Y-99014169D01*
X245099378Y-99014169D01*
X245099384Y-99014170D01*
X245099388Y-99014172D01*
X245336698Y-99071146D01*
X245580000Y-99090294D01*
X245823302Y-99071146D01*
X246060612Y-99014172D01*
X246286089Y-98920777D01*
X246494179Y-98793259D01*
X246679759Y-98634759D01*
X246838259Y-98449179D01*
X246965777Y-98241089D01*
X247059172Y-98015612D01*
X247116146Y-97778302D01*
X247135294Y-97535000D01*
X247116146Y-97291698D01*
X247059172Y-97054388D01*
X247043825Y-97017336D01*
X246965777Y-96828910D01*
X246838262Y-96620826D01*
X246838261Y-96620823D01*
X246789091Y-96563253D01*
X246679759Y-96435241D01*
X246557063Y-96330449D01*
X246494176Y-96276738D01*
X246494173Y-96276737D01*
X246286089Y-96149222D01*
X246060618Y-96055830D01*
X246060621Y-96055830D01*
X245954992Y-96030470D01*
X245828084Y-96000002D01*
X258944723Y-96000002D01*
X258949919Y-96059388D01*
X258959778Y-96172089D01*
X258963793Y-96217975D01*
X258963793Y-96217979D01*
X259020422Y-96429322D01*
X259020424Y-96429326D01*
X259020425Y-96429330D01*
X259066661Y-96528484D01*
X259112897Y-96627638D01*
X259112898Y-96627639D01*
X259238402Y-96806877D01*
X259393123Y-96961598D01*
X259572361Y-97087102D01*
X259770670Y-97179575D01*
X259982023Y-97236207D01*
X260164926Y-97252208D01*
X260199998Y-97255277D01*
X260200000Y-97255277D01*
X260200002Y-97255277D01*
X260228254Y-97252805D01*
X260417977Y-97236207D01*
X260629330Y-97179575D01*
X260827639Y-97087102D01*
X261006877Y-96961598D01*
X261161598Y-96806877D01*
X261287102Y-96627639D01*
X261379575Y-96429330D01*
X261436207Y-96217977D01*
X261455277Y-96000000D01*
X261436207Y-95782023D01*
X261379575Y-95570670D01*
X261287102Y-95372362D01*
X261287100Y-95372359D01*
X261287099Y-95372357D01*
X261161599Y-95193124D01*
X261161596Y-95193121D01*
X261006877Y-95038402D01*
X260827639Y-94912898D01*
X260827640Y-94912898D01*
X260827638Y-94912897D01*
X260728484Y-94866661D01*
X260629330Y-94820425D01*
X260629326Y-94820424D01*
X260629322Y-94820422D01*
X260417977Y-94763793D01*
X260200002Y-94744723D01*
X260199998Y-94744723D01*
X260054682Y-94757436D01*
X259982023Y-94763793D01*
X259982020Y-94763793D01*
X259770677Y-94820422D01*
X259770668Y-94820426D01*
X259572361Y-94912898D01*
X259572357Y-94912900D01*
X259393121Y-95038402D01*
X259238402Y-95193121D01*
X259112900Y-95372357D01*
X259112898Y-95372361D01*
X259020426Y-95570668D01*
X259020422Y-95570677D01*
X258963793Y-95782020D01*
X258963793Y-95782024D01*
X258944723Y-95999997D01*
X258944723Y-96000002D01*
X245828084Y-96000002D01*
X245823302Y-95998854D01*
X245823300Y-95998853D01*
X245823297Y-95998853D01*
X245580000Y-95979706D01*
X245336702Y-95998853D01*
X245331916Y-96000002D01*
X245172276Y-96038329D01*
X245099380Y-96055830D01*
X244873910Y-96149222D01*
X244665826Y-96276737D01*
X244665823Y-96276738D01*
X244480241Y-96435241D01*
X244321738Y-96620823D01*
X244321737Y-96620826D01*
X244194222Y-96828910D01*
X244100830Y-97054380D01*
X244043853Y-97291702D01*
X244024706Y-97535000D01*
X239515294Y-97535000D01*
X239496146Y-97291698D01*
X239439172Y-97054388D01*
X239423825Y-97017336D01*
X239345777Y-96828910D01*
X239218262Y-96620826D01*
X239218261Y-96620823D01*
X239169091Y-96563253D01*
X239059759Y-96435241D01*
X238937063Y-96330449D01*
X238874176Y-96276738D01*
X238874173Y-96276737D01*
X238666089Y-96149222D01*
X238440618Y-96055830D01*
X238440621Y-96055830D01*
X238334992Y-96030470D01*
X238203302Y-95998854D01*
X238203300Y-95998853D01*
X238203297Y-95998853D01*
X237960000Y-95979706D01*
X237716702Y-95998853D01*
X237711916Y-96000002D01*
X237552276Y-96038329D01*
X237479380Y-96055830D01*
X237253910Y-96149222D01*
X237045826Y-96276737D01*
X237045823Y-96276738D01*
X236860241Y-96435241D01*
X236701738Y-96620823D01*
X236701737Y-96620826D01*
X236574222Y-96828910D01*
X236480830Y-97054380D01*
X236423853Y-97291702D01*
X236404706Y-97535000D01*
X229355294Y-97535000D01*
X229336146Y-97291698D01*
X229279172Y-97054388D01*
X229263825Y-97017336D01*
X229185777Y-96828910D01*
X229058262Y-96620826D01*
X229058261Y-96620823D01*
X229009091Y-96563253D01*
X228899759Y-96435241D01*
X228777063Y-96330449D01*
X228714176Y-96276738D01*
X228714173Y-96276737D01*
X228506089Y-96149222D01*
X228280618Y-96055830D01*
X228280621Y-96055830D01*
X228174992Y-96030470D01*
X228043302Y-95998854D01*
X228043300Y-95998853D01*
X228043297Y-95998853D01*
X227800000Y-95979706D01*
X227556702Y-95998853D01*
X227551916Y-96000002D01*
X227392276Y-96038329D01*
X227319380Y-96055830D01*
X227093910Y-96149222D01*
X226885826Y-96276737D01*
X226885823Y-96276738D01*
X226700241Y-96435241D01*
X226541738Y-96620823D01*
X226541737Y-96620826D01*
X226414222Y-96828910D01*
X226320830Y-97054380D01*
X226263853Y-97291702D01*
X226244706Y-97535000D01*
X225851652Y-97535000D01*
X225855099Y-97500000D01*
X225836747Y-97313669D01*
X225782396Y-97134499D01*
X225771081Y-97113330D01*
X225694137Y-96969376D01*
X225694135Y-96969373D01*
X225575357Y-96824642D01*
X225430626Y-96705864D01*
X225430623Y-96705862D01*
X225265502Y-96617604D01*
X225086333Y-96563253D01*
X225086331Y-96563252D01*
X224900000Y-96544901D01*
X224713668Y-96563252D01*
X224713666Y-96563253D01*
X224534497Y-96617604D01*
X224369376Y-96705862D01*
X224369373Y-96705864D01*
X224224642Y-96824642D01*
X224105864Y-96969373D01*
X224105862Y-96969376D01*
X224017604Y-97134497D01*
X223963253Y-97313666D01*
X223963252Y-97313668D01*
X223944901Y-97500000D01*
X207616250Y-97500000D01*
X207631859Y-97482665D01*
X207721250Y-97327835D01*
X207755966Y-97220989D01*
X207795403Y-97163314D01*
X207848115Y-97138017D01*
X207933582Y-97119851D01*
X207964263Y-97113330D01*
X207964263Y-97113329D01*
X207964267Y-97113329D01*
X208127593Y-97040612D01*
X208272230Y-96935526D01*
X208391859Y-96802665D01*
X208481250Y-96647835D01*
X208536497Y-96477803D01*
X208536497Y-96477801D01*
X208538505Y-96471622D01*
X208540817Y-96472373D01*
X208568782Y-96420569D01*
X208606445Y-96394549D01*
X208727593Y-96340612D01*
X208872230Y-96235526D01*
X208874713Y-96232769D01*
X208929349Y-96172089D01*
X208991859Y-96102665D01*
X209081250Y-95947835D01*
X209136497Y-95777803D01*
X209155185Y-95600000D01*
X209136497Y-95422197D01*
X209081250Y-95252165D01*
X208991859Y-95097335D01*
X208938795Y-95038402D01*
X208872235Y-94964478D01*
X208872232Y-94964476D01*
X208872231Y-94964475D01*
X208872230Y-94964474D01*
X208727593Y-94859388D01*
X208564267Y-94786671D01*
X208564265Y-94786670D01*
X208436594Y-94759533D01*
X208389391Y-94749500D01*
X208210609Y-94749500D01*
X208179954Y-94756015D01*
X208035733Y-94786670D01*
X208035728Y-94786672D01*
X207872408Y-94859387D01*
X207727768Y-94964475D01*
X207608140Y-95097336D01*
X207518750Y-95252164D01*
X207518747Y-95252170D01*
X207461495Y-95428377D01*
X207459191Y-95427628D01*
X207431177Y-95479470D01*
X207393550Y-95505451D01*
X207272408Y-95559387D01*
X207127768Y-95664475D01*
X207008140Y-95797336D01*
X206918750Y-95952164D01*
X206918748Y-95952168D01*
X206884033Y-96059011D01*
X206844595Y-96116686D01*
X206791883Y-96141982D01*
X206675733Y-96166670D01*
X206675728Y-96166672D01*
X206512408Y-96239387D01*
X206367768Y-96344475D01*
X206248139Y-96477336D01*
X206165720Y-96620092D01*
X206115153Y-96668308D01*
X206084115Y-96679382D01*
X205955732Y-96706671D01*
X205955728Y-96706672D01*
X205792408Y-96779387D01*
X205647768Y-96884475D01*
X205528140Y-97017336D01*
X205438750Y-97172164D01*
X205438747Y-97172170D01*
X205383504Y-97342192D01*
X205383503Y-97342194D01*
X205364815Y-97520000D01*
X196353083Y-97520000D01*
X196355185Y-97500000D01*
X196336497Y-97322197D01*
X196290156Y-97179575D01*
X196281252Y-97152170D01*
X196281249Y-97152164D01*
X196191859Y-96997335D01*
X196136201Y-96935521D01*
X196072235Y-96864478D01*
X196072232Y-96864476D01*
X196072231Y-96864475D01*
X196072230Y-96864474D01*
X195927593Y-96759388D01*
X195764267Y-96686671D01*
X195764265Y-96686670D01*
X195636594Y-96659533D01*
X195589391Y-96649500D01*
X195410609Y-96649500D01*
X195379954Y-96656015D01*
X195235733Y-96686670D01*
X195235728Y-96686672D01*
X195072408Y-96759387D01*
X194927768Y-96864475D01*
X194808140Y-96997336D01*
X194718750Y-97152164D01*
X194718747Y-97152170D01*
X194663504Y-97322192D01*
X194663503Y-97322194D01*
X194644815Y-97500000D01*
X188551967Y-97500000D01*
X188641859Y-97400165D01*
X188731250Y-97245335D01*
X188786497Y-97075303D01*
X188805185Y-96897500D01*
X188786497Y-96719697D01*
X188731250Y-96549665D01*
X188641859Y-96394835D01*
X188593034Y-96340610D01*
X188522235Y-96261978D01*
X188522232Y-96261976D01*
X188522231Y-96261975D01*
X188522230Y-96261974D01*
X188377593Y-96156888D01*
X188214267Y-96084171D01*
X188214265Y-96084170D01*
X188080933Y-96055830D01*
X188039391Y-96047000D01*
X187860609Y-96047000D01*
X187829954Y-96053515D01*
X187685733Y-96084170D01*
X187685728Y-96084172D01*
X187522408Y-96156888D01*
X187522403Y-96156890D01*
X187372885Y-96265522D01*
X187307079Y-96289002D01*
X187239025Y-96273176D01*
X187227114Y-96265522D01*
X187091058Y-96166671D01*
X187077593Y-96156888D01*
X186914267Y-96084171D01*
X186914265Y-96084170D01*
X186780933Y-96055830D01*
X186739391Y-96047000D01*
X186560609Y-96047000D01*
X186529954Y-96053515D01*
X186385733Y-96084170D01*
X186385728Y-96084172D01*
X186222408Y-96156888D01*
X186222403Y-96156890D01*
X186128500Y-96225115D01*
X186062694Y-96248595D01*
X185994640Y-96232769D01*
X185963465Y-96207769D01*
X185922235Y-96161978D01*
X185922232Y-96161976D01*
X185922231Y-96161975D01*
X185922230Y-96161974D01*
X185777593Y-96056888D01*
X185614267Y-95984171D01*
X185614265Y-95984170D01*
X185486594Y-95957033D01*
X185439391Y-95947000D01*
X185260609Y-95947000D01*
X185229954Y-95953515D01*
X185085733Y-95984170D01*
X185085728Y-95984172D01*
X184922408Y-96056888D01*
X184922403Y-96056890D01*
X184796164Y-96148609D01*
X184730358Y-96172089D01*
X184662304Y-96156263D01*
X184650400Y-96148614D01*
X184527593Y-96059388D01*
X184364267Y-95986671D01*
X184364265Y-95986670D01*
X184236594Y-95959533D01*
X184189391Y-95949500D01*
X184010609Y-95949500D01*
X183979954Y-95956015D01*
X183835733Y-95986670D01*
X183835728Y-95986672D01*
X183672408Y-96059387D01*
X183527768Y-96164475D01*
X183408140Y-96297336D01*
X183318750Y-96452164D01*
X183318747Y-96452170D01*
X183263504Y-96622192D01*
X183263503Y-96622194D01*
X183244815Y-96800000D01*
X179400500Y-96800000D01*
X179400500Y-95225000D01*
X194919815Y-95225000D01*
X194938503Y-95402805D01*
X194938504Y-95402807D01*
X194993747Y-95572829D01*
X194993750Y-95572835D01*
X195083141Y-95727665D01*
X195124812Y-95773946D01*
X195202764Y-95860521D01*
X195202767Y-95860523D01*
X195202770Y-95860526D01*
X195347407Y-95965612D01*
X195510733Y-96038329D01*
X195685609Y-96075500D01*
X195685610Y-96075500D01*
X195864389Y-96075500D01*
X195864391Y-96075500D01*
X196039267Y-96038329D01*
X196202593Y-95965612D01*
X196347230Y-95860526D01*
X196466859Y-95727665D01*
X196556250Y-95572835D01*
X196611497Y-95402803D01*
X196630185Y-95225000D01*
X196611497Y-95047197D01*
X196567861Y-94912900D01*
X196556252Y-94877170D01*
X196556249Y-94877164D01*
X196545986Y-94859388D01*
X196466859Y-94722335D01*
X196420003Y-94670296D01*
X196347235Y-94589478D01*
X196347232Y-94589476D01*
X196347231Y-94589475D01*
X196347230Y-94589474D01*
X196202593Y-94484388D01*
X196039267Y-94411671D01*
X196039265Y-94411670D01*
X195911594Y-94384533D01*
X195864391Y-94374500D01*
X195685609Y-94374500D01*
X195654954Y-94381015D01*
X195510733Y-94411670D01*
X195510728Y-94411672D01*
X195347408Y-94484387D01*
X195202768Y-94589475D01*
X195083140Y-94722336D01*
X194993750Y-94877164D01*
X194993747Y-94877170D01*
X194938504Y-95047192D01*
X194938503Y-95047194D01*
X194919815Y-95225000D01*
X179400500Y-95225000D01*
X179400500Y-92500002D01*
X258944723Y-92500002D01*
X258963793Y-92717975D01*
X258963793Y-92717979D01*
X259020422Y-92929322D01*
X259020424Y-92929326D01*
X259020425Y-92929330D01*
X259066661Y-93028484D01*
X259112897Y-93127638D01*
X259112898Y-93127639D01*
X259238402Y-93306877D01*
X259393123Y-93461598D01*
X259572361Y-93587102D01*
X259770670Y-93679575D01*
X259982023Y-93736207D01*
X260164926Y-93752208D01*
X260199998Y-93755277D01*
X260200000Y-93755277D01*
X260200002Y-93755277D01*
X260228254Y-93752805D01*
X260417977Y-93736207D01*
X260629330Y-93679575D01*
X260827639Y-93587102D01*
X261006877Y-93461598D01*
X261161598Y-93306877D01*
X261287102Y-93127639D01*
X261379575Y-92929330D01*
X261436207Y-92717977D01*
X261455277Y-92500000D01*
X261436207Y-92282023D01*
X261379575Y-92070670D01*
X261287102Y-91872362D01*
X261287100Y-91872359D01*
X261287099Y-91872357D01*
X261161599Y-91693124D01*
X261161596Y-91693121D01*
X261006877Y-91538402D01*
X260827639Y-91412898D01*
X260827640Y-91412898D01*
X260827638Y-91412897D01*
X260728484Y-91366661D01*
X260629330Y-91320425D01*
X260629326Y-91320424D01*
X260629322Y-91320422D01*
X260417977Y-91263793D01*
X260200002Y-91244723D01*
X260199998Y-91244723D01*
X260054682Y-91257436D01*
X259982023Y-91263793D01*
X259982020Y-91263793D01*
X259770677Y-91320422D01*
X259770668Y-91320426D01*
X259572361Y-91412898D01*
X259572357Y-91412900D01*
X259393121Y-91538402D01*
X259238402Y-91693121D01*
X259112900Y-91872357D01*
X259112898Y-91872361D01*
X259020426Y-92070668D01*
X259020422Y-92070677D01*
X258963793Y-92282020D01*
X258963793Y-92282024D01*
X258944723Y-92499997D01*
X258944723Y-92500002D01*
X179400500Y-92500002D01*
X179400500Y-89100000D01*
X206194901Y-89100000D01*
X206213252Y-89286331D01*
X206213253Y-89286333D01*
X206267604Y-89465502D01*
X206355862Y-89630623D01*
X206355864Y-89630626D01*
X206474642Y-89775357D01*
X206619373Y-89894135D01*
X206619376Y-89894137D01*
X206745579Y-89961593D01*
X206784499Y-89982396D01*
X206963666Y-90036746D01*
X206963668Y-90036747D01*
X206980374Y-90038392D01*
X207150000Y-90055099D01*
X207336331Y-90036747D01*
X207515501Y-89982396D01*
X207641591Y-89915000D01*
X226244706Y-89915000D01*
X226263853Y-90158297D01*
X226263853Y-90158300D01*
X226263854Y-90158302D01*
X226282557Y-90236206D01*
X226320830Y-90395619D01*
X226414222Y-90621089D01*
X226541737Y-90829173D01*
X226541738Y-90829176D01*
X226541741Y-90829179D01*
X226700241Y-91014759D01*
X226843897Y-91137453D01*
X226885823Y-91173261D01*
X226885826Y-91173262D01*
X227093910Y-91300777D01*
X227319381Y-91394169D01*
X227319378Y-91394169D01*
X227319384Y-91394170D01*
X227319388Y-91394172D01*
X227556698Y-91451146D01*
X227800000Y-91470294D01*
X228043302Y-91451146D01*
X228280612Y-91394172D01*
X228506089Y-91300777D01*
X228714179Y-91173259D01*
X228899759Y-91014759D01*
X229058259Y-90829179D01*
X229185777Y-90621089D01*
X229279172Y-90395612D01*
X229336146Y-90158302D01*
X229355294Y-89915000D01*
X241484706Y-89915000D01*
X241503853Y-90158297D01*
X241503853Y-90158300D01*
X241503854Y-90158302D01*
X241522557Y-90236206D01*
X241560830Y-90395619D01*
X241654222Y-90621089D01*
X241781737Y-90829173D01*
X241781738Y-90829176D01*
X241781741Y-90829179D01*
X241940241Y-91014759D01*
X242083897Y-91137453D01*
X242125823Y-91173261D01*
X242125826Y-91173262D01*
X242333910Y-91300777D01*
X242559381Y-91394169D01*
X242559378Y-91394169D01*
X242559384Y-91394170D01*
X242559388Y-91394172D01*
X242796698Y-91451146D01*
X243040000Y-91470294D01*
X243283302Y-91451146D01*
X243520612Y-91394172D01*
X243746089Y-91300777D01*
X243954179Y-91173259D01*
X244139759Y-91014759D01*
X244298259Y-90829179D01*
X244425777Y-90621089D01*
X244519172Y-90395612D01*
X244576146Y-90158302D01*
X244595294Y-89915000D01*
X244576146Y-89671698D01*
X244519172Y-89434388D01*
X244519169Y-89434380D01*
X244425777Y-89208910D01*
X244298262Y-89000826D01*
X244298261Y-89000823D01*
X244297560Y-89000002D01*
X258944723Y-89000002D01*
X258963793Y-89217975D01*
X258963793Y-89217979D01*
X259020422Y-89429322D01*
X259020424Y-89429326D01*
X259020425Y-89429330D01*
X259066661Y-89528484D01*
X259112897Y-89627638D01*
X259137998Y-89663486D01*
X259238402Y-89806877D01*
X259393123Y-89961598D01*
X259572361Y-90087102D01*
X259770670Y-90179575D01*
X259982023Y-90236207D01*
X260164926Y-90252208D01*
X260199998Y-90255277D01*
X260200000Y-90255277D01*
X260200002Y-90255277D01*
X260228254Y-90252805D01*
X260417977Y-90236207D01*
X260629330Y-90179575D01*
X260827639Y-90087102D01*
X261006877Y-89961598D01*
X261161598Y-89806877D01*
X261287102Y-89627639D01*
X261379575Y-89429330D01*
X261436207Y-89217977D01*
X261455277Y-89000000D01*
X261436207Y-88782023D01*
X261379575Y-88570670D01*
X261287102Y-88372362D01*
X261287100Y-88372359D01*
X261287099Y-88372357D01*
X261161599Y-88193124D01*
X261161596Y-88193121D01*
X261006877Y-88038402D01*
X260827639Y-87912898D01*
X260827640Y-87912898D01*
X260827638Y-87912897D01*
X260728484Y-87866661D01*
X260629330Y-87820425D01*
X260629326Y-87820424D01*
X260629322Y-87820422D01*
X260417977Y-87763793D01*
X260200002Y-87744723D01*
X260199998Y-87744723D01*
X260054682Y-87757436D01*
X259982023Y-87763793D01*
X259982020Y-87763793D01*
X259770677Y-87820422D01*
X259770668Y-87820426D01*
X259572361Y-87912898D01*
X259572357Y-87912900D01*
X259393121Y-88038402D01*
X259238402Y-88193121D01*
X259112900Y-88372357D01*
X259112898Y-88372361D01*
X259020426Y-88570668D01*
X259020422Y-88570677D01*
X258963793Y-88782020D01*
X258963793Y-88782024D01*
X258944723Y-88999997D01*
X258944723Y-89000002D01*
X244297560Y-89000002D01*
X244223823Y-88913668D01*
X244139759Y-88815241D01*
X244017063Y-88710449D01*
X243954176Y-88656738D01*
X243954173Y-88656737D01*
X243746089Y-88529222D01*
X243520618Y-88435830D01*
X243520621Y-88435830D01*
X243414992Y-88410470D01*
X243283302Y-88378854D01*
X243283300Y-88378853D01*
X243283297Y-88378853D01*
X243040000Y-88359706D01*
X242796702Y-88378853D01*
X242559380Y-88435830D01*
X242333910Y-88529222D01*
X242125826Y-88656737D01*
X242125823Y-88656738D01*
X241940241Y-88815241D01*
X241781738Y-89000823D01*
X241781737Y-89000826D01*
X241654222Y-89208910D01*
X241560830Y-89434380D01*
X241503853Y-89671702D01*
X241484706Y-89915000D01*
X229355294Y-89915000D01*
X229336146Y-89671698D01*
X229279172Y-89434388D01*
X229279169Y-89434380D01*
X229185777Y-89208910D01*
X229058262Y-89000826D01*
X229058261Y-89000823D01*
X228983823Y-88913668D01*
X228899759Y-88815241D01*
X228777063Y-88710449D01*
X228714176Y-88656738D01*
X228714173Y-88656737D01*
X228506089Y-88529222D01*
X228280618Y-88435830D01*
X228280621Y-88435830D01*
X228174992Y-88410470D01*
X228043302Y-88378854D01*
X228043300Y-88378853D01*
X228043297Y-88378853D01*
X227800000Y-88359706D01*
X227556702Y-88378853D01*
X227319380Y-88435830D01*
X227093910Y-88529222D01*
X226885826Y-88656737D01*
X226885823Y-88656738D01*
X226700241Y-88815241D01*
X226541738Y-89000823D01*
X226541737Y-89000826D01*
X226414222Y-89208910D01*
X226320830Y-89434380D01*
X226263853Y-89671702D01*
X226244706Y-89915000D01*
X207641591Y-89915000D01*
X207680625Y-89894136D01*
X207825357Y-89775357D01*
X207944136Y-89630625D01*
X208032396Y-89465501D01*
X208086747Y-89286331D01*
X208105099Y-89100000D01*
X208086747Y-88913669D01*
X208032396Y-88734499D01*
X207944832Y-88570677D01*
X207944137Y-88569376D01*
X207944134Y-88569373D01*
X207931244Y-88553666D01*
X207903930Y-88489357D01*
X207915720Y-88420489D01*
X207931244Y-88396334D01*
X207932400Y-88394924D01*
X207944136Y-88380625D01*
X208032396Y-88215501D01*
X208086747Y-88036331D01*
X208105099Y-87850000D01*
X208086747Y-87663669D01*
X208032396Y-87484499D01*
X208032395Y-87484497D01*
X207944137Y-87319376D01*
X207944134Y-87319373D01*
X207931244Y-87303666D01*
X207903930Y-87239357D01*
X207915720Y-87170489D01*
X207931244Y-87146334D01*
X207932400Y-87144924D01*
X207944136Y-87130625D01*
X208032396Y-86965501D01*
X208086747Y-86786331D01*
X208105099Y-86600000D01*
X208086747Y-86413669D01*
X208032396Y-86234499D01*
X207975278Y-86127638D01*
X207960506Y-86100000D01*
X220444901Y-86100000D01*
X220463252Y-86286331D01*
X220463253Y-86286333D01*
X220517604Y-86465502D01*
X220605862Y-86630623D01*
X220605864Y-86630626D01*
X220724642Y-86775357D01*
X220869373Y-86894135D01*
X220869376Y-86894137D01*
X221002890Y-86965501D01*
X221034499Y-86982396D01*
X221213666Y-87036746D01*
X221213668Y-87036747D01*
X221230374Y-87038392D01*
X221400000Y-87055099D01*
X221586331Y-87036747D01*
X221765501Y-86982396D01*
X221930625Y-86894136D01*
X222075357Y-86775357D01*
X222194136Y-86630625D01*
X222282396Y-86465501D01*
X222336747Y-86286331D01*
X222355099Y-86100000D01*
X222336747Y-85913669D01*
X222282396Y-85734499D01*
X222272242Y-85715502D01*
X222194137Y-85569376D01*
X222194135Y-85569373D01*
X222137202Y-85500000D01*
X258944723Y-85500000D01*
X258963576Y-85715502D01*
X258963793Y-85717975D01*
X258963793Y-85717979D01*
X259020422Y-85929322D01*
X259020424Y-85929326D01*
X259020425Y-85929330D01*
X259048416Y-85989357D01*
X259112897Y-86127638D01*
X259112898Y-86127639D01*
X259238402Y-86306877D01*
X259393123Y-86461598D01*
X259572361Y-86587102D01*
X259770670Y-86679575D01*
X259982023Y-86736207D01*
X260164926Y-86752208D01*
X260199998Y-86755277D01*
X260200000Y-86755277D01*
X260200002Y-86755277D01*
X260228254Y-86752805D01*
X260417977Y-86736207D01*
X260629330Y-86679575D01*
X260827639Y-86587102D01*
X261006877Y-86461598D01*
X261161598Y-86306877D01*
X261287102Y-86127639D01*
X261379575Y-85929330D01*
X261436207Y-85717977D01*
X261455277Y-85500000D01*
X261436207Y-85282023D01*
X261379575Y-85070670D01*
X261287102Y-84872362D01*
X261287100Y-84872359D01*
X261287099Y-84872357D01*
X261161599Y-84693124D01*
X261090667Y-84622192D01*
X261006877Y-84538402D01*
X260827639Y-84412898D01*
X260827640Y-84412898D01*
X260827638Y-84412897D01*
X260728484Y-84366661D01*
X260629330Y-84320425D01*
X260629326Y-84320424D01*
X260629322Y-84320422D01*
X260417977Y-84263793D01*
X260200002Y-84244723D01*
X260199998Y-84244723D01*
X260054682Y-84257436D01*
X259982023Y-84263793D01*
X259982020Y-84263793D01*
X259770677Y-84320422D01*
X259770668Y-84320426D01*
X259572361Y-84412898D01*
X259572357Y-84412900D01*
X259393121Y-84538402D01*
X259238402Y-84693121D01*
X259112900Y-84872357D01*
X259112898Y-84872361D01*
X259020426Y-85070668D01*
X259020422Y-85070677D01*
X258963793Y-85282020D01*
X258963793Y-85282024D01*
X258950364Y-85435526D01*
X258944723Y-85500000D01*
X222137202Y-85500000D01*
X222075357Y-85424642D01*
X221930626Y-85305864D01*
X221930623Y-85305862D01*
X221765502Y-85217604D01*
X221586333Y-85163253D01*
X221586331Y-85163252D01*
X221400000Y-85144901D01*
X221213668Y-85163252D01*
X221213666Y-85163253D01*
X221034497Y-85217604D01*
X220869376Y-85305862D01*
X220869373Y-85305864D01*
X220724642Y-85424642D01*
X220605864Y-85569373D01*
X220605862Y-85569376D01*
X220517604Y-85734497D01*
X220463253Y-85913666D01*
X220463252Y-85913668D01*
X220444901Y-86100000D01*
X207960506Y-86100000D01*
X207944137Y-86069376D01*
X207944134Y-86069373D01*
X207931244Y-86053666D01*
X207903930Y-85989357D01*
X207915720Y-85920489D01*
X207931244Y-85896334D01*
X207932400Y-85894924D01*
X207944136Y-85880625D01*
X208032396Y-85715501D01*
X208086747Y-85536331D01*
X208105099Y-85350000D01*
X208088392Y-85180374D01*
X208086747Y-85163668D01*
X208086746Y-85163666D01*
X208086621Y-85163253D01*
X208032396Y-84984499D01*
X207972458Y-84872362D01*
X207944137Y-84819376D01*
X207944135Y-84819373D01*
X207825357Y-84674642D01*
X207680626Y-84555864D01*
X207680623Y-84555862D01*
X207515502Y-84467604D01*
X207336333Y-84413253D01*
X207336331Y-84413252D01*
X207150000Y-84394901D01*
X206963668Y-84413252D01*
X206963666Y-84413253D01*
X206784497Y-84467604D01*
X206619376Y-84555862D01*
X206619373Y-84555864D01*
X206474642Y-84674642D01*
X206355864Y-84819373D01*
X206355862Y-84819376D01*
X206267604Y-84984497D01*
X206213253Y-85163666D01*
X206213252Y-85163668D01*
X206194901Y-85350000D01*
X206213252Y-85536331D01*
X206213253Y-85536333D01*
X206267604Y-85715502D01*
X206355860Y-85880618D01*
X206355864Y-85880625D01*
X206368756Y-85896334D01*
X206368758Y-85896336D01*
X206396070Y-85960646D01*
X206384278Y-86029514D01*
X206368758Y-86053664D01*
X206355864Y-86069375D01*
X206355860Y-86069381D01*
X206267604Y-86234497D01*
X206213253Y-86413666D01*
X206213252Y-86413668D01*
X206194901Y-86600000D01*
X206213252Y-86786331D01*
X206213253Y-86786333D01*
X206267604Y-86965502D01*
X206355860Y-87130618D01*
X206355864Y-87130625D01*
X206368756Y-87146334D01*
X206368758Y-87146336D01*
X206396070Y-87210646D01*
X206384278Y-87279514D01*
X206368758Y-87303664D01*
X206355864Y-87319375D01*
X206355860Y-87319381D01*
X206267604Y-87484497D01*
X206213253Y-87663666D01*
X206213252Y-87663668D01*
X206194901Y-87850000D01*
X206213252Y-88036331D01*
X206213253Y-88036333D01*
X206267604Y-88215502D01*
X206351447Y-88372361D01*
X206355864Y-88380625D01*
X206368756Y-88396334D01*
X206368758Y-88396336D01*
X206396070Y-88460646D01*
X206384278Y-88529514D01*
X206368758Y-88553664D01*
X206355864Y-88569375D01*
X206355860Y-88569381D01*
X206267604Y-88734497D01*
X206213253Y-88913666D01*
X206213252Y-88913668D01*
X206194901Y-89100000D01*
X179400500Y-89100000D01*
X179400500Y-84000000D01*
X183344815Y-84000000D01*
X183363503Y-84177805D01*
X183363504Y-84177807D01*
X183418747Y-84347829D01*
X183418750Y-84347835D01*
X183508141Y-84502665D01*
X183538288Y-84536146D01*
X183627764Y-84635521D01*
X183627767Y-84635523D01*
X183627770Y-84635526D01*
X183772407Y-84740612D01*
X183935733Y-84813329D01*
X184110609Y-84850500D01*
X184110610Y-84850500D01*
X184289389Y-84850500D01*
X184289391Y-84850500D01*
X184464267Y-84813329D01*
X184494205Y-84800000D01*
X199570815Y-84800000D01*
X199589503Y-84977805D01*
X199589504Y-84977807D01*
X199644747Y-85147829D01*
X199644750Y-85147835D01*
X199734141Y-85302665D01*
X199775812Y-85348946D01*
X199853764Y-85435521D01*
X199853767Y-85435523D01*
X199853770Y-85435526D01*
X199998407Y-85540612D01*
X200161733Y-85613329D01*
X200336609Y-85650500D01*
X200336610Y-85650500D01*
X200515389Y-85650500D01*
X200515391Y-85650500D01*
X200690267Y-85613329D01*
X200690272Y-85613326D01*
X200696447Y-85611321D01*
X200696930Y-85612810D01*
X200758306Y-85604573D01*
X200821586Y-85634194D01*
X200858807Y-85693324D01*
X200858151Y-85763191D01*
X200857438Y-85765457D01*
X200839005Y-85822189D01*
X200839003Y-85822194D01*
X200820315Y-86000000D01*
X200839003Y-86177805D01*
X200839004Y-86177807D01*
X200894247Y-86347829D01*
X200894250Y-86347835D01*
X200983641Y-86502665D01*
X201025312Y-86548946D01*
X201103264Y-86635521D01*
X201103267Y-86635523D01*
X201103270Y-86635526D01*
X201247907Y-86740612D01*
X201411233Y-86813329D01*
X201586109Y-86850500D01*
X201586110Y-86850500D01*
X201764889Y-86850500D01*
X201764891Y-86850500D01*
X201939767Y-86813329D01*
X202103093Y-86740612D01*
X202247730Y-86635526D01*
X202367359Y-86502665D01*
X202456750Y-86347835D01*
X202511997Y-86177803D01*
X202530685Y-86000000D01*
X202511997Y-85822197D01*
X202477329Y-85715501D01*
X202456752Y-85652170D01*
X202456749Y-85652164D01*
X202367359Y-85497335D01*
X202301906Y-85424642D01*
X202247735Y-85364478D01*
X202247732Y-85364476D01*
X202247731Y-85364475D01*
X202247730Y-85364474D01*
X202103093Y-85259388D01*
X201939767Y-85186671D01*
X201939765Y-85186670D01*
X201812094Y-85159533D01*
X201764891Y-85149500D01*
X201586109Y-85149500D01*
X201555454Y-85156015D01*
X201411233Y-85186670D01*
X201405049Y-85188680D01*
X201404567Y-85187197D01*
X201343150Y-85195418D01*
X201279880Y-85165775D01*
X201242680Y-85106632D01*
X201243361Y-85036765D01*
X201244043Y-85034596D01*
X201262497Y-84977803D01*
X201281185Y-84800000D01*
X201262497Y-84622197D01*
X201216024Y-84479169D01*
X201207252Y-84452170D01*
X201207249Y-84452164D01*
X201117859Y-84297335D01*
X201070487Y-84244723D01*
X200998235Y-84164478D01*
X200998232Y-84164476D01*
X200998231Y-84164475D01*
X200998230Y-84164474D01*
X200853593Y-84059388D01*
X200690267Y-83986671D01*
X200690265Y-83986670D01*
X200541732Y-83955099D01*
X200515391Y-83949500D01*
X200336609Y-83949500D01*
X200310268Y-83955099D01*
X200161733Y-83986670D01*
X200161728Y-83986672D01*
X199998408Y-84059387D01*
X199853768Y-84164475D01*
X199734140Y-84297336D01*
X199644750Y-84452164D01*
X199644747Y-84452170D01*
X199589504Y-84622192D01*
X199589503Y-84622194D01*
X199570815Y-84800000D01*
X184494205Y-84800000D01*
X184627593Y-84740612D01*
X184772230Y-84635526D01*
X184784235Y-84622194D01*
X184861712Y-84536146D01*
X184891859Y-84502665D01*
X184922310Y-84449921D01*
X184972875Y-84401706D01*
X185041482Y-84388482D01*
X185106347Y-84414449D01*
X185121847Y-84428948D01*
X185127770Y-84435526D01*
X185272407Y-84540612D01*
X185435733Y-84613329D01*
X185610609Y-84650500D01*
X185610610Y-84650500D01*
X185789389Y-84650500D01*
X185789391Y-84650500D01*
X185964267Y-84613329D01*
X186127593Y-84540612D01*
X186272230Y-84435526D01*
X186292605Y-84412898D01*
X186308809Y-84394901D01*
X186391859Y-84302665D01*
X186481250Y-84147835D01*
X186536497Y-83977803D01*
X186544674Y-83900000D01*
X221144901Y-83900000D01*
X221163252Y-84086331D01*
X221163253Y-84086333D01*
X221217604Y-84265502D01*
X221305862Y-84430623D01*
X221305864Y-84430626D01*
X221424642Y-84575357D01*
X221569373Y-84694135D01*
X221569376Y-84694137D01*
X221656322Y-84740610D01*
X221734499Y-84782396D01*
X221856402Y-84819375D01*
X221913666Y-84836746D01*
X221913668Y-84836747D01*
X221930374Y-84838392D01*
X222100000Y-84855099D01*
X222286331Y-84836747D01*
X222465501Y-84782396D01*
X222630625Y-84694136D01*
X222775357Y-84575357D01*
X222894136Y-84430625D01*
X222982396Y-84265501D01*
X223036747Y-84086331D01*
X223055099Y-83900000D01*
X223036747Y-83713669D01*
X222982396Y-83534499D01*
X222938388Y-83452165D01*
X222894137Y-83369376D01*
X222894135Y-83369373D01*
X222775357Y-83224642D01*
X222630626Y-83105864D01*
X222630623Y-83105862D01*
X222465502Y-83017604D01*
X222407470Y-83000000D01*
X223944901Y-83000000D01*
X223963252Y-83186331D01*
X223963253Y-83186333D01*
X224017604Y-83365502D01*
X224105862Y-83530623D01*
X224105864Y-83530626D01*
X224224642Y-83675357D01*
X224369373Y-83794135D01*
X224369376Y-83794137D01*
X224534497Y-83882395D01*
X224534499Y-83882396D01*
X224639273Y-83914179D01*
X224713666Y-83936746D01*
X224713668Y-83936747D01*
X224730374Y-83938392D01*
X224900000Y-83955099D01*
X225086331Y-83936747D01*
X225265501Y-83882396D01*
X225430625Y-83794136D01*
X225575357Y-83675357D01*
X225694136Y-83530625D01*
X225782396Y-83365501D01*
X225836747Y-83186331D01*
X225855099Y-83000000D01*
X226284706Y-83000000D01*
X226303853Y-83243297D01*
X226303853Y-83243300D01*
X226303854Y-83243302D01*
X226353998Y-83452165D01*
X226360830Y-83480619D01*
X226454222Y-83706089D01*
X226581737Y-83914173D01*
X226581738Y-83914176D01*
X226581741Y-83914179D01*
X226740241Y-84099759D01*
X226831624Y-84177807D01*
X226925823Y-84258261D01*
X226925825Y-84258261D01*
X226945505Y-84270321D01*
X227133910Y-84385777D01*
X227359381Y-84479169D01*
X227359378Y-84479169D01*
X227359384Y-84479170D01*
X227359388Y-84479172D01*
X227596698Y-84536146D01*
X227840000Y-84555294D01*
X228083302Y-84536146D01*
X228320612Y-84479172D01*
X228546089Y-84385777D01*
X228754179Y-84258259D01*
X228939759Y-84099759D01*
X229098259Y-83914179D01*
X229225777Y-83706089D01*
X229319172Y-83480612D01*
X229376146Y-83243302D01*
X229395294Y-83000000D01*
X236444706Y-83000000D01*
X236463853Y-83243297D01*
X236463853Y-83243300D01*
X236463854Y-83243302D01*
X236513998Y-83452165D01*
X236520830Y-83480619D01*
X236614222Y-83706089D01*
X236741737Y-83914173D01*
X236741738Y-83914176D01*
X236741741Y-83914179D01*
X236900241Y-84099759D01*
X236991624Y-84177807D01*
X237085823Y-84258261D01*
X237085825Y-84258261D01*
X237105505Y-84270321D01*
X237293910Y-84385777D01*
X237519381Y-84479169D01*
X237519378Y-84479169D01*
X237519384Y-84479170D01*
X237519388Y-84479172D01*
X237756698Y-84536146D01*
X238000000Y-84555294D01*
X238243302Y-84536146D01*
X238480612Y-84479172D01*
X238706089Y-84385777D01*
X238914179Y-84258259D01*
X239099759Y-84099759D01*
X239258259Y-83914179D01*
X239385777Y-83706089D01*
X239479172Y-83480612D01*
X239536146Y-83243302D01*
X239555294Y-83000000D01*
X244064706Y-83000000D01*
X244083853Y-83243297D01*
X244083853Y-83243300D01*
X244083854Y-83243302D01*
X244133998Y-83452165D01*
X244140830Y-83480619D01*
X244234222Y-83706089D01*
X244361737Y-83914173D01*
X244361738Y-83914176D01*
X244361741Y-83914179D01*
X244520241Y-84099759D01*
X244611624Y-84177807D01*
X244705823Y-84258261D01*
X244705825Y-84258261D01*
X244725505Y-84270321D01*
X244913910Y-84385777D01*
X245139381Y-84479169D01*
X245139378Y-84479169D01*
X245139384Y-84479170D01*
X245139388Y-84479172D01*
X245376698Y-84536146D01*
X245620000Y-84555294D01*
X245863302Y-84536146D01*
X246100612Y-84479172D01*
X246326089Y-84385777D01*
X246534179Y-84258259D01*
X246719759Y-84099759D01*
X246878259Y-83914179D01*
X247005777Y-83706089D01*
X247099172Y-83480612D01*
X247156146Y-83243302D01*
X247175294Y-83000000D01*
X247156146Y-82756698D01*
X247099172Y-82519388D01*
X247092245Y-82502665D01*
X247005777Y-82293910D01*
X246878262Y-82085826D01*
X246878261Y-82085823D01*
X246842453Y-82043897D01*
X246804963Y-82000002D01*
X258944723Y-82000002D01*
X258963793Y-82217975D01*
X258963793Y-82217979D01*
X259020422Y-82429322D01*
X259020424Y-82429326D01*
X259020425Y-82429330D01*
X259043030Y-82477807D01*
X259112897Y-82627638D01*
X259127035Y-82647829D01*
X259238402Y-82806877D01*
X259393123Y-82961598D01*
X259572361Y-83087102D01*
X259770670Y-83179575D01*
X259982023Y-83236207D01*
X260164926Y-83252208D01*
X260199998Y-83255277D01*
X260200000Y-83255277D01*
X260200002Y-83255277D01*
X260228254Y-83252805D01*
X260417977Y-83236207D01*
X260629330Y-83179575D01*
X260827639Y-83087102D01*
X261006877Y-82961598D01*
X261161598Y-82806877D01*
X261287102Y-82627639D01*
X261379575Y-82429330D01*
X261436207Y-82217977D01*
X261455277Y-82000000D01*
X261436207Y-81782023D01*
X261379575Y-81570670D01*
X261287102Y-81372362D01*
X261287100Y-81372359D01*
X261287099Y-81372357D01*
X261161599Y-81193124D01*
X261117975Y-81149500D01*
X261006877Y-81038402D01*
X260827639Y-80912898D01*
X260827640Y-80912898D01*
X260827638Y-80912897D01*
X260728484Y-80866661D01*
X260629330Y-80820425D01*
X260629326Y-80820424D01*
X260629322Y-80820422D01*
X260417977Y-80763793D01*
X260200002Y-80744723D01*
X260199998Y-80744723D01*
X260054682Y-80757436D01*
X259982023Y-80763793D01*
X259982020Y-80763793D01*
X259770677Y-80820422D01*
X259770668Y-80820426D01*
X259572361Y-80912898D01*
X259572357Y-80912900D01*
X259393121Y-81038402D01*
X259238402Y-81193121D01*
X259112900Y-81372357D01*
X259112898Y-81372361D01*
X259020426Y-81570668D01*
X259020422Y-81570677D01*
X258963793Y-81782020D01*
X258963793Y-81782024D01*
X258944723Y-81999997D01*
X258944723Y-82000002D01*
X246804963Y-82000002D01*
X246719759Y-81900241D01*
X246597063Y-81795449D01*
X246534176Y-81741738D01*
X246534173Y-81741737D01*
X246326089Y-81614222D01*
X246100618Y-81520830D01*
X246100621Y-81520830D01*
X245958336Y-81486670D01*
X245863302Y-81463854D01*
X245863300Y-81463853D01*
X245863297Y-81463853D01*
X245620000Y-81444706D01*
X245376702Y-81463853D01*
X245139380Y-81520830D01*
X244913910Y-81614222D01*
X244705826Y-81741737D01*
X244705823Y-81741738D01*
X244520241Y-81900241D01*
X244361738Y-82085823D01*
X244361737Y-82085826D01*
X244234222Y-82293910D01*
X244140830Y-82519380D01*
X244140828Y-82519387D01*
X244140828Y-82519388D01*
X244112946Y-82635523D01*
X244083853Y-82756702D01*
X244064706Y-83000000D01*
X239555294Y-83000000D01*
X239536146Y-82756698D01*
X239479172Y-82519388D01*
X239472245Y-82502665D01*
X239385777Y-82293910D01*
X239258262Y-82085826D01*
X239258261Y-82085823D01*
X239222453Y-82043897D01*
X239099759Y-81900241D01*
X238977063Y-81795449D01*
X238914176Y-81741738D01*
X238914173Y-81741737D01*
X238706089Y-81614222D01*
X238480618Y-81520830D01*
X238480621Y-81520830D01*
X238338336Y-81486670D01*
X238243302Y-81463854D01*
X238243300Y-81463853D01*
X238243297Y-81463853D01*
X238000000Y-81444706D01*
X237756702Y-81463853D01*
X237519380Y-81520830D01*
X237293910Y-81614222D01*
X237085826Y-81741737D01*
X237085823Y-81741738D01*
X236900241Y-81900241D01*
X236741738Y-82085823D01*
X236741737Y-82085826D01*
X236614222Y-82293910D01*
X236520830Y-82519380D01*
X236520828Y-82519387D01*
X236520828Y-82519388D01*
X236492946Y-82635523D01*
X236463853Y-82756702D01*
X236444706Y-83000000D01*
X229395294Y-83000000D01*
X229376146Y-82756698D01*
X229319172Y-82519388D01*
X229312245Y-82502665D01*
X229225777Y-82293910D01*
X229098262Y-82085826D01*
X229098261Y-82085823D01*
X229062453Y-82043897D01*
X228939759Y-81900241D01*
X228817063Y-81795449D01*
X228754176Y-81741738D01*
X228754173Y-81741737D01*
X228546089Y-81614222D01*
X228320618Y-81520830D01*
X228320621Y-81520830D01*
X228178336Y-81486670D01*
X228083302Y-81463854D01*
X228083300Y-81463853D01*
X228083297Y-81463853D01*
X227840000Y-81444706D01*
X227596702Y-81463853D01*
X227359380Y-81520830D01*
X227133910Y-81614222D01*
X226925826Y-81741737D01*
X226925823Y-81741738D01*
X226740241Y-81900241D01*
X226581738Y-82085823D01*
X226581737Y-82085826D01*
X226454222Y-82293910D01*
X226360830Y-82519380D01*
X226360828Y-82519387D01*
X226360828Y-82519388D01*
X226332946Y-82635523D01*
X226303853Y-82756702D01*
X226284706Y-83000000D01*
X225855099Y-83000000D01*
X225836747Y-82813669D01*
X225782396Y-82634499D01*
X225778729Y-82627638D01*
X225694137Y-82469376D01*
X225694135Y-82469373D01*
X225575357Y-82324642D01*
X225430626Y-82205864D01*
X225430623Y-82205862D01*
X225265502Y-82117604D01*
X225086333Y-82063253D01*
X225086331Y-82063252D01*
X224900000Y-82044901D01*
X224713668Y-82063252D01*
X224713666Y-82063253D01*
X224534497Y-82117604D01*
X224369376Y-82205862D01*
X224369373Y-82205864D01*
X224224642Y-82324642D01*
X224105864Y-82469373D01*
X224105862Y-82469376D01*
X224017604Y-82634497D01*
X223963253Y-82813666D01*
X223963252Y-82813668D01*
X223944901Y-83000000D01*
X222407470Y-83000000D01*
X222286333Y-82963253D01*
X222286331Y-82963252D01*
X222100000Y-82944901D01*
X221913668Y-82963252D01*
X221913666Y-82963253D01*
X221734497Y-83017604D01*
X221569376Y-83105862D01*
X221569373Y-83105864D01*
X221424642Y-83224642D01*
X221305864Y-83369373D01*
X221305862Y-83369376D01*
X221217604Y-83534497D01*
X221163253Y-83713666D01*
X221163252Y-83713668D01*
X221144901Y-83900000D01*
X186544674Y-83900000D01*
X186555185Y-83800000D01*
X186536497Y-83622197D01*
X186495927Y-83497335D01*
X186481252Y-83452170D01*
X186481249Y-83452164D01*
X186457781Y-83411516D01*
X186391859Y-83297335D01*
X186326406Y-83224642D01*
X186272235Y-83164478D01*
X186272232Y-83164476D01*
X186272231Y-83164475D01*
X186272230Y-83164474D01*
X186127593Y-83059388D01*
X185964267Y-82986671D01*
X185964265Y-82986670D01*
X185836594Y-82959533D01*
X185789391Y-82949500D01*
X185610609Y-82949500D01*
X185579954Y-82956015D01*
X185435733Y-82986670D01*
X185435728Y-82986672D01*
X185272408Y-83059387D01*
X185127768Y-83164475D01*
X185008141Y-83297334D01*
X184977689Y-83350079D01*
X184927121Y-83398294D01*
X184858514Y-83411516D01*
X184793650Y-83385548D01*
X184778152Y-83371050D01*
X184772235Y-83364478D01*
X184772232Y-83364476D01*
X184772231Y-83364475D01*
X184772230Y-83364474D01*
X184627593Y-83259388D01*
X184464267Y-83186671D01*
X184464265Y-83186670D01*
X184336594Y-83159533D01*
X184289391Y-83149500D01*
X184110609Y-83149500D01*
X184079954Y-83156015D01*
X183935733Y-83186670D01*
X183935728Y-83186672D01*
X183772408Y-83259387D01*
X183627768Y-83364475D01*
X183508140Y-83497336D01*
X183418750Y-83652164D01*
X183418747Y-83652170D01*
X183363504Y-83822192D01*
X183363503Y-83822194D01*
X183344815Y-84000000D01*
X179400500Y-84000000D01*
X179400500Y-82000000D01*
X198144815Y-82000000D01*
X198163503Y-82177805D01*
X198163504Y-82177807D01*
X198218747Y-82347829D01*
X198218750Y-82347835D01*
X198308141Y-82502665D01*
X198323199Y-82519388D01*
X198427764Y-82635521D01*
X198427767Y-82635523D01*
X198427770Y-82635526D01*
X198572407Y-82740612D01*
X198735733Y-82813329D01*
X198910609Y-82850500D01*
X198910610Y-82850500D01*
X199089389Y-82850500D01*
X199089391Y-82850500D01*
X199264267Y-82813329D01*
X199427593Y-82740612D01*
X199572230Y-82635526D01*
X199579333Y-82627638D01*
X199598148Y-82606741D01*
X199691859Y-82502665D01*
X199781250Y-82347835D01*
X199796793Y-82300000D01*
X207644815Y-82300000D01*
X207663503Y-82477805D01*
X207663504Y-82477807D01*
X207718747Y-82647829D01*
X207718750Y-82647835D01*
X207808141Y-82802665D01*
X207849812Y-82848946D01*
X207927764Y-82935521D01*
X207927767Y-82935523D01*
X207927770Y-82935526D01*
X208072407Y-83040612D01*
X208235733Y-83113329D01*
X208410609Y-83150500D01*
X208410610Y-83150500D01*
X208589389Y-83150500D01*
X208589391Y-83150500D01*
X208764267Y-83113329D01*
X208927593Y-83040612D01*
X209072230Y-82935526D01*
X209191859Y-82802665D01*
X209281250Y-82647835D01*
X209336497Y-82477803D01*
X209355185Y-82300000D01*
X209336497Y-82122197D01*
X209281250Y-81952165D01*
X209191859Y-81797335D01*
X209141798Y-81741737D01*
X209072235Y-81664478D01*
X209072232Y-81664476D01*
X209072231Y-81664475D01*
X209072230Y-81664474D01*
X208927593Y-81559388D01*
X208764267Y-81486671D01*
X208764265Y-81486670D01*
X208636594Y-81459533D01*
X208589391Y-81449500D01*
X208410609Y-81449500D01*
X208379954Y-81456015D01*
X208235733Y-81486670D01*
X208235728Y-81486672D01*
X208072408Y-81559387D01*
X207927768Y-81664475D01*
X207808140Y-81797336D01*
X207718750Y-81952164D01*
X207718747Y-81952170D01*
X207663504Y-82122192D01*
X207663503Y-82122194D01*
X207644815Y-82300000D01*
X199796793Y-82300000D01*
X199836497Y-82177803D01*
X199855185Y-82000000D01*
X199836497Y-81822197D01*
X199785250Y-81664475D01*
X199781252Y-81652170D01*
X199781249Y-81652164D01*
X199759344Y-81614223D01*
X199691859Y-81497335D01*
X199644471Y-81444706D01*
X199572235Y-81364478D01*
X199572232Y-81364476D01*
X199572231Y-81364475D01*
X199572230Y-81364474D01*
X199427593Y-81259388D01*
X199264267Y-81186671D01*
X199264265Y-81186670D01*
X199136594Y-81159533D01*
X199089391Y-81149500D01*
X198910609Y-81149500D01*
X198879954Y-81156015D01*
X198735733Y-81186670D01*
X198735728Y-81186672D01*
X198572408Y-81259387D01*
X198427768Y-81364475D01*
X198308140Y-81497336D01*
X198218750Y-81652164D01*
X198218747Y-81652170D01*
X198163504Y-81822192D01*
X198163503Y-81822194D01*
X198144815Y-82000000D01*
X179400500Y-82000000D01*
X179400500Y-79800000D01*
X207444815Y-79800000D01*
X207463503Y-79977805D01*
X207463504Y-79977807D01*
X207518747Y-80147829D01*
X207518750Y-80147835D01*
X207608141Y-80302665D01*
X207649812Y-80348946D01*
X207727764Y-80435521D01*
X207727767Y-80435523D01*
X207727770Y-80435526D01*
X207872407Y-80540612D01*
X208035733Y-80613329D01*
X208210609Y-80650500D01*
X208210610Y-80650500D01*
X208389389Y-80650500D01*
X208389391Y-80650500D01*
X208564267Y-80613329D01*
X208727593Y-80540612D01*
X208872230Y-80435526D01*
X208991859Y-80302665D01*
X209081250Y-80147835D01*
X209136497Y-79977803D01*
X209155185Y-79800000D01*
X209136497Y-79622197D01*
X209084315Y-79461598D01*
X209081252Y-79452170D01*
X209081249Y-79452164D01*
X208997370Y-79306881D01*
X208991859Y-79297335D01*
X208945003Y-79245296D01*
X208872235Y-79164478D01*
X208872232Y-79164476D01*
X208872231Y-79164475D01*
X208872230Y-79164474D01*
X208727593Y-79059388D01*
X208564267Y-78986671D01*
X208564265Y-78986670D01*
X208436594Y-78959533D01*
X208389391Y-78949500D01*
X208210609Y-78949500D01*
X208179954Y-78956015D01*
X208035733Y-78986670D01*
X208035728Y-78986672D01*
X207872408Y-79059387D01*
X207727768Y-79164475D01*
X207608140Y-79297336D01*
X207518750Y-79452164D01*
X207518747Y-79452170D01*
X207463504Y-79622192D01*
X207463503Y-79622194D01*
X207444815Y-79800000D01*
X179400500Y-79800000D01*
X179400500Y-78500002D01*
X258944723Y-78500002D01*
X258963793Y-78717975D01*
X258963793Y-78717979D01*
X259020422Y-78929322D01*
X259020424Y-78929326D01*
X259020425Y-78929330D01*
X259047163Y-78986670D01*
X259112897Y-79127638D01*
X259112898Y-79127639D01*
X259238402Y-79306877D01*
X259393123Y-79461598D01*
X259572361Y-79587102D01*
X259770670Y-79679575D01*
X259982023Y-79736207D01*
X260164926Y-79752208D01*
X260199998Y-79755277D01*
X260200000Y-79755277D01*
X260200002Y-79755277D01*
X260228254Y-79752805D01*
X260417977Y-79736207D01*
X260629330Y-79679575D01*
X260827639Y-79587102D01*
X261006877Y-79461598D01*
X261161598Y-79306877D01*
X261287102Y-79127639D01*
X261379575Y-78929330D01*
X261436207Y-78717977D01*
X261455277Y-78500000D01*
X261436207Y-78282023D01*
X261379575Y-78070670D01*
X261287102Y-77872362D01*
X261287100Y-77872359D01*
X261287099Y-77872357D01*
X261161599Y-77693124D01*
X261161596Y-77693121D01*
X261006877Y-77538402D01*
X260827639Y-77412898D01*
X260827640Y-77412898D01*
X260827638Y-77412897D01*
X260728484Y-77366661D01*
X260629330Y-77320425D01*
X260629326Y-77320424D01*
X260629322Y-77320422D01*
X260417977Y-77263793D01*
X260200002Y-77244723D01*
X260199998Y-77244723D01*
X260054682Y-77257436D01*
X259982023Y-77263793D01*
X259982020Y-77263793D01*
X259770677Y-77320422D01*
X259770668Y-77320426D01*
X259572361Y-77412898D01*
X259572357Y-77412900D01*
X259393121Y-77538402D01*
X259238402Y-77693121D01*
X259112900Y-77872357D01*
X259112898Y-77872361D01*
X259020426Y-78070668D01*
X259020422Y-78070677D01*
X258963793Y-78282020D01*
X258963793Y-78282024D01*
X258944723Y-78499997D01*
X258944723Y-78500002D01*
X179400500Y-78500002D01*
X179400500Y-77200000D01*
X197645315Y-77200000D01*
X197664003Y-77377805D01*
X197664004Y-77377807D01*
X197719247Y-77547829D01*
X197719250Y-77547835D01*
X197808641Y-77702665D01*
X197850312Y-77748946D01*
X197928264Y-77835521D01*
X197928267Y-77835523D01*
X197928270Y-77835526D01*
X198072907Y-77940612D01*
X198236233Y-78013329D01*
X198411109Y-78050500D01*
X198411110Y-78050500D01*
X198589889Y-78050500D01*
X198589891Y-78050500D01*
X198764767Y-78013329D01*
X198928093Y-77940612D01*
X199072730Y-77835526D01*
X199192359Y-77702665D01*
X199281750Y-77547835D01*
X199336997Y-77377803D01*
X199355685Y-77200000D01*
X199336997Y-77022197D01*
X199281750Y-76852165D01*
X199192359Y-76697335D01*
X199139167Y-76638259D01*
X199072735Y-76564478D01*
X199072732Y-76564476D01*
X199072731Y-76564475D01*
X199072730Y-76564474D01*
X198928093Y-76459388D01*
X198764767Y-76386671D01*
X198764765Y-76386670D01*
X198637094Y-76359533D01*
X198589891Y-76349500D01*
X198411109Y-76349500D01*
X198380454Y-76356015D01*
X198236233Y-76386670D01*
X198236228Y-76386672D01*
X198072908Y-76459387D01*
X197928268Y-76564475D01*
X197808640Y-76697336D01*
X197719250Y-76852164D01*
X197719247Y-76852170D01*
X197664004Y-77022192D01*
X197664003Y-77022194D01*
X197645315Y-77200000D01*
X179400500Y-77200000D01*
X179400500Y-75380000D01*
X226284706Y-75380000D01*
X226303853Y-75623297D01*
X226360830Y-75860619D01*
X226454222Y-76086089D01*
X226581737Y-76294173D01*
X226581738Y-76294176D01*
X226635449Y-76357063D01*
X226740241Y-76479759D01*
X226883897Y-76602453D01*
X226925823Y-76638261D01*
X226925826Y-76638262D01*
X227133910Y-76765777D01*
X227315347Y-76840930D01*
X227342471Y-76852165D01*
X227359381Y-76859169D01*
X227359378Y-76859169D01*
X227359384Y-76859170D01*
X227359388Y-76859172D01*
X227596698Y-76916146D01*
X227840000Y-76935294D01*
X228083302Y-76916146D01*
X228320612Y-76859172D01*
X228546089Y-76765777D01*
X228754179Y-76638259D01*
X228939759Y-76479759D01*
X229098259Y-76294179D01*
X229225777Y-76086089D01*
X229319172Y-75860612D01*
X229376146Y-75623302D01*
X229395294Y-75380000D01*
X241524706Y-75380000D01*
X241543853Y-75623297D01*
X241600830Y-75860619D01*
X241694222Y-76086089D01*
X241821737Y-76294173D01*
X241821738Y-76294176D01*
X241875449Y-76357063D01*
X241980241Y-76479759D01*
X242123897Y-76602453D01*
X242165823Y-76638261D01*
X242165826Y-76638262D01*
X242373910Y-76765777D01*
X242555347Y-76840930D01*
X242582471Y-76852165D01*
X242599381Y-76859169D01*
X242599378Y-76859169D01*
X242599384Y-76859170D01*
X242599388Y-76859172D01*
X242836698Y-76916146D01*
X243080000Y-76935294D01*
X243323302Y-76916146D01*
X243560612Y-76859172D01*
X243786089Y-76765777D01*
X243994179Y-76638259D01*
X244179759Y-76479759D01*
X244338259Y-76294179D01*
X244465777Y-76086089D01*
X244559172Y-75860612D01*
X244616146Y-75623302D01*
X244635294Y-75380000D01*
X244616146Y-75136698D01*
X244559172Y-74899388D01*
X244465777Y-74673911D01*
X244465777Y-74673910D01*
X244338262Y-74465826D01*
X244338261Y-74465823D01*
X244302453Y-74423897D01*
X244179759Y-74280241D01*
X244057063Y-74175449D01*
X243994176Y-74121738D01*
X243994173Y-74121737D01*
X243786089Y-73994222D01*
X243560618Y-73900830D01*
X243560621Y-73900830D01*
X243454992Y-73875470D01*
X243323302Y-73843854D01*
X243323300Y-73843853D01*
X243323297Y-73843853D01*
X243080000Y-73824706D01*
X242836702Y-73843853D01*
X242599380Y-73900830D01*
X242373910Y-73994222D01*
X242165826Y-74121737D01*
X242165823Y-74121738D01*
X241980241Y-74280241D01*
X241821738Y-74465823D01*
X241821737Y-74465826D01*
X241694222Y-74673910D01*
X241600830Y-74899380D01*
X241543853Y-75136702D01*
X241524706Y-75380000D01*
X229395294Y-75380000D01*
X229376146Y-75136698D01*
X229319172Y-74899388D01*
X229225777Y-74673911D01*
X229225777Y-74673910D01*
X229098262Y-74465826D01*
X229098261Y-74465823D01*
X229062453Y-74423897D01*
X228939759Y-74280241D01*
X228817063Y-74175449D01*
X228754176Y-74121738D01*
X228754173Y-74121737D01*
X228546089Y-73994222D01*
X228320618Y-73900830D01*
X228320621Y-73900830D01*
X228214992Y-73875470D01*
X228083302Y-73843854D01*
X228083300Y-73843853D01*
X228083297Y-73843853D01*
X227840000Y-73824706D01*
X227596702Y-73843853D01*
X227359380Y-73900830D01*
X227133910Y-73994222D01*
X226925826Y-74121737D01*
X226925823Y-74121738D01*
X226740241Y-74280241D01*
X226581738Y-74465823D01*
X226581737Y-74465826D01*
X226454222Y-74673910D01*
X226360830Y-74899380D01*
X226303853Y-75136702D01*
X226284706Y-75380000D01*
X179400500Y-75380000D01*
X179400500Y-73000000D01*
X195744815Y-73000000D01*
X195763503Y-73177805D01*
X195763504Y-73177807D01*
X195818747Y-73347829D01*
X195818750Y-73347835D01*
X195908141Y-73502665D01*
X195949812Y-73548946D01*
X196027764Y-73635521D01*
X196027767Y-73635523D01*
X196027770Y-73635526D01*
X196172407Y-73740612D01*
X196335733Y-73813329D01*
X196510609Y-73850500D01*
X196510610Y-73850500D01*
X196689389Y-73850500D01*
X196689391Y-73850500D01*
X196864267Y-73813329D01*
X197027593Y-73740612D01*
X197172230Y-73635526D01*
X197291859Y-73502665D01*
X197351133Y-73400000D01*
X219744901Y-73400000D01*
X219763252Y-73586331D01*
X219763253Y-73586333D01*
X219817604Y-73765502D01*
X219905862Y-73930623D01*
X219905864Y-73930626D01*
X220024642Y-74075357D01*
X220169373Y-74194135D01*
X220169376Y-74194137D01*
X220330467Y-74280241D01*
X220334499Y-74282396D01*
X220513666Y-74336746D01*
X220513668Y-74336747D01*
X220530374Y-74338392D01*
X220700000Y-74355099D01*
X220886331Y-74336747D01*
X221065501Y-74282396D01*
X221230625Y-74194136D01*
X221375357Y-74075357D01*
X221494136Y-73930625D01*
X221582396Y-73765501D01*
X221636747Y-73586331D01*
X221655099Y-73400000D01*
X221636747Y-73213669D01*
X221582396Y-73034499D01*
X221582395Y-73034497D01*
X221494137Y-72869376D01*
X221494135Y-72869373D01*
X221375357Y-72724642D01*
X221230626Y-72605864D01*
X221230623Y-72605862D01*
X221065502Y-72517604D01*
X220886333Y-72463253D01*
X220886331Y-72463252D01*
X220700000Y-72444901D01*
X220513668Y-72463252D01*
X220513666Y-72463253D01*
X220334497Y-72517604D01*
X220169376Y-72605862D01*
X220169373Y-72605864D01*
X220024642Y-72724642D01*
X219905864Y-72869373D01*
X219905862Y-72869376D01*
X219817604Y-73034497D01*
X219763253Y-73213666D01*
X219763252Y-73213668D01*
X219744901Y-73400000D01*
X197351133Y-73400000D01*
X197381250Y-73347835D01*
X197436497Y-73177803D01*
X197455185Y-73000000D01*
X197436497Y-72822197D01*
X197381250Y-72652165D01*
X197291859Y-72497335D01*
X197244647Y-72444901D01*
X197172235Y-72364478D01*
X197172232Y-72364476D01*
X197172231Y-72364475D01*
X197172230Y-72364474D01*
X197027593Y-72259388D01*
X196894205Y-72200000D01*
X201244815Y-72200000D01*
X201263503Y-72377805D01*
X201263504Y-72377807D01*
X201318747Y-72547829D01*
X201318750Y-72547835D01*
X201408141Y-72702665D01*
X201449812Y-72748946D01*
X201527764Y-72835521D01*
X201527767Y-72835523D01*
X201527770Y-72835526D01*
X201672407Y-72940612D01*
X201835733Y-73013329D01*
X202010609Y-73050500D01*
X202010610Y-73050500D01*
X202189389Y-73050500D01*
X202189391Y-73050500D01*
X202364267Y-73013329D01*
X202527593Y-72940612D01*
X202672230Y-72835526D01*
X202791859Y-72702665D01*
X202881250Y-72547835D01*
X202936497Y-72377803D01*
X202955185Y-72200000D01*
X202936497Y-72022197D01*
X202881250Y-71852165D01*
X202791859Y-71697335D01*
X202710414Y-71606881D01*
X202672235Y-71564478D01*
X202672232Y-71564476D01*
X202672231Y-71564475D01*
X202672230Y-71564474D01*
X202527593Y-71459388D01*
X202364267Y-71386671D01*
X202364265Y-71386670D01*
X202236594Y-71359533D01*
X202189391Y-71349500D01*
X202010609Y-71349500D01*
X201979954Y-71356015D01*
X201835733Y-71386670D01*
X201835728Y-71386672D01*
X201672408Y-71459387D01*
X201527768Y-71564475D01*
X201408140Y-71697336D01*
X201318750Y-71852164D01*
X201318747Y-71852170D01*
X201263504Y-72022192D01*
X201263503Y-72022194D01*
X201244815Y-72200000D01*
X196894205Y-72200000D01*
X196864267Y-72186671D01*
X196864265Y-72186670D01*
X196736594Y-72159533D01*
X196689391Y-72149500D01*
X196510609Y-72149500D01*
X196479954Y-72156015D01*
X196335733Y-72186670D01*
X196335728Y-72186672D01*
X196172408Y-72259387D01*
X196027768Y-72364475D01*
X195908140Y-72497336D01*
X195818750Y-72652164D01*
X195818747Y-72652170D01*
X195763504Y-72822192D01*
X195763503Y-72822194D01*
X195744815Y-73000000D01*
X179400500Y-73000000D01*
X179400500Y-70800002D01*
X182644723Y-70800002D01*
X182663793Y-71017975D01*
X182663793Y-71017979D01*
X182720422Y-71229322D01*
X182720424Y-71229326D01*
X182720425Y-71229330D01*
X182730297Y-71250500D01*
X182812897Y-71427638D01*
X182812898Y-71427639D01*
X182938402Y-71606877D01*
X183093123Y-71761598D01*
X183272361Y-71887102D01*
X183470670Y-71979575D01*
X183682023Y-72036207D01*
X183864926Y-72052208D01*
X183899998Y-72055277D01*
X183900000Y-72055277D01*
X183900002Y-72055277D01*
X183928254Y-72052805D01*
X184117977Y-72036207D01*
X184329330Y-71979575D01*
X184527639Y-71887102D01*
X184706877Y-71761598D01*
X184861598Y-71606877D01*
X184987102Y-71427639D01*
X185079575Y-71229330D01*
X185136207Y-71017977D01*
X185152805Y-70828254D01*
X185155277Y-70800002D01*
X185155277Y-70799997D01*
X185145738Y-70690965D01*
X185136207Y-70582023D01*
X185079575Y-70370670D01*
X184987102Y-70172362D01*
X184987100Y-70172359D01*
X184987099Y-70172357D01*
X184861599Y-69993124D01*
X184818828Y-69950353D01*
X205795168Y-69950353D01*
X205813856Y-70128158D01*
X205813857Y-70128160D01*
X205869100Y-70298182D01*
X205869103Y-70298188D01*
X205958494Y-70453018D01*
X205980509Y-70477468D01*
X206078117Y-70585874D01*
X206078120Y-70585876D01*
X206078123Y-70585879D01*
X206222760Y-70690965D01*
X206386086Y-70763682D01*
X206560962Y-70800853D01*
X206560963Y-70800853D01*
X206739742Y-70800853D01*
X206739744Y-70800853D01*
X206914620Y-70763682D01*
X207077946Y-70690965D01*
X207164374Y-70628169D01*
X207230177Y-70604690D01*
X207287690Y-70615207D01*
X207377675Y-70655271D01*
X207552551Y-70692442D01*
X207552552Y-70692442D01*
X207731331Y-70692442D01*
X207731333Y-70692442D01*
X207906209Y-70655271D01*
X208069535Y-70582554D01*
X208214172Y-70477468D01*
X208333801Y-70344607D01*
X208423192Y-70189777D01*
X208478439Y-70019745D01*
X208491025Y-69900000D01*
X218544901Y-69900000D01*
X218563252Y-70086331D01*
X218563253Y-70086333D01*
X218617604Y-70265502D01*
X218705862Y-70430623D01*
X218705864Y-70430626D01*
X218824642Y-70575357D01*
X218969373Y-70694135D01*
X218969376Y-70694137D01*
X219069828Y-70747829D01*
X219134499Y-70782396D01*
X219313666Y-70836746D01*
X219313668Y-70836747D01*
X219330374Y-70838392D01*
X219500000Y-70855099D01*
X219686331Y-70836747D01*
X219865501Y-70782396D01*
X220030625Y-70694136D01*
X220175357Y-70575357D01*
X220294136Y-70430625D01*
X220310505Y-70400000D01*
X222144815Y-70400000D01*
X222163503Y-70577805D01*
X222163504Y-70577807D01*
X222218747Y-70747829D01*
X222218750Y-70747835D01*
X222308141Y-70902665D01*
X222349812Y-70948946D01*
X222427764Y-71035521D01*
X222427767Y-71035523D01*
X222427770Y-71035526D01*
X222572407Y-71140612D01*
X222735733Y-71213329D01*
X222910609Y-71250500D01*
X222910610Y-71250500D01*
X223089389Y-71250500D01*
X223089391Y-71250500D01*
X223264267Y-71213329D01*
X223427593Y-71140612D01*
X223572230Y-71035526D01*
X223588030Y-71017979D01*
X223598148Y-71006741D01*
X223691859Y-70902665D01*
X223781250Y-70747835D01*
X223836497Y-70577803D01*
X223855185Y-70400000D01*
X223836497Y-70222197D01*
X223781250Y-70052165D01*
X223691859Y-69897335D01*
X223638795Y-69838402D01*
X223572235Y-69764478D01*
X223572232Y-69764476D01*
X223572231Y-69764475D01*
X223572230Y-69764474D01*
X223427593Y-69659388D01*
X223264267Y-69586671D01*
X223264265Y-69586670D01*
X223136594Y-69559533D01*
X223089391Y-69549500D01*
X222910609Y-69549500D01*
X222879954Y-69556015D01*
X222735733Y-69586670D01*
X222735728Y-69586672D01*
X222572408Y-69659387D01*
X222427768Y-69764475D01*
X222308140Y-69897336D01*
X222218750Y-70052164D01*
X222218747Y-70052170D01*
X222163504Y-70222192D01*
X222163503Y-70222194D01*
X222144815Y-70400000D01*
X220310505Y-70400000D01*
X220382396Y-70265501D01*
X220436747Y-70086331D01*
X220455099Y-69900000D01*
X220436747Y-69713669D01*
X220382396Y-69534499D01*
X220360806Y-69494106D01*
X220294137Y-69369376D01*
X220294135Y-69369373D01*
X220175357Y-69224642D01*
X220030626Y-69105864D01*
X220030623Y-69105862D01*
X219865502Y-69017604D01*
X219686333Y-68963253D01*
X219686331Y-68963252D01*
X219500000Y-68944901D01*
X219313668Y-68963252D01*
X219313666Y-68963253D01*
X219134497Y-69017604D01*
X218969376Y-69105862D01*
X218969373Y-69105864D01*
X218824642Y-69224642D01*
X218705864Y-69369373D01*
X218705862Y-69369376D01*
X218617604Y-69534497D01*
X218563253Y-69713666D01*
X218563252Y-69713668D01*
X218544901Y-69900000D01*
X208491025Y-69900000D01*
X208497127Y-69841942D01*
X208478439Y-69664139D01*
X208450815Y-69579123D01*
X208423194Y-69494112D01*
X208423191Y-69494106D01*
X208333801Y-69339277D01*
X208253866Y-69250500D01*
X208214177Y-69206420D01*
X208214174Y-69206418D01*
X208214173Y-69206417D01*
X208214172Y-69206416D01*
X208069535Y-69101330D01*
X207906209Y-69028613D01*
X207906207Y-69028612D01*
X207778536Y-69001475D01*
X207731333Y-68991442D01*
X207552551Y-68991442D01*
X207521896Y-68997957D01*
X207377675Y-69028612D01*
X207377670Y-69028614D01*
X207214351Y-69101329D01*
X207127921Y-69164124D01*
X207062114Y-69187603D01*
X207004602Y-69177085D01*
X206914623Y-69137025D01*
X206914618Y-69137023D01*
X206786947Y-69109886D01*
X206739744Y-69099853D01*
X206560962Y-69099853D01*
X206530307Y-69106368D01*
X206386086Y-69137023D01*
X206386081Y-69137025D01*
X206222761Y-69209740D01*
X206078121Y-69314828D01*
X205958493Y-69447689D01*
X205869103Y-69602517D01*
X205869100Y-69602523D01*
X205813857Y-69772545D01*
X205813856Y-69772547D01*
X205795168Y-69950353D01*
X184818828Y-69950353D01*
X184706877Y-69838402D01*
X184568978Y-69741844D01*
X184527638Y-69712897D01*
X184423075Y-69664139D01*
X184329330Y-69620425D01*
X184329326Y-69620424D01*
X184329322Y-69620422D01*
X184117977Y-69563793D01*
X183900002Y-69544723D01*
X183899998Y-69544723D01*
X183754682Y-69557436D01*
X183682023Y-69563793D01*
X183682020Y-69563793D01*
X183470677Y-69620422D01*
X183470668Y-69620426D01*
X183272361Y-69712898D01*
X183272357Y-69712900D01*
X183093121Y-69838402D01*
X182938402Y-69993121D01*
X182812900Y-70172357D01*
X182812898Y-70172361D01*
X182720426Y-70370668D01*
X182720422Y-70370677D01*
X182663793Y-70582020D01*
X182663793Y-70582024D01*
X182644723Y-70799997D01*
X182644723Y-70800002D01*
X179400500Y-70800002D01*
X179400500Y-67300002D01*
X182644723Y-67300002D01*
X182653705Y-67402663D01*
X182663522Y-67514885D01*
X182663793Y-67517975D01*
X182663793Y-67517979D01*
X182720422Y-67729322D01*
X182720424Y-67729326D01*
X182720425Y-67729330D01*
X182730297Y-67750500D01*
X182812897Y-67927638D01*
X182837998Y-67963486D01*
X182938402Y-68106877D01*
X183093123Y-68261598D01*
X183272361Y-68387102D01*
X183470670Y-68479575D01*
X183682023Y-68536207D01*
X183864926Y-68552208D01*
X183899998Y-68555277D01*
X183900000Y-68555277D01*
X183900002Y-68555277D01*
X183928254Y-68552805D01*
X184117977Y-68536207D01*
X184329330Y-68479575D01*
X184527639Y-68387102D01*
X184706877Y-68261598D01*
X184768475Y-68200000D01*
X221444815Y-68200000D01*
X221463503Y-68377805D01*
X221463504Y-68377807D01*
X221518747Y-68547829D01*
X221518750Y-68547835D01*
X221608141Y-68702665D01*
X221624996Y-68721384D01*
X221727764Y-68835521D01*
X221727767Y-68835523D01*
X221727770Y-68835526D01*
X221872407Y-68940612D01*
X222035733Y-69013329D01*
X222210609Y-69050500D01*
X222210610Y-69050500D01*
X222389389Y-69050500D01*
X222389391Y-69050500D01*
X222564267Y-69013329D01*
X222727593Y-68940612D01*
X222872230Y-68835526D01*
X222874505Y-68833000D01*
X222908258Y-68795513D01*
X222991859Y-68702665D01*
X223081250Y-68547835D01*
X223136497Y-68377803D01*
X223155185Y-68200000D01*
X223136497Y-68022197D01*
X223081250Y-67852165D01*
X222991859Y-67697335D01*
X222991858Y-67697334D01*
X222990405Y-67694817D01*
X222973932Y-67626917D01*
X222996785Y-67560890D01*
X223051706Y-67517699D01*
X223059477Y-67514885D01*
X223064264Y-67513329D01*
X223064267Y-67513329D01*
X223227593Y-67440612D01*
X223372230Y-67335526D01*
X223390263Y-67315499D01*
X223404218Y-67300000D01*
X223491859Y-67202665D01*
X223581250Y-67047835D01*
X223629285Y-66900000D01*
X224944815Y-66900000D01*
X224963503Y-67077805D01*
X224963504Y-67077807D01*
X225018747Y-67247829D01*
X225018750Y-67247835D01*
X225108141Y-67402665D01*
X225142307Y-67440610D01*
X225227764Y-67535521D01*
X225227767Y-67535523D01*
X225227770Y-67535526D01*
X225372407Y-67640612D01*
X225535733Y-67713329D01*
X225710609Y-67750500D01*
X225710610Y-67750500D01*
X225778142Y-67750500D01*
X225845181Y-67770185D01*
X225890936Y-67822989D01*
X225900880Y-67892147D01*
X225885529Y-67936500D01*
X225818750Y-68052164D01*
X225818747Y-68052170D01*
X225763504Y-68222192D01*
X225763503Y-68222194D01*
X225744815Y-68400000D01*
X225763503Y-68577805D01*
X225763504Y-68577807D01*
X225818747Y-68747829D01*
X225818750Y-68747835D01*
X225908141Y-68902665D01*
X225942307Y-68940610D01*
X226027764Y-69035521D01*
X226027767Y-69035523D01*
X226027770Y-69035526D01*
X226172407Y-69140612D01*
X226335733Y-69213329D01*
X226510609Y-69250500D01*
X226510610Y-69250500D01*
X226689389Y-69250500D01*
X226689391Y-69250500D01*
X226864267Y-69213329D01*
X227027593Y-69140612D01*
X227172230Y-69035526D01*
X227178456Y-69028612D01*
X227198148Y-69006741D01*
X227291859Y-68902665D01*
X227381250Y-68747835D01*
X227436497Y-68577803D01*
X227455185Y-68400000D01*
X227436497Y-68222197D01*
X227408873Y-68137181D01*
X227381252Y-68052170D01*
X227381249Y-68052164D01*
X227363945Y-68022192D01*
X227291859Y-67897335D01*
X227245003Y-67845296D01*
X227172235Y-67764478D01*
X227172232Y-67764476D01*
X227172231Y-67764475D01*
X227172230Y-67764474D01*
X227027593Y-67659388D01*
X226864267Y-67586671D01*
X226864265Y-67586670D01*
X226736594Y-67559533D01*
X226689391Y-67549500D01*
X226621858Y-67549500D01*
X226554819Y-67529815D01*
X226509064Y-67477011D01*
X226499120Y-67407853D01*
X226514471Y-67363500D01*
X226530623Y-67335523D01*
X226581250Y-67247835D01*
X226636497Y-67077803D01*
X226655185Y-66900000D01*
X226636497Y-66722197D01*
X226581250Y-66552165D01*
X226491859Y-66397335D01*
X226421177Y-66318835D01*
X226372235Y-66264478D01*
X226372232Y-66264476D01*
X226372231Y-66264475D01*
X226372230Y-66264474D01*
X226227593Y-66159388D01*
X226064267Y-66086671D01*
X226064265Y-66086670D01*
X225936594Y-66059533D01*
X225889391Y-66049500D01*
X225710609Y-66049500D01*
X225679954Y-66056015D01*
X225535733Y-66086670D01*
X225535728Y-66086672D01*
X225372408Y-66159387D01*
X225227768Y-66264475D01*
X225108140Y-66397336D01*
X225018750Y-66552164D01*
X225018747Y-66552170D01*
X224963504Y-66722192D01*
X224963503Y-66722194D01*
X224944815Y-66900000D01*
X223629285Y-66900000D01*
X223636497Y-66877803D01*
X223655185Y-66700000D01*
X223636497Y-66522197D01*
X223581250Y-66352165D01*
X223491859Y-66197335D01*
X223422606Y-66120422D01*
X223372235Y-66064478D01*
X223372232Y-66064476D01*
X223372231Y-66064475D01*
X223372230Y-66064474D01*
X223227593Y-65959388D01*
X223064267Y-65886671D01*
X223064265Y-65886670D01*
X222936594Y-65859533D01*
X222889391Y-65849500D01*
X222710609Y-65849500D01*
X222679954Y-65856015D01*
X222535733Y-65886670D01*
X222535728Y-65886672D01*
X222372408Y-65959387D01*
X222227768Y-66064475D01*
X222108140Y-66197336D01*
X222018750Y-66352164D01*
X222018747Y-66352170D01*
X221963504Y-66522192D01*
X221963503Y-66522194D01*
X221944815Y-66700000D01*
X221963503Y-66877805D01*
X221963504Y-66877807D01*
X222018747Y-67047829D01*
X222018750Y-67047835D01*
X222109594Y-67205182D01*
X222126067Y-67273083D01*
X222103214Y-67339109D01*
X222048293Y-67382300D01*
X222040531Y-67385111D01*
X222035733Y-67386669D01*
X221872408Y-67459387D01*
X221727768Y-67564475D01*
X221608140Y-67697336D01*
X221518750Y-67852164D01*
X221518747Y-67852170D01*
X221463504Y-68022192D01*
X221463503Y-68022194D01*
X221444815Y-68200000D01*
X184768475Y-68200000D01*
X184861598Y-68106877D01*
X184987102Y-67927639D01*
X185079575Y-67729330D01*
X185136207Y-67517977D01*
X185155235Y-67300477D01*
X185155277Y-67300002D01*
X185155277Y-67299997D01*
X185150096Y-67240783D01*
X185136207Y-67082023D01*
X185081486Y-66877803D01*
X185079577Y-66870677D01*
X185079576Y-66870676D01*
X185079575Y-66870670D01*
X184987102Y-66672362D01*
X184987100Y-66672359D01*
X184987099Y-66672357D01*
X184861599Y-66493124D01*
X184788112Y-66419637D01*
X184706877Y-66338402D01*
X184527639Y-66212898D01*
X184527640Y-66212898D01*
X184527638Y-66212897D01*
X184428484Y-66166661D01*
X184329330Y-66120425D01*
X184329326Y-66120424D01*
X184329322Y-66120422D01*
X184117977Y-66063793D01*
X183900002Y-66044723D01*
X183899998Y-66044723D01*
X183754682Y-66057436D01*
X183682023Y-66063793D01*
X183682020Y-66063793D01*
X183470677Y-66120422D01*
X183470668Y-66120426D01*
X183272361Y-66212898D01*
X183272357Y-66212900D01*
X183093121Y-66338402D01*
X182938402Y-66493121D01*
X182812900Y-66672357D01*
X182812898Y-66672361D01*
X182720426Y-66870668D01*
X182720422Y-66870677D01*
X182663793Y-67082020D01*
X182663793Y-67082024D01*
X182644723Y-67299997D01*
X182644723Y-67300002D01*
X179400500Y-67300002D01*
X179400500Y-65100000D01*
X216344815Y-65100000D01*
X216363503Y-65277805D01*
X216363504Y-65277807D01*
X216418747Y-65447829D01*
X216418750Y-65447835D01*
X216508141Y-65602665D01*
X216541824Y-65640074D01*
X216627764Y-65735521D01*
X216627767Y-65735523D01*
X216627770Y-65735526D01*
X216772407Y-65840612D01*
X216935733Y-65913329D01*
X217110609Y-65950500D01*
X217110610Y-65950500D01*
X217289389Y-65950500D01*
X217289391Y-65950500D01*
X217464267Y-65913329D01*
X217627593Y-65840612D01*
X217772230Y-65735526D01*
X217891859Y-65602665D01*
X217981250Y-65447835D01*
X218036497Y-65277803D01*
X218055185Y-65100000D01*
X218036497Y-64922197D01*
X217991073Y-64782396D01*
X217981252Y-64752170D01*
X217981249Y-64752164D01*
X217978750Y-64747835D01*
X217891859Y-64597335D01*
X217821973Y-64519719D01*
X217772235Y-64464478D01*
X217772232Y-64464476D01*
X217772231Y-64464475D01*
X217772230Y-64464474D01*
X217627593Y-64359388D01*
X217464267Y-64286671D01*
X217464265Y-64286670D01*
X217336594Y-64259533D01*
X217289391Y-64249500D01*
X217110609Y-64249500D01*
X217079954Y-64256015D01*
X216935733Y-64286670D01*
X216935728Y-64286672D01*
X216772408Y-64359387D01*
X216627768Y-64464475D01*
X216508140Y-64597336D01*
X216418750Y-64752164D01*
X216418747Y-64752170D01*
X216363504Y-64922192D01*
X216363503Y-64922194D01*
X216344815Y-65100000D01*
X179400500Y-65100000D01*
X179400500Y-63800002D01*
X182644723Y-63800002D01*
X182646764Y-63823329D01*
X182661608Y-63993007D01*
X182663793Y-64017975D01*
X182663793Y-64017979D01*
X182720422Y-64229322D01*
X182720424Y-64229326D01*
X182720425Y-64229330D01*
X182747163Y-64286670D01*
X182812897Y-64427638D01*
X182835810Y-64460361D01*
X182938402Y-64606877D01*
X183093123Y-64761598D01*
X183272361Y-64887102D01*
X183470670Y-64979575D01*
X183682023Y-65036207D01*
X183864926Y-65052208D01*
X183899998Y-65055277D01*
X183900000Y-65055277D01*
X183900002Y-65055277D01*
X183928254Y-65052805D01*
X184117977Y-65036207D01*
X184329330Y-64979575D01*
X184527639Y-64887102D01*
X184706877Y-64761598D01*
X184861598Y-64606877D01*
X184987102Y-64427639D01*
X185079575Y-64229330D01*
X185136207Y-64017977D01*
X185153236Y-63823329D01*
X185155277Y-63800002D01*
X185155277Y-63799997D01*
X185147377Y-63709699D01*
X185136207Y-63582023D01*
X185107664Y-63475500D01*
X200244815Y-63475500D01*
X200263503Y-63653305D01*
X200263504Y-63653307D01*
X200318747Y-63823329D01*
X200318750Y-63823335D01*
X200408141Y-63978165D01*
X200443986Y-64017975D01*
X200527764Y-64111021D01*
X200527767Y-64111023D01*
X200527770Y-64111026D01*
X200672407Y-64216112D01*
X200835733Y-64288829D01*
X201010609Y-64326000D01*
X201010610Y-64326000D01*
X201189389Y-64326000D01*
X201189391Y-64326000D01*
X201364267Y-64288829D01*
X201527593Y-64216112D01*
X201672230Y-64111026D01*
X201683799Y-64098178D01*
X201725224Y-64052170D01*
X201791859Y-63978165D01*
X201836988Y-63900000D01*
X211544901Y-63900000D01*
X211563252Y-64086331D01*
X211563253Y-64086333D01*
X211617604Y-64265502D01*
X211705862Y-64430623D01*
X211705864Y-64430626D01*
X211824642Y-64575357D01*
X211969373Y-64694135D01*
X211969376Y-64694137D01*
X212095579Y-64761593D01*
X212134499Y-64782396D01*
X212300717Y-64832818D01*
X212313666Y-64836746D01*
X212313668Y-64836747D01*
X212330374Y-64838392D01*
X212500000Y-64855099D01*
X212686331Y-64836747D01*
X212865501Y-64782396D01*
X213030625Y-64694136D01*
X213175357Y-64575357D01*
X213294136Y-64430625D01*
X213382396Y-64265501D01*
X213436747Y-64086331D01*
X213455099Y-63900000D01*
X213436747Y-63713669D01*
X213382396Y-63534499D01*
X213377586Y-63525500D01*
X213294137Y-63369376D01*
X213294135Y-63369373D01*
X213175357Y-63224642D01*
X213030626Y-63105864D01*
X213030623Y-63105862D01*
X212865502Y-63017604D01*
X212686333Y-62963253D01*
X212686331Y-62963252D01*
X212500000Y-62944901D01*
X212313668Y-62963252D01*
X212313666Y-62963253D01*
X212134497Y-63017604D01*
X211969376Y-63105862D01*
X211969373Y-63105864D01*
X211824642Y-63224642D01*
X211705864Y-63369373D01*
X211705862Y-63369376D01*
X211617604Y-63534497D01*
X211563253Y-63713666D01*
X211563252Y-63713668D01*
X211544901Y-63900000D01*
X201836988Y-63900000D01*
X201881250Y-63823335D01*
X201936497Y-63653303D01*
X201955185Y-63475500D01*
X201936497Y-63297697D01*
X201895773Y-63172361D01*
X201881252Y-63127670D01*
X201881249Y-63127664D01*
X201868662Y-63105862D01*
X201791859Y-62972835D01*
X201745003Y-62920796D01*
X201672235Y-62839978D01*
X201672232Y-62839976D01*
X201672231Y-62839975D01*
X201672230Y-62839974D01*
X201527593Y-62734888D01*
X201364267Y-62662171D01*
X201364265Y-62662170D01*
X201236594Y-62635033D01*
X201189391Y-62625000D01*
X201010609Y-62625000D01*
X200979954Y-62631515D01*
X200835733Y-62662170D01*
X200835728Y-62662172D01*
X200672408Y-62734887D01*
X200527768Y-62839975D01*
X200408140Y-62972836D01*
X200318750Y-63127664D01*
X200318747Y-63127670D01*
X200263504Y-63297692D01*
X200263503Y-63297694D01*
X200244815Y-63475500D01*
X185107664Y-63475500D01*
X185085380Y-63392334D01*
X185079577Y-63370677D01*
X185079576Y-63370676D01*
X185079575Y-63370670D01*
X184987102Y-63172362D01*
X184987100Y-63172359D01*
X184987099Y-63172357D01*
X184861599Y-62993124D01*
X184792475Y-62924000D01*
X184706877Y-62838402D01*
X184559044Y-62734888D01*
X184527638Y-62712897D01*
X184428484Y-62666661D01*
X184329330Y-62620425D01*
X184329326Y-62620424D01*
X184329322Y-62620422D01*
X184117977Y-62563793D01*
X183900002Y-62544723D01*
X183899998Y-62544723D01*
X183754682Y-62557436D01*
X183682023Y-62563793D01*
X183682020Y-62563793D01*
X183470677Y-62620422D01*
X183470668Y-62620426D01*
X183272361Y-62712898D01*
X183272357Y-62712900D01*
X183093121Y-62838402D01*
X182938402Y-62993121D01*
X182812900Y-63172357D01*
X182812898Y-63172361D01*
X182720426Y-63370668D01*
X182720422Y-63370677D01*
X182663793Y-63582020D01*
X182663793Y-63582023D01*
X182662509Y-63596697D01*
X182644723Y-63799997D01*
X182644723Y-63800002D01*
X179400500Y-63800002D01*
X179400500Y-61800000D01*
X218144815Y-61800000D01*
X218163503Y-61977805D01*
X218163504Y-61977807D01*
X218218747Y-62147829D01*
X218218750Y-62147835D01*
X218308141Y-62302665D01*
X218348050Y-62346988D01*
X218427764Y-62435521D01*
X218427767Y-62435523D01*
X218427770Y-62435526D01*
X218572407Y-62540612D01*
X218735733Y-62613329D01*
X218910609Y-62650500D01*
X218910610Y-62650500D01*
X219089389Y-62650500D01*
X219089391Y-62650500D01*
X219264267Y-62613329D01*
X219427593Y-62540612D01*
X219500250Y-62487823D01*
X219507603Y-62482481D01*
X219573409Y-62459000D01*
X219641463Y-62474825D01*
X219690158Y-62524930D01*
X219704034Y-62593408D01*
X219703811Y-62595738D01*
X219698634Y-62645001D01*
X219695534Y-62674500D01*
X219699448Y-62711743D01*
X219686878Y-62780473D01*
X219649013Y-62825020D01*
X219559616Y-62889971D01*
X219559614Y-62889973D01*
X219439984Y-63022836D01*
X219350594Y-63177664D01*
X219350591Y-63177670D01*
X219295348Y-63347692D01*
X219295347Y-63347694D01*
X219277039Y-63521888D01*
X219276659Y-63525500D01*
X219280758Y-63564500D01*
X219295347Y-63703304D01*
X219295348Y-63703306D01*
X219296429Y-63706633D01*
X219296486Y-63708662D01*
X219296699Y-63709661D01*
X219296516Y-63709699D01*
X219298419Y-63776474D01*
X219270646Y-63827914D01*
X219208142Y-63897333D01*
X219208138Y-63897338D01*
X219118750Y-64052164D01*
X219118747Y-64052170D01*
X219063504Y-64222192D01*
X219063503Y-64222194D01*
X219044815Y-64400000D01*
X219063503Y-64577805D01*
X219063504Y-64577807D01*
X219118747Y-64747829D01*
X219118750Y-64747835D01*
X219208141Y-64902665D01*
X219254323Y-64953955D01*
X219320693Y-65027667D01*
X219350923Y-65090659D01*
X219342298Y-65159994D01*
X219301429Y-65210956D01*
X219227772Y-65264471D01*
X219227770Y-65264473D01*
X219108140Y-65397336D01*
X219018750Y-65552164D01*
X219018747Y-65552170D01*
X218963504Y-65722192D01*
X218963503Y-65722194D01*
X218944815Y-65900000D01*
X218963503Y-66077805D01*
X218963504Y-66077807D01*
X219018747Y-66247829D01*
X219018750Y-66247835D01*
X219108141Y-66402665D01*
X219137542Y-66435318D01*
X219227764Y-66535521D01*
X219227767Y-66535523D01*
X219227770Y-66535526D01*
X219372407Y-66640612D01*
X219535733Y-66713329D01*
X219710609Y-66750500D01*
X219710610Y-66750500D01*
X219889389Y-66750500D01*
X219889391Y-66750500D01*
X220064267Y-66713329D01*
X220227593Y-66640612D01*
X220372230Y-66535526D01*
X220373424Y-66534201D01*
X220398148Y-66506741D01*
X220491859Y-66402665D01*
X220581250Y-66247835D01*
X220636497Y-66077803D01*
X220655185Y-65900000D01*
X220636497Y-65722197D01*
X220597658Y-65602663D01*
X220581252Y-65552170D01*
X220581249Y-65552164D01*
X220578801Y-65547924D01*
X220491859Y-65397335D01*
X220379305Y-65272332D01*
X220349076Y-65209342D01*
X220352104Y-65185001D01*
X238449437Y-65185001D01*
X238469650Y-65416044D01*
X238469651Y-65416051D01*
X238529678Y-65640074D01*
X238529679Y-65640076D01*
X238529680Y-65640079D01*
X238627699Y-65850282D01*
X238760730Y-66040269D01*
X238924731Y-66204270D01*
X239114718Y-66337301D01*
X239324921Y-66435320D01*
X239548950Y-66495349D01*
X239713985Y-66509787D01*
X239779998Y-66515563D01*
X239780000Y-66515563D01*
X239780002Y-66515563D01*
X239837762Y-66510509D01*
X240011050Y-66495349D01*
X240235079Y-66435320D01*
X240445282Y-66337301D01*
X240635269Y-66204270D01*
X240799270Y-66040269D01*
X240932301Y-65850282D01*
X240959374Y-65792221D01*
X241005544Y-65739786D01*
X241072738Y-65720633D01*
X241139619Y-65740848D01*
X241184137Y-65792224D01*
X241211164Y-65850185D01*
X241211232Y-65850282D01*
X241339178Y-66033007D01*
X241496993Y-66190822D01*
X241679814Y-66318835D01*
X241882087Y-66413156D01*
X241882093Y-66413157D01*
X241882094Y-66413158D01*
X241925924Y-66424902D01*
X242097666Y-66470920D01*
X242275533Y-66486481D01*
X242319999Y-66490372D01*
X242320000Y-66490372D01*
X242320001Y-66490372D01*
X242357055Y-66487130D01*
X242542334Y-66470920D01*
X242757913Y-66413156D01*
X242960186Y-66318835D01*
X243143007Y-66190822D01*
X243300822Y-66033007D01*
X243428835Y-65850186D01*
X243523156Y-65647913D01*
X243580920Y-65432334D01*
X243600372Y-65210000D01*
X243600314Y-65209342D01*
X243594248Y-65140007D01*
X243581199Y-64990858D01*
X243594965Y-64922360D01*
X243643580Y-64872177D01*
X243711609Y-64856243D01*
X243777453Y-64879618D01*
X243806298Y-64908924D01*
X243879178Y-65013007D01*
X244036993Y-65170822D01*
X244219814Y-65298835D01*
X244422087Y-65393156D01*
X244637666Y-65450920D01*
X244815533Y-65466481D01*
X244859999Y-65470372D01*
X244860000Y-65470372D01*
X244860001Y-65470372D01*
X244897055Y-65467130D01*
X245082334Y-65450920D01*
X245297913Y-65393156D01*
X245500186Y-65298835D01*
X245683007Y-65170822D01*
X245840822Y-65013007D01*
X245968835Y-64830186D01*
X246038868Y-64680000D01*
X250864785Y-64680000D01*
X250883602Y-64883082D01*
X250939417Y-65079247D01*
X250939422Y-65079260D01*
X251030327Y-65261821D01*
X251153237Y-65424581D01*
X251303958Y-65561980D01*
X251303960Y-65561982D01*
X251346973Y-65588614D01*
X251477363Y-65669348D01*
X251667544Y-65743024D01*
X251868024Y-65780500D01*
X251868026Y-65780500D01*
X252071974Y-65780500D01*
X252071976Y-65780500D01*
X252272456Y-65743024D01*
X252462637Y-65669348D01*
X252636041Y-65561981D01*
X252651461Y-65547924D01*
X252714265Y-65517306D01*
X252783652Y-65525503D01*
X252818539Y-65547924D01*
X252833957Y-65561980D01*
X252833960Y-65561982D01*
X252876973Y-65588614D01*
X253007363Y-65669348D01*
X253197544Y-65743024D01*
X253398024Y-65780500D01*
X253398026Y-65780500D01*
X253601974Y-65780500D01*
X253601976Y-65780500D01*
X253802456Y-65743024D01*
X253992637Y-65669348D01*
X254166041Y-65561981D01*
X254316764Y-65424579D01*
X254439673Y-65261821D01*
X254530582Y-65079250D01*
X254586397Y-64883083D01*
X254605215Y-64680000D01*
X254602918Y-64655216D01*
X254586397Y-64476917D01*
X254573226Y-64430626D01*
X254530582Y-64280750D01*
X254522989Y-64265502D01*
X254473307Y-64165726D01*
X254439673Y-64098179D01*
X254328967Y-63951580D01*
X254316762Y-63935418D01*
X254166041Y-63798019D01*
X254166039Y-63798017D01*
X253992642Y-63690655D01*
X253992635Y-63690651D01*
X253852038Y-63636184D01*
X253802456Y-63616976D01*
X253601976Y-63579500D01*
X253398024Y-63579500D01*
X253197544Y-63616976D01*
X253197541Y-63616976D01*
X253197541Y-63616977D01*
X253007364Y-63690651D01*
X253007357Y-63690655D01*
X252833962Y-63798016D01*
X252818537Y-63812078D01*
X252755732Y-63842694D01*
X252686345Y-63834495D01*
X252651463Y-63812078D01*
X252636041Y-63798019D01*
X252636038Y-63798017D01*
X252636037Y-63798016D01*
X252462642Y-63690655D01*
X252462635Y-63690651D01*
X252322038Y-63636184D01*
X252272456Y-63616976D01*
X252071976Y-63579500D01*
X251868024Y-63579500D01*
X251667544Y-63616976D01*
X251667541Y-63616976D01*
X251667541Y-63616977D01*
X251477364Y-63690651D01*
X251477357Y-63690655D01*
X251303960Y-63798017D01*
X251303958Y-63798019D01*
X251153237Y-63935418D01*
X251030327Y-64098178D01*
X250939422Y-64280739D01*
X250939417Y-64280752D01*
X250883602Y-64476917D01*
X250864785Y-64679999D01*
X250864785Y-64680000D01*
X246038868Y-64680000D01*
X246063156Y-64627913D01*
X246120920Y-64412334D01*
X246140372Y-64190000D01*
X246120920Y-63967666D01*
X246075271Y-63797300D01*
X246063158Y-63752094D01*
X246063157Y-63752093D01*
X246063156Y-63752087D01*
X245968835Y-63549814D01*
X245840822Y-63366993D01*
X245731510Y-63257681D01*
X245698025Y-63196358D01*
X245703009Y-63126666D01*
X245731510Y-63082319D01*
X245779942Y-63033887D01*
X245840822Y-62973007D01*
X245968835Y-62790186D01*
X246063156Y-62587913D01*
X246120920Y-62372334D01*
X246140372Y-62150000D01*
X246120920Y-61927666D01*
X246063156Y-61712087D01*
X245968835Y-61509814D01*
X245840822Y-61326993D01*
X245731510Y-61217681D01*
X245698025Y-61156358D01*
X245703009Y-61086666D01*
X245731510Y-61042319D01*
X245776494Y-60997335D01*
X245840822Y-60933007D01*
X245968835Y-60750186D01*
X246063156Y-60547913D01*
X246120920Y-60332334D01*
X246140372Y-60110000D01*
X246120920Y-59887666D01*
X246067064Y-59686671D01*
X246063158Y-59672094D01*
X246063157Y-59672093D01*
X246063156Y-59672087D01*
X245968835Y-59469814D01*
X245840822Y-59286993D01*
X245731510Y-59177681D01*
X245698025Y-59116358D01*
X245703009Y-59046666D01*
X245731510Y-59002319D01*
X245783329Y-58950500D01*
X245840822Y-58893007D01*
X245968835Y-58710186D01*
X246063156Y-58507913D01*
X246120920Y-58292334D01*
X246140372Y-58070000D01*
X246140370Y-58069982D01*
X246134015Y-57997336D01*
X246120920Y-57847666D01*
X246063156Y-57632087D01*
X245968835Y-57429814D01*
X245840822Y-57246993D01*
X245731510Y-57137681D01*
X245698025Y-57076358D01*
X245703009Y-57006666D01*
X245731510Y-56962319D01*
X245840822Y-56853007D01*
X245968835Y-56670186D01*
X246063156Y-56467913D01*
X246120920Y-56252334D01*
X246140372Y-56030000D01*
X246120920Y-55807666D01*
X246063156Y-55592087D01*
X245968835Y-55389814D01*
X245840822Y-55206993D01*
X245731510Y-55097681D01*
X245698025Y-55036358D01*
X245703009Y-54966666D01*
X245731510Y-54922319D01*
X245784115Y-54869714D01*
X245840822Y-54813007D01*
X245968835Y-54630186D01*
X246063156Y-54427913D01*
X246120920Y-54212334D01*
X246140372Y-53990000D01*
X246120920Y-53767666D01*
X246063156Y-53552087D01*
X246038868Y-53500000D01*
X250864785Y-53500000D01*
X250883602Y-53703082D01*
X250939417Y-53899247D01*
X250939422Y-53899260D01*
X251030327Y-54081821D01*
X251153237Y-54244581D01*
X251303958Y-54381980D01*
X251303960Y-54381982D01*
X251378129Y-54427905D01*
X251477363Y-54489348D01*
X251667544Y-54563024D01*
X251868024Y-54600500D01*
X251868026Y-54600500D01*
X252071974Y-54600500D01*
X252071976Y-54600500D01*
X252272456Y-54563024D01*
X252462637Y-54489348D01*
X252636041Y-54381981D01*
X252651461Y-54367924D01*
X252714265Y-54337306D01*
X252783652Y-54345503D01*
X252818539Y-54367924D01*
X252833957Y-54381980D01*
X252833960Y-54381982D01*
X252908129Y-54427905D01*
X253007363Y-54489348D01*
X253197544Y-54563024D01*
X253398024Y-54600500D01*
X253398026Y-54600500D01*
X253601974Y-54600500D01*
X253601976Y-54600500D01*
X253802456Y-54563024D01*
X253992637Y-54489348D01*
X254166041Y-54381981D01*
X254316764Y-54244579D01*
X254439673Y-54081821D01*
X254530582Y-53899250D01*
X254586397Y-53703083D01*
X254605215Y-53500000D01*
X254586397Y-53296917D01*
X254530582Y-53100750D01*
X254523403Y-53086333D01*
X254480415Y-53000000D01*
X254439673Y-52918179D01*
X254323205Y-52763950D01*
X254316762Y-52755418D01*
X254166041Y-52618019D01*
X254166039Y-52618017D01*
X253992642Y-52510655D01*
X253992635Y-52510651D01*
X253860254Y-52459367D01*
X253802456Y-52436976D01*
X253601976Y-52399500D01*
X253398024Y-52399500D01*
X253197544Y-52436976D01*
X253197541Y-52436976D01*
X253197541Y-52436977D01*
X253007364Y-52510651D01*
X253007357Y-52510655D01*
X252833962Y-52618016D01*
X252818537Y-52632078D01*
X252755732Y-52662694D01*
X252686345Y-52654495D01*
X252651463Y-52632078D01*
X252636041Y-52618019D01*
X252636038Y-52618017D01*
X252636037Y-52618016D01*
X252462642Y-52510655D01*
X252462635Y-52510651D01*
X252330254Y-52459367D01*
X252272456Y-52436976D01*
X252071976Y-52399500D01*
X251868024Y-52399500D01*
X251667544Y-52436976D01*
X251667541Y-52436976D01*
X251667541Y-52436977D01*
X251477364Y-52510651D01*
X251477357Y-52510655D01*
X251303960Y-52618017D01*
X251303958Y-52618019D01*
X251153237Y-52755418D01*
X251030327Y-52918178D01*
X250939422Y-53100739D01*
X250939417Y-53100752D01*
X250883602Y-53296917D01*
X250864785Y-53499999D01*
X250864785Y-53500000D01*
X246038868Y-53500000D01*
X245968835Y-53349814D01*
X245840822Y-53166993D01*
X245683007Y-53009178D01*
X245500186Y-52881165D01*
X245297913Y-52786844D01*
X245297909Y-52786843D01*
X245297905Y-52786841D01*
X245082339Y-52729081D01*
X245082329Y-52729079D01*
X244860001Y-52709628D01*
X244859999Y-52709628D01*
X244637670Y-52729079D01*
X244637660Y-52729081D01*
X244422094Y-52786841D01*
X244422087Y-52786843D01*
X244422087Y-52786844D01*
X244219814Y-52881165D01*
X244036993Y-53009178D01*
X244036991Y-53009179D01*
X244036988Y-53009182D01*
X243879178Y-53166992D01*
X243806301Y-53271071D01*
X243751724Y-53314696D01*
X243682226Y-53321888D01*
X243619871Y-53290365D01*
X243584458Y-53230135D01*
X243581199Y-53189142D01*
X243600372Y-52970000D01*
X243580920Y-52747666D01*
X243523156Y-52532087D01*
X243428835Y-52329814D01*
X243300822Y-52146993D01*
X243143007Y-51989178D01*
X242960186Y-51861165D01*
X242757913Y-51766844D01*
X242757909Y-51766843D01*
X242757905Y-51766841D01*
X242542339Y-51709081D01*
X242542329Y-51709079D01*
X242320001Y-51689628D01*
X242319999Y-51689628D01*
X242097670Y-51709079D01*
X242097660Y-51709081D01*
X241882094Y-51766841D01*
X241882087Y-51766843D01*
X241882087Y-51766844D01*
X241679814Y-51861165D01*
X241496993Y-51989178D01*
X241496991Y-51989179D01*
X241496988Y-51989182D01*
X241339182Y-52146988D01*
X241339179Y-52146991D01*
X241339178Y-52146993D01*
X241296568Y-52207844D01*
X241211164Y-52329814D01*
X241184137Y-52387776D01*
X241137965Y-52440215D01*
X241070771Y-52459367D01*
X241003890Y-52439151D01*
X240959373Y-52387775D01*
X240948508Y-52364475D01*
X240932301Y-52329719D01*
X240932299Y-52329716D01*
X240932298Y-52329714D01*
X240799273Y-52139735D01*
X240799268Y-52139729D01*
X240635269Y-51975730D01*
X240498764Y-51880148D01*
X240445282Y-51842699D01*
X240235079Y-51744680D01*
X240235076Y-51744679D01*
X240235074Y-51744678D01*
X240011051Y-51684651D01*
X240011044Y-51684650D01*
X239780002Y-51664437D01*
X239779998Y-51664437D01*
X239548955Y-51684650D01*
X239548948Y-51684651D01*
X239324917Y-51744681D01*
X239114718Y-51842699D01*
X239114714Y-51842701D01*
X238924735Y-51975726D01*
X238924729Y-51975731D01*
X238760731Y-52139729D01*
X238760726Y-52139735D01*
X238627701Y-52329714D01*
X238627699Y-52329718D01*
X238529681Y-52539917D01*
X238469651Y-52763948D01*
X238469650Y-52763955D01*
X238449437Y-52994998D01*
X238449437Y-52995001D01*
X238469650Y-53226044D01*
X238469651Y-53226051D01*
X238529678Y-53450074D01*
X238529679Y-53450076D01*
X238529680Y-53450079D01*
X238627699Y-53660282D01*
X238760730Y-53850269D01*
X238924731Y-54014270D01*
X239114718Y-54147301D01*
X239126121Y-54152618D01*
X239178560Y-54198790D01*
X239197712Y-54265984D01*
X239177496Y-54332865D01*
X239126123Y-54377381D01*
X239114720Y-54382698D01*
X239114714Y-54382701D01*
X238924735Y-54515726D01*
X238924729Y-54515731D01*
X238760731Y-54679729D01*
X238760726Y-54679735D01*
X238627701Y-54869714D01*
X238627699Y-54869718D01*
X238529681Y-55079917D01*
X238469651Y-55303948D01*
X238469650Y-55303955D01*
X238449437Y-55534998D01*
X238449437Y-55535001D01*
X238469650Y-55766044D01*
X238469651Y-55766051D01*
X238529678Y-55990074D01*
X238529679Y-55990076D01*
X238529680Y-55990079D01*
X238627699Y-56200282D01*
X238760730Y-56390269D01*
X238924731Y-56554270D01*
X239114718Y-56687301D01*
X239324921Y-56785320D01*
X239548950Y-56845349D01*
X239713985Y-56859787D01*
X239779998Y-56865563D01*
X239780000Y-56865563D01*
X239780002Y-56865563D01*
X239837762Y-56860509D01*
X240011050Y-56845349D01*
X240235079Y-56785320D01*
X240445282Y-56687301D01*
X240635269Y-56554270D01*
X240799270Y-56390269D01*
X240932301Y-56200282D01*
X241030320Y-55990079D01*
X241077415Y-55814317D01*
X241113779Y-55754659D01*
X241176626Y-55724130D01*
X241246001Y-55732425D01*
X241298763Y-55775289D01*
X241339178Y-55833007D01*
X241448490Y-55942319D01*
X241481975Y-56003642D01*
X241476991Y-56073334D01*
X241448490Y-56117681D01*
X241339182Y-56226988D01*
X241339179Y-56226991D01*
X241339178Y-56226993D01*
X241238574Y-56370670D01*
X241211165Y-56409814D01*
X241116845Y-56612085D01*
X241116841Y-56612094D01*
X241059081Y-56827660D01*
X241059079Y-56827670D01*
X241039628Y-57049999D01*
X241039628Y-57050000D01*
X241059079Y-57272329D01*
X241059081Y-57272339D01*
X241116841Y-57487905D01*
X241116843Y-57487909D01*
X241116844Y-57487913D01*
X241211165Y-57690186D01*
X241339178Y-57873007D01*
X241496993Y-58030822D01*
X241679814Y-58158835D01*
X241882087Y-58253156D01*
X241882093Y-58253157D01*
X241882094Y-58253158D01*
X241924330Y-58264475D01*
X242097666Y-58310920D01*
X242275533Y-58326481D01*
X242319999Y-58330372D01*
X242320000Y-58330372D01*
X242320001Y-58330372D01*
X242357055Y-58327130D01*
X242542334Y-58310920D01*
X242757913Y-58253156D01*
X242960186Y-58158835D01*
X243143007Y-58030822D01*
X243300822Y-57873007D01*
X243373700Y-57768926D01*
X243428274Y-57725304D01*
X243497772Y-57718110D01*
X243560127Y-57749633D01*
X243595541Y-57809862D01*
X243598800Y-57850859D01*
X243579628Y-58069997D01*
X243579628Y-58070000D01*
X243599079Y-58292329D01*
X243599081Y-58292339D01*
X243656841Y-58507905D01*
X243656843Y-58507909D01*
X243656844Y-58507913D01*
X243751165Y-58710186D01*
X243879178Y-58893007D01*
X243879182Y-58893011D01*
X243988490Y-59002319D01*
X244021975Y-59063642D01*
X244016991Y-59133334D01*
X243988490Y-59177681D01*
X243879182Y-59286988D01*
X243879179Y-59286991D01*
X243879178Y-59286993D01*
X243751165Y-59469814D01*
X243667377Y-59649500D01*
X243656845Y-59672085D01*
X243656841Y-59672094D01*
X243599081Y-59887660D01*
X243599079Y-59887670D01*
X243579628Y-60109999D01*
X243579628Y-60110002D01*
X243598800Y-60329140D01*
X243585033Y-60397640D01*
X243536418Y-60447823D01*
X243468389Y-60463756D01*
X243402546Y-60440381D01*
X243373701Y-60411075D01*
X243300822Y-60306993D01*
X243143007Y-60149178D01*
X242960186Y-60021165D01*
X242757913Y-59926844D01*
X242757909Y-59926843D01*
X242757905Y-59926841D01*
X242542339Y-59869081D01*
X242542329Y-59869079D01*
X242320001Y-59849628D01*
X242319999Y-59849628D01*
X242097670Y-59869079D01*
X242097660Y-59869081D01*
X241882094Y-59926841D01*
X241882087Y-59926843D01*
X241882087Y-59926844D01*
X241679814Y-60021165D01*
X241496993Y-60149178D01*
X241496991Y-60149179D01*
X241496988Y-60149182D01*
X241339182Y-60306988D01*
X241339179Y-60306991D01*
X241339178Y-60306993D01*
X241211165Y-60489814D01*
X241122817Y-60679279D01*
X241116845Y-60692085D01*
X241116841Y-60692094D01*
X241059081Y-60907660D01*
X241059079Y-60907670D01*
X241039628Y-61129999D01*
X241039628Y-61130000D01*
X241059079Y-61352329D01*
X241059081Y-61352339D01*
X241116841Y-61567905D01*
X241116843Y-61567909D01*
X241116844Y-61567913D01*
X241211165Y-61770186D01*
X241339178Y-61953007D01*
X241339182Y-61953011D01*
X241448490Y-62062319D01*
X241481975Y-62123642D01*
X241476991Y-62193334D01*
X241448490Y-62237681D01*
X241339180Y-62346990D01*
X241298763Y-62404711D01*
X241244185Y-62448335D01*
X241174687Y-62455527D01*
X241112332Y-62424004D01*
X241077415Y-62365682D01*
X241030320Y-62189921D01*
X240932301Y-61979719D01*
X240932299Y-61979716D01*
X240932298Y-61979714D01*
X240799273Y-61789735D01*
X240799268Y-61789729D01*
X240635269Y-61625730D01*
X240620102Y-61615110D01*
X240445282Y-61492699D01*
X240235079Y-61394680D01*
X240235076Y-61394679D01*
X240235074Y-61394678D01*
X240011051Y-61334651D01*
X240011044Y-61334650D01*
X239780002Y-61314437D01*
X239779998Y-61314437D01*
X239548955Y-61334650D01*
X239548948Y-61334651D01*
X239324917Y-61394681D01*
X239114718Y-61492699D01*
X239114714Y-61492701D01*
X238924735Y-61625726D01*
X238924729Y-61625731D01*
X238760731Y-61789729D01*
X238760726Y-61789735D01*
X238627701Y-61979714D01*
X238627699Y-61979718D01*
X238529681Y-62189917D01*
X238469651Y-62413948D01*
X238469650Y-62413955D01*
X238449437Y-62644998D01*
X238449437Y-62645001D01*
X238469650Y-62876044D01*
X238469651Y-62876051D01*
X238529678Y-63100074D01*
X238529679Y-63100076D01*
X238529680Y-63100079D01*
X238627699Y-63310282D01*
X238760730Y-63500269D01*
X238924731Y-63664270D01*
X239114718Y-63797301D01*
X239126121Y-63802618D01*
X239178560Y-63848790D01*
X239197712Y-63915984D01*
X239177496Y-63982865D01*
X239126123Y-64027381D01*
X239114720Y-64032698D01*
X239114714Y-64032701D01*
X238924735Y-64165726D01*
X238924729Y-64165731D01*
X238760731Y-64329729D01*
X238760726Y-64329735D01*
X238627701Y-64519714D01*
X238627699Y-64519718D01*
X238529681Y-64729917D01*
X238469651Y-64953948D01*
X238469650Y-64953955D01*
X238449437Y-65184998D01*
X238449437Y-65185001D01*
X220352104Y-65185001D01*
X220357701Y-65140007D01*
X220398568Y-65089044D01*
X220472230Y-65035526D01*
X220479307Y-65027667D01*
X220498148Y-65006741D01*
X220591859Y-64902665D01*
X220681250Y-64747835D01*
X220736497Y-64577803D01*
X220755185Y-64400000D01*
X220736497Y-64222197D01*
X220735417Y-64218873D01*
X220735359Y-64216845D01*
X220735145Y-64215838D01*
X220735329Y-64215798D01*
X220733422Y-64149032D01*
X220761195Y-64097585D01*
X220823703Y-64028165D01*
X220913094Y-63873335D01*
X220945208Y-63774500D01*
X227644815Y-63774500D01*
X227663503Y-63952305D01*
X227663504Y-63952307D01*
X227718747Y-64122329D01*
X227718750Y-64122335D01*
X227808141Y-64277165D01*
X227849812Y-64323446D01*
X227927764Y-64410021D01*
X227927767Y-64410023D01*
X227927770Y-64410026D01*
X228072407Y-64515112D01*
X228235733Y-64587829D01*
X228410609Y-64625000D01*
X228410610Y-64625000D01*
X228589389Y-64625000D01*
X228589391Y-64625000D01*
X228764267Y-64587829D01*
X228927593Y-64515112D01*
X229072230Y-64410026D01*
X229081258Y-64400000D01*
X229117824Y-64359389D01*
X229191859Y-64277165D01*
X229281250Y-64122335D01*
X229336497Y-63952303D01*
X229355185Y-63774500D01*
X229336497Y-63596697D01*
X229305838Y-63502338D01*
X229281252Y-63426670D01*
X229281249Y-63426664D01*
X229191859Y-63271835D01*
X229135442Y-63209178D01*
X229072235Y-63138978D01*
X229072232Y-63138976D01*
X229072231Y-63138975D01*
X229072230Y-63138974D01*
X228927593Y-63033888D01*
X228764267Y-62961171D01*
X228764265Y-62961170D01*
X228636594Y-62934033D01*
X228589391Y-62924000D01*
X228410609Y-62924000D01*
X228379954Y-62930515D01*
X228235733Y-62961170D01*
X228235728Y-62961172D01*
X228072408Y-63033887D01*
X227927768Y-63138975D01*
X227808140Y-63271836D01*
X227718750Y-63426664D01*
X227718747Y-63426670D01*
X227663504Y-63596692D01*
X227663503Y-63596694D01*
X227644815Y-63774500D01*
X220945208Y-63774500D01*
X220968341Y-63703303D01*
X220983642Y-63557718D01*
X221010227Y-63493106D01*
X221048898Y-63463288D01*
X221048097Y-63461900D01*
X221053720Y-63458652D01*
X221053724Y-63458651D01*
X221206865Y-63347388D01*
X221333527Y-63206716D01*
X221428173Y-63042784D01*
X221486668Y-62862756D01*
X221506454Y-62674500D01*
X221486668Y-62486244D01*
X221428173Y-62306216D01*
X221333527Y-62142284D01*
X221206865Y-62001612D01*
X221206864Y-62001611D01*
X221053728Y-61890351D01*
X221053723Y-61890348D01*
X220930028Y-61835275D01*
X220876791Y-61790025D01*
X220856470Y-61723176D01*
X220875516Y-61655952D01*
X220913010Y-61619861D01*
X220912335Y-61618932D01*
X220917593Y-61615112D01*
X221062230Y-61510026D01*
X221071258Y-61500000D01*
X221094041Y-61474696D01*
X221181859Y-61377165D01*
X221271250Y-61222335D01*
X221326497Y-61052303D01*
X221345185Y-60874500D01*
X221326844Y-60700000D01*
X227644815Y-60700000D01*
X227663503Y-60877805D01*
X227663504Y-60877807D01*
X227718747Y-61047829D01*
X227718750Y-61047835D01*
X227808141Y-61202665D01*
X227821662Y-61217681D01*
X227927764Y-61335521D01*
X227927767Y-61335523D01*
X227927770Y-61335526D01*
X228072407Y-61440612D01*
X228235733Y-61513329D01*
X228410609Y-61550500D01*
X228410610Y-61550500D01*
X228589389Y-61550500D01*
X228589391Y-61550500D01*
X228764267Y-61513329D01*
X228927593Y-61440612D01*
X229072230Y-61335526D01*
X229079914Y-61326993D01*
X229117428Y-61285329D01*
X229176914Y-61248680D01*
X229246771Y-61250010D01*
X229304820Y-61288897D01*
X229332630Y-61352993D01*
X229332899Y-61381262D01*
X229330877Y-61400499D01*
X229349565Y-61578305D01*
X229349566Y-61578307D01*
X229404809Y-61748329D01*
X229404812Y-61748335D01*
X229494202Y-61903164D01*
X229589237Y-62008712D01*
X229619467Y-62071704D01*
X229610841Y-62141039D01*
X229604475Y-62153683D01*
X229518749Y-62302167D01*
X229518747Y-62302170D01*
X229463504Y-62472192D01*
X229463503Y-62472194D01*
X229444815Y-62650000D01*
X229463503Y-62827805D01*
X229463504Y-62827807D01*
X229518747Y-62997829D01*
X229518750Y-62997835D01*
X229608141Y-63152665D01*
X229649812Y-63198946D01*
X229727764Y-63285521D01*
X229727767Y-63285523D01*
X229727770Y-63285526D01*
X229872407Y-63390612D01*
X230021720Y-63457090D01*
X230074955Y-63502338D01*
X230089214Y-63532050D01*
X230130039Y-63657697D01*
X230130042Y-63657704D01*
X230219433Y-63812534D01*
X230250588Y-63847135D01*
X230339056Y-63945390D01*
X230339059Y-63945392D01*
X230339062Y-63945395D01*
X230483699Y-64050481D01*
X230647025Y-64123198D01*
X230821901Y-64160369D01*
X230821902Y-64160369D01*
X231000681Y-64160369D01*
X231000683Y-64160369D01*
X231175559Y-64123198D01*
X231338885Y-64050481D01*
X231483522Y-63945395D01*
X231492506Y-63935418D01*
X231526793Y-63897338D01*
X231603151Y-63812534D01*
X231692542Y-63657704D01*
X231747789Y-63487672D01*
X231766477Y-63309869D01*
X231765440Y-63300000D01*
X234044815Y-63300000D01*
X234063503Y-63477805D01*
X234063504Y-63477807D01*
X234118747Y-63647829D01*
X234118750Y-63647835D01*
X234208141Y-63802665D01*
X234248182Y-63847135D01*
X234327764Y-63935521D01*
X234327767Y-63935523D01*
X234327770Y-63935526D01*
X234472407Y-64040612D01*
X234635733Y-64113329D01*
X234810609Y-64150500D01*
X234810610Y-64150500D01*
X234989389Y-64150500D01*
X234989391Y-64150500D01*
X235164267Y-64113329D01*
X235327593Y-64040612D01*
X235472230Y-63935526D01*
X235472328Y-63935418D01*
X235514186Y-63888929D01*
X235591859Y-63802665D01*
X235681250Y-63647835D01*
X235685036Y-63636182D01*
X235724472Y-63578508D01*
X235788830Y-63551308D01*
X235802967Y-63550500D01*
X235929389Y-63550500D01*
X235929391Y-63550500D01*
X236104267Y-63513329D01*
X236267593Y-63440612D01*
X236412230Y-63335526D01*
X236531859Y-63202665D01*
X236621250Y-63047835D01*
X236676497Y-62877803D01*
X236695185Y-62700000D01*
X236676497Y-62522197D01*
X236627805Y-62372339D01*
X236621252Y-62352170D01*
X236621249Y-62352164D01*
X236531859Y-62197335D01*
X236476201Y-62135521D01*
X236412235Y-62064478D01*
X236412232Y-62064476D01*
X236412231Y-62064475D01*
X236412230Y-62064474D01*
X236267593Y-61959388D01*
X236104267Y-61886671D01*
X236104265Y-61886670D01*
X235949263Y-61853724D01*
X235929391Y-61849500D01*
X235750609Y-61849500D01*
X235730737Y-61853724D01*
X235575733Y-61886670D01*
X235575728Y-61886672D01*
X235412408Y-61959387D01*
X235267768Y-62064475D01*
X235148140Y-62197336D01*
X235058750Y-62352164D01*
X235058745Y-62352175D01*
X235054962Y-62363820D01*
X235015524Y-62421495D01*
X234951165Y-62448692D01*
X234937032Y-62449500D01*
X234810609Y-62449500D01*
X234782254Y-62455527D01*
X234635733Y-62486670D01*
X234635728Y-62486672D01*
X234472408Y-62559387D01*
X234327768Y-62664475D01*
X234208140Y-62797336D01*
X234118750Y-62952164D01*
X234118747Y-62952170D01*
X234063504Y-63122192D01*
X234063503Y-63122194D01*
X234044815Y-63300000D01*
X231765440Y-63300000D01*
X231747789Y-63132066D01*
X231702644Y-62993124D01*
X231692544Y-62962039D01*
X231692541Y-62962033D01*
X231692044Y-62961172D01*
X231603151Y-62807204D01*
X231581364Y-62783007D01*
X231551134Y-62720015D01*
X231559759Y-62650680D01*
X231581360Y-62617067D01*
X231661859Y-62527665D01*
X231751250Y-62372835D01*
X231806497Y-62202803D01*
X231825185Y-62025000D01*
X231806497Y-61847197D01*
X231766200Y-61723176D01*
X231751252Y-61677170D01*
X231751249Y-61677164D01*
X231740510Y-61658563D01*
X231661859Y-61522335D01*
X231641748Y-61500000D01*
X232844815Y-61500000D01*
X232863503Y-61677805D01*
X232863504Y-61677807D01*
X232918747Y-61847829D01*
X232918750Y-61847835D01*
X233008141Y-62002665D01*
X233049812Y-62048946D01*
X233127764Y-62135521D01*
X233127767Y-62135523D01*
X233127770Y-62135526D01*
X233272407Y-62240612D01*
X233435733Y-62313329D01*
X233610609Y-62350500D01*
X233610610Y-62350500D01*
X233789389Y-62350500D01*
X233789391Y-62350500D01*
X233964267Y-62313329D01*
X234127593Y-62240612D01*
X234272230Y-62135526D01*
X234282931Y-62123642D01*
X234298216Y-62106666D01*
X234391859Y-62002665D01*
X234481250Y-61847835D01*
X234536497Y-61677803D01*
X234555185Y-61500000D01*
X234536497Y-61322197D01*
X234500585Y-61211671D01*
X234481252Y-61152170D01*
X234481249Y-61152164D01*
X234471643Y-61135526D01*
X234391859Y-60997335D01*
X234333938Y-60933007D01*
X234272235Y-60864478D01*
X234272232Y-60864476D01*
X234272231Y-60864475D01*
X234272230Y-60864474D01*
X234127593Y-60759388D01*
X233964267Y-60686671D01*
X233964265Y-60686670D01*
X233836594Y-60659533D01*
X233789391Y-60649500D01*
X233610609Y-60649500D01*
X233579954Y-60656015D01*
X233435733Y-60686670D01*
X233435728Y-60686672D01*
X233272408Y-60759387D01*
X233127768Y-60864475D01*
X233008140Y-60997336D01*
X232918750Y-61152164D01*
X232918747Y-61152170D01*
X232863504Y-61322192D01*
X232863503Y-61322194D01*
X232844815Y-61500000D01*
X231641748Y-61500000D01*
X231598682Y-61452170D01*
X231542235Y-61389478D01*
X231542232Y-61389476D01*
X231542231Y-61389475D01*
X231542230Y-61389474D01*
X231397593Y-61284388D01*
X231234267Y-61211671D01*
X231234265Y-61211670D01*
X231073031Y-61177399D01*
X231011549Y-61144207D01*
X230980881Y-61094426D01*
X230967315Y-61052673D01*
X230967313Y-61052669D01*
X230967312Y-61052665D01*
X230877921Y-60897835D01*
X230768439Y-60776243D01*
X230767512Y-60775213D01*
X230737282Y-60712221D01*
X230736341Y-60679279D01*
X230736496Y-60677805D01*
X230736497Y-60677803D01*
X230755185Y-60500000D01*
X236444815Y-60500000D01*
X236463503Y-60677805D01*
X236463504Y-60677807D01*
X236518747Y-60847829D01*
X236518750Y-60847835D01*
X236608141Y-61002665D01*
X236632235Y-61029424D01*
X236727764Y-61135521D01*
X236727767Y-61135523D01*
X236727770Y-61135526D01*
X236872407Y-61240612D01*
X237035733Y-61313329D01*
X237210609Y-61350500D01*
X237210610Y-61350500D01*
X237389389Y-61350500D01*
X237389391Y-61350500D01*
X237564267Y-61313329D01*
X237727593Y-61240612D01*
X237872230Y-61135526D01*
X237991859Y-61002665D01*
X238081250Y-60847835D01*
X238136497Y-60677803D01*
X238155185Y-60500000D01*
X238136497Y-60322197D01*
X238081250Y-60152165D01*
X237991859Y-59997335D01*
X237945003Y-59945296D01*
X237872235Y-59864478D01*
X237872232Y-59864476D01*
X237872231Y-59864475D01*
X237872230Y-59864474D01*
X237727593Y-59759388D01*
X237564267Y-59686671D01*
X237564265Y-59686670D01*
X237436594Y-59659533D01*
X237389391Y-59649500D01*
X237210609Y-59649500D01*
X237179954Y-59656015D01*
X237035733Y-59686670D01*
X237035728Y-59686672D01*
X236872408Y-59759387D01*
X236727768Y-59864475D01*
X236608140Y-59997336D01*
X236518750Y-60152164D01*
X236518747Y-60152170D01*
X236463504Y-60322192D01*
X236463503Y-60322194D01*
X236444815Y-60500000D01*
X230755185Y-60500000D01*
X230736497Y-60322197D01*
X230681250Y-60152165D01*
X230591859Y-59997335D01*
X230545003Y-59945296D01*
X230472235Y-59864478D01*
X230472232Y-59864476D01*
X230472231Y-59864475D01*
X230472230Y-59864474D01*
X230327593Y-59759388D01*
X230164267Y-59686671D01*
X230164265Y-59686670D01*
X230036594Y-59659533D01*
X229989391Y-59649500D01*
X229810609Y-59649500D01*
X229779954Y-59656015D01*
X229635733Y-59686670D01*
X229635728Y-59686672D01*
X229472408Y-59759387D01*
X229327768Y-59864475D01*
X229208139Y-59997336D01*
X229204319Y-60002595D01*
X229202718Y-60001432D01*
X229158933Y-60043161D01*
X229090323Y-60056368D01*
X229029254Y-60033250D01*
X229012621Y-60021165D01*
X228927593Y-59959388D01*
X228764267Y-59886671D01*
X228764265Y-59886670D01*
X228636594Y-59859533D01*
X228589391Y-59849500D01*
X228410609Y-59849500D01*
X228379954Y-59856015D01*
X228235733Y-59886670D01*
X228235728Y-59886672D01*
X228072408Y-59959387D01*
X227927768Y-60064475D01*
X227808140Y-60197336D01*
X227718750Y-60352164D01*
X227718747Y-60352170D01*
X227663504Y-60522192D01*
X227663503Y-60522194D01*
X227644815Y-60700000D01*
X221326844Y-60700000D01*
X221326497Y-60696697D01*
X221295943Y-60602663D01*
X221271252Y-60526670D01*
X221271249Y-60526664D01*
X221268670Y-60522197D01*
X221181859Y-60371835D01*
X221123475Y-60306993D01*
X221062235Y-60238978D01*
X221062232Y-60238976D01*
X221062231Y-60238975D01*
X221062230Y-60238974D01*
X220917593Y-60133888D01*
X220754267Y-60061171D01*
X220754265Y-60061170D01*
X220622909Y-60033250D01*
X220579391Y-60024000D01*
X220400609Y-60024000D01*
X220369954Y-60030515D01*
X220225733Y-60061170D01*
X220225728Y-60061172D01*
X220062408Y-60133887D01*
X219917768Y-60238975D01*
X219798140Y-60371836D01*
X219708750Y-60526664D01*
X219708747Y-60526670D01*
X219653504Y-60696692D01*
X219653503Y-60696694D01*
X219634815Y-60874500D01*
X219643874Y-60960694D01*
X219631304Y-61029424D01*
X219583572Y-61080447D01*
X219515832Y-61097565D01*
X219449590Y-61075342D01*
X219447667Y-61073973D01*
X219427594Y-61059389D01*
X219427593Y-61059388D01*
X219264267Y-60986671D01*
X219264265Y-60986670D01*
X219136594Y-60959533D01*
X219089391Y-60949500D01*
X218910609Y-60949500D01*
X218879954Y-60956015D01*
X218735733Y-60986670D01*
X218735728Y-60986672D01*
X218572408Y-61059387D01*
X218427768Y-61164475D01*
X218308140Y-61297336D01*
X218218750Y-61452164D01*
X218218747Y-61452170D01*
X218163504Y-61622192D01*
X218163503Y-61622194D01*
X218144815Y-61800000D01*
X179400500Y-61800000D01*
X179400500Y-60300000D01*
X182644723Y-60300000D01*
X182657655Y-60447823D01*
X182663793Y-60517975D01*
X182663793Y-60517979D01*
X182720422Y-60729322D01*
X182720424Y-60729326D01*
X182720425Y-60729330D01*
X182734442Y-60759389D01*
X182812897Y-60927638D01*
X182828205Y-60949500D01*
X182938402Y-61106877D01*
X183093123Y-61261598D01*
X183272361Y-61387102D01*
X183470670Y-61479575D01*
X183682023Y-61536207D01*
X183864926Y-61552208D01*
X183899998Y-61555277D01*
X183900000Y-61555277D01*
X183900002Y-61555277D01*
X183928254Y-61552805D01*
X184117977Y-61536207D01*
X184329330Y-61479575D01*
X184527639Y-61387102D01*
X184706877Y-61261598D01*
X184861598Y-61106877D01*
X184987102Y-60927639D01*
X185079575Y-60729330D01*
X185136207Y-60517977D01*
X185155277Y-60300000D01*
X185153335Y-60277807D01*
X185146295Y-60197335D01*
X185137780Y-60100000D01*
X214544815Y-60100000D01*
X214563503Y-60277805D01*
X214563504Y-60277807D01*
X214618747Y-60447829D01*
X214618750Y-60447835D01*
X214708141Y-60602665D01*
X214749812Y-60648946D01*
X214827764Y-60735521D01*
X214827767Y-60735523D01*
X214827770Y-60735526D01*
X214972407Y-60840612D01*
X215135733Y-60913329D01*
X215310609Y-60950500D01*
X215310610Y-60950500D01*
X215489389Y-60950500D01*
X215489391Y-60950500D01*
X215664267Y-60913329D01*
X215827593Y-60840612D01*
X215972230Y-60735526D01*
X215977817Y-60729322D01*
X216007192Y-60696697D01*
X216091859Y-60602665D01*
X216181250Y-60447835D01*
X216236497Y-60277803D01*
X216255185Y-60100000D01*
X216236497Y-59922197D01*
X216208873Y-59837181D01*
X216181252Y-59752170D01*
X216181249Y-59752164D01*
X216091859Y-59597335D01*
X216036201Y-59535521D01*
X215972235Y-59464478D01*
X215972232Y-59464476D01*
X215972231Y-59464475D01*
X215972230Y-59464474D01*
X215827593Y-59359388D01*
X215664267Y-59286671D01*
X215664265Y-59286670D01*
X215536594Y-59259533D01*
X215489391Y-59249500D01*
X215310609Y-59249500D01*
X215279954Y-59256015D01*
X215135733Y-59286670D01*
X215135728Y-59286672D01*
X214972408Y-59359387D01*
X214827768Y-59464475D01*
X214708140Y-59597336D01*
X214618750Y-59752164D01*
X214618747Y-59752170D01*
X214563504Y-59922192D01*
X214563503Y-59922194D01*
X214544815Y-60100000D01*
X185137780Y-60100000D01*
X185136207Y-60082023D01*
X185084129Y-59887666D01*
X185079577Y-59870677D01*
X185079576Y-59870676D01*
X185079575Y-59870670D01*
X184987102Y-59672362D01*
X184987100Y-59672359D01*
X184987099Y-59672357D01*
X184861599Y-59493124D01*
X184803996Y-59435521D01*
X184706877Y-59338402D01*
X184532229Y-59216112D01*
X184527638Y-59212897D01*
X184428484Y-59166661D01*
X184329330Y-59120425D01*
X184329326Y-59120424D01*
X184329322Y-59120422D01*
X184117977Y-59063793D01*
X183900002Y-59044723D01*
X183899998Y-59044723D01*
X183754682Y-59057436D01*
X183682023Y-59063793D01*
X183682020Y-59063793D01*
X183470677Y-59120422D01*
X183470668Y-59120426D01*
X183272361Y-59212898D01*
X183272357Y-59212900D01*
X183093121Y-59338402D01*
X182938402Y-59493121D01*
X182812900Y-59672357D01*
X182812898Y-59672361D01*
X182720426Y-59870668D01*
X182720422Y-59870677D01*
X182663793Y-60082020D01*
X182663793Y-60082023D01*
X182661345Y-60110000D01*
X182646665Y-60277807D01*
X182644723Y-60300000D01*
X179400500Y-60300000D01*
X179400500Y-58800000D01*
X212144815Y-58800000D01*
X212163503Y-58977805D01*
X212163504Y-58977807D01*
X212218747Y-59147829D01*
X212218750Y-59147835D01*
X212308141Y-59302665D01*
X212329152Y-59326000D01*
X212427764Y-59435521D01*
X212427767Y-59435523D01*
X212427770Y-59435526D01*
X212572407Y-59540612D01*
X212735733Y-59613329D01*
X212910609Y-59650500D01*
X212910610Y-59650500D01*
X213089389Y-59650500D01*
X213089391Y-59650500D01*
X213264267Y-59613329D01*
X213427593Y-59540612D01*
X213572230Y-59435526D01*
X213691859Y-59302665D01*
X213781250Y-59147835D01*
X213836497Y-58977803D01*
X213855185Y-58800000D01*
X213836497Y-58622197D01*
X213788832Y-58475500D01*
X219244815Y-58475500D01*
X219263503Y-58653305D01*
X219263504Y-58653307D01*
X219318747Y-58823328D01*
X219318750Y-58823335D01*
X219408141Y-58978165D01*
X219430201Y-59002665D01*
X219527764Y-59111021D01*
X219527767Y-59111023D01*
X219527770Y-59111026D01*
X219672407Y-59216112D01*
X219835733Y-59288829D01*
X220010609Y-59326000D01*
X220010610Y-59326000D01*
X220189389Y-59326000D01*
X220189391Y-59326000D01*
X220364267Y-59288829D01*
X220527593Y-59216112D01*
X220672230Y-59111026D01*
X220791859Y-58978165D01*
X220836988Y-58900000D01*
X223569315Y-58900000D01*
X223588003Y-59077805D01*
X223588004Y-59077807D01*
X223643247Y-59247829D01*
X223643250Y-59247835D01*
X223732641Y-59402665D01*
X223774312Y-59448946D01*
X223852264Y-59535521D01*
X223852267Y-59535523D01*
X223852270Y-59535526D01*
X223996907Y-59640612D01*
X224160233Y-59713329D01*
X224335109Y-59750500D01*
X224335110Y-59750500D01*
X224513889Y-59750500D01*
X224513891Y-59750500D01*
X224688767Y-59713329D01*
X224852093Y-59640612D01*
X224996730Y-59535526D01*
X225116359Y-59402665D01*
X225205750Y-59247835D01*
X225260997Y-59077803D01*
X225265144Y-59038343D01*
X225291727Y-58973732D01*
X225349024Y-58933747D01*
X225414244Y-58930017D01*
X225510609Y-58950500D01*
X225510610Y-58950500D01*
X225689389Y-58950500D01*
X225689391Y-58950500D01*
X225864267Y-58913329D01*
X226027593Y-58840612D01*
X226172230Y-58735526D01*
X226291859Y-58602665D01*
X226351133Y-58500000D01*
X232344815Y-58500000D01*
X232363503Y-58677805D01*
X232363504Y-58677807D01*
X232418747Y-58847829D01*
X232418750Y-58847835D01*
X232508141Y-59002665D01*
X232546010Y-59044723D01*
X232627764Y-59135521D01*
X232627767Y-59135523D01*
X232627770Y-59135526D01*
X232772407Y-59240612D01*
X232935733Y-59313329D01*
X233110609Y-59350500D01*
X233110610Y-59350500D01*
X233289389Y-59350500D01*
X233289391Y-59350500D01*
X233464267Y-59313329D01*
X233627593Y-59240612D01*
X233772230Y-59135526D01*
X233794295Y-59111021D01*
X233813222Y-59090000D01*
X233891859Y-59002665D01*
X233981250Y-58847835D01*
X234036497Y-58677803D01*
X234055185Y-58500000D01*
X234036497Y-58322197D01*
X233985250Y-58164475D01*
X233981252Y-58152170D01*
X233981249Y-58152164D01*
X233891859Y-57997335D01*
X233845003Y-57945296D01*
X233772235Y-57864478D01*
X233772232Y-57864476D01*
X233772231Y-57864475D01*
X233772230Y-57864474D01*
X233627593Y-57759388D01*
X233464267Y-57686671D01*
X233464265Y-57686670D01*
X233336594Y-57659533D01*
X233289391Y-57649500D01*
X233110609Y-57649500D01*
X233079954Y-57656015D01*
X232935733Y-57686670D01*
X232935728Y-57686672D01*
X232772408Y-57759387D01*
X232627768Y-57864475D01*
X232508140Y-57997336D01*
X232418750Y-58152164D01*
X232418747Y-58152170D01*
X232363504Y-58322192D01*
X232363503Y-58322194D01*
X232344815Y-58500000D01*
X226351133Y-58500000D01*
X226381250Y-58447835D01*
X226436497Y-58277803D01*
X226455185Y-58100000D01*
X226436497Y-57922197D01*
X226384315Y-57761598D01*
X226381252Y-57752170D01*
X226381249Y-57752164D01*
X226379788Y-57749633D01*
X226291859Y-57597335D01*
X226245003Y-57545296D01*
X226172235Y-57464478D01*
X226172232Y-57464476D01*
X226172231Y-57464475D01*
X226172230Y-57464474D01*
X226027593Y-57359388D01*
X225864267Y-57286671D01*
X225864265Y-57286670D01*
X225736594Y-57259533D01*
X225689391Y-57249500D01*
X225510609Y-57249500D01*
X225479954Y-57256015D01*
X225335733Y-57286670D01*
X225335728Y-57286672D01*
X225172408Y-57359387D01*
X225027768Y-57464475D01*
X224908140Y-57597336D01*
X224818750Y-57752164D01*
X224818747Y-57752170D01*
X224763504Y-57922192D01*
X224763503Y-57922194D01*
X224759356Y-57961655D01*
X224732770Y-58026269D01*
X224675473Y-58066253D01*
X224610255Y-58069982D01*
X224513892Y-58049500D01*
X224513891Y-58049500D01*
X224335109Y-58049500D01*
X224307930Y-58055277D01*
X224160233Y-58086670D01*
X224160228Y-58086672D01*
X223996908Y-58159387D01*
X223852268Y-58264475D01*
X223732640Y-58397336D01*
X223643250Y-58552164D01*
X223643247Y-58552170D01*
X223588004Y-58722192D01*
X223588003Y-58722194D01*
X223569315Y-58900000D01*
X220836988Y-58900000D01*
X220881250Y-58823335D01*
X220881251Y-58823330D01*
X220881253Y-58823328D01*
X220914113Y-58722194D01*
X220936497Y-58653303D01*
X220955185Y-58475500D01*
X220936497Y-58297697D01*
X220908873Y-58212681D01*
X220881252Y-58127670D01*
X220881249Y-58127664D01*
X220872318Y-58112195D01*
X220791859Y-57972835D01*
X220745003Y-57920796D01*
X220672235Y-57839978D01*
X220672232Y-57839976D01*
X220672231Y-57839975D01*
X220672230Y-57839974D01*
X220527593Y-57734888D01*
X220364267Y-57662171D01*
X220364265Y-57662170D01*
X220236594Y-57635033D01*
X220189391Y-57625000D01*
X220010609Y-57625000D01*
X219979954Y-57631515D01*
X219835733Y-57662170D01*
X219835728Y-57662172D01*
X219672408Y-57734887D01*
X219527768Y-57839975D01*
X219408140Y-57972836D01*
X219318750Y-58127664D01*
X219318747Y-58127670D01*
X219263504Y-58297692D01*
X219263503Y-58297694D01*
X219244815Y-58475500D01*
X213788832Y-58475500D01*
X213781250Y-58452165D01*
X213691859Y-58297335D01*
X213645003Y-58245296D01*
X213572235Y-58164478D01*
X213572232Y-58164476D01*
X213572231Y-58164475D01*
X213572230Y-58164474D01*
X213427593Y-58059388D01*
X213264267Y-57986671D01*
X213264265Y-57986670D01*
X213136594Y-57959533D01*
X213089391Y-57949500D01*
X212910609Y-57949500D01*
X212879954Y-57956015D01*
X212735733Y-57986670D01*
X212735728Y-57986672D01*
X212572408Y-58059387D01*
X212427768Y-58164475D01*
X212308140Y-58297336D01*
X212218750Y-58452164D01*
X212218747Y-58452170D01*
X212163504Y-58622192D01*
X212163503Y-58622194D01*
X212144815Y-58800000D01*
X179400500Y-58800000D01*
X179400500Y-56800000D01*
X182644723Y-56800000D01*
X182662803Y-57006666D01*
X182663793Y-57017975D01*
X182663793Y-57017979D01*
X182720422Y-57229322D01*
X182720424Y-57229326D01*
X182720425Y-57229330D01*
X182747163Y-57286670D01*
X182812897Y-57427638D01*
X182812898Y-57427639D01*
X182938402Y-57606877D01*
X183093123Y-57761598D01*
X183272361Y-57887102D01*
X183470670Y-57979575D01*
X183682023Y-58036207D01*
X183864926Y-58052208D01*
X183899998Y-58055277D01*
X183900000Y-58055277D01*
X183900002Y-58055277D01*
X183928254Y-58052805D01*
X184117977Y-58036207D01*
X184329330Y-57979575D01*
X184527639Y-57887102D01*
X184706877Y-57761598D01*
X184861598Y-57606877D01*
X184987102Y-57427639D01*
X185079575Y-57229330D01*
X185136207Y-57017977D01*
X185155277Y-56800000D01*
X185136207Y-56582023D01*
X185079575Y-56370670D01*
X184987102Y-56172362D01*
X184987100Y-56172359D01*
X184987099Y-56172357D01*
X184861599Y-55993124D01*
X184810794Y-55942319D01*
X184706877Y-55838402D01*
X184568978Y-55741844D01*
X184527638Y-55712897D01*
X184428484Y-55666661D01*
X184329330Y-55620425D01*
X184329326Y-55620424D01*
X184329322Y-55620422D01*
X184117977Y-55563793D01*
X183900002Y-55544723D01*
X183899998Y-55544723D01*
X183754682Y-55557436D01*
X183682023Y-55563793D01*
X183682020Y-55563793D01*
X183470677Y-55620422D01*
X183470668Y-55620426D01*
X183272361Y-55712898D01*
X183272357Y-55712900D01*
X183093121Y-55838402D01*
X182938402Y-55993121D01*
X182812900Y-56172357D01*
X182812898Y-56172361D01*
X182720426Y-56370668D01*
X182720422Y-56370677D01*
X182663793Y-56582020D01*
X182663793Y-56582023D01*
X182644723Y-56800000D01*
X179400500Y-56800000D01*
X179400500Y-54700000D01*
X215744901Y-54700000D01*
X215763252Y-54886331D01*
X215763253Y-54886333D01*
X215817604Y-55065502D01*
X215905862Y-55230623D01*
X215905864Y-55230626D01*
X216024642Y-55375357D01*
X216169373Y-55494135D01*
X216169376Y-55494137D01*
X216264017Y-55544723D01*
X216334499Y-55582396D01*
X216513666Y-55636746D01*
X216513668Y-55636747D01*
X216530374Y-55638392D01*
X216700000Y-55655099D01*
X216886331Y-55636747D01*
X217065501Y-55582396D01*
X217230625Y-55494136D01*
X217375357Y-55375357D01*
X217494136Y-55230625D01*
X217582396Y-55065501D01*
X217636747Y-54886331D01*
X217655099Y-54700000D01*
X217636747Y-54513669D01*
X217582396Y-54334499D01*
X217559556Y-54291768D01*
X217510506Y-54200000D01*
X233044815Y-54200000D01*
X233063503Y-54377805D01*
X233063504Y-54377807D01*
X233118747Y-54547829D01*
X233118750Y-54547835D01*
X233208141Y-54702665D01*
X233224740Y-54721100D01*
X233327764Y-54835521D01*
X233327767Y-54835523D01*
X233327770Y-54835526D01*
X233472407Y-54940612D01*
X233635733Y-55013329D01*
X233810609Y-55050500D01*
X233810610Y-55050500D01*
X233989389Y-55050500D01*
X233989391Y-55050500D01*
X234164267Y-55013329D01*
X234327593Y-54940612D01*
X234472230Y-54835526D01*
X234591859Y-54702665D01*
X234681250Y-54547835D01*
X234736497Y-54377803D01*
X234755185Y-54200000D01*
X234736497Y-54022197D01*
X234696548Y-53899247D01*
X234681252Y-53852170D01*
X234681249Y-53852164D01*
X234591859Y-53697335D01*
X234545003Y-53645296D01*
X234472235Y-53564478D01*
X234472232Y-53564476D01*
X234472231Y-53564475D01*
X234472230Y-53564474D01*
X234327593Y-53459388D01*
X234164267Y-53386671D01*
X234164265Y-53386670D01*
X234036594Y-53359533D01*
X233989391Y-53349500D01*
X233810609Y-53349500D01*
X233779954Y-53356015D01*
X233635733Y-53386670D01*
X233635728Y-53386672D01*
X233472408Y-53459387D01*
X233327768Y-53564475D01*
X233208140Y-53697336D01*
X233118750Y-53852164D01*
X233118747Y-53852170D01*
X233063504Y-54022192D01*
X233063503Y-54022194D01*
X233044815Y-54200000D01*
X217510506Y-54200000D01*
X217494137Y-54169376D01*
X217494135Y-54169373D01*
X217375357Y-54024642D01*
X217230626Y-53905864D01*
X217230623Y-53905862D01*
X217065502Y-53817604D01*
X216886333Y-53763253D01*
X216886331Y-53763252D01*
X216700000Y-53744901D01*
X216513668Y-53763252D01*
X216513666Y-53763253D01*
X216334497Y-53817604D01*
X216169376Y-53905862D01*
X216169373Y-53905864D01*
X216024642Y-54024642D01*
X215905864Y-54169373D01*
X215905862Y-54169376D01*
X215817604Y-54334497D01*
X215763253Y-54513666D01*
X215763252Y-54513668D01*
X215744901Y-54700000D01*
X179400500Y-54700000D01*
X179400500Y-53300002D01*
X182644723Y-53300002D01*
X182652306Y-53386672D01*
X182662453Y-53502665D01*
X182663793Y-53517975D01*
X182663793Y-53517979D01*
X182720422Y-53729322D01*
X182720424Y-53729326D01*
X182720425Y-53729330D01*
X182745170Y-53782395D01*
X182812897Y-53927638D01*
X182812898Y-53927639D01*
X182938402Y-54106877D01*
X183093123Y-54261598D01*
X183272361Y-54387102D01*
X183470670Y-54479575D01*
X183682023Y-54536207D01*
X183864926Y-54552208D01*
X183899998Y-54555277D01*
X183900000Y-54555277D01*
X183900002Y-54555277D01*
X183928254Y-54552805D01*
X184117977Y-54536207D01*
X184329330Y-54479575D01*
X184527639Y-54387102D01*
X184706877Y-54261598D01*
X184861598Y-54106877D01*
X184987102Y-53927639D01*
X185079575Y-53729330D01*
X185136207Y-53517977D01*
X185155277Y-53300000D01*
X185155007Y-53296917D01*
X185147897Y-53215646D01*
X185136207Y-53082023D01*
X185114229Y-53000000D01*
X208844815Y-53000000D01*
X208863503Y-53177805D01*
X208863504Y-53177807D01*
X208918747Y-53347829D01*
X208918750Y-53347835D01*
X209008141Y-53502665D01*
X209021930Y-53517979D01*
X209127764Y-53635521D01*
X209127767Y-53635523D01*
X209127770Y-53635526D01*
X209272407Y-53740612D01*
X209435733Y-53813329D01*
X209610609Y-53850500D01*
X209610610Y-53850500D01*
X209789389Y-53850500D01*
X209789391Y-53850500D01*
X209964267Y-53813329D01*
X210127593Y-53740612D01*
X210272230Y-53635526D01*
X210391859Y-53502665D01*
X210481250Y-53347835D01*
X210481464Y-53347178D01*
X210489681Y-53321888D01*
X210536497Y-53177803D01*
X210555185Y-53000000D01*
X210544674Y-52900000D01*
X225444901Y-52900000D01*
X225463252Y-53086331D01*
X225463253Y-53086333D01*
X225517604Y-53265502D01*
X225605862Y-53430623D01*
X225605864Y-53430626D01*
X225724642Y-53575357D01*
X225869373Y-53694135D01*
X225869376Y-53694137D01*
X226034497Y-53782395D01*
X226034499Y-53782396D01*
X226205243Y-53834191D01*
X226213666Y-53836746D01*
X226213668Y-53836747D01*
X226230374Y-53838392D01*
X226400000Y-53855099D01*
X226586331Y-53836747D01*
X226765501Y-53782396D01*
X226930625Y-53694136D01*
X227075357Y-53575357D01*
X227194136Y-53430625D01*
X227282396Y-53265501D01*
X227336747Y-53086331D01*
X227355099Y-52900000D01*
X227336747Y-52713669D01*
X227282396Y-52534499D01*
X227254476Y-52482264D01*
X227194137Y-52369376D01*
X227194135Y-52369373D01*
X227075357Y-52224642D01*
X226930626Y-52105864D01*
X226930623Y-52105862D01*
X226765502Y-52017604D01*
X226586333Y-51963253D01*
X226586331Y-51963252D01*
X226400000Y-51944901D01*
X226213668Y-51963252D01*
X226213666Y-51963253D01*
X226034497Y-52017604D01*
X225869376Y-52105862D01*
X225869373Y-52105864D01*
X225724642Y-52224642D01*
X225605864Y-52369373D01*
X225605862Y-52369376D01*
X225517604Y-52534497D01*
X225463253Y-52713666D01*
X225463252Y-52713668D01*
X225444901Y-52900000D01*
X210544674Y-52900000D01*
X210536497Y-52822197D01*
X210499467Y-52708231D01*
X210481252Y-52652170D01*
X210481249Y-52652164D01*
X210391859Y-52497335D01*
X210303768Y-52399500D01*
X210272235Y-52364478D01*
X210272232Y-52364476D01*
X210272231Y-52364475D01*
X210272230Y-52364474D01*
X210127593Y-52259388D01*
X209964267Y-52186671D01*
X209964265Y-52186670D01*
X209836594Y-52159533D01*
X209789391Y-52149500D01*
X209610609Y-52149500D01*
X209579954Y-52156015D01*
X209435733Y-52186670D01*
X209435728Y-52186672D01*
X209272408Y-52259387D01*
X209127768Y-52364475D01*
X209008140Y-52497336D01*
X208918750Y-52652164D01*
X208918747Y-52652170D01*
X208863504Y-52822192D01*
X208863503Y-52822194D01*
X208844815Y-53000000D01*
X185114229Y-53000000D01*
X185079575Y-52870670D01*
X184987102Y-52672362D01*
X184987100Y-52672359D01*
X184987099Y-52672357D01*
X184861599Y-52493124D01*
X184805451Y-52436976D01*
X184706877Y-52338402D01*
X184527639Y-52212898D01*
X184527640Y-52212898D01*
X184527638Y-52212897D01*
X184428484Y-52166661D01*
X184329330Y-52120425D01*
X184329326Y-52120424D01*
X184329322Y-52120422D01*
X184117977Y-52063793D01*
X183900002Y-52044723D01*
X183899998Y-52044723D01*
X183754682Y-52057436D01*
X183682023Y-52063793D01*
X183682020Y-52063793D01*
X183470677Y-52120422D01*
X183470668Y-52120426D01*
X183272361Y-52212898D01*
X183272357Y-52212900D01*
X183093121Y-52338402D01*
X182938402Y-52493121D01*
X182812900Y-52672357D01*
X182812898Y-52672361D01*
X182720426Y-52870668D01*
X182720422Y-52870677D01*
X182663793Y-53082020D01*
X182663793Y-53082023D01*
X182659025Y-53136517D01*
X182644723Y-53299997D01*
X182644723Y-53300002D01*
X179400500Y-53300002D01*
X179400500Y-49800000D01*
X182644723Y-49800000D01*
X182662293Y-50000837D01*
X182663793Y-50017975D01*
X182663793Y-50017979D01*
X182720422Y-50229322D01*
X182720424Y-50229326D01*
X182720425Y-50229330D01*
X182739099Y-50269376D01*
X182812897Y-50427638D01*
X182812898Y-50427639D01*
X182938402Y-50606877D01*
X183093123Y-50761598D01*
X183272361Y-50887102D01*
X183470670Y-50979575D01*
X183682023Y-51036207D01*
X183864926Y-51052208D01*
X183899998Y-51055277D01*
X183900000Y-51055277D01*
X183900002Y-51055277D01*
X183928254Y-51052805D01*
X184117977Y-51036207D01*
X184329330Y-50979575D01*
X184527639Y-50887102D01*
X184652033Y-50800000D01*
X208744901Y-50800000D01*
X208763252Y-50986331D01*
X208763253Y-50986333D01*
X208817604Y-51165502D01*
X208905862Y-51330623D01*
X208905864Y-51330626D01*
X209024642Y-51475357D01*
X209169373Y-51594135D01*
X209169376Y-51594137D01*
X209300900Y-51664437D01*
X209334499Y-51682396D01*
X209513666Y-51736746D01*
X209513668Y-51736747D01*
X209530374Y-51738392D01*
X209700000Y-51755099D01*
X209886331Y-51736747D01*
X210065501Y-51682396D01*
X210230625Y-51594136D01*
X210375357Y-51475357D01*
X210494136Y-51330625D01*
X210582396Y-51165501D01*
X210636747Y-50986331D01*
X210655099Y-50800000D01*
X210636747Y-50613669D01*
X210582396Y-50434499D01*
X210578729Y-50427638D01*
X210494137Y-50269376D01*
X210494135Y-50269373D01*
X210375357Y-50124642D01*
X210230626Y-50005864D01*
X210230623Y-50005862D01*
X210065502Y-49917604D01*
X209886333Y-49863253D01*
X209886331Y-49863252D01*
X209700000Y-49844901D01*
X209513668Y-49863252D01*
X209513666Y-49863253D01*
X209334497Y-49917604D01*
X209169376Y-50005862D01*
X209169373Y-50005864D01*
X209024642Y-50124642D01*
X208905864Y-50269373D01*
X208905862Y-50269376D01*
X208817604Y-50434497D01*
X208763253Y-50613666D01*
X208763252Y-50613668D01*
X208744901Y-50800000D01*
X184652033Y-50800000D01*
X184706877Y-50761598D01*
X184861598Y-50606877D01*
X184987102Y-50427639D01*
X185079575Y-50229330D01*
X185136207Y-50017977D01*
X185155277Y-49800000D01*
X185155112Y-49798118D01*
X185143510Y-49665501D01*
X185136207Y-49582023D01*
X185083277Y-49384485D01*
X185079577Y-49370677D01*
X185079576Y-49370676D01*
X185079575Y-49370670D01*
X185046621Y-49300000D01*
X220944901Y-49300000D01*
X220963252Y-49486331D01*
X220963253Y-49486333D01*
X221017604Y-49665502D01*
X221105862Y-49830623D01*
X221105864Y-49830626D01*
X221224642Y-49975357D01*
X221369373Y-50094135D01*
X221369376Y-50094137D01*
X221534497Y-50182395D01*
X221534499Y-50182396D01*
X221689219Y-50229330D01*
X221713666Y-50236746D01*
X221713668Y-50236747D01*
X221730374Y-50238392D01*
X221900000Y-50255099D01*
X222086331Y-50236747D01*
X222265501Y-50182396D01*
X222430625Y-50094136D01*
X222575357Y-49975357D01*
X222694136Y-49830625D01*
X222782396Y-49665501D01*
X222836747Y-49486331D01*
X222855099Y-49300000D01*
X222836747Y-49113669D01*
X222802266Y-49000000D01*
X226094540Y-49000000D01*
X226114326Y-49188256D01*
X226114327Y-49188259D01*
X226172818Y-49368277D01*
X226172821Y-49368284D01*
X226267467Y-49532216D01*
X226387478Y-49665501D01*
X226394129Y-49672888D01*
X226547265Y-49784148D01*
X226547270Y-49784151D01*
X226720192Y-49861142D01*
X226720197Y-49861144D01*
X226905354Y-49900500D01*
X226905355Y-49900500D01*
X227094644Y-49900500D01*
X227094646Y-49900500D01*
X227279803Y-49861144D01*
X227452730Y-49784151D01*
X227605871Y-49672888D01*
X227732533Y-49532216D01*
X227827179Y-49368284D01*
X227885674Y-49188256D01*
X227905460Y-49000000D01*
X227885674Y-48811744D01*
X227827179Y-48631716D01*
X227732533Y-48467784D01*
X227605871Y-48327112D01*
X227605870Y-48327111D01*
X227452734Y-48215851D01*
X227452729Y-48215848D01*
X227279807Y-48138857D01*
X227279802Y-48138855D01*
X227134001Y-48107865D01*
X227094646Y-48099500D01*
X226905354Y-48099500D01*
X226872897Y-48106398D01*
X226720197Y-48138855D01*
X226720192Y-48138857D01*
X226547270Y-48215848D01*
X226547265Y-48215851D01*
X226394129Y-48327111D01*
X226267466Y-48467785D01*
X226172821Y-48631715D01*
X226172818Y-48631722D01*
X226114327Y-48811740D01*
X226114326Y-48811744D01*
X226094540Y-49000000D01*
X222802266Y-49000000D01*
X222782396Y-48934499D01*
X222731032Y-48838403D01*
X222694141Y-48769384D01*
X222694140Y-48769382D01*
X222694136Y-48769375D01*
X222694130Y-48769368D01*
X222693817Y-48768899D01*
X222693725Y-48768605D01*
X222691265Y-48764003D01*
X222692137Y-48763536D01*
X222672934Y-48702223D01*
X222691414Y-48634841D01*
X222693817Y-48631101D01*
X222694127Y-48630635D01*
X222694136Y-48630625D01*
X222782396Y-48465501D01*
X222836747Y-48286331D01*
X222855099Y-48100000D01*
X222836747Y-47913669D01*
X222782396Y-47734499D01*
X222694136Y-47569375D01*
X222694135Y-47569373D01*
X222575357Y-47424642D01*
X222430626Y-47305864D01*
X222430623Y-47305862D01*
X222265502Y-47217604D01*
X222086333Y-47163253D01*
X222086331Y-47163252D01*
X221900000Y-47144901D01*
X221713668Y-47163252D01*
X221713666Y-47163253D01*
X221534497Y-47217604D01*
X221369376Y-47305862D01*
X221369373Y-47305864D01*
X221224642Y-47424642D01*
X221105864Y-47569373D01*
X221105862Y-47569376D01*
X221017604Y-47734497D01*
X220963253Y-47913666D01*
X220963252Y-47913668D01*
X220944901Y-48100000D01*
X220963252Y-48286331D01*
X220963253Y-48286333D01*
X221017604Y-48465502D01*
X221105860Y-48630619D01*
X221106191Y-48631114D01*
X221106284Y-48631412D01*
X221108735Y-48635997D01*
X221107865Y-48636461D01*
X221127065Y-48697793D01*
X221108577Y-48765172D01*
X221106191Y-48768886D01*
X221105860Y-48769380D01*
X221017604Y-48934497D01*
X220963253Y-49113666D01*
X220963252Y-49113668D01*
X220944901Y-49300000D01*
X185046621Y-49300000D01*
X184987102Y-49172362D01*
X184987100Y-49172359D01*
X184987099Y-49172357D01*
X184861599Y-48993124D01*
X184802972Y-48934497D01*
X184706877Y-48838402D01*
X184527639Y-48712898D01*
X184527640Y-48712898D01*
X184527638Y-48712897D01*
X184362724Y-48635997D01*
X184329330Y-48620425D01*
X184329326Y-48620424D01*
X184329322Y-48620422D01*
X184117977Y-48563793D01*
X183900002Y-48544723D01*
X183899998Y-48544723D01*
X183754682Y-48557436D01*
X183682023Y-48563793D01*
X183682020Y-48563793D01*
X183470677Y-48620422D01*
X183470668Y-48620426D01*
X183272361Y-48712898D01*
X183272357Y-48712900D01*
X183093121Y-48838402D01*
X182938402Y-48993121D01*
X182812900Y-49172357D01*
X182812898Y-49172361D01*
X182720426Y-49370668D01*
X182720422Y-49370677D01*
X182663793Y-49582020D01*
X182663793Y-49582024D01*
X182644888Y-49798118D01*
X182644723Y-49800000D01*
X179400500Y-49800000D01*
X179400500Y-46300002D01*
X182644723Y-46300002D01*
X182663793Y-46517975D01*
X182663793Y-46517979D01*
X182720422Y-46729322D01*
X182720424Y-46729326D01*
X182720425Y-46729330D01*
X182766661Y-46828484D01*
X182812897Y-46927638D01*
X182812898Y-46927639D01*
X182938402Y-47106877D01*
X183093123Y-47261598D01*
X183272361Y-47387102D01*
X183470670Y-47479575D01*
X183682023Y-47536207D01*
X183864926Y-47552208D01*
X183899998Y-47555277D01*
X183900000Y-47555277D01*
X183900002Y-47555277D01*
X183928254Y-47552805D01*
X184117977Y-47536207D01*
X184329330Y-47479575D01*
X184527639Y-47387102D01*
X184706877Y-47261598D01*
X184861598Y-47106877D01*
X184987102Y-46927639D01*
X185079575Y-46729330D01*
X185136207Y-46517977D01*
X185155277Y-46300000D01*
X185136207Y-46082023D01*
X185079575Y-45870670D01*
X184987102Y-45672362D01*
X184987100Y-45672359D01*
X184987099Y-45672357D01*
X184861599Y-45493124D01*
X184826871Y-45458396D01*
X184706877Y-45338402D01*
X184527639Y-45212898D01*
X184527640Y-45212898D01*
X184527638Y-45212897D01*
X184428484Y-45166661D01*
X184329330Y-45120425D01*
X184329326Y-45120424D01*
X184329322Y-45120422D01*
X184117977Y-45063793D01*
X183900002Y-45044723D01*
X183899998Y-45044723D01*
X183754682Y-45057436D01*
X183682023Y-45063793D01*
X183682020Y-45063793D01*
X183470677Y-45120422D01*
X183470668Y-45120426D01*
X183272361Y-45212898D01*
X183272357Y-45212900D01*
X183093121Y-45338402D01*
X182938402Y-45493121D01*
X182812900Y-45672357D01*
X182812898Y-45672361D01*
X182720426Y-45870668D01*
X182720422Y-45870677D01*
X182663793Y-46082020D01*
X182663793Y-46082024D01*
X182644723Y-46299997D01*
X182644723Y-46300002D01*
X179400500Y-46300002D01*
X179400500Y-44500000D01*
X225974474Y-44500000D01*
X225994547Y-44755064D01*
X226054279Y-45003864D01*
X226152188Y-45240239D01*
X226152190Y-45240242D01*
X226285875Y-45458396D01*
X226285878Y-45458401D01*
X226361200Y-45546591D01*
X226452044Y-45652956D01*
X226576579Y-45759319D01*
X226646598Y-45819121D01*
X226646603Y-45819124D01*
X226864757Y-45952809D01*
X226864760Y-45952811D01*
X227101135Y-46050720D01*
X227101140Y-46050722D01*
X227349930Y-46110452D01*
X227605000Y-46130526D01*
X227860070Y-46110452D01*
X228108860Y-46050722D01*
X228227051Y-46001765D01*
X228345239Y-45952811D01*
X228345240Y-45952810D01*
X228345243Y-45952809D01*
X228563399Y-45819123D01*
X228757956Y-45652956D01*
X228924123Y-45458399D01*
X229057809Y-45240243D01*
X229155722Y-45003860D01*
X229215452Y-44755070D01*
X229235526Y-44500000D01*
X229215452Y-44244930D01*
X229155722Y-43996140D01*
X229155720Y-43996135D01*
X229057811Y-43759760D01*
X229057809Y-43759757D01*
X228924123Y-43541601D01*
X228924122Y-43541600D01*
X228924121Y-43541598D01*
X228826790Y-43427639D01*
X228757956Y-43347044D01*
X228651591Y-43256200D01*
X228563401Y-43180878D01*
X228563396Y-43180875D01*
X228345242Y-43047190D01*
X228345239Y-43047188D01*
X228108864Y-42949279D01*
X228108860Y-42949278D01*
X227860070Y-42889548D01*
X227860067Y-42889547D01*
X227860064Y-42889547D01*
X227605000Y-42869474D01*
X227349935Y-42889547D01*
X227349931Y-42889547D01*
X227349930Y-42889548D01*
X227225535Y-42919413D01*
X227101135Y-42949279D01*
X226864760Y-43047188D01*
X226864757Y-43047190D01*
X226646603Y-43180875D01*
X226646598Y-43180878D01*
X226452044Y-43347044D01*
X226285878Y-43541598D01*
X226285875Y-43541603D01*
X226152190Y-43759757D01*
X226152188Y-43759760D01*
X226054279Y-43996135D01*
X225994547Y-44244935D01*
X225974474Y-44500000D01*
X179400500Y-44500000D01*
X179400500Y-42800002D01*
X182644723Y-42800002D01*
X182663793Y-43017975D01*
X182663793Y-43017979D01*
X182720422Y-43229322D01*
X182720424Y-43229326D01*
X182720425Y-43229330D01*
X182766661Y-43328484D01*
X182812897Y-43427638D01*
X182812898Y-43427639D01*
X182938402Y-43606877D01*
X183093123Y-43761598D01*
X183272361Y-43887102D01*
X183470670Y-43979575D01*
X183682023Y-44036207D01*
X183864926Y-44052208D01*
X183899998Y-44055277D01*
X183900000Y-44055277D01*
X183900002Y-44055277D01*
X183928254Y-44052805D01*
X184117977Y-44036207D01*
X184329330Y-43979575D01*
X184527639Y-43887102D01*
X184706877Y-43761598D01*
X184861598Y-43606877D01*
X184987102Y-43427639D01*
X185079575Y-43229330D01*
X185136207Y-43017977D01*
X185155277Y-42800000D01*
X185136207Y-42582023D01*
X185079575Y-42370670D01*
X184987102Y-42172362D01*
X184987100Y-42172359D01*
X184987099Y-42172357D01*
X184861599Y-41993124D01*
X184861596Y-41993121D01*
X184706877Y-41838402D01*
X184527639Y-41712898D01*
X184527640Y-41712898D01*
X184527638Y-41712897D01*
X184404070Y-41655277D01*
X184329330Y-41620425D01*
X184329326Y-41620424D01*
X184329322Y-41620422D01*
X184117977Y-41563793D01*
X183900002Y-41544723D01*
X183899998Y-41544723D01*
X183754682Y-41557436D01*
X183682023Y-41563793D01*
X183682020Y-41563793D01*
X183470677Y-41620422D01*
X183470668Y-41620426D01*
X183272361Y-41712898D01*
X183272357Y-41712900D01*
X183093121Y-41838402D01*
X182938402Y-41993121D01*
X182812900Y-42172357D01*
X182812898Y-42172361D01*
X182720426Y-42370668D01*
X182720422Y-42370677D01*
X182663793Y-42582020D01*
X182663793Y-42582024D01*
X182644723Y-42799997D01*
X182644723Y-42800002D01*
X179400500Y-42800002D01*
X179400500Y-39300002D01*
X182644723Y-39300002D01*
X182663793Y-39517975D01*
X182663793Y-39517979D01*
X182720422Y-39729322D01*
X182720424Y-39729326D01*
X182720425Y-39729330D01*
X182740489Y-39772357D01*
X182812897Y-39927638D01*
X182812898Y-39927639D01*
X182938402Y-40106877D01*
X183093123Y-40261598D01*
X183272361Y-40387102D01*
X183470670Y-40479575D01*
X183682023Y-40536207D01*
X183864926Y-40552208D01*
X183899998Y-40555277D01*
X183900000Y-40555277D01*
X183900002Y-40555277D01*
X183928254Y-40552805D01*
X184117977Y-40536207D01*
X184329330Y-40479575D01*
X184499975Y-40400002D01*
X258944723Y-40400002D01*
X258963793Y-40617975D01*
X258963793Y-40617979D01*
X259020422Y-40829322D01*
X259020424Y-40829326D01*
X259020425Y-40829330D01*
X259066661Y-40928484D01*
X259112897Y-41027638D01*
X259112898Y-41027639D01*
X259238402Y-41206877D01*
X259393123Y-41361598D01*
X259572361Y-41487102D01*
X259770670Y-41579575D01*
X259982023Y-41636207D01*
X260164926Y-41652208D01*
X260199998Y-41655277D01*
X260200000Y-41655277D01*
X260200002Y-41655277D01*
X260228254Y-41652805D01*
X260417977Y-41636207D01*
X260629330Y-41579575D01*
X260827639Y-41487102D01*
X261006877Y-41361598D01*
X261161598Y-41206877D01*
X261287102Y-41027639D01*
X261379575Y-40829330D01*
X261436207Y-40617977D01*
X261455277Y-40400000D01*
X261436207Y-40182023D01*
X261379575Y-39970670D01*
X261287102Y-39772362D01*
X261287100Y-39772359D01*
X261287099Y-39772357D01*
X261161599Y-39593124D01*
X261086450Y-39517975D01*
X261006877Y-39438402D01*
X260827639Y-39312898D01*
X260827640Y-39312898D01*
X260827638Y-39312897D01*
X260728484Y-39266661D01*
X260629330Y-39220425D01*
X260629326Y-39220424D01*
X260629322Y-39220422D01*
X260417977Y-39163793D01*
X260200002Y-39144723D01*
X260199998Y-39144723D01*
X260054682Y-39157436D01*
X259982023Y-39163793D01*
X259982020Y-39163793D01*
X259770677Y-39220422D01*
X259770668Y-39220426D01*
X259572361Y-39312898D01*
X259572357Y-39312900D01*
X259393121Y-39438402D01*
X259238402Y-39593121D01*
X259112900Y-39772357D01*
X259112898Y-39772361D01*
X259020426Y-39970668D01*
X259020422Y-39970677D01*
X258963793Y-40182020D01*
X258963793Y-40182024D01*
X258944723Y-40399997D01*
X258944723Y-40400002D01*
X184499975Y-40400002D01*
X184527639Y-40387102D01*
X184706877Y-40261598D01*
X184861598Y-40106877D01*
X184987102Y-39927639D01*
X185079575Y-39729330D01*
X185136207Y-39517977D01*
X185152805Y-39328254D01*
X185155277Y-39300002D01*
X185155277Y-39299997D01*
X185148315Y-39220422D01*
X185137780Y-39100000D01*
X206144901Y-39100000D01*
X206163252Y-39286331D01*
X206163253Y-39286333D01*
X206217604Y-39465502D01*
X206305862Y-39630623D01*
X206305864Y-39630626D01*
X206424642Y-39775357D01*
X206569373Y-39894135D01*
X206569376Y-39894137D01*
X206632053Y-39927638D01*
X206734499Y-39982396D01*
X206913666Y-40036746D01*
X206913668Y-40036747D01*
X206930374Y-40038392D01*
X207100000Y-40055099D01*
X207286331Y-40036747D01*
X207465501Y-39982396D01*
X207630625Y-39894136D01*
X207775357Y-39775357D01*
X207894136Y-39630625D01*
X207982396Y-39465501D01*
X208036747Y-39286331D01*
X208055099Y-39100000D01*
X208036747Y-38913669D01*
X207982396Y-38734499D01*
X207982395Y-38734497D01*
X207894137Y-38569376D01*
X207894135Y-38569373D01*
X207775357Y-38424642D01*
X207630626Y-38305864D01*
X207630623Y-38305862D01*
X207465502Y-38217604D01*
X207286333Y-38163253D01*
X207286331Y-38163252D01*
X207100000Y-38144901D01*
X206913668Y-38163252D01*
X206913666Y-38163253D01*
X206734497Y-38217604D01*
X206569376Y-38305862D01*
X206569373Y-38305864D01*
X206424642Y-38424642D01*
X206305864Y-38569373D01*
X206305862Y-38569376D01*
X206217604Y-38734497D01*
X206163253Y-38913666D01*
X206163252Y-38913668D01*
X206144901Y-39100000D01*
X185137780Y-39100000D01*
X185136207Y-39082023D01*
X185079575Y-38870670D01*
X184987102Y-38672362D01*
X184987100Y-38672359D01*
X184987099Y-38672357D01*
X184861599Y-38493124D01*
X184793117Y-38424642D01*
X184706877Y-38338402D01*
X184527639Y-38212898D01*
X184527640Y-38212898D01*
X184527638Y-38212897D01*
X184421173Y-38163252D01*
X184329330Y-38120425D01*
X184329326Y-38120424D01*
X184329322Y-38120422D01*
X184117977Y-38063793D01*
X183900002Y-38044723D01*
X183899998Y-38044723D01*
X183754682Y-38057436D01*
X183682023Y-38063793D01*
X183682020Y-38063793D01*
X183470677Y-38120422D01*
X183470668Y-38120426D01*
X183272361Y-38212898D01*
X183272357Y-38212900D01*
X183093121Y-38338402D01*
X182938402Y-38493121D01*
X182812900Y-38672357D01*
X182812898Y-38672361D01*
X182720426Y-38870668D01*
X182720422Y-38870677D01*
X182663793Y-39082020D01*
X182663793Y-39082024D01*
X182644723Y-39299997D01*
X182644723Y-39300002D01*
X179400500Y-39300002D01*
X179400500Y-35800002D01*
X182644723Y-35800002D01*
X182663793Y-36017975D01*
X182663793Y-36017979D01*
X182720422Y-36229322D01*
X182720424Y-36229326D01*
X182720425Y-36229330D01*
X182766661Y-36328484D01*
X182812897Y-36427638D01*
X182812898Y-36427639D01*
X182938402Y-36606877D01*
X183093123Y-36761598D01*
X183272361Y-36887102D01*
X183470670Y-36979575D01*
X183682023Y-37036207D01*
X183864926Y-37052208D01*
X183899998Y-37055277D01*
X183900000Y-37055277D01*
X183900002Y-37055277D01*
X183928254Y-37052805D01*
X184117977Y-37036207D01*
X184329330Y-36979575D01*
X184527639Y-36887102D01*
X184706877Y-36761598D01*
X184861598Y-36606877D01*
X184987102Y-36427639D01*
X185079575Y-36229330D01*
X185136207Y-36017977D01*
X185155277Y-35800000D01*
X185136207Y-35582023D01*
X185098776Y-35442328D01*
X185079577Y-35370677D01*
X185079576Y-35370676D01*
X185079575Y-35370670D01*
X184987102Y-35172362D01*
X184987100Y-35172359D01*
X184987099Y-35172357D01*
X184861599Y-34993124D01*
X184816304Y-34947829D01*
X184706877Y-34838402D01*
X184527639Y-34712898D01*
X184527640Y-34712898D01*
X184527638Y-34712897D01*
X184428484Y-34666661D01*
X184329330Y-34620425D01*
X184329326Y-34620424D01*
X184329322Y-34620422D01*
X184117977Y-34563793D01*
X183900002Y-34544723D01*
X183899998Y-34544723D01*
X183754682Y-34557436D01*
X183682023Y-34563793D01*
X183682020Y-34563793D01*
X183470677Y-34620422D01*
X183470668Y-34620426D01*
X183272361Y-34712898D01*
X183272357Y-34712900D01*
X183093121Y-34838402D01*
X182938402Y-34993121D01*
X182812900Y-35172357D01*
X182812898Y-35172361D01*
X182720426Y-35370668D01*
X182720422Y-35370677D01*
X182663793Y-35582020D01*
X182663793Y-35582024D01*
X182644723Y-35799997D01*
X182644723Y-35800002D01*
X179400500Y-35800002D01*
X179400500Y-33300000D01*
X206544901Y-33300000D01*
X206563252Y-33486331D01*
X206563253Y-33486333D01*
X206617604Y-33665502D01*
X206705862Y-33830623D01*
X206705864Y-33830626D01*
X206824642Y-33975357D01*
X206969373Y-34094135D01*
X206969376Y-34094137D01*
X207134497Y-34182395D01*
X207134499Y-34182396D01*
X207313666Y-34236746D01*
X207313668Y-34236747D01*
X207330374Y-34238392D01*
X207500000Y-34255099D01*
X207686331Y-34236747D01*
X207722382Y-34225810D01*
X207792245Y-34225186D01*
X207851358Y-34262433D01*
X207880951Y-34325726D01*
X207876307Y-34382788D01*
X207863505Y-34422189D01*
X207863503Y-34422194D01*
X207844815Y-34600000D01*
X207863503Y-34777805D01*
X207863504Y-34777807D01*
X207918747Y-34947829D01*
X207918750Y-34947835D01*
X208008141Y-35102665D01*
X208049812Y-35148946D01*
X208127764Y-35235521D01*
X208127767Y-35235523D01*
X208127770Y-35235526D01*
X208272407Y-35340612D01*
X208435733Y-35413329D01*
X208610609Y-35450500D01*
X208610610Y-35450500D01*
X208789389Y-35450500D01*
X208789391Y-35450500D01*
X208964267Y-35413329D01*
X209127593Y-35340612D01*
X209255240Y-35247870D01*
X225527121Y-35247870D01*
X225527122Y-35247876D01*
X225533529Y-35307483D01*
X225583823Y-35442328D01*
X225583827Y-35442335D01*
X225670073Y-35557544D01*
X225670076Y-35557547D01*
X225785285Y-35643793D01*
X225785292Y-35643797D01*
X225920138Y-35694091D01*
X225920137Y-35694091D01*
X225927065Y-35694835D01*
X225979748Y-35700500D01*
X227675493Y-35700499D01*
X227735104Y-35694091D01*
X227869952Y-35643796D01*
X227985167Y-35557546D01*
X228071417Y-35442331D01*
X228121712Y-35307483D01*
X228128121Y-35247873D01*
X228128120Y-33552128D01*
X228121712Y-33492517D01*
X228071417Y-33357669D01*
X228071416Y-33357668D01*
X228071414Y-33357664D01*
X227985168Y-33242455D01*
X227985165Y-33242452D01*
X227869956Y-33156206D01*
X227869949Y-33156202D01*
X227735103Y-33105908D01*
X227735104Y-33105908D01*
X227675504Y-33099501D01*
X227675502Y-33099500D01*
X227675494Y-33099500D01*
X227675485Y-33099500D01*
X225979750Y-33099500D01*
X225979744Y-33099501D01*
X225920137Y-33105908D01*
X225785292Y-33156202D01*
X225785285Y-33156206D01*
X225670076Y-33242452D01*
X225670073Y-33242455D01*
X225583827Y-33357664D01*
X225583823Y-33357671D01*
X225533529Y-33492517D01*
X225527122Y-33552116D01*
X225527122Y-33552123D01*
X225527121Y-33552135D01*
X225527121Y-35247870D01*
X209255240Y-35247870D01*
X209272230Y-35235526D01*
X209391859Y-35102665D01*
X209481250Y-34947835D01*
X209536497Y-34777803D01*
X209555185Y-34600000D01*
X209536497Y-34422197D01*
X209505152Y-34325726D01*
X209481252Y-34252170D01*
X209481249Y-34252164D01*
X209472348Y-34236747D01*
X209391859Y-34097335D01*
X209345003Y-34045296D01*
X209272235Y-33964478D01*
X209272232Y-33964476D01*
X209272231Y-33964475D01*
X209272230Y-33964474D01*
X209127593Y-33859388D01*
X208964267Y-33786671D01*
X208964265Y-33786670D01*
X208830161Y-33758166D01*
X208789391Y-33749500D01*
X208610609Y-33749500D01*
X208544824Y-33763482D01*
X208475159Y-33758166D01*
X208419426Y-33716028D01*
X208395321Y-33650448D01*
X208400386Y-33606196D01*
X208416787Y-33552129D01*
X208436747Y-33486331D01*
X208455099Y-33300000D01*
X208436747Y-33113669D01*
X208382396Y-32934499D01*
X208294136Y-32769375D01*
X208294135Y-32769373D01*
X208175357Y-32624642D01*
X208030626Y-32505864D01*
X208030623Y-32505862D01*
X207865502Y-32417604D01*
X207686333Y-32363253D01*
X207686331Y-32363252D01*
X207500000Y-32344901D01*
X207313668Y-32363252D01*
X207313666Y-32363253D01*
X207134497Y-32417604D01*
X206969376Y-32505862D01*
X206969373Y-32505864D01*
X206824642Y-32624642D01*
X206705864Y-32769373D01*
X206705862Y-32769376D01*
X206617604Y-32934497D01*
X206563253Y-33113666D01*
X206563252Y-33113668D01*
X206544901Y-33300000D01*
X179400500Y-33300000D01*
X179400500Y-30600000D01*
X218244815Y-30600000D01*
X218263503Y-30777805D01*
X218263504Y-30777807D01*
X218318747Y-30947829D01*
X218318750Y-30947835D01*
X218408141Y-31102665D01*
X218449812Y-31148946D01*
X218527764Y-31235521D01*
X218527767Y-31235523D01*
X218527770Y-31235526D01*
X218672407Y-31340612D01*
X218835733Y-31413329D01*
X219010609Y-31450500D01*
X219010610Y-31450500D01*
X219189389Y-31450500D01*
X219189391Y-31450500D01*
X219364267Y-31413329D01*
X219527593Y-31340612D01*
X219672230Y-31235526D01*
X219791859Y-31102665D01*
X219881250Y-30947835D01*
X219936497Y-30777803D01*
X219955185Y-30600000D01*
X219936497Y-30422197D01*
X219891073Y-30282396D01*
X219881252Y-30252170D01*
X219881249Y-30252164D01*
X219791859Y-30097335D01*
X219745003Y-30045296D01*
X219672235Y-29964478D01*
X219672232Y-29964476D01*
X219672231Y-29964475D01*
X219672230Y-29964474D01*
X219583490Y-29900000D01*
X244034901Y-29900000D01*
X244053252Y-30086331D01*
X244053253Y-30086333D01*
X244107604Y-30265502D01*
X244195862Y-30430623D01*
X244195864Y-30430626D01*
X244314642Y-30575357D01*
X244459373Y-30694135D01*
X244459376Y-30694137D01*
X244624497Y-30782395D01*
X244624499Y-30782396D01*
X244803666Y-30836746D01*
X244803668Y-30836747D01*
X244820374Y-30838392D01*
X244990000Y-30855099D01*
X245176331Y-30836747D01*
X245355501Y-30782396D01*
X245486547Y-30712351D01*
X245554950Y-30698109D01*
X245603453Y-30712351D01*
X245725913Y-30777807D01*
X245734499Y-30782396D01*
X245913666Y-30836746D01*
X245913668Y-30836747D01*
X245930374Y-30838392D01*
X246100000Y-30855099D01*
X246286331Y-30836747D01*
X246465501Y-30782396D01*
X246525050Y-30750566D01*
X246591547Y-30715024D01*
X246659950Y-30700782D01*
X246708453Y-30715024D01*
X246834497Y-30782395D01*
X246834499Y-30782396D01*
X247013666Y-30836746D01*
X247013668Y-30836747D01*
X247030374Y-30838392D01*
X247200000Y-30855099D01*
X247386331Y-30836747D01*
X247565501Y-30782396D01*
X247730625Y-30694136D01*
X247875357Y-30575357D01*
X247994136Y-30430625D01*
X248082396Y-30265501D01*
X248136747Y-30086331D01*
X248155099Y-29900000D01*
X248136747Y-29713669D01*
X248082396Y-29534499D01*
X248082395Y-29534497D01*
X248015024Y-29408453D01*
X248000782Y-29340050D01*
X248015024Y-29291547D01*
X248082395Y-29165502D01*
X248082396Y-29165501D01*
X248136747Y-28986331D01*
X248155099Y-28800000D01*
X248136747Y-28613669D01*
X248082396Y-28434499D01*
X248033130Y-28342328D01*
X248015024Y-28308453D01*
X248000782Y-28240050D01*
X248015024Y-28191547D01*
X248082395Y-28065502D01*
X248082396Y-28065501D01*
X248136747Y-27886331D01*
X248155099Y-27700000D01*
X248136747Y-27513669D01*
X248082396Y-27334499D01*
X247994136Y-27169375D01*
X247994135Y-27169373D01*
X247875357Y-27024642D01*
X247730626Y-26905864D01*
X247730623Y-26905862D01*
X247565502Y-26817604D01*
X247386333Y-26763253D01*
X247386331Y-26763252D01*
X247200000Y-26744901D01*
X247013668Y-26763252D01*
X247013666Y-26763253D01*
X246834497Y-26817604D01*
X246708453Y-26884976D01*
X246640050Y-26899218D01*
X246591547Y-26884976D01*
X246465502Y-26817604D01*
X246286333Y-26763253D01*
X246286331Y-26763252D01*
X246100000Y-26744901D01*
X245913668Y-26763252D01*
X245913666Y-26763253D01*
X245734501Y-26817603D01*
X245603453Y-26887649D01*
X245535050Y-26901890D01*
X245486547Y-26887649D01*
X245475273Y-26881623D01*
X245355501Y-26817604D01*
X245355498Y-26817603D01*
X245176333Y-26763253D01*
X245176331Y-26763252D01*
X244990000Y-26744901D01*
X244803668Y-26763252D01*
X244803666Y-26763253D01*
X244624497Y-26817604D01*
X244459376Y-26905862D01*
X244459373Y-26905864D01*
X244314642Y-27024642D01*
X244195864Y-27169373D01*
X244195862Y-27169376D01*
X244107604Y-27334497D01*
X244053253Y-27513666D01*
X244053252Y-27513668D01*
X244034901Y-27700000D01*
X244053252Y-27886331D01*
X244053253Y-27886333D01*
X244107604Y-28065502D01*
X244174976Y-28191547D01*
X244189218Y-28259950D01*
X244174976Y-28308453D01*
X244107604Y-28434497D01*
X244053253Y-28613666D01*
X244053252Y-28613668D01*
X244034901Y-28800000D01*
X244053252Y-28986331D01*
X244053253Y-28986333D01*
X244107604Y-29165502D01*
X244174976Y-29291547D01*
X244189218Y-29359950D01*
X244174976Y-29408453D01*
X244107604Y-29534497D01*
X244053253Y-29713666D01*
X244053252Y-29713668D01*
X244034901Y-29900000D01*
X219583490Y-29900000D01*
X219527593Y-29859388D01*
X219364267Y-29786671D01*
X219364265Y-29786670D01*
X219236594Y-29759533D01*
X219189391Y-29749500D01*
X219010609Y-29749500D01*
X218979954Y-29756015D01*
X218835733Y-29786670D01*
X218835728Y-29786672D01*
X218672408Y-29859387D01*
X218527768Y-29964475D01*
X218408140Y-30097336D01*
X218318750Y-30252164D01*
X218318747Y-30252170D01*
X218263504Y-30422192D01*
X218263503Y-30422194D01*
X218244815Y-30600000D01*
X179400500Y-30600000D01*
X179400500Y-29400000D01*
X200944901Y-29400000D01*
X200963252Y-29586331D01*
X200963253Y-29586333D01*
X201017604Y-29765502D01*
X201105862Y-29930623D01*
X201105864Y-29930626D01*
X201224642Y-30075357D01*
X201369373Y-30194135D01*
X201369376Y-30194137D01*
X201502890Y-30265501D01*
X201534499Y-30282396D01*
X201713666Y-30336746D01*
X201713668Y-30336747D01*
X201730374Y-30338392D01*
X201900000Y-30355099D01*
X202086331Y-30336747D01*
X202265501Y-30282396D01*
X202430625Y-30194136D01*
X202575357Y-30075357D01*
X202694136Y-29930625D01*
X202782396Y-29765501D01*
X202836747Y-29586331D01*
X202855099Y-29400000D01*
X202836747Y-29213669D01*
X202782396Y-29034499D01*
X202694136Y-28869375D01*
X202694135Y-28869373D01*
X202575357Y-28724642D01*
X202430626Y-28605864D01*
X202430623Y-28605862D01*
X202265502Y-28517604D01*
X202086333Y-28463253D01*
X202086331Y-28463252D01*
X201900000Y-28444901D01*
X201713668Y-28463252D01*
X201713666Y-28463253D01*
X201534497Y-28517604D01*
X201369376Y-28605862D01*
X201369373Y-28605864D01*
X201224642Y-28724642D01*
X201105864Y-28869373D01*
X201105862Y-28869376D01*
X201017604Y-29034497D01*
X200963253Y-29213666D01*
X200963252Y-29213668D01*
X200944901Y-29400000D01*
X179400500Y-29400000D01*
X179400500Y-28147870D01*
X240452151Y-28147870D01*
X240452152Y-28147876D01*
X240458559Y-28207483D01*
X240508853Y-28342328D01*
X240508857Y-28342335D01*
X240595103Y-28457544D01*
X240595106Y-28457547D01*
X240710315Y-28543793D01*
X240710322Y-28543797D01*
X240845168Y-28594091D01*
X240845167Y-28594091D01*
X240852095Y-28594835D01*
X240904778Y-28600500D01*
X242600523Y-28600499D01*
X242660134Y-28594091D01*
X242794982Y-28543796D01*
X242910197Y-28457546D01*
X242996447Y-28342331D01*
X243046742Y-28207483D01*
X243053151Y-28147873D01*
X243053150Y-26452128D01*
X243046742Y-26392517D01*
X242996447Y-26257669D01*
X242996446Y-26257668D01*
X242996444Y-26257664D01*
X242910198Y-26142455D01*
X242910195Y-26142452D01*
X242794986Y-26056206D01*
X242794979Y-26056202D01*
X242660133Y-26005908D01*
X242660134Y-26005908D01*
X242600534Y-25999501D01*
X242600532Y-25999500D01*
X242600524Y-25999500D01*
X242600515Y-25999500D01*
X240904780Y-25999500D01*
X240904774Y-25999501D01*
X240845167Y-26005908D01*
X240710322Y-26056202D01*
X240710315Y-26056206D01*
X240595106Y-26142452D01*
X240595103Y-26142455D01*
X240508857Y-26257664D01*
X240508853Y-26257671D01*
X240458559Y-26392517D01*
X240452152Y-26452116D01*
X240452152Y-26452123D01*
X240452151Y-26452135D01*
X240452151Y-28147870D01*
X179400500Y-28147870D01*
X179400500Y-24163033D01*
X179400872Y-24156250D01*
X179402196Y-24144205D01*
X179400500Y-24093318D01*
X179400500Y-24078258D01*
X179408389Y-23779823D01*
X179409027Y-23772440D01*
X179417848Y-23712426D01*
X179453118Y-23472441D01*
X179454631Y-23465187D01*
X179465558Y-23424992D01*
X179534174Y-23172574D01*
X179536540Y-23165559D01*
X179650402Y-22884511D01*
X179653586Y-22877828D01*
X179800144Y-22612351D01*
X179804085Y-22606122D01*
X179981251Y-22360007D01*
X179985932Y-22354262D01*
X180087974Y-22243272D01*
X180191157Y-22131040D01*
X180196487Y-22125897D01*
X180381410Y-21967629D01*
X180426865Y-21928726D01*
X180432758Y-21924263D01*
X180685016Y-21755953D01*
X180691400Y-21752226D01*
X180877545Y-21657931D01*
X180961906Y-21615196D01*
X180968680Y-21612258D01*
X181253620Y-21508444D01*
X181260700Y-21506334D01*
X181555962Y-21437236D01*
X181563249Y-21435984D01*
X181864641Y-21402577D01*
X181872025Y-21402202D01*
X182159222Y-21404817D01*
X182170156Y-21405728D01*
X182170169Y-21405567D01*
X182175027Y-21405949D01*
X182175028Y-21405948D01*
X182175029Y-21405949D01*
X182190606Y-21405947D01*
X182194866Y-21406093D01*
X182236412Y-21408959D01*
X182236932Y-21408844D01*
X182263593Y-21405942D01*
X261998262Y-21400500D01*
X262001719Y-21400596D01*
G37*
G04 #@! TD.AperFunction*
M02*
