M48
; DRILL file {KiCad 7.0.8} date Mon Nov 27 13:49:07 2023
; FORMAT={-:-/ absolute / metric / decimal}
; #@! TF.CreationDate,2023-11-27T13:49:07+01:00
; #@! TF.GenerationSoftware,Kicad,Pcbnew,7.0.8
; #@! TF.FileFunction,Plated,1,4,PTH
FMAT,2
METRIC
; #@! TA.AperFunction,Plated,PTH,ViaDrill
T1C0.400
; #@! TA.AperFunction,Plated,PTH,ViaDrill
T2C0.600
; #@! TA.AperFunction,Plated,PTH,ComponentDrill
T3C0.800
; #@! TA.AperFunction,Plated,PTH,ComponentDrill
T4C0.890
; #@! TA.AperFunction,Plated,PTH,ComponentDrill
T5C1.000
; #@! TA.AperFunction,Plated,PTH,ComponentDrill
T6C1.020
; #@! TA.AperFunction,Plated,PTH,ComponentDrill
T7C1.100
; #@! TA.AperFunction,Plated,PTH,ComponentDrill
T8C1.150
; #@! TA.AperFunction,Plated,PTH,ComponentDrill
T9C1.400
; #@! TA.AperFunction,Plated,PTH,ComponentDrill
T10C1.500
; #@! TA.AperFunction,Plated,PTH,ComponentDrill
T11C1.570
; #@! TA.AperFunction,Plated,PTH,ComponentDrill
T12C3.200
%
G90
G05
T1
X181.5Y-102.2
X184.1Y-96.8
X184.2Y-84.0
X185.2Y-104.0
X185.35Y-96.797
X185.7Y-83.8
X186.65Y-96.897
X187.95Y-96.897
X191.7Y-102.2
X192.6Y-102.2
X193.378Y-101.723
X195.5Y-97.5
X195.775Y-95.225
X196.4Y-96.1
X196.6Y-73.0
X196.8Y-68.1
X198.5Y-77.2
X198.7Y-65.2
X199.0Y-82.0
X199.8Y-77.624
X200.426Y-84.8
X201.1Y-63.475
X201.675Y-86.0
X202.1Y-72.2
X204.1Y-70.3
X206.22Y-97.52
X206.65Y-69.95
X206.94Y-96.98
X207.642Y-69.842
X207.7Y-96.3
X208.3Y-79.8
X208.3Y-95.6
X208.5Y-82.3
X208.7Y-34.6
X209.3Y-100.6
X209.7Y-53.0
X209.9Y-99.9
X210.533Y-99.233
X210.631Y-101.531
X211.233Y-98.533
X211.289Y-100.873
X212.3Y-62.7
X213.0Y-58.8
X213.7Y-60.567
X215.4Y-60.1
X217.2Y-65.1
X217.3Y-62.7
X219.0Y-61.8
X219.1Y-30.6
X219.8Y-65.9
X219.9Y-64.4
X220.1Y-58.475
X220.132Y-63.525
X220.49Y-60.874
X220.601Y-62.674
X222.3Y-68.2
X222.8Y-66.7
X223.0Y-70.4
X224.424Y-58.9
X225.6Y-58.1
X225.8Y-66.9
X226.6Y-68.4
X227.0Y-49.0
X228.4Y-57.4
X228.5Y-60.7
X228.5Y-63.774
X228.8Y-107.8
X229.9Y-60.5
X230.186Y-61.4
X230.3Y-62.65
X230.911Y-63.31
X230.97Y-62.025
X231.1Y-56.5
X233.2Y-58.5
X233.7Y-61.5
X233.9Y-54.2
X234.1Y-107.0
X234.9Y-63.3
X235.84Y-62.7
X237.3Y-60.5
T2
X180.3Y-83.7
X180.3Y-97.1
X185.028Y-90.505
X185.028Y-91.905
X185.028Y-93.305
X186.495Y-88.828
X186.605Y-94.873
X187.895Y-88.828
X188.005Y-94.873
X189.295Y-88.828
X189.405Y-94.873
X190.9Y-90.5
X190.9Y-91.9
X190.9Y-93.3
X201.9Y-29.4
X204.9Y-38.9
X206.9Y-34.6
X207.1Y-39.1
X207.15Y-85.35
X207.15Y-86.6
X207.15Y-87.85
X207.15Y-89.1
X207.5Y-33.3
X209.7Y-50.8
X212.0Y-74.9
X212.5Y-63.9
X212.8Y-91.8
X215.2Y-59.1
X216.7Y-54.7
X217.7Y-76.7
X217.8Y-79.8
X219.0Y-87.4
X219.2Y-31.9
X219.2Y-93.3
X219.5Y-69.9
X220.7Y-73.4
X220.8Y-54.5
X221.4Y-86.1
X221.4Y-98.6
X221.9Y-48.1
X221.9Y-49.3
X222.1Y-83.9
X223.0Y-45.39
X224.4Y-63.0
X224.9Y-83.0
X224.9Y-97.5
X226.4Y-52.9
X226.9Y-66.8
X233.0Y-27.5
X233.0Y-28.6
X233.0Y-29.7
X233.0Y-30.8
X234.1Y-27.5
X234.1Y-28.6
X234.1Y-29.7
X234.1Y-30.8
X236.5Y-55.5
X244.99Y-27.7
X244.99Y-28.8
X244.99Y-29.9
X246.1Y-27.7
X246.1Y-28.8
X246.1Y-29.9
X247.2Y-27.7
X247.2Y-28.8
X247.2Y-29.9
X259.0Y-71.0
T3
X226.828Y-34.4
X229.328Y-34.4
X238.253Y-27.3
X241.753Y-27.3
T4
X251.97Y-53.5
X251.97Y-64.68
X253.5Y-53.5
X253.5Y-64.68
T5
X183.9Y-35.8
X183.9Y-39.3
X183.9Y-42.8
X183.9Y-46.3
X183.9Y-49.8
X183.9Y-53.3
X183.9Y-56.8
X183.9Y-60.3
X183.9Y-63.8
X183.9Y-67.3
X183.9Y-70.8
X183.9Y-74.3
X204.32Y-107.5
X206.86Y-107.5
X209.4Y-107.5
X211.94Y-107.5
X214.48Y-107.5
X217.02Y-107.5
X260.2Y-36.9
X260.2Y-40.4
X260.2Y-78.5
X260.2Y-82.0
X260.2Y-85.5
X260.2Y-89.0
X260.2Y-92.5
X260.2Y-96.0
T6
X242.32Y-52.97
X242.32Y-55.01
X242.32Y-57.05
X242.32Y-61.13
X242.32Y-63.17
X242.32Y-65.21
X244.86Y-53.99
X244.86Y-56.03
X244.86Y-58.07
X244.86Y-60.11
X244.86Y-62.15
X244.86Y-64.19
T7
X239.7Y-105.7
X239.7Y-110.2
X246.2Y-105.7
X246.2Y-110.2
T8
X239.78Y-52.995
X239.78Y-55.535
X239.78Y-62.645
X239.78Y-65.185
T9
X227.8Y-89.915
X227.8Y-97.535
X227.84Y-75.38
X227.84Y-83.0
X237.96Y-97.535
X238.0Y-83.0
X243.04Y-89.915
X243.08Y-75.38
X245.58Y-97.535
X245.62Y-83.0
T10
X227.605Y-44.5
T11
X263.27Y-51.025
X263.27Y-67.155
T12
X182.0Y-24.0
X182.0Y-109.0
X262.0Y-24.0
X262.0Y-109.0
T0
M30
