%TF.GenerationSoftware,KiCad,Pcbnew,7.0.8*%
%TF.CreationDate,2023-11-27T13:49:09+01:00*%
%TF.ProjectId,ESP32-POE-Wiegand-Relay-REV-A,45535033-322d-4504-9f45-2d5769656761,rev?*%
%TF.SameCoordinates,Original*%
%TF.FileFunction,Drillmap*%
%TF.FilePolarity,Positive*%
%FSLAX45Y45*%
G04 Gerber Fmt 4.5, Leading zero omitted, Abs format (unit mm)*
G04 Created by KiCad (PCBNEW 7.0.8) date 2023-11-27 13:49:09*
%MOMM*%
%LPD*%
G01*
G04 APERTURE LIST*
%ADD10C,0.100000*%
%ADD11C,0.200000*%
%ADD12C,0.325000*%
G04 APERTURE END LIST*
D10*
X18220652Y-2100545D02*
X26200000Y-2100000D01*
X17900000Y-10900000D02*
X17900000Y-2410000D01*
X26200000Y-11200000D02*
X18200000Y-11200000D01*
X26500000Y-2400000D02*
X26500000Y-10900000D01*
X26500000Y-2400000D02*
G75*
G03*
X26200000Y-2100000I-300000J0D01*
G01*
X26200000Y-11200000D02*
G75*
G03*
X26500000Y-10900000I0J300000D01*
G01*
X17900000Y-10900000D02*
G75*
G03*
X18200000Y-11200000I300000J0D01*
G01*
X18220652Y-2100545D02*
G75*
G03*
X17900000Y-2410000I-20652J-299455D01*
G01*
D11*
D12*
X25847500Y-5111500D02*
X26172500Y-5436500D01*
X26172500Y-5111500D02*
X25847500Y-5436500D01*
X25847500Y-6381500D02*
X26172500Y-6706500D01*
X26172500Y-6381500D02*
X25847500Y-6706500D01*
D11*
X18155610Y-11516484D02*
X18155610Y-11316484D01*
X18155610Y-11316484D02*
X18203229Y-11316484D01*
X18203229Y-11316484D02*
X18231801Y-11326008D01*
X18231801Y-11326008D02*
X18250848Y-11345055D01*
X18250848Y-11345055D02*
X18260372Y-11364103D01*
X18260372Y-11364103D02*
X18269896Y-11402198D01*
X18269896Y-11402198D02*
X18269896Y-11430769D01*
X18269896Y-11430769D02*
X18260372Y-11468865D01*
X18260372Y-11468865D02*
X18250848Y-11487912D01*
X18250848Y-11487912D02*
X18231801Y-11506960D01*
X18231801Y-11506960D02*
X18203229Y-11516484D01*
X18203229Y-11516484D02*
X18155610Y-11516484D01*
X18355610Y-11516484D02*
X18355610Y-11383150D01*
X18355610Y-11421246D02*
X18365134Y-11402198D01*
X18365134Y-11402198D02*
X18374658Y-11392674D01*
X18374658Y-11392674D02*
X18393705Y-11383150D01*
X18393705Y-11383150D02*
X18412753Y-11383150D01*
X18479420Y-11516484D02*
X18479420Y-11383150D01*
X18479420Y-11316484D02*
X18469896Y-11326008D01*
X18469896Y-11326008D02*
X18479420Y-11335531D01*
X18479420Y-11335531D02*
X18488944Y-11326008D01*
X18488944Y-11326008D02*
X18479420Y-11316484D01*
X18479420Y-11316484D02*
X18479420Y-11335531D01*
X18603229Y-11516484D02*
X18584182Y-11506960D01*
X18584182Y-11506960D02*
X18574658Y-11487912D01*
X18574658Y-11487912D02*
X18574658Y-11316484D01*
X18707991Y-11516484D02*
X18688944Y-11506960D01*
X18688944Y-11506960D02*
X18679420Y-11487912D01*
X18679420Y-11487912D02*
X18679420Y-11316484D01*
X18936563Y-11516484D02*
X18936563Y-11316484D01*
X18936563Y-11316484D02*
X19003229Y-11459341D01*
X19003229Y-11459341D02*
X19069896Y-11316484D01*
X19069896Y-11316484D02*
X19069896Y-11516484D01*
X19250848Y-11516484D02*
X19250848Y-11411722D01*
X19250848Y-11411722D02*
X19241325Y-11392674D01*
X19241325Y-11392674D02*
X19222277Y-11383150D01*
X19222277Y-11383150D02*
X19184182Y-11383150D01*
X19184182Y-11383150D02*
X19165134Y-11392674D01*
X19250848Y-11506960D02*
X19231801Y-11516484D01*
X19231801Y-11516484D02*
X19184182Y-11516484D01*
X19184182Y-11516484D02*
X19165134Y-11506960D01*
X19165134Y-11506960D02*
X19155610Y-11487912D01*
X19155610Y-11487912D02*
X19155610Y-11468865D01*
X19155610Y-11468865D02*
X19165134Y-11449817D01*
X19165134Y-11449817D02*
X19184182Y-11440293D01*
X19184182Y-11440293D02*
X19231801Y-11440293D01*
X19231801Y-11440293D02*
X19250848Y-11430769D01*
X19346086Y-11383150D02*
X19346086Y-11583150D01*
X19346086Y-11392674D02*
X19365134Y-11383150D01*
X19365134Y-11383150D02*
X19403229Y-11383150D01*
X19403229Y-11383150D02*
X19422277Y-11392674D01*
X19422277Y-11392674D02*
X19431801Y-11402198D01*
X19431801Y-11402198D02*
X19441325Y-11421246D01*
X19441325Y-11421246D02*
X19441325Y-11478388D01*
X19441325Y-11478388D02*
X19431801Y-11497436D01*
X19431801Y-11497436D02*
X19422277Y-11506960D01*
X19422277Y-11506960D02*
X19403229Y-11516484D01*
X19403229Y-11516484D02*
X19365134Y-11516484D01*
X19365134Y-11516484D02*
X19346086Y-11506960D01*
X19527039Y-11497436D02*
X19536563Y-11506960D01*
X19536563Y-11506960D02*
X19527039Y-11516484D01*
X19527039Y-11516484D02*
X19517515Y-11506960D01*
X19517515Y-11506960D02*
X19527039Y-11497436D01*
X19527039Y-11497436D02*
X19527039Y-11516484D01*
X19527039Y-11392674D02*
X19536563Y-11402198D01*
X19536563Y-11402198D02*
X19527039Y-11411722D01*
X19527039Y-11411722D02*
X19517515Y-11402198D01*
X19517515Y-11402198D02*
X19527039Y-11392674D01*
X19527039Y-11392674D02*
X19527039Y-11411722D01*
X17694833Y-11745000D02*
X17894833Y-11945000D01*
X17894833Y-11745000D02*
X17694833Y-11945000D01*
X18136563Y-11736484D02*
X18260372Y-11736484D01*
X18260372Y-11736484D02*
X18193705Y-11812674D01*
X18193705Y-11812674D02*
X18222277Y-11812674D01*
X18222277Y-11812674D02*
X18241325Y-11822198D01*
X18241325Y-11822198D02*
X18250848Y-11831722D01*
X18250848Y-11831722D02*
X18260372Y-11850769D01*
X18260372Y-11850769D02*
X18260372Y-11898388D01*
X18260372Y-11898388D02*
X18250848Y-11917436D01*
X18250848Y-11917436D02*
X18241325Y-11926960D01*
X18241325Y-11926960D02*
X18222277Y-11936484D01*
X18222277Y-11936484D02*
X18165134Y-11936484D01*
X18165134Y-11936484D02*
X18146086Y-11926960D01*
X18146086Y-11926960D02*
X18136563Y-11917436D01*
X18346086Y-11917436D02*
X18355610Y-11926960D01*
X18355610Y-11926960D02*
X18346086Y-11936484D01*
X18346086Y-11936484D02*
X18336563Y-11926960D01*
X18336563Y-11926960D02*
X18346086Y-11917436D01*
X18346086Y-11917436D02*
X18346086Y-11936484D01*
X18431801Y-11755531D02*
X18441325Y-11746008D01*
X18441325Y-11746008D02*
X18460372Y-11736484D01*
X18460372Y-11736484D02*
X18507991Y-11736484D01*
X18507991Y-11736484D02*
X18527039Y-11746008D01*
X18527039Y-11746008D02*
X18536563Y-11755531D01*
X18536563Y-11755531D02*
X18546086Y-11774579D01*
X18546086Y-11774579D02*
X18546086Y-11793627D01*
X18546086Y-11793627D02*
X18536563Y-11822198D01*
X18536563Y-11822198D02*
X18422277Y-11936484D01*
X18422277Y-11936484D02*
X18546086Y-11936484D01*
X18727039Y-11736484D02*
X18631801Y-11736484D01*
X18631801Y-11736484D02*
X18622277Y-11831722D01*
X18622277Y-11831722D02*
X18631801Y-11822198D01*
X18631801Y-11822198D02*
X18650848Y-11812674D01*
X18650848Y-11812674D02*
X18698467Y-11812674D01*
X18698467Y-11812674D02*
X18717515Y-11822198D01*
X18717515Y-11822198D02*
X18727039Y-11831722D01*
X18727039Y-11831722D02*
X18736563Y-11850769D01*
X18736563Y-11850769D02*
X18736563Y-11898388D01*
X18736563Y-11898388D02*
X18727039Y-11917436D01*
X18727039Y-11917436D02*
X18717515Y-11926960D01*
X18717515Y-11926960D02*
X18698467Y-11936484D01*
X18698467Y-11936484D02*
X18650848Y-11936484D01*
X18650848Y-11936484D02*
X18631801Y-11926960D01*
X18631801Y-11926960D02*
X18622277Y-11917436D01*
X18860372Y-11736484D02*
X18879420Y-11736484D01*
X18879420Y-11736484D02*
X18898467Y-11746008D01*
X18898467Y-11746008D02*
X18907991Y-11755531D01*
X18907991Y-11755531D02*
X18917515Y-11774579D01*
X18917515Y-11774579D02*
X18927039Y-11812674D01*
X18927039Y-11812674D02*
X18927039Y-11860293D01*
X18927039Y-11860293D02*
X18917515Y-11898388D01*
X18917515Y-11898388D02*
X18907991Y-11917436D01*
X18907991Y-11917436D02*
X18898467Y-11926960D01*
X18898467Y-11926960D02*
X18879420Y-11936484D01*
X18879420Y-11936484D02*
X18860372Y-11936484D01*
X18860372Y-11936484D02*
X18841325Y-11926960D01*
X18841325Y-11926960D02*
X18831801Y-11917436D01*
X18831801Y-11917436D02*
X18822277Y-11898388D01*
X18822277Y-11898388D02*
X18812753Y-11860293D01*
X18812753Y-11860293D02*
X18812753Y-11812674D01*
X18812753Y-11812674D02*
X18822277Y-11774579D01*
X18822277Y-11774579D02*
X18831801Y-11755531D01*
X18831801Y-11755531D02*
X18841325Y-11746008D01*
X18841325Y-11746008D02*
X18860372Y-11736484D01*
X19012753Y-11936484D02*
X19012753Y-11803150D01*
X19012753Y-11822198D02*
X19022277Y-11812674D01*
X19022277Y-11812674D02*
X19041325Y-11803150D01*
X19041325Y-11803150D02*
X19069896Y-11803150D01*
X19069896Y-11803150D02*
X19088944Y-11812674D01*
X19088944Y-11812674D02*
X19098467Y-11831722D01*
X19098467Y-11831722D02*
X19098467Y-11936484D01*
X19098467Y-11831722D02*
X19107991Y-11812674D01*
X19107991Y-11812674D02*
X19127039Y-11803150D01*
X19127039Y-11803150D02*
X19155610Y-11803150D01*
X19155610Y-11803150D02*
X19174658Y-11812674D01*
X19174658Y-11812674D02*
X19184182Y-11831722D01*
X19184182Y-11831722D02*
X19184182Y-11936484D01*
X19279420Y-11936484D02*
X19279420Y-11803150D01*
X19279420Y-11822198D02*
X19288944Y-11812674D01*
X19288944Y-11812674D02*
X19307991Y-11803150D01*
X19307991Y-11803150D02*
X19336563Y-11803150D01*
X19336563Y-11803150D02*
X19355610Y-11812674D01*
X19355610Y-11812674D02*
X19365134Y-11831722D01*
X19365134Y-11831722D02*
X19365134Y-11936484D01*
X19365134Y-11831722D02*
X19374658Y-11812674D01*
X19374658Y-11812674D02*
X19393706Y-11803150D01*
X19393706Y-11803150D02*
X19422277Y-11803150D01*
X19422277Y-11803150D02*
X19441325Y-11812674D01*
X19441325Y-11812674D02*
X19450848Y-11831722D01*
X19450848Y-11831722D02*
X19450848Y-11936484D01*
X19841325Y-11726960D02*
X19669896Y-11984103D01*
X20098468Y-11736484D02*
X20117515Y-11736484D01*
X20117515Y-11736484D02*
X20136563Y-11746008D01*
X20136563Y-11746008D02*
X20146087Y-11755531D01*
X20146087Y-11755531D02*
X20155610Y-11774579D01*
X20155610Y-11774579D02*
X20165134Y-11812674D01*
X20165134Y-11812674D02*
X20165134Y-11860293D01*
X20165134Y-11860293D02*
X20155610Y-11898388D01*
X20155610Y-11898388D02*
X20146087Y-11917436D01*
X20146087Y-11917436D02*
X20136563Y-11926960D01*
X20136563Y-11926960D02*
X20117515Y-11936484D01*
X20117515Y-11936484D02*
X20098468Y-11936484D01*
X20098468Y-11936484D02*
X20079420Y-11926960D01*
X20079420Y-11926960D02*
X20069896Y-11917436D01*
X20069896Y-11917436D02*
X20060372Y-11898388D01*
X20060372Y-11898388D02*
X20050849Y-11860293D01*
X20050849Y-11860293D02*
X20050849Y-11812674D01*
X20050849Y-11812674D02*
X20060372Y-11774579D01*
X20060372Y-11774579D02*
X20069896Y-11755531D01*
X20069896Y-11755531D02*
X20079420Y-11746008D01*
X20079420Y-11746008D02*
X20098468Y-11736484D01*
X20250849Y-11917436D02*
X20260372Y-11926960D01*
X20260372Y-11926960D02*
X20250849Y-11936484D01*
X20250849Y-11936484D02*
X20241325Y-11926960D01*
X20241325Y-11926960D02*
X20250849Y-11917436D01*
X20250849Y-11917436D02*
X20250849Y-11936484D01*
X20450849Y-11936484D02*
X20336563Y-11936484D01*
X20393706Y-11936484D02*
X20393706Y-11736484D01*
X20393706Y-11736484D02*
X20374658Y-11765055D01*
X20374658Y-11765055D02*
X20355610Y-11784103D01*
X20355610Y-11784103D02*
X20336563Y-11793627D01*
X20527039Y-11755531D02*
X20536563Y-11746008D01*
X20536563Y-11746008D02*
X20555610Y-11736484D01*
X20555610Y-11736484D02*
X20603230Y-11736484D01*
X20603230Y-11736484D02*
X20622277Y-11746008D01*
X20622277Y-11746008D02*
X20631801Y-11755531D01*
X20631801Y-11755531D02*
X20641325Y-11774579D01*
X20641325Y-11774579D02*
X20641325Y-11793627D01*
X20641325Y-11793627D02*
X20631801Y-11822198D01*
X20631801Y-11822198D02*
X20517515Y-11936484D01*
X20517515Y-11936484D02*
X20641325Y-11936484D01*
X20755610Y-11822198D02*
X20736563Y-11812674D01*
X20736563Y-11812674D02*
X20727039Y-11803150D01*
X20727039Y-11803150D02*
X20717515Y-11784103D01*
X20717515Y-11784103D02*
X20717515Y-11774579D01*
X20717515Y-11774579D02*
X20727039Y-11755531D01*
X20727039Y-11755531D02*
X20736563Y-11746008D01*
X20736563Y-11746008D02*
X20755610Y-11736484D01*
X20755610Y-11736484D02*
X20793706Y-11736484D01*
X20793706Y-11736484D02*
X20812753Y-11746008D01*
X20812753Y-11746008D02*
X20822277Y-11755531D01*
X20822277Y-11755531D02*
X20831801Y-11774579D01*
X20831801Y-11774579D02*
X20831801Y-11784103D01*
X20831801Y-11784103D02*
X20822277Y-11803150D01*
X20822277Y-11803150D02*
X20812753Y-11812674D01*
X20812753Y-11812674D02*
X20793706Y-11822198D01*
X20793706Y-11822198D02*
X20755610Y-11822198D01*
X20755610Y-11822198D02*
X20736563Y-11831722D01*
X20736563Y-11831722D02*
X20727039Y-11841246D01*
X20727039Y-11841246D02*
X20717515Y-11860293D01*
X20717515Y-11860293D02*
X20717515Y-11898388D01*
X20717515Y-11898388D02*
X20727039Y-11917436D01*
X20727039Y-11917436D02*
X20736563Y-11926960D01*
X20736563Y-11926960D02*
X20755610Y-11936484D01*
X20755610Y-11936484D02*
X20793706Y-11936484D01*
X20793706Y-11936484D02*
X20812753Y-11926960D01*
X20812753Y-11926960D02*
X20822277Y-11917436D01*
X20822277Y-11917436D02*
X20831801Y-11898388D01*
X20831801Y-11898388D02*
X20831801Y-11860293D01*
X20831801Y-11860293D02*
X20822277Y-11841246D01*
X20822277Y-11841246D02*
X20812753Y-11831722D01*
X20812753Y-11831722D02*
X20793706Y-11822198D01*
X20955610Y-11736484D02*
X20974658Y-11736484D01*
X20974658Y-11736484D02*
X20993706Y-11746008D01*
X20993706Y-11746008D02*
X21003230Y-11755531D01*
X21003230Y-11755531D02*
X21012753Y-11774579D01*
X21012753Y-11774579D02*
X21022277Y-11812674D01*
X21022277Y-11812674D02*
X21022277Y-11860293D01*
X21022277Y-11860293D02*
X21012753Y-11898388D01*
X21012753Y-11898388D02*
X21003230Y-11917436D01*
X21003230Y-11917436D02*
X20993706Y-11926960D01*
X20993706Y-11926960D02*
X20974658Y-11936484D01*
X20974658Y-11936484D02*
X20955610Y-11936484D01*
X20955610Y-11936484D02*
X20936563Y-11926960D01*
X20936563Y-11926960D02*
X20927039Y-11917436D01*
X20927039Y-11917436D02*
X20917515Y-11898388D01*
X20917515Y-11898388D02*
X20907991Y-11860293D01*
X20907991Y-11860293D02*
X20907991Y-11812674D01*
X20907991Y-11812674D02*
X20917515Y-11774579D01*
X20917515Y-11774579D02*
X20927039Y-11755531D01*
X20927039Y-11755531D02*
X20936563Y-11746008D01*
X20936563Y-11746008D02*
X20955610Y-11736484D01*
X21098468Y-11736484D02*
X21098468Y-11774579D01*
X21174658Y-11736484D02*
X21174658Y-11774579D01*
X21469896Y-12012674D02*
X21460372Y-12003150D01*
X21460372Y-12003150D02*
X21441325Y-11974579D01*
X21441325Y-11974579D02*
X21431801Y-11955531D01*
X21431801Y-11955531D02*
X21422277Y-11926960D01*
X21422277Y-11926960D02*
X21412753Y-11879341D01*
X21412753Y-11879341D02*
X21412753Y-11841246D01*
X21412753Y-11841246D02*
X21422277Y-11793627D01*
X21422277Y-11793627D02*
X21431801Y-11765055D01*
X21431801Y-11765055D02*
X21441325Y-11746008D01*
X21441325Y-11746008D02*
X21460372Y-11717436D01*
X21460372Y-11717436D02*
X21469896Y-11707912D01*
X21536563Y-11755531D02*
X21546087Y-11746008D01*
X21546087Y-11746008D02*
X21565134Y-11736484D01*
X21565134Y-11736484D02*
X21612753Y-11736484D01*
X21612753Y-11736484D02*
X21631801Y-11746008D01*
X21631801Y-11746008D02*
X21641325Y-11755531D01*
X21641325Y-11755531D02*
X21650849Y-11774579D01*
X21650849Y-11774579D02*
X21650849Y-11793627D01*
X21650849Y-11793627D02*
X21641325Y-11822198D01*
X21641325Y-11822198D02*
X21527039Y-11936484D01*
X21527039Y-11936484D02*
X21650849Y-11936484D01*
X21888944Y-11936484D02*
X21888944Y-11736484D01*
X21974658Y-11936484D02*
X21974658Y-11831722D01*
X21974658Y-11831722D02*
X21965134Y-11812674D01*
X21965134Y-11812674D02*
X21946087Y-11803150D01*
X21946087Y-11803150D02*
X21917515Y-11803150D01*
X21917515Y-11803150D02*
X21898468Y-11812674D01*
X21898468Y-11812674D02*
X21888944Y-11822198D01*
X22098468Y-11936484D02*
X22079420Y-11926960D01*
X22079420Y-11926960D02*
X22069896Y-11917436D01*
X22069896Y-11917436D02*
X22060373Y-11898388D01*
X22060373Y-11898388D02*
X22060373Y-11841246D01*
X22060373Y-11841246D02*
X22069896Y-11822198D01*
X22069896Y-11822198D02*
X22079420Y-11812674D01*
X22079420Y-11812674D02*
X22098468Y-11803150D01*
X22098468Y-11803150D02*
X22127039Y-11803150D01*
X22127039Y-11803150D02*
X22146087Y-11812674D01*
X22146087Y-11812674D02*
X22155611Y-11822198D01*
X22155611Y-11822198D02*
X22165134Y-11841246D01*
X22165134Y-11841246D02*
X22165134Y-11898388D01*
X22165134Y-11898388D02*
X22155611Y-11917436D01*
X22155611Y-11917436D02*
X22146087Y-11926960D01*
X22146087Y-11926960D02*
X22127039Y-11936484D01*
X22127039Y-11936484D02*
X22098468Y-11936484D01*
X22279420Y-11936484D02*
X22260373Y-11926960D01*
X22260373Y-11926960D02*
X22250849Y-11907912D01*
X22250849Y-11907912D02*
X22250849Y-11736484D01*
X22431801Y-11926960D02*
X22412753Y-11936484D01*
X22412753Y-11936484D02*
X22374658Y-11936484D01*
X22374658Y-11936484D02*
X22355611Y-11926960D01*
X22355611Y-11926960D02*
X22346087Y-11907912D01*
X22346087Y-11907912D02*
X22346087Y-11831722D01*
X22346087Y-11831722D02*
X22355611Y-11812674D01*
X22355611Y-11812674D02*
X22374658Y-11803150D01*
X22374658Y-11803150D02*
X22412753Y-11803150D01*
X22412753Y-11803150D02*
X22431801Y-11812674D01*
X22431801Y-11812674D02*
X22441325Y-11831722D01*
X22441325Y-11831722D02*
X22441325Y-11850769D01*
X22441325Y-11850769D02*
X22346087Y-11869817D01*
X22517515Y-11926960D02*
X22536563Y-11936484D01*
X22536563Y-11936484D02*
X22574658Y-11936484D01*
X22574658Y-11936484D02*
X22593706Y-11926960D01*
X22593706Y-11926960D02*
X22603230Y-11907912D01*
X22603230Y-11907912D02*
X22603230Y-11898388D01*
X22603230Y-11898388D02*
X22593706Y-11879341D01*
X22593706Y-11879341D02*
X22574658Y-11869817D01*
X22574658Y-11869817D02*
X22546087Y-11869817D01*
X22546087Y-11869817D02*
X22527039Y-11860293D01*
X22527039Y-11860293D02*
X22517515Y-11841246D01*
X22517515Y-11841246D02*
X22517515Y-11831722D01*
X22517515Y-11831722D02*
X22527039Y-11812674D01*
X22527039Y-11812674D02*
X22546087Y-11803150D01*
X22546087Y-11803150D02*
X22574658Y-11803150D01*
X22574658Y-11803150D02*
X22593706Y-11812674D01*
X22669896Y-12012674D02*
X22679420Y-12003150D01*
X22679420Y-12003150D02*
X22698468Y-11974579D01*
X22698468Y-11974579D02*
X22707992Y-11955531D01*
X22707992Y-11955531D02*
X22717515Y-11926960D01*
X22717515Y-11926960D02*
X22727039Y-11879341D01*
X22727039Y-11879341D02*
X22727039Y-11841246D01*
X22727039Y-11841246D02*
X22717515Y-11793627D01*
X22717515Y-11793627D02*
X22707992Y-11765055D01*
X22707992Y-11765055D02*
X22698468Y-11746008D01*
X22698468Y-11746008D02*
X22679420Y-11717436D01*
X22679420Y-11717436D02*
X22669896Y-11707912D01*
X23031801Y-12012674D02*
X23022277Y-12003150D01*
X23022277Y-12003150D02*
X23003230Y-11974579D01*
X23003230Y-11974579D02*
X22993706Y-11955531D01*
X22993706Y-11955531D02*
X22984182Y-11926960D01*
X22984182Y-11926960D02*
X22974658Y-11879341D01*
X22974658Y-11879341D02*
X22974658Y-11841246D01*
X22974658Y-11841246D02*
X22984182Y-11793627D01*
X22984182Y-11793627D02*
X22993706Y-11765055D01*
X22993706Y-11765055D02*
X23003230Y-11746008D01*
X23003230Y-11746008D02*
X23022277Y-11717436D01*
X23022277Y-11717436D02*
X23031801Y-11707912D01*
X23107992Y-11803150D02*
X23107992Y-11936484D01*
X23107992Y-11822198D02*
X23117515Y-11812674D01*
X23117515Y-11812674D02*
X23136563Y-11803150D01*
X23136563Y-11803150D02*
X23165134Y-11803150D01*
X23165134Y-11803150D02*
X23184182Y-11812674D01*
X23184182Y-11812674D02*
X23193706Y-11831722D01*
X23193706Y-11831722D02*
X23193706Y-11936484D01*
X23317515Y-11936484D02*
X23298468Y-11926960D01*
X23298468Y-11926960D02*
X23288944Y-11917436D01*
X23288944Y-11917436D02*
X23279420Y-11898388D01*
X23279420Y-11898388D02*
X23279420Y-11841246D01*
X23279420Y-11841246D02*
X23288944Y-11822198D01*
X23288944Y-11822198D02*
X23298468Y-11812674D01*
X23298468Y-11812674D02*
X23317515Y-11803150D01*
X23317515Y-11803150D02*
X23346087Y-11803150D01*
X23346087Y-11803150D02*
X23365134Y-11812674D01*
X23365134Y-11812674D02*
X23374658Y-11822198D01*
X23374658Y-11822198D02*
X23384182Y-11841246D01*
X23384182Y-11841246D02*
X23384182Y-11898388D01*
X23384182Y-11898388D02*
X23374658Y-11917436D01*
X23374658Y-11917436D02*
X23365134Y-11926960D01*
X23365134Y-11926960D02*
X23346087Y-11936484D01*
X23346087Y-11936484D02*
X23317515Y-11936484D01*
X23441325Y-11803150D02*
X23517515Y-11803150D01*
X23469896Y-11736484D02*
X23469896Y-11907912D01*
X23469896Y-11907912D02*
X23479420Y-11926960D01*
X23479420Y-11926960D02*
X23498468Y-11936484D01*
X23498468Y-11936484D02*
X23517515Y-11936484D01*
X23736563Y-11803150D02*
X23736563Y-12003150D01*
X23736563Y-11812674D02*
X23755611Y-11803150D01*
X23755611Y-11803150D02*
X23793706Y-11803150D01*
X23793706Y-11803150D02*
X23812754Y-11812674D01*
X23812754Y-11812674D02*
X23822277Y-11822198D01*
X23822277Y-11822198D02*
X23831801Y-11841246D01*
X23831801Y-11841246D02*
X23831801Y-11898388D01*
X23831801Y-11898388D02*
X23822277Y-11917436D01*
X23822277Y-11917436D02*
X23812754Y-11926960D01*
X23812754Y-11926960D02*
X23793706Y-11936484D01*
X23793706Y-11936484D02*
X23755611Y-11936484D01*
X23755611Y-11936484D02*
X23736563Y-11926960D01*
X23946087Y-11936484D02*
X23927039Y-11926960D01*
X23927039Y-11926960D02*
X23917515Y-11907912D01*
X23917515Y-11907912D02*
X23917515Y-11736484D01*
X24107992Y-11936484D02*
X24107992Y-11831722D01*
X24107992Y-11831722D02*
X24098468Y-11812674D01*
X24098468Y-11812674D02*
X24079420Y-11803150D01*
X24079420Y-11803150D02*
X24041325Y-11803150D01*
X24041325Y-11803150D02*
X24022277Y-11812674D01*
X24107992Y-11926960D02*
X24088944Y-11936484D01*
X24088944Y-11936484D02*
X24041325Y-11936484D01*
X24041325Y-11936484D02*
X24022277Y-11926960D01*
X24022277Y-11926960D02*
X24012754Y-11907912D01*
X24012754Y-11907912D02*
X24012754Y-11888865D01*
X24012754Y-11888865D02*
X24022277Y-11869817D01*
X24022277Y-11869817D02*
X24041325Y-11860293D01*
X24041325Y-11860293D02*
X24088944Y-11860293D01*
X24088944Y-11860293D02*
X24107992Y-11850769D01*
X24174658Y-11803150D02*
X24250849Y-11803150D01*
X24203230Y-11736484D02*
X24203230Y-11907912D01*
X24203230Y-11907912D02*
X24212754Y-11926960D01*
X24212754Y-11926960D02*
X24231801Y-11936484D01*
X24231801Y-11936484D02*
X24250849Y-11936484D01*
X24393706Y-11926960D02*
X24374658Y-11936484D01*
X24374658Y-11936484D02*
X24336563Y-11936484D01*
X24336563Y-11936484D02*
X24317515Y-11926960D01*
X24317515Y-11926960D02*
X24307992Y-11907912D01*
X24307992Y-11907912D02*
X24307992Y-11831722D01*
X24307992Y-11831722D02*
X24317515Y-11812674D01*
X24317515Y-11812674D02*
X24336563Y-11803150D01*
X24336563Y-11803150D02*
X24374658Y-11803150D01*
X24374658Y-11803150D02*
X24393706Y-11812674D01*
X24393706Y-11812674D02*
X24403230Y-11831722D01*
X24403230Y-11831722D02*
X24403230Y-11850769D01*
X24403230Y-11850769D02*
X24307992Y-11869817D01*
X24574658Y-11936484D02*
X24574658Y-11736484D01*
X24574658Y-11926960D02*
X24555611Y-11936484D01*
X24555611Y-11936484D02*
X24517515Y-11936484D01*
X24517515Y-11936484D02*
X24498468Y-11926960D01*
X24498468Y-11926960D02*
X24488944Y-11917436D01*
X24488944Y-11917436D02*
X24479420Y-11898388D01*
X24479420Y-11898388D02*
X24479420Y-11841246D01*
X24479420Y-11841246D02*
X24488944Y-11822198D01*
X24488944Y-11822198D02*
X24498468Y-11812674D01*
X24498468Y-11812674D02*
X24517515Y-11803150D01*
X24517515Y-11803150D02*
X24555611Y-11803150D01*
X24555611Y-11803150D02*
X24574658Y-11812674D01*
X24650849Y-12012674D02*
X24660373Y-12003150D01*
X24660373Y-12003150D02*
X24679420Y-11974579D01*
X24679420Y-11974579D02*
X24688944Y-11955531D01*
X24688944Y-11955531D02*
X24698468Y-11926960D01*
X24698468Y-11926960D02*
X24707992Y-11879341D01*
X24707992Y-11879341D02*
X24707992Y-11841246D01*
X24707992Y-11841246D02*
X24698468Y-11793627D01*
X24698468Y-11793627D02*
X24688944Y-11765055D01*
X24688944Y-11765055D02*
X24679420Y-11746008D01*
X24679420Y-11746008D02*
X24660373Y-11717436D01*
X24660373Y-11717436D02*
X24650849Y-11707912D01*
M02*
