<?xml version="1.0" standalone="no"?>
 <!DOCTYPE svg PUBLIC "-//W3C//DTD SVG 1.1//EN" 
 "http://www.w3.org/Graphics/SVG/1.1/DTD/svg11.dtd"> 
<svg
  xmlns:svg="http://www.w3.org/2000/svg"
  xmlns="http://www.w3.org/2000/svg"
  xmlns:xlink="http://www.w3.org/1999/xlink"
  version="1.1"
  width="121.0818mm" height="113.0300mm" viewBox="0.0000 0.0000 121.0818 113.0300">
<title>SVG Image created as ESP32-POE-Wiegand-Relay-REV-B-brd.svg date 2024/01/13 16:00:43 </title>
  <desc>Image generated by PCBNEW </desc>
<g style="fill:#000000; fill-opacity:1.0000;stroke:#000000; stroke-opacity:1.0000;
stroke-linecap:round; stroke-linejoin:round;"
 transform="translate(0 0) scale(1 1)">
</g>
<g style="fill:#000000; fill-opacity:0.0; 
stroke:#000000; stroke-width:0.0000; stroke-opacity:1; 
stroke-linecap:round; stroke-linejoin:round;">
</g>
<g style="fill:#000000; fill-opacity:1.0000; 
stroke:#000000; stroke-width:0.0212; stroke-opacity:1; 
stroke-linecap:round; stroke-linejoin:round;">
<rect x="-5.000000" y="-5.000000" width="131.095339" height="123.048250" rx="0.000000" />
</g>
<g style="fill:#FFFFFF; fill-opacity:1.0000; 
stroke:#FFFFFF; stroke-width:0.0212; stroke-opacity:1; 
stroke-linecap:round; stroke-linejoin:round;">
</g>
<g style="fill:#FFFFFF; fill-opacity:1.0000; 
stroke:#FFFFFF; stroke-width:0.1500; stroke-opacity:1; 
stroke-linecap:round; stroke-linejoin:round;">
</g>
<g style="fill:#FFFFFF; fill-opacity:0.0; 
stroke:#FFFFFF; stroke-width:0.1500; stroke-opacity:1; 
stroke-linecap:round; stroke-linejoin:round;">
<g transform="rotate(-270.124017 3.9821 47.9712)">
<text x="3.9821" y="48.4712"
textLength="7.9643" font-size="1.3333" lengthAdjust="spacingAndGlyphs"
text-anchor="middle" opacity="0">92.40 mm</text>
</g>
<g class="stroked-text"><desc>92.40 mm</desc>
<path d="M3.5196 44.4008
L3.5200 44.5913
" />
<path d="M3.5200 44.5913
L3.5678 44.6864
" />
<path d="M3.5678 44.6864
L3.6156 44.7339
" />
<path d="M3.6156 44.7339
L3.7586 44.8289
" />
<path d="M3.7586 44.8289
L3.9492 44.8761
" />
<path d="M3.9492 44.8761
L4.3301 44.8752
" />
<path d="M4.3301 44.8752
L4.4253 44.8274
" />
<path d="M4.4253 44.8274
L4.4728 44.7797
" />
<path d="M4.4728 44.7797
L4.5202 44.6844
" />
<path d="M4.5202 44.6844
L4.5198 44.4939
" />
<path d="M4.5198 44.4939
L4.4720 44.3987
" />
<path d="M4.4720 44.3987
L4.4242 44.3512
" />
<path d="M4.4242 44.3512
L4.3289 44.3038
" />
<path d="M4.3289 44.3038
L4.0908 44.3043
" />
<path d="M4.0908 44.3043
L3.9957 44.3522
" />
<path d="M3.9957 44.3522
L3.9482 44.3999
" />
<path d="M3.9482 44.3999
L3.9008 44.4952
" />
<path d="M3.9008 44.4952
L3.9012 44.6857
" />
<path d="M3.9012 44.6857
L3.9490 44.7808
" />
<path d="M3.9490 44.7808
L3.9967 44.8283
" />
<path d="M3.9967 44.8283
L4.0921 44.8758
" />
<path d="M4.4262 45.2560
L4.4739 45.3035
" />
<path d="M4.4739 45.3035
L4.5218 45.3986
" />
<path d="M4.5218 45.3986
L4.5223 45.6367
" />
<path d="M4.5223 45.6367
L4.4749 45.7321
" />
<path d="M4.4749 45.7321
L4.4273 45.7798
" />
<path d="M4.4273 45.7798
L4.3322 45.8276
" />
<path d="M4.3322 45.8276
L4.2370 45.8278
" />
<path d="M4.2370 45.8278
L4.0940 45.7805
" />
<path d="M4.0940 45.7805
L3.5213 45.2103
" />
<path d="M3.5213 45.2103
L3.5227 45.8294
" />
<path d="M3.6189 46.2577
L3.5713 46.3055
" />
<path d="M3.5713 46.3055
L3.5236 46.2579
" />
<path d="M3.5236 46.2579
L3.5711 46.2102
" />
<path d="M3.5711 46.2102
L3.6189 46.2577
" />
<path d="M3.6189 46.2577
L3.5236 46.2579
" />
<path d="M4.1922 47.1613
L3.5256 47.1627
" />
<path d="M4.5727 46.9223
L3.8579 46.6858
" />
<path d="M3.8579 46.6858
L3.8592 47.3048
" />
<path d="M4.5271 47.8748
L4.5273 47.9701
" />
<path d="M4.5273 47.9701
L4.4799 48.0654
" />
<path d="M4.4799 48.0654
L4.4324 48.1131
" />
<path d="M4.4324 48.1131
L4.3373 48.1609
" />
<path d="M4.3373 48.1609
L4.1469 48.2090
" />
<path d="M4.1469 48.2090
L3.9088 48.2095
" />
<path d="M3.9088 48.2095
L3.7182 48.1623
" />
<path d="M3.7182 48.1623
L3.6229 48.1149
" />
<path d="M3.6229 48.1149
L3.5751 48.0674
" />
<path d="M3.5751 48.0674
L3.5273 47.9722
" />
<path d="M3.5273 47.9722
L3.5271 47.8770
" />
<path d="M3.5271 47.8770
L3.5745 47.7816
" />
<path d="M3.5745 47.7816
L3.6220 47.7339
" />
<path d="M3.6220 47.7339
L3.7172 47.6861
" />
<path d="M3.7172 47.6861
L3.9076 47.6381
" />
<path d="M3.9076 47.6381
L4.1456 47.6376
" />
<path d="M4.1456 47.6376
L4.3362 47.6848
" />
<path d="M4.3362 47.6848
L4.4316 47.7322
" />
<path d="M4.4316 47.7322
L4.4793 47.7797
" />
<path d="M4.4793 47.7797
L4.5271 47.8748
" />
<path d="M3.5304 49.4008
L4.1971 49.3994
" />
<path d="M4.1018 49.3996
L4.1496 49.4471
" />
<path d="M4.1496 49.4471
L4.1974 49.5422
" />
<path d="M4.1974 49.5422
L4.1977 49.6851
" />
<path d="M4.1977 49.6851
L4.1503 49.7804
" />
<path d="M4.1503 49.7804
L4.0552 49.8282
" />
<path d="M4.0552 49.8282
L3.5313 49.8294
" />
<path d="M4.0552 49.8282
L4.1505 49.8756
" />
<path d="M4.1505 49.8756
L4.1983 49.9708
" />
<path d="M4.1983 49.9708
L4.1986 50.1136
" />
<path d="M4.1986 50.1136
L4.1512 50.2090
" />
<path d="M4.1512 50.2090
L4.0561 50.2568
" />
<path d="M4.0561 50.2568
L3.5323 50.2579
" />
<path d="M3.5333 50.7341
L4.2000 50.7327
" />
<path d="M4.1047 50.7329
L4.1525 50.7804
" />
<path d="M4.1525 50.7804
L4.2003 50.8755
" />
<path d="M4.2003 50.8755
L4.2006 51.0184
" />
<path d="M4.2006 51.0184
L4.1532 51.1137
" />
<path d="M4.1532 51.1137
L4.0580 51.1616
" />
<path d="M4.0580 51.1616
L3.5342 51.1627
" />
<path d="M4.0580 51.1616
L4.1534 51.2090
" />
<path d="M4.1534 51.2090
L4.2012 51.3041
" />
<path d="M4.2012 51.3041
L4.2015 51.4470
" />
<path d="M4.2015 51.4470
L4.1541 51.5423
" />
<path d="M4.1541 51.5423
L4.0590 51.5901
" />
<path d="M4.0590 51.5901
L3.5352 51.5913
" />
</g><path d="M36.2953 1.7011
L3.2957 1.7725
" />
<path d="M36.4953 94.1011
L3.4957 94.1725
" />
<path d="M3.8821 1.7712
L3.9724 43.4891
" />
<path d="M3.9918 52.4534
L4.0821 94.1712
" />
<path d="M3.8821 1.7712
L4.4710 2.8965
" />
<path d="M3.8821 1.7712
L3.2982 2.8990
" />
<path d="M4.0821 94.1712
L3.4933 93.0460
" />
<path d="M4.0821 94.1712
L4.6661 93.0435
" />
<g transform="rotate(-90.000000 9.5953 47.9000)">
<text x="9.5953" y="48.4000"
textLength="9.8690" font-size="1.3333" lengthAdjust="spacingAndGlyphs"
text-anchor="middle" opacity="0">85.0000 mm</text>
</g>
<g class="stroked-text"><desc>85.0000 mm</desc>
<path d="M9.4787 52.3286
L9.4311 52.4238
" />
<path d="M9.4311 52.4238
L9.3835 52.4714
" />
<path d="M9.3835 52.4714
L9.2883 52.5190
" />
<path d="M9.2883 52.5190
L9.2406 52.5190
" />
<path d="M9.2406 52.5190
L9.1454 52.4714
" />
<path d="M9.1454 52.4714
L9.0978 52.4238
" />
<path d="M9.0978 52.4238
L9.0502 52.3286
" />
<path d="M9.0502 52.3286
L9.0502 52.1381
" />
<path d="M9.0502 52.1381
L9.0978 52.0429
" />
<path d="M9.0978 52.0429
L9.1454 51.9952
" />
<path d="M9.1454 51.9952
L9.2406 51.9476
" />
<path d="M9.2406 51.9476
L9.2883 51.9476
" />
<path d="M9.2883 51.9476
L9.3835 51.9952
" />
<path d="M9.3835 51.9952
L9.4311 52.0429
" />
<path d="M9.4311 52.0429
L9.4787 52.1381
" />
<path d="M9.4787 52.1381
L9.4787 52.3286
" />
<path d="M9.4787 52.3286
L9.5263 52.4238
" />
<path d="M9.5263 52.4238
L9.5740 52.4714
" />
<path d="M9.5740 52.4714
L9.6692 52.5190
" />
<path d="M9.6692 52.5190
L9.8597 52.5190
" />
<path d="M9.8597 52.5190
L9.9549 52.4714
" />
<path d="M9.9549 52.4714
L10.0025 52.4238
" />
<path d="M10.0025 52.4238
L10.0502 52.3286
" />
<path d="M10.0502 52.3286
L10.0502 52.1381
" />
<path d="M10.0502 52.1381
L10.0025 52.0429
" />
<path d="M10.0025 52.0429
L9.9549 51.9952
" />
<path d="M9.9549 51.9952
L9.8597 51.9476
" />
<path d="M9.8597 51.9476
L9.6692 51.9476
" />
<path d="M9.6692 51.9476
L9.5740 51.9952
" />
<path d="M9.5740 51.9952
L9.5263 52.0429
" />
<path d="M9.5263 52.0429
L9.4787 52.1381
" />
<path d="M9.0502 51.0429
L9.0502 51.5190
" />
<path d="M9.0502 51.5190
L9.5263 51.5667
" />
<path d="M9.5263 51.5667
L9.4787 51.5190
" />
<path d="M9.4787 51.5190
L9.4311 51.4238
" />
<path d="M9.4311 51.4238
L9.4311 51.1857
" />
<path d="M9.4311 51.1857
L9.4787 51.0905
" />
<path d="M9.4787 51.0905
L9.5263 51.0429
" />
<path d="M9.5263 51.0429
L9.6216 50.9952
" />
<path d="M9.6216 50.9952
L9.8597 50.9952
" />
<path d="M9.8597 50.9952
L9.9549 51.0429
" />
<path d="M9.9549 51.0429
L10.0025 51.0905
" />
<path d="M10.0025 51.0905
L10.0502 51.1857
" />
<path d="M10.0502 51.1857
L10.0502 51.4238
" />
<path d="M10.0502 51.4238
L10.0025 51.5190
" />
<path d="M10.0025 51.5190
L9.9549 51.5667
" />
<path d="M9.9549 50.5667
L10.0025 50.5190
" />
<path d="M10.0025 50.5190
L10.0502 50.5667
" />
<path d="M10.0502 50.5667
L10.0025 50.6143
" />
<path d="M10.0025 50.6143
L9.9549 50.5667
" />
<path d="M9.9549 50.5667
L10.0502 50.5667
" />
<path d="M9.0502 49.9000
L9.0502 49.8048
" />
<path d="M9.0502 49.8048
L9.0978 49.7095
" />
<path d="M9.0978 49.7095
L9.1454 49.6619
" />
<path d="M9.1454 49.6619
L9.2406 49.6143
" />
<path d="M9.2406 49.6143
L9.4311 49.5667
" />
<path d="M9.4311 49.5667
L9.6692 49.5667
" />
<path d="M9.6692 49.5667
L9.8597 49.6143
" />
<path d="M9.8597 49.6143
L9.9549 49.6619
" />
<path d="M9.9549 49.6619
L10.0025 49.7095
" />
<path d="M10.0025 49.7095
L10.0502 49.8048
" />
<path d="M10.0502 49.8048
L10.0502 49.9000
" />
<path d="M10.0502 49.9000
L10.0025 49.9952
" />
<path d="M10.0025 49.9952
L9.9549 50.0429
" />
<path d="M9.9549 50.0429
L9.8597 50.0905
" />
<path d="M9.8597 50.0905
L9.6692 50.1381
" />
<path d="M9.6692 50.1381
L9.4311 50.1381
" />
<path d="M9.4311 50.1381
L9.2406 50.0905
" />
<path d="M9.2406 50.0905
L9.1454 50.0429
" />
<path d="M9.1454 50.0429
L9.0978 49.9952
" />
<path d="M9.0978 49.9952
L9.0502 49.9000
" />
<path d="M9.0502 48.9476
L9.0502 48.8524
" />
<path d="M9.0502 48.8524
L9.0978 48.7571
" />
<path d="M9.0978 48.7571
L9.1454 48.7095
" />
<path d="M9.1454 48.7095
L9.2406 48.6619
" />
<path d="M9.2406 48.6619
L9.4311 48.6143
" />
<path d="M9.4311 48.6143
L9.6692 48.6143
" />
<path d="M9.6692 48.6143
L9.8597 48.6619
" />
<path d="M9.8597 48.6619
L9.9549 48.7095
" />
<path d="M9.9549 48.7095
L10.0025 48.7571
" />
<path d="M10.0025 48.7571
L10.0502 48.8524
" />
<path d="M10.0502 48.8524
L10.0502 48.9476
" />
<path d="M10.0502 48.9476
L10.0025 49.0429
" />
<path d="M10.0025 49.0429
L9.9549 49.0905
" />
<path d="M9.9549 49.0905
L9.8597 49.1381
" />
<path d="M9.8597 49.1381
L9.6692 49.1857
" />
<path d="M9.6692 49.1857
L9.4311 49.1857
" />
<path d="M9.4311 49.1857
L9.2406 49.1381
" />
<path d="M9.2406 49.1381
L9.1454 49.0905
" />
<path d="M9.1454 49.0905
L9.0978 49.0429
" />
<path d="M9.0978 49.0429
L9.0502 48.9476
" />
<path d="M9.0502 47.9952
L9.0502 47.9000
" />
<path d="M9.0502 47.9000
L9.0978 47.8048
" />
<path d="M9.0978 47.8048
L9.1454 47.7571
" />
<path d="M9.1454 47.7571
L9.2406 47.7095
" />
<path d="M9.2406 47.7095
L9.4311 47.6619
" />
<path d="M9.4311 47.6619
L9.6692 47.6619
" />
<path d="M9.6692 47.6619
L9.8597 47.7095
" />
<path d="M9.8597 47.7095
L9.9549 47.7571
" />
<path d="M9.9549 47.7571
L10.0025 47.8048
" />
<path d="M10.0025 47.8048
L10.0502 47.9000
" />
<path d="M10.0502 47.9000
L10.0502 47.9952
" />
<path d="M10.0502 47.9952
L10.0025 48.0905
" />
<path d="M10.0025 48.0905
L9.9549 48.1381
" />
<path d="M9.9549 48.1381
L9.8597 48.1857
" />
<path d="M9.8597 48.1857
L9.6692 48.2333
" />
<path d="M9.6692 48.2333
L9.4311 48.2333
" />
<path d="M9.4311 48.2333
L9.2406 48.1857
" />
<path d="M9.2406 48.1857
L9.1454 48.1381
" />
<path d="M9.1454 48.1381
L9.0978 48.0905
" />
<path d="M9.0978 48.0905
L9.0502 47.9952
" />
<path d="M9.0502 47.0429
L9.0502 46.9476
" />
<path d="M9.0502 46.9476
L9.0978 46.8524
" />
<path d="M9.0978 46.8524
L9.1454 46.8048
" />
<path d="M9.1454 46.8048
L9.2406 46.7571
" />
<path d="M9.2406 46.7571
L9.4311 46.7095
" />
<path d="M9.4311 46.7095
L9.6692 46.7095
" />
<path d="M9.6692 46.7095
L9.8597 46.7571
" />
<path d="M9.8597 46.7571
L9.9549 46.8048
" />
<path d="M9.9549 46.8048
L10.0025 46.8524
" />
<path d="M10.0025 46.8524
L10.0502 46.9476
" />
<path d="M10.0502 46.9476
L10.0502 47.0429
" />
<path d="M10.0502 47.0429
L10.0025 47.1381
" />
<path d="M10.0025 47.1381
L9.9549 47.1857
" />
<path d="M9.9549 47.1857
L9.8597 47.2333
" />
<path d="M9.8597 47.2333
L9.6692 47.2810
" />
<path d="M9.6692 47.2810
L9.4311 47.2810
" />
<path d="M9.4311 47.2810
L9.2406 47.2333
" />
<path d="M9.2406 47.2333
L9.1454 47.1857
" />
<path d="M9.1454 47.1857
L9.0978 47.1381
" />
<path d="M9.0978 47.1381
L9.0502 47.0429
" />
<path d="M10.0502 45.5190
L9.3835 45.5190
" />
<path d="M9.4787 45.5190
L9.4311 45.4714
" />
<path d="M9.4311 45.4714
L9.3835 45.3762
" />
<path d="M9.3835 45.3762
L9.3835 45.2333
" />
<path d="M9.3835 45.2333
L9.4311 45.1381
" />
<path d="M9.4311 45.1381
L9.5263 45.0905
" />
<path d="M9.5263 45.0905
L10.0502 45.0905
" />
<path d="M9.5263 45.0905
L9.4311 45.0429
" />
<path d="M9.4311 45.0429
L9.3835 44.9476
" />
<path d="M9.3835 44.9476
L9.3835 44.8048
" />
<path d="M9.3835 44.8048
L9.4311 44.7095
" />
<path d="M9.4311 44.7095
L9.5263 44.6619
" />
<path d="M9.5263 44.6619
L10.0502 44.6619
" />
<path d="M10.0502 44.1857
L9.3835 44.1857
" />
<path d="M9.4787 44.1857
L9.4311 44.1381
" />
<path d="M9.4311 44.1381
L9.3835 44.0429
" />
<path d="M9.3835 44.0429
L9.3835 43.9000
" />
<path d="M9.3835 43.9000
L9.4311 43.8048
" />
<path d="M9.4311 43.8048
L9.5263 43.7571
" />
<path d="M9.5263 43.7571
L10.0502 43.7571
" />
<path d="M9.5263 43.7571
L9.4311 43.7095
" />
<path d="M9.4311 43.7095
L9.3835 43.6143
" />
<path d="M9.3835 43.6143
L9.3835 43.4714
" />
<path d="M9.3835 43.4714
L9.4311 43.3762
" />
<path d="M9.4311 43.3762
L9.5263 43.3286
" />
<path d="M9.5263 43.3286
L10.0502 43.3286
" />
</g><path d="M35.0953 5.4000
L9.0089 5.4000
" />
<path d="M35.0953 90.4000
L9.0089 90.4000
" />
<path d="M9.5953 5.4000
L9.5953 42.4655
" />
<path d="M9.5953 53.3345
L9.5953 90.4000
" />
<path d="M9.5953 5.4000
L10.1818 6.5265
" />
<path d="M9.5953 5.4000
L9.0089 6.5265
" />
<path d="M9.5953 90.4000
L9.0089 89.2735
" />
<path d="M9.5953 90.4000
L10.1818 89.2735
" />
<text x="75.6453" y="112.7000"
textLength="9.8690" font-size="1.3333" lengthAdjust="spacingAndGlyphs"
text-anchor="middle" opacity="0">87.5000 mm</text>
<g class="stroked-text"><desc>87.5000 mm</desc>
<path d="M71.2168 112.0834
L71.1215 112.0358
" />
<path d="M71.1215 112.0358
L71.0739 111.9882
" />
<path d="M71.0739 111.9882
L71.0263 111.8929
" />
<path d="M71.0263 111.8929
L71.0263 111.8453
" />
<path d="M71.0263 111.8453
L71.0739 111.7501
" />
<path d="M71.0739 111.7501
L71.1215 111.7024
" />
<path d="M71.1215 111.7024
L71.2168 111.6548
" />
<path d="M71.2168 111.6548
L71.4072 111.6548
" />
<path d="M71.4072 111.6548
L71.5025 111.7024
" />
<path d="M71.5025 111.7024
L71.5501 111.7501
" />
<path d="M71.5501 111.7501
L71.5977 111.8453
" />
<path d="M71.5977 111.8453
L71.5977 111.8929
" />
<path d="M71.5977 111.8929
L71.5501 111.9882
" />
<path d="M71.5501 111.9882
L71.5025 112.0358
" />
<path d="M71.5025 112.0358
L71.4072 112.0834
" />
<path d="M71.4072 112.0834
L71.2168 112.0834
" />
<path d="M71.2168 112.0834
L71.1215 112.1310
" />
<path d="M71.1215 112.1310
L71.0739 112.1786
" />
<path d="M71.0739 112.1786
L71.0263 112.2739
" />
<path d="M71.0263 112.2739
L71.0263 112.4643
" />
<path d="M71.0263 112.4643
L71.0739 112.5596
" />
<path d="M71.0739 112.5596
L71.1215 112.6072
" />
<path d="M71.1215 112.6072
L71.2168 112.6548
" />
<path d="M71.2168 112.6548
L71.4072 112.6548
" />
<path d="M71.4072 112.6548
L71.5025 112.6072
" />
<path d="M71.5025 112.6072
L71.5501 112.5596
" />
<path d="M71.5501 112.5596
L71.5977 112.4643
" />
<path d="M71.5977 112.4643
L71.5977 112.2739
" />
<path d="M71.5977 112.2739
L71.5501 112.1786
" />
<path d="M71.5501 112.1786
L71.5025 112.1310
" />
<path d="M71.5025 112.1310
L71.4072 112.0834
" />
<path d="M71.9311 111.6548
L72.5977 111.6548
" />
<path d="M72.5977 111.6548
L72.1691 112.6548
" />
<path d="M72.9787 112.5596
L73.0263 112.6072
" />
<path d="M73.0263 112.6072
L72.9787 112.6548
" />
<path d="M72.9787 112.6548
L72.9311 112.6072
" />
<path d="M72.9311 112.6072
L72.9787 112.5596
" />
<path d="M72.9787 112.5596
L72.9787 112.6548
" />
<path d="M73.9311 111.6548
L73.4549 111.6548
" />
<path d="M73.4549 111.6548
L73.4072 112.1310
" />
<path d="M73.4072 112.1310
L73.4549 112.0834
" />
<path d="M73.4549 112.0834
L73.5501 112.0358
" />
<path d="M73.5501 112.0358
L73.7882 112.0358
" />
<path d="M73.7882 112.0358
L73.8834 112.0834
" />
<path d="M73.8834 112.0834
L73.9311 112.1310
" />
<path d="M73.9311 112.1310
L73.9787 112.2262
" />
<path d="M73.9787 112.2262
L73.9787 112.4643
" />
<path d="M73.9787 112.4643
L73.9311 112.5596
" />
<path d="M73.9311 112.5596
L73.8834 112.6072
" />
<path d="M73.8834 112.6072
L73.7882 112.6548
" />
<path d="M73.7882 112.6548
L73.5501 112.6548
" />
<path d="M73.5501 112.6548
L73.4549 112.6072
" />
<path d="M73.4549 112.6072
L73.4072 112.5596
" />
<path d="M74.5977 111.6548
L74.6930 111.6548
" />
<path d="M74.6930 111.6548
L74.7882 111.7024
" />
<path d="M74.7882 111.7024
L74.8358 111.7501
" />
<path d="M74.8358 111.7501
L74.8834 111.8453
" />
<path d="M74.8834 111.8453
L74.9311 112.0358
" />
<path d="M74.9311 112.0358
L74.9311 112.2739
" />
<path d="M74.9311 112.2739
L74.8834 112.4643
" />
<path d="M74.8834 112.4643
L74.8358 112.5596
" />
<path d="M74.8358 112.5596
L74.7882 112.6072
" />
<path d="M74.7882 112.6072
L74.6930 112.6548
" />
<path d="M74.6930 112.6548
L74.5977 112.6548
" />
<path d="M74.5977 112.6548
L74.5025 112.6072
" />
<path d="M74.5025 112.6072
L74.4549 112.5596
" />
<path d="M74.4549 112.5596
L74.4072 112.4643
" />
<path d="M74.4072 112.4643
L74.3596 112.2739
" />
<path d="M74.3596 112.2739
L74.3596 112.0358
" />
<path d="M74.3596 112.0358
L74.4072 111.8453
" />
<path d="M74.4072 111.8453
L74.4549 111.7501
" />
<path d="M74.4549 111.7501
L74.5025 111.7024
" />
<path d="M74.5025 111.7024
L74.5977 111.6548
" />
<path d="M75.5501 111.6548
L75.6453 111.6548
" />
<path d="M75.6453 111.6548
L75.7406 111.7024
" />
<path d="M75.7406 111.7024
L75.7882 111.7501
" />
<path d="M75.7882 111.7501
L75.8358 111.8453
" />
<path d="M75.8358 111.8453
L75.8834 112.0358
" />
<path d="M75.8834 112.0358
L75.8834 112.2739
" />
<path d="M75.8834 112.2739
L75.8358 112.4643
" />
<path d="M75.8358 112.4643
L75.7882 112.5596
" />
<path d="M75.7882 112.5596
L75.7406 112.6072
" />
<path d="M75.7406 112.6072
L75.6453 112.6548
" />
<path d="M75.6453 112.6548
L75.5501 112.6548
" />
<path d="M75.5501 112.6548
L75.4549 112.6072
" />
<path d="M75.4549 112.6072
L75.4072 112.5596
" />
<path d="M75.4072 112.5596
L75.3596 112.4643
" />
<path d="M75.3596 112.4643
L75.3120 112.2739
" />
<path d="M75.3120 112.2739
L75.3120 112.0358
" />
<path d="M75.3120 112.0358
L75.3596 111.8453
" />
<path d="M75.3596 111.8453
L75.4072 111.7501
" />
<path d="M75.4072 111.7501
L75.4549 111.7024
" />
<path d="M75.4549 111.7024
L75.5501 111.6548
" />
<path d="M76.5025 111.6548
L76.5977 111.6548
" />
<path d="M76.5977 111.6548
L76.6930 111.7024
" />
<path d="M76.6930 111.7024
L76.7406 111.7501
" />
<path d="M76.7406 111.7501
L76.7882 111.8453
" />
<path d="M76.7882 111.8453
L76.8358 112.0358
" />
<path d="M76.8358 112.0358
L76.8358 112.2739
" />
<path d="M76.8358 112.2739
L76.7882 112.4643
" />
<path d="M76.7882 112.4643
L76.7406 112.5596
" />
<path d="M76.7406 112.5596
L76.6930 112.6072
" />
<path d="M76.6930 112.6072
L76.5977 112.6548
" />
<path d="M76.5977 112.6548
L76.5025 112.6548
" />
<path d="M76.5025 112.6548
L76.4072 112.6072
" />
<path d="M76.4072 112.6072
L76.3596 112.5596
" />
<path d="M76.3596 112.5596
L76.3120 112.4643
" />
<path d="M76.3120 112.4643
L76.2644 112.2739
" />
<path d="M76.2644 112.2739
L76.2644 112.0358
" />
<path d="M76.2644 112.0358
L76.3120 111.8453
" />
<path d="M76.3120 111.8453
L76.3596 111.7501
" />
<path d="M76.3596 111.7501
L76.4072 111.7024
" />
<path d="M76.4072 111.7024
L76.5025 111.6548
" />
<path d="M78.0263 112.6548
L78.0263 111.9882
" />
<path d="M78.0263 112.0834
L78.0739 112.0358
" />
<path d="M78.0739 112.0358
L78.1691 111.9882
" />
<path d="M78.1691 111.9882
L78.3120 111.9882
" />
<path d="M78.3120 111.9882
L78.4072 112.0358
" />
<path d="M78.4072 112.0358
L78.4549 112.1310
" />
<path d="M78.4549 112.1310
L78.4549 112.6548
" />
<path d="M78.4549 112.1310
L78.5025 112.0358
" />
<path d="M78.5025 112.0358
L78.5977 111.9882
" />
<path d="M78.5977 111.9882
L78.7406 111.9882
" />
<path d="M78.7406 111.9882
L78.8358 112.0358
" />
<path d="M78.8358 112.0358
L78.8834 112.1310
" />
<path d="M78.8834 112.1310
L78.8834 112.6548
" />
<path d="M79.3596 112.6548
L79.3596 111.9882
" />
<path d="M79.3596 112.0834
L79.4072 112.0358
" />
<path d="M79.4072 112.0358
L79.5025 111.9882
" />
<path d="M79.5025 111.9882
L79.6453 111.9882
" />
<path d="M79.6453 111.9882
L79.7406 112.0358
" />
<path d="M79.7406 112.0358
L79.7882 112.1310
" />
<path d="M79.7882 112.1310
L79.7882 112.6548
" />
<path d="M79.7882 112.1310
L79.8358 112.0358
" />
<path d="M79.8358 112.0358
L79.9311 111.9882
" />
<path d="M79.9311 111.9882
L80.0739 111.9882
" />
<path d="M80.0739 111.9882
L80.1691 112.0358
" />
<path d="M80.1691 112.0358
L80.2168 112.1310
" />
<path d="M80.2168 112.1310
L80.2168 112.6548
" />
</g><path d="M31.8953 88.0000
L31.8953 112.7864
" />
<path d="M119.3953 88.0000
L119.3953 112.7864
" />
<path d="M31.8953 112.2000
L70.2108 112.2000
" />
<path d="M81.0799 112.2000
L119.3953 112.2000
" />
<path d="M31.8953 112.2000
L33.0218 111.6136
" />
<path d="M31.8953 112.2000
L33.0218 112.7864
" />
<path d="M119.3953 112.2000
L118.2688 112.7864
" />
<path d="M119.3953 112.2000
L118.2688 111.6136
" />
<text x="75.5953" y="107.8000"
textLength="9.8690" font-size="1.3333" lengthAdjust="spacingAndGlyphs"
text-anchor="middle" opacity="0">80.0000 mm</text>
<g class="stroked-text"><desc>80.0000 mm</desc>
<path d="M71.1668 107.1834
L71.0715 107.1358
" />
<path d="M71.0715 107.1358
L71.0239 107.0882
" />
<path d="M71.0239 107.0882
L70.9763 106.9929
" />
<path d="M70.9763 106.9929
L70.9763 106.9453
" />
<path d="M70.9763 106.9453
L71.0239 106.8501
" />
<path d="M71.0239 106.8501
L71.0715 106.8024
" />
<path d="M71.0715 106.8024
L71.1668 106.7548
" />
<path d="M71.1668 106.7548
L71.3572 106.7548
" />
<path d="M71.3572 106.7548
L71.4525 106.8024
" />
<path d="M71.4525 106.8024
L71.5001 106.8501
" />
<path d="M71.5001 106.8501
L71.5477 106.9453
" />
<path d="M71.5477 106.9453
L71.5477 106.9929
" />
<path d="M71.5477 106.9929
L71.5001 107.0882
" />
<path d="M71.5001 107.0882
L71.4525 107.1358
" />
<path d="M71.4525 107.1358
L71.3572 107.1834
" />
<path d="M71.3572 107.1834
L71.1668 107.1834
" />
<path d="M71.1668 107.1834
L71.0715 107.2310
" />
<path d="M71.0715 107.2310
L71.0239 107.2786
" />
<path d="M71.0239 107.2786
L70.9763 107.3739
" />
<path d="M70.9763 107.3739
L70.9763 107.5643
" />
<path d="M70.9763 107.5643
L71.0239 107.6596
" />
<path d="M71.0239 107.6596
L71.0715 107.7072
" />
<path d="M71.0715 107.7072
L71.1668 107.7548
" />
<path d="M71.1668 107.7548
L71.3572 107.7548
" />
<path d="M71.3572 107.7548
L71.4525 107.7072
" />
<path d="M71.4525 107.7072
L71.5001 107.6596
" />
<path d="M71.5001 107.6596
L71.5477 107.5643
" />
<path d="M71.5477 107.5643
L71.5477 107.3739
" />
<path d="M71.5477 107.3739
L71.5001 107.2786
" />
<path d="M71.5001 107.2786
L71.4525 107.2310
" />
<path d="M71.4525 107.2310
L71.3572 107.1834
" />
<path d="M72.1668 106.7548
L72.2620 106.7548
" />
<path d="M72.2620 106.7548
L72.3572 106.8024
" />
<path d="M72.3572 106.8024
L72.4049 106.8501
" />
<path d="M72.4049 106.8501
L72.4525 106.9453
" />
<path d="M72.4525 106.9453
L72.5001 107.1358
" />
<path d="M72.5001 107.1358
L72.5001 107.3739
" />
<path d="M72.5001 107.3739
L72.4525 107.5643
" />
<path d="M72.4525 107.5643
L72.4049 107.6596
" />
<path d="M72.4049 107.6596
L72.3572 107.7072
" />
<path d="M72.3572 107.7072
L72.2620 107.7548
" />
<path d="M72.2620 107.7548
L72.1668 107.7548
" />
<path d="M72.1668 107.7548
L72.0715 107.7072
" />
<path d="M72.0715 107.7072
L72.0239 107.6596
" />
<path d="M72.0239 107.6596
L71.9763 107.5643
" />
<path d="M71.9763 107.5643
L71.9287 107.3739
" />
<path d="M71.9287 107.3739
L71.9287 107.1358
" />
<path d="M71.9287 107.1358
L71.9763 106.9453
" />
<path d="M71.9763 106.9453
L72.0239 106.8501
" />
<path d="M72.0239 106.8501
L72.0715 106.8024
" />
<path d="M72.0715 106.8024
L72.1668 106.7548
" />
<path d="M72.9287 107.6596
L72.9763 107.7072
" />
<path d="M72.9763 107.7072
L72.9287 107.7548
" />
<path d="M72.9287 107.7548
L72.8811 107.7072
" />
<path d="M72.8811 107.7072
L72.9287 107.6596
" />
<path d="M72.9287 107.6596
L72.9287 107.7548
" />
<path d="M73.5953 106.7548
L73.6906 106.7548
" />
<path d="M73.6906 106.7548
L73.7858 106.8024
" />
<path d="M73.7858 106.8024
L73.8334 106.8501
" />
<path d="M73.8334 106.8501
L73.8811 106.9453
" />
<path d="M73.8811 106.9453
L73.9287 107.1358
" />
<path d="M73.9287 107.1358
L73.9287 107.3739
" />
<path d="M73.9287 107.3739
L73.8811 107.5643
" />
<path d="M73.8811 107.5643
L73.8334 107.6596
" />
<path d="M73.8334 107.6596
L73.7858 107.7072
" />
<path d="M73.7858 107.7072
L73.6906 107.7548
" />
<path d="M73.6906 107.7548
L73.5953 107.7548
" />
<path d="M73.5953 107.7548
L73.5001 107.7072
" />
<path d="M73.5001 107.7072
L73.4525 107.6596
" />
<path d="M73.4525 107.6596
L73.4049 107.5643
" />
<path d="M73.4049 107.5643
L73.3572 107.3739
" />
<path d="M73.3572 107.3739
L73.3572 107.1358
" />
<path d="M73.3572 107.1358
L73.4049 106.9453
" />
<path d="M73.4049 106.9453
L73.4525 106.8501
" />
<path d="M73.4525 106.8501
L73.5001 106.8024
" />
<path d="M73.5001 106.8024
L73.5953 106.7548
" />
<path d="M74.5477 106.7548
L74.6430 106.7548
" />
<path d="M74.6430 106.7548
L74.7382 106.8024
" />
<path d="M74.7382 106.8024
L74.7858 106.8501
" />
<path d="M74.7858 106.8501
L74.8334 106.9453
" />
<path d="M74.8334 106.9453
L74.8811 107.1358
" />
<path d="M74.8811 107.1358
L74.8811 107.3739
" />
<path d="M74.8811 107.3739
L74.8334 107.5643
" />
<path d="M74.8334 107.5643
L74.7858 107.6596
" />
<path d="M74.7858 107.6596
L74.7382 107.7072
" />
<path d="M74.7382 107.7072
L74.6430 107.7548
" />
<path d="M74.6430 107.7548
L74.5477 107.7548
" />
<path d="M74.5477 107.7548
L74.4525 107.7072
" />
<path d="M74.4525 107.7072
L74.4049 107.6596
" />
<path d="M74.4049 107.6596
L74.3572 107.5643
" />
<path d="M74.3572 107.5643
L74.3096 107.3739
" />
<path d="M74.3096 107.3739
L74.3096 107.1358
" />
<path d="M74.3096 107.1358
L74.3572 106.9453
" />
<path d="M74.3572 106.9453
L74.4049 106.8501
" />
<path d="M74.4049 106.8501
L74.4525 106.8024
" />
<path d="M74.4525 106.8024
L74.5477 106.7548
" />
<path d="M75.5001 106.7548
L75.5953 106.7548
" />
<path d="M75.5953 106.7548
L75.6906 106.8024
" />
<path d="M75.6906 106.8024
L75.7382 106.8501
" />
<path d="M75.7382 106.8501
L75.7858 106.9453
" />
<path d="M75.7858 106.9453
L75.8334 107.1358
" />
<path d="M75.8334 107.1358
L75.8334 107.3739
" />
<path d="M75.8334 107.3739
L75.7858 107.5643
" />
<path d="M75.7858 107.5643
L75.7382 107.6596
" />
<path d="M75.7382 107.6596
L75.6906 107.7072
" />
<path d="M75.6906 107.7072
L75.5953 107.7548
" />
<path d="M75.5953 107.7548
L75.5001 107.7548
" />
<path d="M75.5001 107.7548
L75.4049 107.7072
" />
<path d="M75.4049 107.7072
L75.3572 107.6596
" />
<path d="M75.3572 107.6596
L75.3096 107.5643
" />
<path d="M75.3096 107.5643
L75.2620 107.3739
" />
<path d="M75.2620 107.3739
L75.2620 107.1358
" />
<path d="M75.2620 107.1358
L75.3096 106.9453
" />
<path d="M75.3096 106.9453
L75.3572 106.8501
" />
<path d="M75.3572 106.8501
L75.4049 106.8024
" />
<path d="M75.4049 106.8024
L75.5001 106.7548
" />
<path d="M76.4525 106.7548
L76.5477 106.7548
" />
<path d="M76.5477 106.7548
L76.6430 106.8024
" />
<path d="M76.6430 106.8024
L76.6906 106.8501
" />
<path d="M76.6906 106.8501
L76.7382 106.9453
" />
<path d="M76.7382 106.9453
L76.7858 107.1358
" />
<path d="M76.7858 107.1358
L76.7858 107.3739
" />
<path d="M76.7858 107.3739
L76.7382 107.5643
" />
<path d="M76.7382 107.5643
L76.6906 107.6596
" />
<path d="M76.6906 107.6596
L76.6430 107.7072
" />
<path d="M76.6430 107.7072
L76.5477 107.7548
" />
<path d="M76.5477 107.7548
L76.4525 107.7548
" />
<path d="M76.4525 107.7548
L76.3572 107.7072
" />
<path d="M76.3572 107.7072
L76.3096 107.6596
" />
<path d="M76.3096 107.6596
L76.2620 107.5643
" />
<path d="M76.2620 107.5643
L76.2144 107.3739
" />
<path d="M76.2144 107.3739
L76.2144 107.1358
" />
<path d="M76.2144 107.1358
L76.2620 106.9453
" />
<path d="M76.2620 106.9453
L76.3096 106.8501
" />
<path d="M76.3096 106.8501
L76.3572 106.8024
" />
<path d="M76.3572 106.8024
L76.4525 106.7548
" />
<path d="M77.9763 107.7548
L77.9763 107.0882
" />
<path d="M77.9763 107.1834
L78.0239 107.1358
" />
<path d="M78.0239 107.1358
L78.1191 107.0882
" />
<path d="M78.1191 107.0882
L78.2620 107.0882
" />
<path d="M78.2620 107.0882
L78.3572 107.1358
" />
<path d="M78.3572 107.1358
L78.4049 107.2310
" />
<path d="M78.4049 107.2310
L78.4049 107.7548
" />
<path d="M78.4049 107.2310
L78.4525 107.1358
" />
<path d="M78.4525 107.1358
L78.5477 107.0882
" />
<path d="M78.5477 107.0882
L78.6906 107.0882
" />
<path d="M78.6906 107.0882
L78.7858 107.1358
" />
<path d="M78.7858 107.1358
L78.8334 107.2310
" />
<path d="M78.8334 107.2310
L78.8334 107.7548
" />
<path d="M79.3096 107.7548
L79.3096 107.0882
" />
<path d="M79.3096 107.1834
L79.3572 107.1358
" />
<path d="M79.3572 107.1358
L79.4525 107.0882
" />
<path d="M79.4525 107.0882
L79.5953 107.0882
" />
<path d="M79.5953 107.0882
L79.6906 107.1358
" />
<path d="M79.6906 107.1358
L79.7382 107.2310
" />
<path d="M79.7382 107.2310
L79.7382 107.7548
" />
<path d="M79.7382 107.2310
L79.7858 107.1358
" />
<path d="M79.7858 107.1358
L79.8811 107.0882
" />
<path d="M79.8811 107.0882
L80.0239 107.0882
" />
<path d="M80.0239 107.0882
L80.1191 107.1358
" />
<path d="M80.1191 107.1358
L80.1668 107.2310
" />
<path d="M80.1668 107.2310
L80.1668 107.7548
" />
</g><path d="M35.5953 90.9000
L35.5953 107.8864
" />
<path d="M115.5953 90.9000
L115.5953 107.8864
" />
<path d="M35.5953 107.3000
L70.1608 107.3000
" />
<path d="M81.0299 107.3000
L115.5953 107.3000
" />
<path d="M35.5953 107.3000
L36.7218 106.7136
" />
<path d="M35.5953 107.3000
L36.7218 107.8864
" />
<path d="M115.5953 107.3000
L114.4688 107.8864
" />
<path d="M115.5953 107.3000
L114.4688 106.7136
" />
<circle cx="35.5953" cy="90.4000" r="3.2000" /> 
<circle cx="115.5953" cy="90.4000" r="3.2000" /> 
<circle cx="115.5953" cy="5.4000" r="3.2000" /> 
<circle cx="35.5953" cy="5.4000" r="3.2000" /> 
<g >
</g>
<g >
</g>
<g >
</g>
<g >
</g>
<g >
</g>
<g >
</g>
<g >
</g>
<g >
</g>
<g >
</g>
<g >
</g>
<g >
</g>
<g >
</g>
<g >
</g>
<g >
</g>
<g >
</g>
<g >
</g>
<g >
</g>
<g >
</g>
<g >
</g>
<g >
</g>
<g >
</g>
<g >
</g>
<g >
</g>
<g >
</g>
<g >
</g>
<g >
</g>
<g >
</g>
<g >
</g>
<g >
</g>
<g >
</g>
<g >
</g>
<g >
</g>
<g >
</g>
<g >
</g>
<g >
</g>
<g >
</g>
<g >
</g>
<g >
</g>
<g >
</g>
<g >
</g>
<g >
</g>
<g >
</g>
<g >
</g>
<g >
</g>
<g >
</g>
<g >
</g>
<g >
</g>
<g >
</g>
<g >
</g>
<g >
</g>
<g >
</g>
<g >
</g>
<g >
</g>
<g >
</g>
<g >
</g>
<g >
</g>
<g >
</g>
<g >
</g>
<g >
</g>
<g >
</g>
<g >
</g>
<g >
</g>
<g >
</g>
<g >
</g>
<g >
</g>
<g >
</g>
<g >
</g>
<g >
</g>
<g >
</g>
<g >
</g>
<g >
</g>
<g >
</g>
<g >
</g>
<g >
</g>
<g >
</g>
<g >
</g>
<g >
</g>
<g >
</g>
<g >
</g>
<g >
</g>
<g >
</g>
<g >
</g>
<g >
</g>
<g >
</g>
<g >
</g>
<g >
</g>
<g >
</g>
<g >
</g>
<g >
</g>
<g >
</g>
<g >
</g>
<g >
</g>
<g >
</g>
<g >
</g>
<g >
</g>
<g >
</g>
<g >
</g>
<g >
</g>
<g >
</g>
<g >
</g>
<g >
</g>
<g >
</g>
<g >
</g>
<g >
</g>
<g >
</g>
<g >
</g>
<g >
</g>
<g >
</g>
<g >
</g>
<g >
</g>
<g >
</g>
<g >
</g>
<g >
</g>
<g >
</g>
<g >
</g>
<g >
</g>
<g >
</g>
<g >
</g>
<g >
</g>
<g >
</g>
<g >
</g>
<g >
</g>
<g >
</g>
<g >
</g>
<g >
</g>
<g >
</g>
<g >
</g>
<g >
</g>
</g>
<g style="fill:#FFFFFF; fill-opacity:0.0; 
stroke:#FFFFFF; stroke-width:0.1500; stroke-opacity:1; 
stroke-linecap:round; stroke-linejoin:round;">
</g>
<g style="fill:#FFFFFF; fill-opacity:0.0; 
stroke:#FFFFFF; stroke-width:0.1000; stroke-opacity:1; 
stroke-linecap:round; stroke-linejoin:round;">
<path d="M119.2750 5.4000
L119.2750 90.4000
" />
<path d="M88.7953 81.5000
L91.5953 84.3000
" />
<path d="M31.9157 90.4000
L31.9157 5.5000
" />
<path d="M104.4953 83.5000
L104.4953 85.0000
" />
<path d="M93.7923 83.4414
L104.4953 83.5000
" />
<path d="M104.4953 85.0000
L93.6827 85.0162
" />
<path d="M115.5953 94.0797 A3.6797 3.6797 0.0 0 0 119.2750 90.4000" />
<path d="M88.7953 81.5000
L89.8953 80.4000
" />
<path d="M31.9157 90.4000 A3.6797 3.6797 0.0 0 0 35.5953 94.0797" />
<path d="M35.8019 1.7248
L115.5953 1.7203
" />
<path d="M89.8953 80.4000
L92.2953 82.8000
" />
<path d="M91.5953 84.3000 A3.4000 3.4000 0.0 0 0 93.6827 85.0162" />
<path d="M119.2750 5.4000 A3.6797 3.6797 0.0 0 0 115.5953 1.7203" />
<path d="M35.8019 1.7248 A3.6810 3.6810 0.0 0 0 31.9157 5.5000" />
<path d="M115.5953 94.0797
L35.5953 94.0797
" />
<path style="fill:#FFFFFF; fill-opacity:0.0; 
stroke:#FFFFFF; stroke-width:0.1000; stroke-opacity:1; 
stroke-linecap:round; stroke-linejoin:round;fill:none"
d="M 95.0453,51.1000
111.9453,51.1000
111.9453,53.0000
95.0453,53.0000
Z" /> 
<path d="M92.2953 82.8000 A1.8439 1.8439 0.0 0 0 93.7923 83.4414" />
<g >
</g>
<g >
</g>
<g >
</g>
<g >
</g>
<g >
</g>
<g >
</g>
<g >
</g>
<g >
</g>
<g >
</g>
<g >
</g>
<g >
</g>
<g >
</g>
<g >
</g>
<g >
</g>
<g >
</g>
<g >
</g>
<g >
</g>
<g >
</g>
<g >
</g>
<g >
</g>
<g >
</g>
<g >
</g>
<g >
</g>
<g >
</g>
<g >
</g>
<g >
</g>
<g >
</g>
<g >
</g>
<g >
</g>
<g >
</g>
<g >
</g>
<g >
</g>
<g >
</g>
<g >
</g>
<g >
</g>
<g >
</g>
<g >
</g>
<g >
</g>
<g >
</g>
<g >
</g>
<g >
</g>
<g >
</g>
<g >
</g>
<g >
</g>
<g >
</g>
<g >
</g>
<g >
</g>
<g >
</g>
<g >
</g>
<g >
</g>
<g >
</g>
<g >
</g>
<g >
</g>
<g >
</g>
<g >
</g>
<g >
</g>
<g >
</g>
<g >
</g>
<g >
</g>
<g >
</g>
<g >
</g>
<g >
</g>
<g >
</g>
<g >
</g>
<g >
</g>
<g >
</g>
<g >
</g>
<g >
</g>
<g >
</g>
<g >
</g>
<g >
</g>
<g >
</g>
<g >
</g>
<g >
</g>
<g >
</g>
<g >
</g>
<g >
</g>
<g >
</g>
<g >
</g>
<g >
</g>
<g >
</g>
<g >
</g>
<g >
</g>
<g >
</g>
<g >
</g>
<g >
</g>
<g >
</g>
<g >
</g>
<g >
</g>
<g >
</g>
<g >
</g>
<g >
</g>
<g >
</g>
<g >
</g>
<g >
</g>
<g >
</g>
<g >
</g>
<g >
</g>
<g >
</g>
<g >
</g>
<g >
</g>
<g >
</g>
<g >
</g>
<g >
</g>
<g >
</g>
<g >
</g>
<g >
</g>
<g >
</g>
<g >
</g>
<g >
</g>
<g >
</g>
<g >
</g>
<g >
</g>
<g >
</g>
<g >
</g>
<g >
</g>
<g >
</g>
<g >
</g>
<g >
</g>
<g >
</g>
<g >
</g>
<g >
</g>
<g >
</g>
<g >
</g>
<g >
</g>
<g >
</g>
<g >
</g>
<g >
</g>
</g> 
</svg>
