G04 #@! TF.GenerationSoftware,KiCad,Pcbnew,7.0.8*
G04 #@! TF.CreationDate,2024-01-02T14:17:18+01:00*
G04 #@! TF.ProjectId,ESP32-POE-Wiegand-Relay-REV-B,45535033-322d-4504-9f45-2d5769656761,rev?*
G04 #@! TF.SameCoordinates,Original*
G04 #@! TF.FileFunction,Soldermask,Top*
G04 #@! TF.FilePolarity,Negative*
%FSLAX46Y46*%
G04 Gerber Fmt 4.6, Leading zero omitted, Abs format (unit mm)*
G04 Created by KiCad (PCBNEW 7.0.8) date 2024-01-02 14:17:18*
%MOMM*%
%LPD*%
G01*
G04 APERTURE LIST*
G04 Aperture macros list*
%AMRoundRect*
0 Rectangle with rounded corners*
0 $1 Rounding radius*
0 $2 $3 $4 $5 $6 $7 $8 $9 X,Y pos of 4 corners*
0 Add a 4 corners polygon primitive as box body*
4,1,4,$2,$3,$4,$5,$6,$7,$8,$9,$2,$3,0*
0 Add four circle primitives for the rounded corners*
1,1,$1+$1,$2,$3*
1,1,$1+$1,$4,$5*
1,1,$1+$1,$6,$7*
1,1,$1+$1,$8,$9*
0 Add four rect primitives between the rounded corners*
20,1,$1+$1,$2,$3,$4,$5,0*
20,1,$1+$1,$4,$5,$6,$7,0*
20,1,$1+$1,$6,$7,$8,$9,0*
20,1,$1+$1,$8,$9,$2,$3,0*%
G04 Aperture macros list end*
%ADD10R,1.250000X0.600000*%
%ADD11RoundRect,0.225000X-0.225000X1.025000X-0.225000X-1.025000X0.225000X-1.025000X0.225000X1.025000X0*%
%ADD12RoundRect,0.225000X-0.225000X0.975000X-0.225000X-0.975000X0.225000X-0.975000X0.225000X0.975000X0*%
%ADD13RoundRect,0.225000X-0.375000X0.225000X-0.375000X-0.225000X0.375000X-0.225000X0.375000X0.225000X0*%
%ADD14R,0.900000X0.400000*%
%ADD15R,0.300000X0.850000*%
%ADD16R,0.850000X0.300000*%
%ADD17R,3.400000X3.400000*%
%ADD18RoundRect,0.200000X-0.200000X-0.275000X0.200000X-0.275000X0.200000X0.275000X-0.200000X0.275000X0*%
%ADD19R,4.100000X4.100000*%
%ADD20RoundRect,0.250000X-0.362500X-1.425000X0.362500X-1.425000X0.362500X1.425000X-0.362500X1.425000X0*%
%ADD21RoundRect,0.150000X-0.587500X-0.150000X0.587500X-0.150000X0.587500X0.150000X-0.587500X0.150000X0*%
%ADD22RoundRect,0.250000X1.000000X0.650000X-1.000000X0.650000X-1.000000X-0.650000X1.000000X-0.650000X0*%
%ADD23RoundRect,0.250000X-0.475000X0.250000X-0.475000X-0.250000X0.475000X-0.250000X0.475000X0.250000X0*%
%ADD24RoundRect,0.250000X1.400000X1.000000X-1.400000X1.000000X-1.400000X-1.000000X1.400000X-1.000000X0*%
%ADD25R,1.528000X0.650000*%
%ADD26RoundRect,0.135000X-0.185000X0.135000X-0.185000X-0.135000X0.185000X-0.135000X0.185000X0.135000X0*%
%ADD27RoundRect,0.225000X-0.250000X0.225000X-0.250000X-0.225000X0.250000X-0.225000X0.250000X0.225000X0*%
%ADD28RoundRect,0.218750X-0.256250X0.218750X-0.256250X-0.218750X0.256250X-0.218750X0.256250X0.218750X0*%
%ADD29RoundRect,0.135000X-0.135000X-0.185000X0.135000X-0.185000X0.135000X0.185000X-0.135000X0.185000X0*%
%ADD30C,1.500000*%
%ADD31R,5.700000X1.700000*%
%ADD32RoundRect,0.250000X0.475000X-0.250000X0.475000X0.250000X-0.475000X0.250000X-0.475000X-0.250000X0*%
%ADD33R,1.600000X1.600000*%
%ADD34C,1.600000*%
%ADD35RoundRect,0.150000X0.150000X-0.512500X0.150000X0.512500X-0.150000X0.512500X-0.150000X-0.512500X0*%
%ADD36RoundRect,0.200000X0.200000X0.275000X-0.200000X0.275000X-0.200000X-0.275000X0.200000X-0.275000X0*%
%ADD37RoundRect,0.140000X0.170000X-0.140000X0.170000X0.140000X-0.170000X0.140000X-0.170000X-0.140000X0*%
%ADD38RoundRect,0.135000X0.135000X0.185000X-0.135000X0.185000X-0.135000X-0.185000X0.135000X-0.185000X0*%
%ADD39C,6.400000*%
%ADD40RoundRect,0.225000X0.225000X0.375000X-0.225000X0.375000X-0.225000X-0.375000X0.225000X-0.375000X0*%
%ADD41RoundRect,0.135000X0.185000X-0.135000X0.185000X0.135000X-0.185000X0.135000X-0.185000X-0.135000X0*%
%ADD42R,0.900000X1.500000*%
%ADD43R,1.500000X0.900000*%
%ADD44R,0.900000X0.900000*%
%ADD45RoundRect,0.250000X-0.450000X0.262500X-0.450000X-0.262500X0.450000X-0.262500X0.450000X0.262500X0*%
%ADD46RoundRect,0.140000X0.140000X0.170000X-0.140000X0.170000X-0.140000X-0.170000X0.140000X-0.170000X0*%
%ADD47R,1.700000X1.700000*%
%ADD48O,1.700000X1.700000*%
%ADD49R,1.450000X0.700000*%
%ADD50C,0.650000*%
%ADD51R,0.600000X1.240000*%
%ADD52R,0.300000X1.240000*%
%ADD53O,1.000000X2.100000*%
%ADD54O,1.000000X1.800000*%
%ADD55C,3.250000*%
%ADD56C,1.550000*%
%ADD57C,1.200000*%
%ADD58C,1.650000*%
%ADD59C,2.355000*%
%ADD60RoundRect,0.225000X0.375000X-0.225000X0.375000X0.225000X-0.375000X0.225000X-0.375000X-0.225000X0*%
%ADD61RoundRect,0.150000X0.150000X-0.825000X0.150000X0.825000X-0.150000X0.825000X-0.150000X-0.825000X0*%
%ADD62C,2.100000*%
%ADD63RoundRect,0.225000X0.225000X0.250000X-0.225000X0.250000X-0.225000X-0.250000X0.225000X-0.250000X0*%
%ADD64R,0.650000X1.528000*%
%ADD65RoundRect,0.050800X0.300000X0.800000X-0.300000X0.800000X-0.300000X-0.800000X0.300000X-0.800000X0*%
%ADD66RoundRect,0.050800X1.755000X1.310000X-1.755000X1.310000X-1.755000X-1.310000X1.755000X-1.310000X0*%
%ADD67RoundRect,0.150000X0.150000X-0.587500X0.150000X0.587500X-0.150000X0.587500X-0.150000X-0.587500X0*%
%ADD68RoundRect,0.150000X0.587500X0.150000X-0.587500X0.150000X-0.587500X-0.150000X0.587500X-0.150000X0*%
%ADD69RoundRect,0.140000X-0.170000X0.140000X-0.170000X-0.140000X0.170000X-0.140000X0.170000X0.140000X0*%
%ADD70RoundRect,0.250000X0.325000X1.100000X-0.325000X1.100000X-0.325000X-1.100000X0.325000X-1.100000X0*%
%ADD71RoundRect,0.200000X0.275000X-0.200000X0.275000X0.200000X-0.275000X0.200000X-0.275000X-0.200000X0*%
%ADD72RoundRect,0.200000X-0.275000X0.200000X-0.275000X-0.200000X0.275000X-0.200000X0.275000X0.200000X0*%
%ADD73RoundRect,0.250000X0.312500X0.625000X-0.312500X0.625000X-0.312500X-0.625000X0.312500X-0.625000X0*%
%ADD74RoundRect,0.140000X-0.140000X-0.170000X0.140000X-0.170000X0.140000X0.170000X-0.140000X0.170000X0*%
%ADD75RoundRect,0.250000X-0.325000X-0.650000X0.325000X-0.650000X0.325000X0.650000X-0.325000X0.650000X0*%
%ADD76RoundRect,0.225000X0.250000X-0.225000X0.250000X0.225000X-0.250000X0.225000X-0.250000X-0.225000X0*%
%ADD77RoundRect,0.250000X0.250000X0.475000X-0.250000X0.475000X-0.250000X-0.475000X0.250000X-0.475000X0*%
%ADD78C,2.000000*%
G04 APERTURE END LIST*
D10*
X211300000Y-91600000D03*
X211300000Y-92550000D03*
X211300000Y-93500000D03*
X213800000Y-93500000D03*
X213800000Y-92550000D03*
X213800000Y-91600000D03*
D11*
X206230000Y-48050000D03*
D12*
X208770000Y-48050000D03*
X208770000Y-42050000D03*
X206230000Y-42050000D03*
D13*
X202000000Y-56250000D03*
X202000000Y-59550000D03*
D14*
X215850000Y-65100000D03*
X215850000Y-64300000D03*
X215850000Y-63500000D03*
X215850000Y-62700000D03*
X214150000Y-62700000D03*
X214150000Y-63500000D03*
X214150000Y-64300000D03*
X214150000Y-65100000D03*
D15*
X226150000Y-60450000D03*
X225650000Y-60450000D03*
X225150000Y-60450000D03*
X224650000Y-60450000D03*
X224150000Y-60450000D03*
X223650000Y-60450000D03*
X223150000Y-60450000D03*
X222650000Y-60450000D03*
D16*
X221950000Y-61150000D03*
X221950000Y-61650000D03*
X221950000Y-62150000D03*
X221950000Y-62650000D03*
X221950000Y-63150000D03*
X221950000Y-63650000D03*
X221950000Y-64150000D03*
X221950000Y-64650000D03*
D15*
X222650000Y-65350000D03*
X223150000Y-65350000D03*
X223650000Y-65350000D03*
X224150000Y-65350000D03*
X224650000Y-65350000D03*
X225150000Y-65350000D03*
X225650000Y-65350000D03*
X226150000Y-65350000D03*
D16*
X226850000Y-64650000D03*
X226850000Y-64150000D03*
X226850000Y-63650000D03*
X226850000Y-63150000D03*
X226850000Y-62650000D03*
X226850000Y-62150000D03*
X226850000Y-61650000D03*
X226850000Y-61150000D03*
D17*
X224400000Y-62900000D03*
D18*
X213575000Y-75000000D03*
X215225000Y-75000000D03*
D19*
X244400000Y-43650000D03*
X244400000Y-34150000D03*
D20*
X197437500Y-48900000D03*
X203362500Y-48900000D03*
D21*
X221562500Y-75250000D03*
X221562500Y-77150000D03*
X223437500Y-76200000D03*
D20*
X225147500Y-28900000D03*
X231072500Y-28900000D03*
D22*
X216300000Y-38400000D03*
X212300000Y-38400000D03*
D23*
X217300000Y-88550000D03*
X217300000Y-90450000D03*
D24*
X234750000Y-40250000D03*
X234750000Y-33450000D03*
D25*
X211889000Y-28095000D03*
X211889000Y-29365000D03*
X211889000Y-30635000D03*
X211889000Y-31905000D03*
X217311000Y-31905000D03*
X217311000Y-30635000D03*
X217311000Y-29365000D03*
X217311000Y-28095000D03*
D26*
X223600000Y-67390000D03*
X223600000Y-68410000D03*
D27*
X230000000Y-65425000D03*
X230000000Y-66975000D03*
D28*
X223400000Y-93512500D03*
X223400000Y-95087500D03*
D29*
X212990000Y-102480000D03*
X214010000Y-102480000D03*
D26*
X233200000Y-64490000D03*
X233200000Y-65510000D03*
D30*
X260000000Y-40500000D03*
X260000000Y-37000000D03*
D29*
X196490000Y-75800000D03*
X197510000Y-75800000D03*
D21*
X221225000Y-89650000D03*
X221225000Y-91550000D03*
X223100000Y-90600000D03*
D31*
X209800000Y-88150000D03*
X209800000Y-83650000D03*
D32*
X209300000Y-93550000D03*
X209300000Y-91650000D03*
D33*
X241702651Y-26350000D03*
D34*
X238202651Y-26350000D03*
D18*
X213675000Y-57367500D03*
X215325000Y-57367500D03*
D35*
X216250000Y-71337500D03*
X218150000Y-71337500D03*
X217200000Y-69062500D03*
D22*
X250610000Y-28000000D03*
X246610000Y-28000000D03*
D36*
X212050000Y-65900000D03*
X210400000Y-65900000D03*
D37*
X194300000Y-108380000D03*
X194300000Y-107420000D03*
D38*
X217210000Y-93000000D03*
X216190000Y-93000000D03*
D39*
X182000000Y-109000000D03*
D40*
X229450000Y-102100000D03*
X226150000Y-102100000D03*
D37*
X223400000Y-57180000D03*
X223400000Y-56220000D03*
D41*
X229600000Y-59410000D03*
X229600000Y-58390000D03*
D26*
X201300000Y-77190000D03*
X201300000Y-78210000D03*
D23*
X231910000Y-42850000D03*
X231910000Y-44750000D03*
D36*
X212050000Y-64000000D03*
X210400000Y-64000000D03*
D39*
X262000000Y-109000000D03*
D29*
X216190000Y-94400000D03*
X217210000Y-94400000D03*
D20*
X197437500Y-53100000D03*
X203362500Y-53100000D03*
D29*
X212990000Y-101400000D03*
X214010000Y-101400000D03*
D42*
X180240000Y-99155000D03*
X181510000Y-99155000D03*
X182780000Y-99155000D03*
X184050000Y-99155000D03*
X185320000Y-99155000D03*
X186590000Y-99155000D03*
X187860000Y-99155000D03*
X189130000Y-99155000D03*
X190400000Y-99155000D03*
X191670000Y-99155000D03*
X192940000Y-99155000D03*
X194210000Y-99155000D03*
X195480000Y-99155000D03*
X196750000Y-99155000D03*
D43*
X198000000Y-96120000D03*
X198000000Y-94850000D03*
X198000000Y-93580000D03*
X198000000Y-92310000D03*
X198000000Y-91040000D03*
X198000000Y-89770000D03*
X198000000Y-88500000D03*
X198000000Y-87230000D03*
X198000000Y-85960000D03*
X198000000Y-84690000D03*
D42*
X196750000Y-81655000D03*
X195480000Y-81655000D03*
X194210000Y-81655000D03*
X192940000Y-81655000D03*
X191670000Y-81655000D03*
X190400000Y-81655000D03*
X189130000Y-81655000D03*
X187860000Y-81655000D03*
X186590000Y-81655000D03*
X185320000Y-81655000D03*
X184050000Y-81655000D03*
X182780000Y-81655000D03*
X181510000Y-81655000D03*
X180240000Y-81655000D03*
D44*
X186560000Y-93305000D03*
X187960000Y-93305000D03*
X189360000Y-93305000D03*
X189360000Y-91905000D03*
X189360000Y-90505000D03*
X187960000Y-90505000D03*
X186560000Y-90505000D03*
X186560000Y-91905000D03*
X187960000Y-91905000D03*
D45*
X229600000Y-53187500D03*
X229600000Y-55012500D03*
D37*
X231800000Y-59380000D03*
X231800000Y-58420000D03*
D46*
X219380000Y-62700000D03*
X218420000Y-62700000D03*
D29*
X223030000Y-48130000D03*
X224050000Y-48130000D03*
D47*
X230450000Y-22050000D03*
D48*
X227910000Y-22050000D03*
X225370000Y-22050000D03*
X222830000Y-22050000D03*
X220290000Y-22050000D03*
X217750000Y-22050000D03*
X215210000Y-22050000D03*
X212670000Y-22050000D03*
X210130000Y-22050000D03*
X207590000Y-22050000D03*
D18*
X207250000Y-64000000D03*
X208900000Y-64000000D03*
D30*
X183900000Y-35800000D03*
X183900000Y-39300000D03*
X183900000Y-42800000D03*
X183900000Y-46300000D03*
X183900000Y-49800000D03*
X183900000Y-53300000D03*
X183900000Y-56800000D03*
X183900000Y-60300000D03*
X183900000Y-63800000D03*
X183900000Y-67300000D03*
X183900000Y-70800000D03*
X183900000Y-74300000D03*
X260900000Y-95100000D03*
X260900000Y-91600000D03*
X260900000Y-88100000D03*
X260900000Y-84600000D03*
X260900000Y-81100000D03*
X260900000Y-77600000D03*
D26*
X233200000Y-60300000D03*
X233200000Y-61320000D03*
D29*
X228390000Y-56500000D03*
X229410000Y-56500000D03*
D49*
X205600000Y-54830000D03*
X205600000Y-56100000D03*
X205600000Y-57370000D03*
X205600000Y-58640000D03*
X211200000Y-58640000D03*
X211200000Y-57370000D03*
X211200000Y-56100000D03*
X211200000Y-54830000D03*
D50*
X209810000Y-105930000D03*
X215590000Y-105930000D03*
D51*
X209500000Y-104810000D03*
X210300000Y-104810000D03*
D52*
X211450000Y-104810000D03*
X212450000Y-104810000D03*
X212950000Y-104810000D03*
X213950000Y-104810000D03*
D51*
X215100000Y-104810000D03*
X215900000Y-104810000D03*
X215900000Y-104810000D03*
X215100000Y-104810000D03*
D52*
X214450000Y-104810000D03*
X213450000Y-104810000D03*
X211950000Y-104810000D03*
X210950000Y-104810000D03*
D51*
X210300000Y-104810000D03*
X209500000Y-104810000D03*
D53*
X208380000Y-105410000D03*
D54*
X208380000Y-109610000D03*
D53*
X217020000Y-105410000D03*
D54*
X217020000Y-109610000D03*
D35*
X229850000Y-63537500D03*
X230800000Y-63537500D03*
X231750000Y-63537500D03*
X231750000Y-61262500D03*
X230800000Y-61262500D03*
X229850000Y-61262500D03*
D55*
X256020000Y-52830000D03*
X256020000Y-65530000D03*
D56*
X240780000Y-54080000D03*
X240780000Y-56120000D03*
X240780000Y-58160000D03*
X240780000Y-60200000D03*
X240780000Y-62240000D03*
X240780000Y-64280000D03*
X238240000Y-53060000D03*
X238240000Y-55100000D03*
X238240000Y-57140000D03*
X238240000Y-61220000D03*
X238240000Y-63260000D03*
X238240000Y-65300000D03*
D57*
X247890000Y-53590000D03*
X247890000Y-64770000D03*
X249420000Y-53590000D03*
X249420000Y-64770000D03*
D58*
X235700000Y-53085000D03*
X235700000Y-55625000D03*
X235700000Y-62735000D03*
X235700000Y-65275000D03*
D59*
X259190000Y-51115000D03*
X259190000Y-67245000D03*
D60*
X233400000Y-109650000D03*
X233400000Y-106350000D03*
X202000000Y-42450000D03*
X202000000Y-39150000D03*
D33*
X226827621Y-34400000D03*
D34*
X228827621Y-34400000D03*
D18*
X202087500Y-67650000D03*
X203737500Y-67650000D03*
D13*
X199400000Y-56250000D03*
X199400000Y-59550000D03*
D18*
X220775000Y-104700000D03*
X222425000Y-104700000D03*
D38*
X213900000Y-33800000D03*
X212880000Y-33800000D03*
D61*
X195745000Y-108005000D03*
X197015000Y-108005000D03*
X198285000Y-108005000D03*
X199555000Y-108005000D03*
X200825000Y-108005000D03*
X202095000Y-108005000D03*
X203365000Y-108005000D03*
X204635000Y-108005000D03*
X204635000Y-103055000D03*
X203365000Y-103055000D03*
X202095000Y-103055000D03*
X200825000Y-103055000D03*
X199555000Y-103055000D03*
X198285000Y-103055000D03*
X197015000Y-103055000D03*
X195745000Y-103055000D03*
D60*
X221280000Y-82167500D03*
X221280000Y-78867500D03*
D62*
X227860000Y-96620000D03*
X238020000Y-96620000D03*
X245640000Y-96620000D03*
X243100000Y-89000000D03*
X227860000Y-89000000D03*
D63*
X224075000Y-54400000D03*
X222525000Y-54400000D03*
D21*
X212300000Y-71300000D03*
X212300000Y-73200000D03*
X214175000Y-72250000D03*
D64*
X198795000Y-75711000D03*
X200065000Y-75711000D03*
X201335000Y-75711000D03*
X202605000Y-75711000D03*
X202605000Y-70289000D03*
X201335000Y-70289000D03*
X200065000Y-70289000D03*
X198795000Y-70289000D03*
D21*
X224662500Y-108650000D03*
X224662500Y-110550000D03*
X226537500Y-109600000D03*
D65*
X229510000Y-41800000D03*
X228240000Y-41800000D03*
X226970000Y-41800000D03*
X225700000Y-41800000D03*
X225700000Y-47200000D03*
X226970000Y-47200000D03*
X228240000Y-47200000D03*
X229510000Y-47200000D03*
D66*
X227605000Y-44500000D03*
D67*
X208520000Y-77077500D03*
X210420000Y-77077500D03*
X209470000Y-75202500D03*
D38*
X229130000Y-105467500D03*
X228110000Y-105467500D03*
D13*
X209300000Y-96850000D03*
X209300000Y-100150000D03*
D68*
X203750000Y-66000000D03*
X203750000Y-64100000D03*
X201875000Y-65050000D03*
D69*
X198800000Y-67620000D03*
X198800000Y-68580000D03*
D62*
X227900000Y-82085000D03*
X238060000Y-82085000D03*
X245680000Y-82085000D03*
X243140000Y-74465000D03*
X227900000Y-74465000D03*
D18*
X207250000Y-65900000D03*
X208900000Y-65900000D03*
D70*
X215975000Y-79600000D03*
X213025000Y-79600000D03*
D13*
X201900000Y-27750000D03*
X201900000Y-31050000D03*
D14*
X218750000Y-60700000D03*
X218750000Y-59900000D03*
X218750000Y-59100000D03*
X218750000Y-58300000D03*
X217050000Y-58300000D03*
X217050000Y-59100000D03*
X217050000Y-59900000D03*
X217050000Y-60700000D03*
D18*
X202075000Y-62500000D03*
X203725000Y-62500000D03*
D60*
X221230000Y-97470000D03*
X221230000Y-94170000D03*
D38*
X224030000Y-46800000D03*
X223010000Y-46800000D03*
D20*
X193337500Y-29200000D03*
X199262500Y-29200000D03*
D71*
X219600000Y-77025000D03*
X219600000Y-75375000D03*
D41*
X233200000Y-59320000D03*
X233200000Y-58300000D03*
D69*
X228500000Y-65220000D03*
X228500000Y-66180000D03*
D49*
X199300000Y-33295000D03*
X199300000Y-34565000D03*
X199300000Y-35835000D03*
X199300000Y-37105000D03*
X204900000Y-37105000D03*
X204900000Y-35835000D03*
X204900000Y-34565000D03*
X204900000Y-33295000D03*
D29*
X209311000Y-28095000D03*
X210331000Y-28095000D03*
D28*
X223400000Y-78812500D03*
X223400000Y-80387500D03*
D72*
X207100000Y-36075000D03*
X207100000Y-37725000D03*
D26*
X223100000Y-96390000D03*
X223100000Y-97410000D03*
D46*
X217180000Y-95600000D03*
X216220000Y-95600000D03*
D29*
X209301000Y-30635000D03*
X210321000Y-30635000D03*
D73*
X230010000Y-39000000D03*
X227085000Y-39000000D03*
D26*
X223100000Y-81590000D03*
X223100000Y-82610000D03*
D38*
X217610000Y-74900000D03*
X216590000Y-74900000D03*
D39*
X262000000Y-24000000D03*
D74*
X223030000Y-49450000D03*
X223990000Y-49450000D03*
D18*
X213675000Y-54867500D03*
X215325000Y-54867500D03*
D38*
X215920000Y-33800000D03*
X214900000Y-33800000D03*
D71*
X219200000Y-91450000D03*
X219200000Y-89800000D03*
X231600000Y-54725000D03*
X231600000Y-53075000D03*
D63*
X217975000Y-73400000D03*
X216425000Y-73400000D03*
D18*
X220675000Y-108700000D03*
X222325000Y-108700000D03*
D39*
X182000000Y-24000000D03*
D75*
X256200000Y-47600000D03*
X259150000Y-47600000D03*
D37*
X228400000Y-59380000D03*
X228400000Y-58420000D03*
D76*
X222000000Y-57575000D03*
X222000000Y-56025000D03*
D74*
X193440000Y-104780000D03*
X194400000Y-104780000D03*
D77*
X215400000Y-35600000D03*
X213500000Y-35600000D03*
D74*
X196320000Y-70300000D03*
X197280000Y-70300000D03*
D29*
X181490000Y-103600000D03*
X182510000Y-103600000D03*
D63*
X185175000Y-102200000D03*
X183625000Y-102200000D03*
D20*
X184975000Y-29200000D03*
X190900000Y-29200000D03*
D71*
X204900000Y-31050000D03*
X204900000Y-29400000D03*
D78*
X243650000Y-110650000D03*
X237150000Y-110650000D03*
X243650000Y-106150000D03*
X237150000Y-106150000D03*
D21*
X224725000Y-104450000D03*
X224725000Y-106350000D03*
X226600000Y-105400000D03*
D41*
X231810000Y-47210000D03*
X231810000Y-46190000D03*
D11*
X212780000Y-47950000D03*
D12*
X215320000Y-47950000D03*
X215320000Y-41950000D03*
X212780000Y-41950000D03*
D29*
X209301000Y-29365000D03*
X210321000Y-29365000D03*
D13*
X231000000Y-106350000D03*
X231000000Y-109650000D03*
D41*
X233200000Y-63410000D03*
X233200000Y-62390000D03*
M02*
