%TF.GenerationSoftware,KiCad,Pcbnew,7.0.8*%
%TF.CreationDate,2024-01-02T14:18:20+01:00*%
%TF.ProjectId,ESP32-POE-Wiegand-Relay-REV-B,45535033-322d-4504-9f45-2d5769656761,rev?*%
%TF.SameCoordinates,Original*%
%TF.FileFunction,Drillmap*%
%TF.FilePolarity,Positive*%
%FSLAX45Y45*%
G04 Gerber Fmt 4.5, Leading zero omitted, Abs format (unit mm)*
G04 Created by KiCad (PCBNEW 7.0.8) date 2024-01-02 14:18:20*
%MOMM*%
%LPD*%
G01*
G04 APERTURE LIST*
%ADD10C,0.100000*%
%ADD11C,0.200000*%
%ADD12C,0.065000*%
%ADD13C,0.325000*%
G04 APERTURE END LIST*
D10*
X26567967Y-2400000D02*
X26567967Y-10900000D01*
X23520000Y-10010000D02*
X23800000Y-10290000D01*
X17832033Y-10900000D02*
X17832033Y-2410000D01*
X25090000Y-10210000D02*
X25090000Y-10360000D01*
X24019691Y-10204136D02*
X25090000Y-10210000D01*
X25090000Y-10360000D02*
X24008740Y-10361620D01*
X26200000Y-11267967D02*
G75*
G03*
X26567967Y-10900000I0J367967D01*
G01*
X23520000Y-10010000D02*
X23630000Y-9900000D01*
X17832033Y-10900000D02*
G75*
G03*
X18200000Y-11267967I367967J0D01*
G01*
X18220658Y-2032477D02*
X26200000Y-2032033D01*
X23630000Y-9900000D02*
X23870000Y-10140000D01*
X23800000Y-10290000D02*
G75*
G03*
X24008740Y-10361620I208740J268380D01*
G01*
X26567967Y-2400000D02*
G75*
G03*
X26200000Y-2032033I-367967J0D01*
G01*
X18220658Y-2032477D02*
G75*
G03*
X17832033Y-2410000I-20658J-367523D01*
G01*
X26200000Y-11267967D02*
X18200000Y-11267967D01*
X24145000Y-6970000D02*
X25835000Y-6970000D01*
X25835000Y-7160000D01*
X24145000Y-7160000D01*
X24145000Y-6970000D01*
X23870000Y-10140000D02*
G75*
G03*
X24019691Y-10204136I140000J120000D01*
G01*
D11*
D12*
X20948500Y-10560500D02*
X21013500Y-10625500D01*
X21013500Y-10560500D02*
X20948500Y-10625500D01*
X21526500Y-10560500D02*
X21591500Y-10625500D01*
X21591500Y-10560500D02*
X21526500Y-10625500D01*
D13*
X25764500Y-5283000D02*
G75*
G03*
X25764500Y-5283000I-162500J0D01*
G01*
X25764500Y-6553000D02*
G75*
G03*
X25764500Y-6553000I-162500J0D01*
G01*
D11*
X18087674Y-11584451D02*
X18087674Y-11384451D01*
X18087674Y-11384451D02*
X18135293Y-11384451D01*
X18135293Y-11384451D02*
X18163864Y-11393975D01*
X18163864Y-11393975D02*
X18182912Y-11413022D01*
X18182912Y-11413022D02*
X18192436Y-11432070D01*
X18192436Y-11432070D02*
X18201959Y-11470165D01*
X18201959Y-11470165D02*
X18201959Y-11498737D01*
X18201959Y-11498737D02*
X18192436Y-11536832D01*
X18192436Y-11536832D02*
X18182912Y-11555880D01*
X18182912Y-11555880D02*
X18163864Y-11574927D01*
X18163864Y-11574927D02*
X18135293Y-11584451D01*
X18135293Y-11584451D02*
X18087674Y-11584451D01*
X18287674Y-11584451D02*
X18287674Y-11451118D01*
X18287674Y-11489213D02*
X18297198Y-11470165D01*
X18297198Y-11470165D02*
X18306721Y-11460641D01*
X18306721Y-11460641D02*
X18325769Y-11451118D01*
X18325769Y-11451118D02*
X18344817Y-11451118D01*
X18411483Y-11584451D02*
X18411483Y-11451118D01*
X18411483Y-11384451D02*
X18401959Y-11393975D01*
X18401959Y-11393975D02*
X18411483Y-11403499D01*
X18411483Y-11403499D02*
X18421007Y-11393975D01*
X18421007Y-11393975D02*
X18411483Y-11384451D01*
X18411483Y-11384451D02*
X18411483Y-11403499D01*
X18535293Y-11584451D02*
X18516245Y-11574927D01*
X18516245Y-11574927D02*
X18506721Y-11555880D01*
X18506721Y-11555880D02*
X18506721Y-11384451D01*
X18640055Y-11584451D02*
X18621007Y-11574927D01*
X18621007Y-11574927D02*
X18611483Y-11555880D01*
X18611483Y-11555880D02*
X18611483Y-11384451D01*
X18868626Y-11584451D02*
X18868626Y-11384451D01*
X18868626Y-11384451D02*
X18935293Y-11527308D01*
X18935293Y-11527308D02*
X19001959Y-11384451D01*
X19001959Y-11384451D02*
X19001959Y-11584451D01*
X19182912Y-11584451D02*
X19182912Y-11479689D01*
X19182912Y-11479689D02*
X19173388Y-11460641D01*
X19173388Y-11460641D02*
X19154340Y-11451118D01*
X19154340Y-11451118D02*
X19116245Y-11451118D01*
X19116245Y-11451118D02*
X19097198Y-11460641D01*
X19182912Y-11574927D02*
X19163864Y-11584451D01*
X19163864Y-11584451D02*
X19116245Y-11584451D01*
X19116245Y-11584451D02*
X19097198Y-11574927D01*
X19097198Y-11574927D02*
X19087674Y-11555880D01*
X19087674Y-11555880D02*
X19087674Y-11536832D01*
X19087674Y-11536832D02*
X19097198Y-11517784D01*
X19097198Y-11517784D02*
X19116245Y-11508261D01*
X19116245Y-11508261D02*
X19163864Y-11508261D01*
X19163864Y-11508261D02*
X19182912Y-11498737D01*
X19278150Y-11451118D02*
X19278150Y-11651118D01*
X19278150Y-11460641D02*
X19297198Y-11451118D01*
X19297198Y-11451118D02*
X19335293Y-11451118D01*
X19335293Y-11451118D02*
X19354340Y-11460641D01*
X19354340Y-11460641D02*
X19363864Y-11470165D01*
X19363864Y-11470165D02*
X19373388Y-11489213D01*
X19373388Y-11489213D02*
X19373388Y-11546356D01*
X19373388Y-11546356D02*
X19363864Y-11565403D01*
X19363864Y-11565403D02*
X19354340Y-11574927D01*
X19354340Y-11574927D02*
X19335293Y-11584451D01*
X19335293Y-11584451D02*
X19297198Y-11584451D01*
X19297198Y-11584451D02*
X19278150Y-11574927D01*
X19459102Y-11565403D02*
X19468626Y-11574927D01*
X19468626Y-11574927D02*
X19459102Y-11584451D01*
X19459102Y-11584451D02*
X19449579Y-11574927D01*
X19449579Y-11574927D02*
X19459102Y-11565403D01*
X19459102Y-11565403D02*
X19459102Y-11584451D01*
X19459102Y-11460641D02*
X19468626Y-11470165D01*
X19468626Y-11470165D02*
X19459102Y-11479689D01*
X19459102Y-11479689D02*
X19449579Y-11470165D01*
X19449579Y-11470165D02*
X19459102Y-11460641D01*
X19459102Y-11460641D02*
X19459102Y-11479689D01*
D12*
X17761897Y-11880467D02*
X17826897Y-11945467D01*
X17826897Y-11880467D02*
X17761897Y-11945467D01*
D11*
X18125769Y-11804451D02*
X18144817Y-11804451D01*
X18144817Y-11804451D02*
X18163864Y-11813975D01*
X18163864Y-11813975D02*
X18173388Y-11823499D01*
X18173388Y-11823499D02*
X18182912Y-11842546D01*
X18182912Y-11842546D02*
X18192436Y-11880641D01*
X18192436Y-11880641D02*
X18192436Y-11928261D01*
X18192436Y-11928261D02*
X18182912Y-11966356D01*
X18182912Y-11966356D02*
X18173388Y-11985403D01*
X18173388Y-11985403D02*
X18163864Y-11994927D01*
X18163864Y-11994927D02*
X18144817Y-12004451D01*
X18144817Y-12004451D02*
X18125769Y-12004451D01*
X18125769Y-12004451D02*
X18106721Y-11994927D01*
X18106721Y-11994927D02*
X18097198Y-11985403D01*
X18097198Y-11985403D02*
X18087674Y-11966356D01*
X18087674Y-11966356D02*
X18078150Y-11928261D01*
X18078150Y-11928261D02*
X18078150Y-11880641D01*
X18078150Y-11880641D02*
X18087674Y-11842546D01*
X18087674Y-11842546D02*
X18097198Y-11823499D01*
X18097198Y-11823499D02*
X18106721Y-11813975D01*
X18106721Y-11813975D02*
X18125769Y-11804451D01*
X18278150Y-11985403D02*
X18287674Y-11994927D01*
X18287674Y-11994927D02*
X18278150Y-12004451D01*
X18278150Y-12004451D02*
X18268626Y-11994927D01*
X18268626Y-11994927D02*
X18278150Y-11985403D01*
X18278150Y-11985403D02*
X18278150Y-12004451D01*
X18459102Y-11804451D02*
X18421007Y-11804451D01*
X18421007Y-11804451D02*
X18401959Y-11813975D01*
X18401959Y-11813975D02*
X18392436Y-11823499D01*
X18392436Y-11823499D02*
X18373388Y-11852070D01*
X18373388Y-11852070D02*
X18363864Y-11890165D01*
X18363864Y-11890165D02*
X18363864Y-11966356D01*
X18363864Y-11966356D02*
X18373388Y-11985403D01*
X18373388Y-11985403D02*
X18382912Y-11994927D01*
X18382912Y-11994927D02*
X18401959Y-12004451D01*
X18401959Y-12004451D02*
X18440055Y-12004451D01*
X18440055Y-12004451D02*
X18459102Y-11994927D01*
X18459102Y-11994927D02*
X18468626Y-11985403D01*
X18468626Y-11985403D02*
X18478150Y-11966356D01*
X18478150Y-11966356D02*
X18478150Y-11918737D01*
X18478150Y-11918737D02*
X18468626Y-11899689D01*
X18468626Y-11899689D02*
X18459102Y-11890165D01*
X18459102Y-11890165D02*
X18440055Y-11880641D01*
X18440055Y-11880641D02*
X18401959Y-11880641D01*
X18401959Y-11880641D02*
X18382912Y-11890165D01*
X18382912Y-11890165D02*
X18373388Y-11899689D01*
X18373388Y-11899689D02*
X18363864Y-11918737D01*
X18659102Y-11804451D02*
X18563864Y-11804451D01*
X18563864Y-11804451D02*
X18554340Y-11899689D01*
X18554340Y-11899689D02*
X18563864Y-11890165D01*
X18563864Y-11890165D02*
X18582912Y-11880641D01*
X18582912Y-11880641D02*
X18630531Y-11880641D01*
X18630531Y-11880641D02*
X18649579Y-11890165D01*
X18649579Y-11890165D02*
X18659102Y-11899689D01*
X18659102Y-11899689D02*
X18668626Y-11918737D01*
X18668626Y-11918737D02*
X18668626Y-11966356D01*
X18668626Y-11966356D02*
X18659102Y-11985403D01*
X18659102Y-11985403D02*
X18649579Y-11994927D01*
X18649579Y-11994927D02*
X18630531Y-12004451D01*
X18630531Y-12004451D02*
X18582912Y-12004451D01*
X18582912Y-12004451D02*
X18563864Y-11994927D01*
X18563864Y-11994927D02*
X18554340Y-11985403D01*
X18792436Y-11804451D02*
X18811483Y-11804451D01*
X18811483Y-11804451D02*
X18830531Y-11813975D01*
X18830531Y-11813975D02*
X18840055Y-11823499D01*
X18840055Y-11823499D02*
X18849579Y-11842546D01*
X18849579Y-11842546D02*
X18859102Y-11880641D01*
X18859102Y-11880641D02*
X18859102Y-11928261D01*
X18859102Y-11928261D02*
X18849579Y-11966356D01*
X18849579Y-11966356D02*
X18840055Y-11985403D01*
X18840055Y-11985403D02*
X18830531Y-11994927D01*
X18830531Y-11994927D02*
X18811483Y-12004451D01*
X18811483Y-12004451D02*
X18792436Y-12004451D01*
X18792436Y-12004451D02*
X18773388Y-11994927D01*
X18773388Y-11994927D02*
X18763864Y-11985403D01*
X18763864Y-11985403D02*
X18754340Y-11966356D01*
X18754340Y-11966356D02*
X18744817Y-11928261D01*
X18744817Y-11928261D02*
X18744817Y-11880641D01*
X18744817Y-11880641D02*
X18754340Y-11842546D01*
X18754340Y-11842546D02*
X18763864Y-11823499D01*
X18763864Y-11823499D02*
X18773388Y-11813975D01*
X18773388Y-11813975D02*
X18792436Y-11804451D01*
X18944817Y-12004451D02*
X18944817Y-11871118D01*
X18944817Y-11890165D02*
X18954340Y-11880641D01*
X18954340Y-11880641D02*
X18973388Y-11871118D01*
X18973388Y-11871118D02*
X19001960Y-11871118D01*
X19001960Y-11871118D02*
X19021007Y-11880641D01*
X19021007Y-11880641D02*
X19030531Y-11899689D01*
X19030531Y-11899689D02*
X19030531Y-12004451D01*
X19030531Y-11899689D02*
X19040055Y-11880641D01*
X19040055Y-11880641D02*
X19059102Y-11871118D01*
X19059102Y-11871118D02*
X19087674Y-11871118D01*
X19087674Y-11871118D02*
X19106721Y-11880641D01*
X19106721Y-11880641D02*
X19116245Y-11899689D01*
X19116245Y-11899689D02*
X19116245Y-12004451D01*
X19211483Y-12004451D02*
X19211483Y-11871118D01*
X19211483Y-11890165D02*
X19221007Y-11880641D01*
X19221007Y-11880641D02*
X19240055Y-11871118D01*
X19240055Y-11871118D02*
X19268626Y-11871118D01*
X19268626Y-11871118D02*
X19287674Y-11880641D01*
X19287674Y-11880641D02*
X19297198Y-11899689D01*
X19297198Y-11899689D02*
X19297198Y-12004451D01*
X19297198Y-11899689D02*
X19306721Y-11880641D01*
X19306721Y-11880641D02*
X19325769Y-11871118D01*
X19325769Y-11871118D02*
X19354340Y-11871118D01*
X19354340Y-11871118D02*
X19373388Y-11880641D01*
X19373388Y-11880641D02*
X19382912Y-11899689D01*
X19382912Y-11899689D02*
X19382912Y-12004451D01*
X19773388Y-11794927D02*
X19601960Y-12052070D01*
X20030531Y-11804451D02*
X20049579Y-11804451D01*
X20049579Y-11804451D02*
X20068626Y-11813975D01*
X20068626Y-11813975D02*
X20078150Y-11823499D01*
X20078150Y-11823499D02*
X20087674Y-11842546D01*
X20087674Y-11842546D02*
X20097198Y-11880641D01*
X20097198Y-11880641D02*
X20097198Y-11928261D01*
X20097198Y-11928261D02*
X20087674Y-11966356D01*
X20087674Y-11966356D02*
X20078150Y-11985403D01*
X20078150Y-11985403D02*
X20068626Y-11994927D01*
X20068626Y-11994927D02*
X20049579Y-12004451D01*
X20049579Y-12004451D02*
X20030531Y-12004451D01*
X20030531Y-12004451D02*
X20011483Y-11994927D01*
X20011483Y-11994927D02*
X20001960Y-11985403D01*
X20001960Y-11985403D02*
X19992436Y-11966356D01*
X19992436Y-11966356D02*
X19982912Y-11928261D01*
X19982912Y-11928261D02*
X19982912Y-11880641D01*
X19982912Y-11880641D02*
X19992436Y-11842546D01*
X19992436Y-11842546D02*
X20001960Y-11823499D01*
X20001960Y-11823499D02*
X20011483Y-11813975D01*
X20011483Y-11813975D02*
X20030531Y-11804451D01*
X20182912Y-11985403D02*
X20192436Y-11994927D01*
X20192436Y-11994927D02*
X20182912Y-12004451D01*
X20182912Y-12004451D02*
X20173388Y-11994927D01*
X20173388Y-11994927D02*
X20182912Y-11985403D01*
X20182912Y-11985403D02*
X20182912Y-12004451D01*
X20316245Y-11804451D02*
X20335293Y-11804451D01*
X20335293Y-11804451D02*
X20354341Y-11813975D01*
X20354341Y-11813975D02*
X20363864Y-11823499D01*
X20363864Y-11823499D02*
X20373388Y-11842546D01*
X20373388Y-11842546D02*
X20382912Y-11880641D01*
X20382912Y-11880641D02*
X20382912Y-11928261D01*
X20382912Y-11928261D02*
X20373388Y-11966356D01*
X20373388Y-11966356D02*
X20363864Y-11985403D01*
X20363864Y-11985403D02*
X20354341Y-11994927D01*
X20354341Y-11994927D02*
X20335293Y-12004451D01*
X20335293Y-12004451D02*
X20316245Y-12004451D01*
X20316245Y-12004451D02*
X20297198Y-11994927D01*
X20297198Y-11994927D02*
X20287674Y-11985403D01*
X20287674Y-11985403D02*
X20278150Y-11966356D01*
X20278150Y-11966356D02*
X20268626Y-11928261D01*
X20268626Y-11928261D02*
X20268626Y-11880641D01*
X20268626Y-11880641D02*
X20278150Y-11842546D01*
X20278150Y-11842546D02*
X20287674Y-11823499D01*
X20287674Y-11823499D02*
X20297198Y-11813975D01*
X20297198Y-11813975D02*
X20316245Y-11804451D01*
X20459103Y-11823499D02*
X20468626Y-11813975D01*
X20468626Y-11813975D02*
X20487674Y-11804451D01*
X20487674Y-11804451D02*
X20535293Y-11804451D01*
X20535293Y-11804451D02*
X20554341Y-11813975D01*
X20554341Y-11813975D02*
X20563864Y-11823499D01*
X20563864Y-11823499D02*
X20573388Y-11842546D01*
X20573388Y-11842546D02*
X20573388Y-11861594D01*
X20573388Y-11861594D02*
X20563864Y-11890165D01*
X20563864Y-11890165D02*
X20449579Y-12004451D01*
X20449579Y-12004451D02*
X20573388Y-12004451D01*
X20754341Y-11804451D02*
X20659103Y-11804451D01*
X20659103Y-11804451D02*
X20649579Y-11899689D01*
X20649579Y-11899689D02*
X20659103Y-11890165D01*
X20659103Y-11890165D02*
X20678150Y-11880641D01*
X20678150Y-11880641D02*
X20725769Y-11880641D01*
X20725769Y-11880641D02*
X20744817Y-11890165D01*
X20744817Y-11890165D02*
X20754341Y-11899689D01*
X20754341Y-11899689D02*
X20763864Y-11918737D01*
X20763864Y-11918737D02*
X20763864Y-11966356D01*
X20763864Y-11966356D02*
X20754341Y-11985403D01*
X20754341Y-11985403D02*
X20744817Y-11994927D01*
X20744817Y-11994927D02*
X20725769Y-12004451D01*
X20725769Y-12004451D02*
X20678150Y-12004451D01*
X20678150Y-12004451D02*
X20659103Y-11994927D01*
X20659103Y-11994927D02*
X20649579Y-11985403D01*
X20935293Y-11804451D02*
X20897198Y-11804451D01*
X20897198Y-11804451D02*
X20878150Y-11813975D01*
X20878150Y-11813975D02*
X20868626Y-11823499D01*
X20868626Y-11823499D02*
X20849579Y-11852070D01*
X20849579Y-11852070D02*
X20840055Y-11890165D01*
X20840055Y-11890165D02*
X20840055Y-11966356D01*
X20840055Y-11966356D02*
X20849579Y-11985403D01*
X20849579Y-11985403D02*
X20859103Y-11994927D01*
X20859103Y-11994927D02*
X20878150Y-12004451D01*
X20878150Y-12004451D02*
X20916245Y-12004451D01*
X20916245Y-12004451D02*
X20935293Y-11994927D01*
X20935293Y-11994927D02*
X20944817Y-11985403D01*
X20944817Y-11985403D02*
X20954341Y-11966356D01*
X20954341Y-11966356D02*
X20954341Y-11918737D01*
X20954341Y-11918737D02*
X20944817Y-11899689D01*
X20944817Y-11899689D02*
X20935293Y-11890165D01*
X20935293Y-11890165D02*
X20916245Y-11880641D01*
X20916245Y-11880641D02*
X20878150Y-11880641D01*
X20878150Y-11880641D02*
X20859103Y-11890165D01*
X20859103Y-11890165D02*
X20849579Y-11899689D01*
X20849579Y-11899689D02*
X20840055Y-11918737D01*
X21030531Y-11804451D02*
X21030531Y-11842546D01*
X21106722Y-11804451D02*
X21106722Y-11842546D01*
X21401960Y-12080641D02*
X21392436Y-12071118D01*
X21392436Y-12071118D02*
X21373388Y-12042546D01*
X21373388Y-12042546D02*
X21363865Y-12023499D01*
X21363865Y-12023499D02*
X21354341Y-11994927D01*
X21354341Y-11994927D02*
X21344817Y-11947308D01*
X21344817Y-11947308D02*
X21344817Y-11909213D01*
X21344817Y-11909213D02*
X21354341Y-11861594D01*
X21354341Y-11861594D02*
X21363865Y-11833022D01*
X21363865Y-11833022D02*
X21373388Y-11813975D01*
X21373388Y-11813975D02*
X21392436Y-11785403D01*
X21392436Y-11785403D02*
X21401960Y-11775880D01*
X21468626Y-11823499D02*
X21478150Y-11813975D01*
X21478150Y-11813975D02*
X21497198Y-11804451D01*
X21497198Y-11804451D02*
X21544817Y-11804451D01*
X21544817Y-11804451D02*
X21563865Y-11813975D01*
X21563865Y-11813975D02*
X21573388Y-11823499D01*
X21573388Y-11823499D02*
X21582912Y-11842546D01*
X21582912Y-11842546D02*
X21582912Y-11861594D01*
X21582912Y-11861594D02*
X21573388Y-11890165D01*
X21573388Y-11890165D02*
X21459103Y-12004451D01*
X21459103Y-12004451D02*
X21582912Y-12004451D01*
X21821007Y-12004451D02*
X21821007Y-11804451D01*
X21906722Y-12004451D02*
X21906722Y-11899689D01*
X21906722Y-11899689D02*
X21897198Y-11880641D01*
X21897198Y-11880641D02*
X21878150Y-11871118D01*
X21878150Y-11871118D02*
X21849579Y-11871118D01*
X21849579Y-11871118D02*
X21830531Y-11880641D01*
X21830531Y-11880641D02*
X21821007Y-11890165D01*
X22030531Y-12004451D02*
X22011484Y-11994927D01*
X22011484Y-11994927D02*
X22001960Y-11985403D01*
X22001960Y-11985403D02*
X21992436Y-11966356D01*
X21992436Y-11966356D02*
X21992436Y-11909213D01*
X21992436Y-11909213D02*
X22001960Y-11890165D01*
X22001960Y-11890165D02*
X22011484Y-11880641D01*
X22011484Y-11880641D02*
X22030531Y-11871118D01*
X22030531Y-11871118D02*
X22059103Y-11871118D01*
X22059103Y-11871118D02*
X22078150Y-11880641D01*
X22078150Y-11880641D02*
X22087674Y-11890165D01*
X22087674Y-11890165D02*
X22097198Y-11909213D01*
X22097198Y-11909213D02*
X22097198Y-11966356D01*
X22097198Y-11966356D02*
X22087674Y-11985403D01*
X22087674Y-11985403D02*
X22078150Y-11994927D01*
X22078150Y-11994927D02*
X22059103Y-12004451D01*
X22059103Y-12004451D02*
X22030531Y-12004451D01*
X22211484Y-12004451D02*
X22192436Y-11994927D01*
X22192436Y-11994927D02*
X22182912Y-11975880D01*
X22182912Y-11975880D02*
X22182912Y-11804451D01*
X22363865Y-11994927D02*
X22344817Y-12004451D01*
X22344817Y-12004451D02*
X22306722Y-12004451D01*
X22306722Y-12004451D02*
X22287674Y-11994927D01*
X22287674Y-11994927D02*
X22278150Y-11975880D01*
X22278150Y-11975880D02*
X22278150Y-11899689D01*
X22278150Y-11899689D02*
X22287674Y-11880641D01*
X22287674Y-11880641D02*
X22306722Y-11871118D01*
X22306722Y-11871118D02*
X22344817Y-11871118D01*
X22344817Y-11871118D02*
X22363865Y-11880641D01*
X22363865Y-11880641D02*
X22373388Y-11899689D01*
X22373388Y-11899689D02*
X22373388Y-11918737D01*
X22373388Y-11918737D02*
X22278150Y-11937784D01*
X22449579Y-11994927D02*
X22468626Y-12004451D01*
X22468626Y-12004451D02*
X22506722Y-12004451D01*
X22506722Y-12004451D02*
X22525769Y-11994927D01*
X22525769Y-11994927D02*
X22535293Y-11975880D01*
X22535293Y-11975880D02*
X22535293Y-11966356D01*
X22535293Y-11966356D02*
X22525769Y-11947308D01*
X22525769Y-11947308D02*
X22506722Y-11937784D01*
X22506722Y-11937784D02*
X22478150Y-11937784D01*
X22478150Y-11937784D02*
X22459103Y-11928261D01*
X22459103Y-11928261D02*
X22449579Y-11909213D01*
X22449579Y-11909213D02*
X22449579Y-11899689D01*
X22449579Y-11899689D02*
X22459103Y-11880641D01*
X22459103Y-11880641D02*
X22478150Y-11871118D01*
X22478150Y-11871118D02*
X22506722Y-11871118D01*
X22506722Y-11871118D02*
X22525769Y-11880641D01*
X22601960Y-12080641D02*
X22611484Y-12071118D01*
X22611484Y-12071118D02*
X22630531Y-12042546D01*
X22630531Y-12042546D02*
X22640055Y-12023499D01*
X22640055Y-12023499D02*
X22649579Y-11994927D01*
X22649579Y-11994927D02*
X22659103Y-11947308D01*
X22659103Y-11947308D02*
X22659103Y-11909213D01*
X22659103Y-11909213D02*
X22649579Y-11861594D01*
X22649579Y-11861594D02*
X22640055Y-11833022D01*
X22640055Y-11833022D02*
X22630531Y-11813975D01*
X22630531Y-11813975D02*
X22611484Y-11785403D01*
X22611484Y-11785403D02*
X22601960Y-11775880D01*
X22963865Y-12080641D02*
X22954341Y-12071118D01*
X22954341Y-12071118D02*
X22935293Y-12042546D01*
X22935293Y-12042546D02*
X22925769Y-12023499D01*
X22925769Y-12023499D02*
X22916246Y-11994927D01*
X22916246Y-11994927D02*
X22906722Y-11947308D01*
X22906722Y-11947308D02*
X22906722Y-11909213D01*
X22906722Y-11909213D02*
X22916246Y-11861594D01*
X22916246Y-11861594D02*
X22925769Y-11833022D01*
X22925769Y-11833022D02*
X22935293Y-11813975D01*
X22935293Y-11813975D02*
X22954341Y-11785403D01*
X22954341Y-11785403D02*
X22963865Y-11775880D01*
X23040055Y-11871118D02*
X23040055Y-12004451D01*
X23040055Y-11890165D02*
X23049579Y-11880641D01*
X23049579Y-11880641D02*
X23068626Y-11871118D01*
X23068626Y-11871118D02*
X23097198Y-11871118D01*
X23097198Y-11871118D02*
X23116246Y-11880641D01*
X23116246Y-11880641D02*
X23125769Y-11899689D01*
X23125769Y-11899689D02*
X23125769Y-12004451D01*
X23249579Y-12004451D02*
X23230531Y-11994927D01*
X23230531Y-11994927D02*
X23221007Y-11985403D01*
X23221007Y-11985403D02*
X23211484Y-11966356D01*
X23211484Y-11966356D02*
X23211484Y-11909213D01*
X23211484Y-11909213D02*
X23221007Y-11890165D01*
X23221007Y-11890165D02*
X23230531Y-11880641D01*
X23230531Y-11880641D02*
X23249579Y-11871118D01*
X23249579Y-11871118D02*
X23278150Y-11871118D01*
X23278150Y-11871118D02*
X23297198Y-11880641D01*
X23297198Y-11880641D02*
X23306722Y-11890165D01*
X23306722Y-11890165D02*
X23316246Y-11909213D01*
X23316246Y-11909213D02*
X23316246Y-11966356D01*
X23316246Y-11966356D02*
X23306722Y-11985403D01*
X23306722Y-11985403D02*
X23297198Y-11994927D01*
X23297198Y-11994927D02*
X23278150Y-12004451D01*
X23278150Y-12004451D02*
X23249579Y-12004451D01*
X23373388Y-11871118D02*
X23449579Y-11871118D01*
X23401960Y-11804451D02*
X23401960Y-11975880D01*
X23401960Y-11975880D02*
X23411484Y-11994927D01*
X23411484Y-11994927D02*
X23430531Y-12004451D01*
X23430531Y-12004451D02*
X23449579Y-12004451D01*
X23668627Y-11871118D02*
X23668627Y-12071118D01*
X23668627Y-11880641D02*
X23687674Y-11871118D01*
X23687674Y-11871118D02*
X23725769Y-11871118D01*
X23725769Y-11871118D02*
X23744817Y-11880641D01*
X23744817Y-11880641D02*
X23754341Y-11890165D01*
X23754341Y-11890165D02*
X23763865Y-11909213D01*
X23763865Y-11909213D02*
X23763865Y-11966356D01*
X23763865Y-11966356D02*
X23754341Y-11985403D01*
X23754341Y-11985403D02*
X23744817Y-11994927D01*
X23744817Y-11994927D02*
X23725769Y-12004451D01*
X23725769Y-12004451D02*
X23687674Y-12004451D01*
X23687674Y-12004451D02*
X23668627Y-11994927D01*
X23878150Y-12004451D02*
X23859103Y-11994927D01*
X23859103Y-11994927D02*
X23849579Y-11975880D01*
X23849579Y-11975880D02*
X23849579Y-11804451D01*
X24040055Y-12004451D02*
X24040055Y-11899689D01*
X24040055Y-11899689D02*
X24030531Y-11880641D01*
X24030531Y-11880641D02*
X24011484Y-11871118D01*
X24011484Y-11871118D02*
X23973388Y-11871118D01*
X23973388Y-11871118D02*
X23954341Y-11880641D01*
X24040055Y-11994927D02*
X24021008Y-12004451D01*
X24021008Y-12004451D02*
X23973388Y-12004451D01*
X23973388Y-12004451D02*
X23954341Y-11994927D01*
X23954341Y-11994927D02*
X23944817Y-11975880D01*
X23944817Y-11975880D02*
X23944817Y-11956832D01*
X23944817Y-11956832D02*
X23954341Y-11937784D01*
X23954341Y-11937784D02*
X23973388Y-11928261D01*
X23973388Y-11928261D02*
X24021008Y-11928261D01*
X24021008Y-11928261D02*
X24040055Y-11918737D01*
X24106722Y-11871118D02*
X24182912Y-11871118D01*
X24135293Y-11804451D02*
X24135293Y-11975880D01*
X24135293Y-11975880D02*
X24144817Y-11994927D01*
X24144817Y-11994927D02*
X24163865Y-12004451D01*
X24163865Y-12004451D02*
X24182912Y-12004451D01*
X24325769Y-11994927D02*
X24306722Y-12004451D01*
X24306722Y-12004451D02*
X24268627Y-12004451D01*
X24268627Y-12004451D02*
X24249579Y-11994927D01*
X24249579Y-11994927D02*
X24240055Y-11975880D01*
X24240055Y-11975880D02*
X24240055Y-11899689D01*
X24240055Y-11899689D02*
X24249579Y-11880641D01*
X24249579Y-11880641D02*
X24268627Y-11871118D01*
X24268627Y-11871118D02*
X24306722Y-11871118D01*
X24306722Y-11871118D02*
X24325769Y-11880641D01*
X24325769Y-11880641D02*
X24335293Y-11899689D01*
X24335293Y-11899689D02*
X24335293Y-11918737D01*
X24335293Y-11918737D02*
X24240055Y-11937784D01*
X24506722Y-12004451D02*
X24506722Y-11804451D01*
X24506722Y-11994927D02*
X24487674Y-12004451D01*
X24487674Y-12004451D02*
X24449579Y-12004451D01*
X24449579Y-12004451D02*
X24430531Y-11994927D01*
X24430531Y-11994927D02*
X24421008Y-11985403D01*
X24421008Y-11985403D02*
X24411484Y-11966356D01*
X24411484Y-11966356D02*
X24411484Y-11909213D01*
X24411484Y-11909213D02*
X24421008Y-11890165D01*
X24421008Y-11890165D02*
X24430531Y-11880641D01*
X24430531Y-11880641D02*
X24449579Y-11871118D01*
X24449579Y-11871118D02*
X24487674Y-11871118D01*
X24487674Y-11871118D02*
X24506722Y-11880641D01*
X24582912Y-12080641D02*
X24592436Y-12071118D01*
X24592436Y-12071118D02*
X24611484Y-12042546D01*
X24611484Y-12042546D02*
X24621008Y-12023499D01*
X24621008Y-12023499D02*
X24630531Y-11994927D01*
X24630531Y-11994927D02*
X24640055Y-11947308D01*
X24640055Y-11947308D02*
X24640055Y-11909213D01*
X24640055Y-11909213D02*
X24630531Y-11861594D01*
X24630531Y-11861594D02*
X24621008Y-11833022D01*
X24621008Y-11833022D02*
X24611484Y-11813975D01*
X24611484Y-11813975D02*
X24592436Y-11785403D01*
X24592436Y-11785403D02*
X24582912Y-11775880D01*
X17826897Y-12176967D02*
G75*
G03*
X17826897Y-12176967I-100000J0D01*
G01*
X18068626Y-12068451D02*
X18192436Y-12068451D01*
X18192436Y-12068451D02*
X18125769Y-12144641D01*
X18125769Y-12144641D02*
X18154340Y-12144641D01*
X18154340Y-12144641D02*
X18173388Y-12154165D01*
X18173388Y-12154165D02*
X18182912Y-12163689D01*
X18182912Y-12163689D02*
X18192436Y-12182737D01*
X18192436Y-12182737D02*
X18192436Y-12230356D01*
X18192436Y-12230356D02*
X18182912Y-12249403D01*
X18182912Y-12249403D02*
X18173388Y-12258927D01*
X18173388Y-12258927D02*
X18154340Y-12268451D01*
X18154340Y-12268451D02*
X18097198Y-12268451D01*
X18097198Y-12268451D02*
X18078150Y-12258927D01*
X18078150Y-12258927D02*
X18068626Y-12249403D01*
X18278150Y-12249403D02*
X18287674Y-12258927D01*
X18287674Y-12258927D02*
X18278150Y-12268451D01*
X18278150Y-12268451D02*
X18268626Y-12258927D01*
X18268626Y-12258927D02*
X18278150Y-12249403D01*
X18278150Y-12249403D02*
X18278150Y-12268451D01*
X18363864Y-12087499D02*
X18373388Y-12077975D01*
X18373388Y-12077975D02*
X18392436Y-12068451D01*
X18392436Y-12068451D02*
X18440055Y-12068451D01*
X18440055Y-12068451D02*
X18459102Y-12077975D01*
X18459102Y-12077975D02*
X18468626Y-12087499D01*
X18468626Y-12087499D02*
X18478150Y-12106546D01*
X18478150Y-12106546D02*
X18478150Y-12125594D01*
X18478150Y-12125594D02*
X18468626Y-12154165D01*
X18468626Y-12154165D02*
X18354340Y-12268451D01*
X18354340Y-12268451D02*
X18478150Y-12268451D01*
X18659102Y-12068451D02*
X18563864Y-12068451D01*
X18563864Y-12068451D02*
X18554340Y-12163689D01*
X18554340Y-12163689D02*
X18563864Y-12154165D01*
X18563864Y-12154165D02*
X18582912Y-12144641D01*
X18582912Y-12144641D02*
X18630531Y-12144641D01*
X18630531Y-12144641D02*
X18649579Y-12154165D01*
X18649579Y-12154165D02*
X18659102Y-12163689D01*
X18659102Y-12163689D02*
X18668626Y-12182737D01*
X18668626Y-12182737D02*
X18668626Y-12230356D01*
X18668626Y-12230356D02*
X18659102Y-12249403D01*
X18659102Y-12249403D02*
X18649579Y-12258927D01*
X18649579Y-12258927D02*
X18630531Y-12268451D01*
X18630531Y-12268451D02*
X18582912Y-12268451D01*
X18582912Y-12268451D02*
X18563864Y-12258927D01*
X18563864Y-12258927D02*
X18554340Y-12249403D01*
X18792436Y-12068451D02*
X18811483Y-12068451D01*
X18811483Y-12068451D02*
X18830531Y-12077975D01*
X18830531Y-12077975D02*
X18840055Y-12087499D01*
X18840055Y-12087499D02*
X18849579Y-12106546D01*
X18849579Y-12106546D02*
X18859102Y-12144641D01*
X18859102Y-12144641D02*
X18859102Y-12192261D01*
X18859102Y-12192261D02*
X18849579Y-12230356D01*
X18849579Y-12230356D02*
X18840055Y-12249403D01*
X18840055Y-12249403D02*
X18830531Y-12258927D01*
X18830531Y-12258927D02*
X18811483Y-12268451D01*
X18811483Y-12268451D02*
X18792436Y-12268451D01*
X18792436Y-12268451D02*
X18773388Y-12258927D01*
X18773388Y-12258927D02*
X18763864Y-12249403D01*
X18763864Y-12249403D02*
X18754340Y-12230356D01*
X18754340Y-12230356D02*
X18744817Y-12192261D01*
X18744817Y-12192261D02*
X18744817Y-12144641D01*
X18744817Y-12144641D02*
X18754340Y-12106546D01*
X18754340Y-12106546D02*
X18763864Y-12087499D01*
X18763864Y-12087499D02*
X18773388Y-12077975D01*
X18773388Y-12077975D02*
X18792436Y-12068451D01*
X18944817Y-12268451D02*
X18944817Y-12135118D01*
X18944817Y-12154165D02*
X18954340Y-12144641D01*
X18954340Y-12144641D02*
X18973388Y-12135118D01*
X18973388Y-12135118D02*
X19001960Y-12135118D01*
X19001960Y-12135118D02*
X19021007Y-12144641D01*
X19021007Y-12144641D02*
X19030531Y-12163689D01*
X19030531Y-12163689D02*
X19030531Y-12268451D01*
X19030531Y-12163689D02*
X19040055Y-12144641D01*
X19040055Y-12144641D02*
X19059102Y-12135118D01*
X19059102Y-12135118D02*
X19087674Y-12135118D01*
X19087674Y-12135118D02*
X19106721Y-12144641D01*
X19106721Y-12144641D02*
X19116245Y-12163689D01*
X19116245Y-12163689D02*
X19116245Y-12268451D01*
X19211483Y-12268451D02*
X19211483Y-12135118D01*
X19211483Y-12154165D02*
X19221007Y-12144641D01*
X19221007Y-12144641D02*
X19240055Y-12135118D01*
X19240055Y-12135118D02*
X19268626Y-12135118D01*
X19268626Y-12135118D02*
X19287674Y-12144641D01*
X19287674Y-12144641D02*
X19297198Y-12163689D01*
X19297198Y-12163689D02*
X19297198Y-12268451D01*
X19297198Y-12163689D02*
X19306721Y-12144641D01*
X19306721Y-12144641D02*
X19325769Y-12135118D01*
X19325769Y-12135118D02*
X19354340Y-12135118D01*
X19354340Y-12135118D02*
X19373388Y-12144641D01*
X19373388Y-12144641D02*
X19382912Y-12163689D01*
X19382912Y-12163689D02*
X19382912Y-12268451D01*
X19773388Y-12058927D02*
X19601960Y-12316070D01*
X20030531Y-12068451D02*
X20049579Y-12068451D01*
X20049579Y-12068451D02*
X20068626Y-12077975D01*
X20068626Y-12077975D02*
X20078150Y-12087499D01*
X20078150Y-12087499D02*
X20087674Y-12106546D01*
X20087674Y-12106546D02*
X20097198Y-12144641D01*
X20097198Y-12144641D02*
X20097198Y-12192261D01*
X20097198Y-12192261D02*
X20087674Y-12230356D01*
X20087674Y-12230356D02*
X20078150Y-12249403D01*
X20078150Y-12249403D02*
X20068626Y-12258927D01*
X20068626Y-12258927D02*
X20049579Y-12268451D01*
X20049579Y-12268451D02*
X20030531Y-12268451D01*
X20030531Y-12268451D02*
X20011483Y-12258927D01*
X20011483Y-12258927D02*
X20001960Y-12249403D01*
X20001960Y-12249403D02*
X19992436Y-12230356D01*
X19992436Y-12230356D02*
X19982912Y-12192261D01*
X19982912Y-12192261D02*
X19982912Y-12144641D01*
X19982912Y-12144641D02*
X19992436Y-12106546D01*
X19992436Y-12106546D02*
X20001960Y-12087499D01*
X20001960Y-12087499D02*
X20011483Y-12077975D01*
X20011483Y-12077975D02*
X20030531Y-12068451D01*
X20182912Y-12249403D02*
X20192436Y-12258927D01*
X20192436Y-12258927D02*
X20182912Y-12268451D01*
X20182912Y-12268451D02*
X20173388Y-12258927D01*
X20173388Y-12258927D02*
X20182912Y-12249403D01*
X20182912Y-12249403D02*
X20182912Y-12268451D01*
X20382912Y-12268451D02*
X20268626Y-12268451D01*
X20325769Y-12268451D02*
X20325769Y-12068451D01*
X20325769Y-12068451D02*
X20306722Y-12097022D01*
X20306722Y-12097022D02*
X20287674Y-12116070D01*
X20287674Y-12116070D02*
X20268626Y-12125594D01*
X20459103Y-12087499D02*
X20468626Y-12077975D01*
X20468626Y-12077975D02*
X20487674Y-12068451D01*
X20487674Y-12068451D02*
X20535293Y-12068451D01*
X20535293Y-12068451D02*
X20554341Y-12077975D01*
X20554341Y-12077975D02*
X20563864Y-12087499D01*
X20563864Y-12087499D02*
X20573388Y-12106546D01*
X20573388Y-12106546D02*
X20573388Y-12125594D01*
X20573388Y-12125594D02*
X20563864Y-12154165D01*
X20563864Y-12154165D02*
X20449579Y-12268451D01*
X20449579Y-12268451D02*
X20573388Y-12268451D01*
X20687674Y-12154165D02*
X20668626Y-12144641D01*
X20668626Y-12144641D02*
X20659103Y-12135118D01*
X20659103Y-12135118D02*
X20649579Y-12116070D01*
X20649579Y-12116070D02*
X20649579Y-12106546D01*
X20649579Y-12106546D02*
X20659103Y-12087499D01*
X20659103Y-12087499D02*
X20668626Y-12077975D01*
X20668626Y-12077975D02*
X20687674Y-12068451D01*
X20687674Y-12068451D02*
X20725769Y-12068451D01*
X20725769Y-12068451D02*
X20744817Y-12077975D01*
X20744817Y-12077975D02*
X20754341Y-12087499D01*
X20754341Y-12087499D02*
X20763864Y-12106546D01*
X20763864Y-12106546D02*
X20763864Y-12116070D01*
X20763864Y-12116070D02*
X20754341Y-12135118D01*
X20754341Y-12135118D02*
X20744817Y-12144641D01*
X20744817Y-12144641D02*
X20725769Y-12154165D01*
X20725769Y-12154165D02*
X20687674Y-12154165D01*
X20687674Y-12154165D02*
X20668626Y-12163689D01*
X20668626Y-12163689D02*
X20659103Y-12173213D01*
X20659103Y-12173213D02*
X20649579Y-12192261D01*
X20649579Y-12192261D02*
X20649579Y-12230356D01*
X20649579Y-12230356D02*
X20659103Y-12249403D01*
X20659103Y-12249403D02*
X20668626Y-12258927D01*
X20668626Y-12258927D02*
X20687674Y-12268451D01*
X20687674Y-12268451D02*
X20725769Y-12268451D01*
X20725769Y-12268451D02*
X20744817Y-12258927D01*
X20744817Y-12258927D02*
X20754341Y-12249403D01*
X20754341Y-12249403D02*
X20763864Y-12230356D01*
X20763864Y-12230356D02*
X20763864Y-12192261D01*
X20763864Y-12192261D02*
X20754341Y-12173213D01*
X20754341Y-12173213D02*
X20744817Y-12163689D01*
X20744817Y-12163689D02*
X20725769Y-12154165D01*
X20887674Y-12068451D02*
X20906722Y-12068451D01*
X20906722Y-12068451D02*
X20925769Y-12077975D01*
X20925769Y-12077975D02*
X20935293Y-12087499D01*
X20935293Y-12087499D02*
X20944817Y-12106546D01*
X20944817Y-12106546D02*
X20954341Y-12144641D01*
X20954341Y-12144641D02*
X20954341Y-12192261D01*
X20954341Y-12192261D02*
X20944817Y-12230356D01*
X20944817Y-12230356D02*
X20935293Y-12249403D01*
X20935293Y-12249403D02*
X20925769Y-12258927D01*
X20925769Y-12258927D02*
X20906722Y-12268451D01*
X20906722Y-12268451D02*
X20887674Y-12268451D01*
X20887674Y-12268451D02*
X20868626Y-12258927D01*
X20868626Y-12258927D02*
X20859103Y-12249403D01*
X20859103Y-12249403D02*
X20849579Y-12230356D01*
X20849579Y-12230356D02*
X20840055Y-12192261D01*
X20840055Y-12192261D02*
X20840055Y-12144641D01*
X20840055Y-12144641D02*
X20849579Y-12106546D01*
X20849579Y-12106546D02*
X20859103Y-12087499D01*
X20859103Y-12087499D02*
X20868626Y-12077975D01*
X20868626Y-12077975D02*
X20887674Y-12068451D01*
X21030531Y-12068451D02*
X21030531Y-12106546D01*
X21106722Y-12068451D02*
X21106722Y-12106546D01*
X21401960Y-12344641D02*
X21392436Y-12335118D01*
X21392436Y-12335118D02*
X21373388Y-12306546D01*
X21373388Y-12306546D02*
X21363865Y-12287499D01*
X21363865Y-12287499D02*
X21354341Y-12258927D01*
X21354341Y-12258927D02*
X21344817Y-12211308D01*
X21344817Y-12211308D02*
X21344817Y-12173213D01*
X21344817Y-12173213D02*
X21354341Y-12125594D01*
X21354341Y-12125594D02*
X21363865Y-12097022D01*
X21363865Y-12097022D02*
X21373388Y-12077975D01*
X21373388Y-12077975D02*
X21392436Y-12049403D01*
X21392436Y-12049403D02*
X21401960Y-12039880D01*
X21468626Y-12087499D02*
X21478150Y-12077975D01*
X21478150Y-12077975D02*
X21497198Y-12068451D01*
X21497198Y-12068451D02*
X21544817Y-12068451D01*
X21544817Y-12068451D02*
X21563865Y-12077975D01*
X21563865Y-12077975D02*
X21573388Y-12087499D01*
X21573388Y-12087499D02*
X21582912Y-12106546D01*
X21582912Y-12106546D02*
X21582912Y-12125594D01*
X21582912Y-12125594D02*
X21573388Y-12154165D01*
X21573388Y-12154165D02*
X21459103Y-12268451D01*
X21459103Y-12268451D02*
X21582912Y-12268451D01*
X21821007Y-12268451D02*
X21821007Y-12068451D01*
X21906722Y-12268451D02*
X21906722Y-12163689D01*
X21906722Y-12163689D02*
X21897198Y-12144641D01*
X21897198Y-12144641D02*
X21878150Y-12135118D01*
X21878150Y-12135118D02*
X21849579Y-12135118D01*
X21849579Y-12135118D02*
X21830531Y-12144641D01*
X21830531Y-12144641D02*
X21821007Y-12154165D01*
X22030531Y-12268451D02*
X22011484Y-12258927D01*
X22011484Y-12258927D02*
X22001960Y-12249403D01*
X22001960Y-12249403D02*
X21992436Y-12230356D01*
X21992436Y-12230356D02*
X21992436Y-12173213D01*
X21992436Y-12173213D02*
X22001960Y-12154165D01*
X22001960Y-12154165D02*
X22011484Y-12144641D01*
X22011484Y-12144641D02*
X22030531Y-12135118D01*
X22030531Y-12135118D02*
X22059103Y-12135118D01*
X22059103Y-12135118D02*
X22078150Y-12144641D01*
X22078150Y-12144641D02*
X22087674Y-12154165D01*
X22087674Y-12154165D02*
X22097198Y-12173213D01*
X22097198Y-12173213D02*
X22097198Y-12230356D01*
X22097198Y-12230356D02*
X22087674Y-12249403D01*
X22087674Y-12249403D02*
X22078150Y-12258927D01*
X22078150Y-12258927D02*
X22059103Y-12268451D01*
X22059103Y-12268451D02*
X22030531Y-12268451D01*
X22211484Y-12268451D02*
X22192436Y-12258927D01*
X22192436Y-12258927D02*
X22182912Y-12239880D01*
X22182912Y-12239880D02*
X22182912Y-12068451D01*
X22363865Y-12258927D02*
X22344817Y-12268451D01*
X22344817Y-12268451D02*
X22306722Y-12268451D01*
X22306722Y-12268451D02*
X22287674Y-12258927D01*
X22287674Y-12258927D02*
X22278150Y-12239880D01*
X22278150Y-12239880D02*
X22278150Y-12163689D01*
X22278150Y-12163689D02*
X22287674Y-12144641D01*
X22287674Y-12144641D02*
X22306722Y-12135118D01*
X22306722Y-12135118D02*
X22344817Y-12135118D01*
X22344817Y-12135118D02*
X22363865Y-12144641D01*
X22363865Y-12144641D02*
X22373388Y-12163689D01*
X22373388Y-12163689D02*
X22373388Y-12182737D01*
X22373388Y-12182737D02*
X22278150Y-12201784D01*
X22449579Y-12258927D02*
X22468626Y-12268451D01*
X22468626Y-12268451D02*
X22506722Y-12268451D01*
X22506722Y-12268451D02*
X22525769Y-12258927D01*
X22525769Y-12258927D02*
X22535293Y-12239880D01*
X22535293Y-12239880D02*
X22535293Y-12230356D01*
X22535293Y-12230356D02*
X22525769Y-12211308D01*
X22525769Y-12211308D02*
X22506722Y-12201784D01*
X22506722Y-12201784D02*
X22478150Y-12201784D01*
X22478150Y-12201784D02*
X22459103Y-12192261D01*
X22459103Y-12192261D02*
X22449579Y-12173213D01*
X22449579Y-12173213D02*
X22449579Y-12163689D01*
X22449579Y-12163689D02*
X22459103Y-12144641D01*
X22459103Y-12144641D02*
X22478150Y-12135118D01*
X22478150Y-12135118D02*
X22506722Y-12135118D01*
X22506722Y-12135118D02*
X22525769Y-12144641D01*
X22601960Y-12344641D02*
X22611484Y-12335118D01*
X22611484Y-12335118D02*
X22630531Y-12306546D01*
X22630531Y-12306546D02*
X22640055Y-12287499D01*
X22640055Y-12287499D02*
X22649579Y-12258927D01*
X22649579Y-12258927D02*
X22659103Y-12211308D01*
X22659103Y-12211308D02*
X22659103Y-12173213D01*
X22659103Y-12173213D02*
X22649579Y-12125594D01*
X22649579Y-12125594D02*
X22640055Y-12097022D01*
X22640055Y-12097022D02*
X22630531Y-12077975D01*
X22630531Y-12077975D02*
X22611484Y-12049403D01*
X22611484Y-12049403D02*
X22601960Y-12039880D01*
X22963865Y-12344641D02*
X22954341Y-12335118D01*
X22954341Y-12335118D02*
X22935293Y-12306546D01*
X22935293Y-12306546D02*
X22925769Y-12287499D01*
X22925769Y-12287499D02*
X22916246Y-12258927D01*
X22916246Y-12258927D02*
X22906722Y-12211308D01*
X22906722Y-12211308D02*
X22906722Y-12173213D01*
X22906722Y-12173213D02*
X22916246Y-12125594D01*
X22916246Y-12125594D02*
X22925769Y-12097022D01*
X22925769Y-12097022D02*
X22935293Y-12077975D01*
X22935293Y-12077975D02*
X22954341Y-12049403D01*
X22954341Y-12049403D02*
X22963865Y-12039880D01*
X23040055Y-12135118D02*
X23040055Y-12268451D01*
X23040055Y-12154165D02*
X23049579Y-12144641D01*
X23049579Y-12144641D02*
X23068626Y-12135118D01*
X23068626Y-12135118D02*
X23097198Y-12135118D01*
X23097198Y-12135118D02*
X23116246Y-12144641D01*
X23116246Y-12144641D02*
X23125769Y-12163689D01*
X23125769Y-12163689D02*
X23125769Y-12268451D01*
X23249579Y-12268451D02*
X23230531Y-12258927D01*
X23230531Y-12258927D02*
X23221007Y-12249403D01*
X23221007Y-12249403D02*
X23211484Y-12230356D01*
X23211484Y-12230356D02*
X23211484Y-12173213D01*
X23211484Y-12173213D02*
X23221007Y-12154165D01*
X23221007Y-12154165D02*
X23230531Y-12144641D01*
X23230531Y-12144641D02*
X23249579Y-12135118D01*
X23249579Y-12135118D02*
X23278150Y-12135118D01*
X23278150Y-12135118D02*
X23297198Y-12144641D01*
X23297198Y-12144641D02*
X23306722Y-12154165D01*
X23306722Y-12154165D02*
X23316246Y-12173213D01*
X23316246Y-12173213D02*
X23316246Y-12230356D01*
X23316246Y-12230356D02*
X23306722Y-12249403D01*
X23306722Y-12249403D02*
X23297198Y-12258927D01*
X23297198Y-12258927D02*
X23278150Y-12268451D01*
X23278150Y-12268451D02*
X23249579Y-12268451D01*
X23373388Y-12135118D02*
X23449579Y-12135118D01*
X23401960Y-12068451D02*
X23401960Y-12239880D01*
X23401960Y-12239880D02*
X23411484Y-12258927D01*
X23411484Y-12258927D02*
X23430531Y-12268451D01*
X23430531Y-12268451D02*
X23449579Y-12268451D01*
X23668627Y-12135118D02*
X23668627Y-12335118D01*
X23668627Y-12144641D02*
X23687674Y-12135118D01*
X23687674Y-12135118D02*
X23725769Y-12135118D01*
X23725769Y-12135118D02*
X23744817Y-12144641D01*
X23744817Y-12144641D02*
X23754341Y-12154165D01*
X23754341Y-12154165D02*
X23763865Y-12173213D01*
X23763865Y-12173213D02*
X23763865Y-12230356D01*
X23763865Y-12230356D02*
X23754341Y-12249403D01*
X23754341Y-12249403D02*
X23744817Y-12258927D01*
X23744817Y-12258927D02*
X23725769Y-12268451D01*
X23725769Y-12268451D02*
X23687674Y-12268451D01*
X23687674Y-12268451D02*
X23668627Y-12258927D01*
X23878150Y-12268451D02*
X23859103Y-12258927D01*
X23859103Y-12258927D02*
X23849579Y-12239880D01*
X23849579Y-12239880D02*
X23849579Y-12068451D01*
X24040055Y-12268451D02*
X24040055Y-12163689D01*
X24040055Y-12163689D02*
X24030531Y-12144641D01*
X24030531Y-12144641D02*
X24011484Y-12135118D01*
X24011484Y-12135118D02*
X23973388Y-12135118D01*
X23973388Y-12135118D02*
X23954341Y-12144641D01*
X24040055Y-12258927D02*
X24021008Y-12268451D01*
X24021008Y-12268451D02*
X23973388Y-12268451D01*
X23973388Y-12268451D02*
X23954341Y-12258927D01*
X23954341Y-12258927D02*
X23944817Y-12239880D01*
X23944817Y-12239880D02*
X23944817Y-12220832D01*
X23944817Y-12220832D02*
X23954341Y-12201784D01*
X23954341Y-12201784D02*
X23973388Y-12192261D01*
X23973388Y-12192261D02*
X24021008Y-12192261D01*
X24021008Y-12192261D02*
X24040055Y-12182737D01*
X24106722Y-12135118D02*
X24182912Y-12135118D01*
X24135293Y-12068451D02*
X24135293Y-12239880D01*
X24135293Y-12239880D02*
X24144817Y-12258927D01*
X24144817Y-12258927D02*
X24163865Y-12268451D01*
X24163865Y-12268451D02*
X24182912Y-12268451D01*
X24325769Y-12258927D02*
X24306722Y-12268451D01*
X24306722Y-12268451D02*
X24268627Y-12268451D01*
X24268627Y-12268451D02*
X24249579Y-12258927D01*
X24249579Y-12258927D02*
X24240055Y-12239880D01*
X24240055Y-12239880D02*
X24240055Y-12163689D01*
X24240055Y-12163689D02*
X24249579Y-12144641D01*
X24249579Y-12144641D02*
X24268627Y-12135118D01*
X24268627Y-12135118D02*
X24306722Y-12135118D01*
X24306722Y-12135118D02*
X24325769Y-12144641D01*
X24325769Y-12144641D02*
X24335293Y-12163689D01*
X24335293Y-12163689D02*
X24335293Y-12182737D01*
X24335293Y-12182737D02*
X24240055Y-12201784D01*
X24506722Y-12268451D02*
X24506722Y-12068451D01*
X24506722Y-12258927D02*
X24487674Y-12268451D01*
X24487674Y-12268451D02*
X24449579Y-12268451D01*
X24449579Y-12268451D02*
X24430531Y-12258927D01*
X24430531Y-12258927D02*
X24421008Y-12249403D01*
X24421008Y-12249403D02*
X24411484Y-12230356D01*
X24411484Y-12230356D02*
X24411484Y-12173213D01*
X24411484Y-12173213D02*
X24421008Y-12154165D01*
X24421008Y-12154165D02*
X24430531Y-12144641D01*
X24430531Y-12144641D02*
X24449579Y-12135118D01*
X24449579Y-12135118D02*
X24487674Y-12135118D01*
X24487674Y-12135118D02*
X24506722Y-12144641D01*
X24582912Y-12344641D02*
X24592436Y-12335118D01*
X24592436Y-12335118D02*
X24611484Y-12306546D01*
X24611484Y-12306546D02*
X24621008Y-12287499D01*
X24621008Y-12287499D02*
X24630531Y-12258927D01*
X24630531Y-12258927D02*
X24640055Y-12211308D01*
X24640055Y-12211308D02*
X24640055Y-12173213D01*
X24640055Y-12173213D02*
X24630531Y-12125594D01*
X24630531Y-12125594D02*
X24621008Y-12097022D01*
X24621008Y-12097022D02*
X24611484Y-12077975D01*
X24611484Y-12077975D02*
X24592436Y-12049403D01*
X24592436Y-12049403D02*
X24582912Y-12039880D01*
M02*
