M48
; DRILL file {KiCad 7.0.8} date Tue Jan  2 14:18:11 2024
; FORMAT={-:-/ absolute / metric / decimal}
; #@! TF.CreationDate,2024-01-02T14:18:11+01:00
; #@! TF.GenerationSoftware,Kicad,Pcbnew,7.0.8
; #@! TF.FileFunction,Plated,1,4,PTH
FMAT,2
METRIC
; #@! TA.AperFunction,Plated,PTH,ViaDrill
T1C0.300
; #@! TA.AperFunction,Plated,PTH,ViaDrill
T2C0.400
; #@! TA.AperFunction,Plated,PTH,ViaDrill
T3C0.600
; #@! TA.AperFunction,Plated,PTH,ComponentDrill
T4C0.600
; #@! TA.AperFunction,Plated,PTH,ComponentDrill
T5C0.800
; #@! TA.AperFunction,Plated,PTH,ComponentDrill
T6C0.890
; #@! TA.AperFunction,Plated,PTH,ComponentDrill
T7C1.000
; #@! TA.AperFunction,Plated,PTH,ComponentDrill
T8C1.020
; #@! TA.AperFunction,Plated,PTH,ComponentDrill
T9C1.100
; #@! TA.AperFunction,Plated,PTH,ComponentDrill
T10C1.150
; #@! TA.AperFunction,Plated,PTH,ComponentDrill
T11C1.400
; #@! TA.AperFunction,Plated,PTH,ComponentDrill
T12C1.570
; #@! TA.AperFunction,Plated,PTH,ComponentDrill
T13C3.200
%
G90
G05
T1
X183.342Y-83.518
X183.4Y-87.2
X183.4Y-88.2
X183.4Y-89.2
X183.4Y-90.3
X183.4Y-91.3
X183.4Y-92.3
X183.4Y-93.3
X184.1Y-96.8
X184.15Y-84.35
X184.4Y-87.2
X184.4Y-88.2
X184.4Y-89.2
X184.4Y-90.3
X184.4Y-91.3
X184.4Y-92.3
X184.4Y-93.3
X184.4Y-94.3
X184.697Y-80.249
X185.2Y-103.3
X185.35Y-84.45
X185.35Y-96.797
X185.4Y-87.2
X185.4Y-88.2
X185.4Y-89.2
X185.4Y-90.3
X185.4Y-91.3
X185.4Y-92.3
X185.4Y-93.3
X185.4Y-94.3
X185.5Y-95.3
X185.65Y-80.25
X186.5Y-87.2
X186.5Y-88.2
X186.5Y-89.2
X186.5Y-94.3
X186.5Y-95.3
X186.65Y-96.897
X187.15Y-84.15
X187.5Y-87.2
X187.5Y-88.2
X187.5Y-89.2
X187.5Y-94.3
X187.5Y-95.3
X187.95Y-96.897
X188.1Y-84.374
X188.5Y-87.2
X188.5Y-88.2
X188.5Y-89.2
X188.5Y-94.3
X188.5Y-95.3
X189.0Y-84.85
X189.12Y-101.59
X189.5Y-87.2
X189.5Y-88.2
X189.5Y-89.2
X189.5Y-94.3
X189.5Y-95.3
X189.756Y-103.004
X190.6Y-87.2
X190.6Y-88.2
X190.6Y-89.2
X190.6Y-90.3
X190.6Y-91.3
X190.6Y-92.3
X190.6Y-93.3
X190.6Y-94.3
X190.6Y-95.3
X191.6Y-87.2
X191.6Y-88.2
X191.6Y-89.2
X191.6Y-90.3
X191.6Y-91.3
X191.6Y-92.3
X191.6Y-93.3
X191.6Y-94.3
X191.6Y-95.3
X191.67Y-100.8
X191.7Y-101.9
X192.6Y-87.2
X192.6Y-88.2
X192.6Y-89.2
X192.6Y-90.3
X192.6Y-91.3
X192.6Y-92.3
X192.6Y-93.3
X192.6Y-94.3
X192.6Y-95.3
X192.94Y-101.124
X194.35Y-62.55
X195.15Y-105.524
X195.4Y-97.7
X195.8Y-106.2
X196.026Y-100.975
X196.5Y-94.9
X196.75Y-100.426
X198.5Y-77.2
X199.2Y-101.3
X199.4Y-106.3
X199.8Y-77.624
X200.05Y-101.0
X200.17Y-85.9
X201.1Y-63.475
X202.1Y-72.2
X202.5Y-100.1
X202.924Y-82.01
X203.1Y-92.6
X203.1Y-93.6
X203.1Y-94.5
X203.1Y-97.3
X203.4Y-100.1
X203.4Y-101.0
X203.6Y-83.2
X203.6Y-84.1
X203.6Y-85.0
X203.9Y-96.4
X203.9Y-97.3
X204.0Y-92.6
X204.0Y-93.6
X204.0Y-94.5
X204.3Y-100.1
X204.3Y-101.0
X204.5Y-83.2
X204.5Y-84.1
X204.5Y-85.0
X204.8Y-96.4
X204.8Y-97.3
X204.9Y-92.6
X204.9Y-93.6
X204.9Y-94.5
X205.1Y-100.1
X205.7Y-97.3
X205.8Y-92.6
X205.8Y-93.6
X205.8Y-94.5
X206.7Y-79.5
X206.7Y-80.4
X207.5Y-33.3
X207.6Y-79.5
X207.6Y-80.4
X208.0Y-85.2
X208.1Y-82.1
X208.2Y-86.7
X208.2Y-89.5
X208.265Y-68.335
X208.6Y-78.6
X208.6Y-79.5
X208.6Y-80.4
X208.7Y-34.6
X209.0Y-85.2
X209.1Y-82.1
X209.1Y-86.7
X209.1Y-89.5
X209.5Y-78.6
X209.5Y-79.5
X209.5Y-80.4
X209.69Y-68.34
X209.9Y-85.2
X210.0Y-82.1
X210.0Y-86.7
X210.0Y-89.5
X210.4Y-78.6
X210.4Y-79.5
X210.4Y-80.4
X210.8Y-73.4
X210.9Y-85.2
X210.9Y-86.7
X210.9Y-89.5
X211.0Y-82.1
X211.3Y-78.6
X211.3Y-79.5
X211.3Y-80.4
X211.4Y-106.3
X212.2Y-76.4
X212.2Y-77.3
X212.3Y-62.7
X212.5Y-86.7
X212.55Y-54.83
X212.65Y-57.37
X213.1Y-76.4
X213.1Y-77.3
X213.5Y-82.2
X213.5Y-83.2
X213.5Y-84.1
X213.5Y-85.1
X213.5Y-86.7
X213.5Y-87.6
X213.5Y-88.6
X213.5Y-106.3
X214.0Y-69.9
X214.4Y-82.2
X214.4Y-83.2
X214.4Y-84.1
X214.4Y-85.1
X215.0Y-99.9
X217.2Y-65.1
X217.95Y-103.95
X218.6Y-88.8
X218.88Y-78.65
X219.0Y-61.8
X219.1Y-30.6
X219.1Y-48.9
X219.1Y-49.9
X219.2Y-24.7
X219.8Y-65.9
X219.8Y-98.9
X219.8Y-99.9
X219.9Y-64.4
X220.132Y-63.525
X220.49Y-60.874
X220.601Y-62.674
X220.8Y-98.9
X220.8Y-99.9
X221.0Y-76.2
X221.1Y-42.1
X221.1Y-43.0
X221.1Y-43.9
X221.1Y-44.8
X221.1Y-45.7
X221.1Y-46.6
X221.5Y-24.7
X221.7Y-58.6
X221.8Y-98.9
X221.8Y-99.9
X222.0Y-42.1
X222.0Y-43.0
X222.0Y-43.9
X222.0Y-44.8
X222.0Y-45.7
X222.0Y-46.6
X222.8Y-98.9
X222.8Y-99.9
X222.897Y-66.316
X223.0Y-70.4
X224.424Y-58.9
X225.6Y-58.1
X225.8Y-66.9
X226.4Y-43.6
X226.4Y-44.5
X226.4Y-45.4
X226.6Y-68.4
X227.0Y-49.0
X227.2Y-43.6
X227.2Y-44.5
X227.2Y-45.4
X227.9Y-64.2
X228.0Y-43.6
X228.0Y-44.5
X228.0Y-45.4
X228.0Y-60.5
X228.7Y-38.5
X228.7Y-39.5
X228.8Y-43.6
X228.8Y-44.5
X228.8Y-45.4
X228.8Y-60.0
X230.8Y-37.9
X230.8Y-40.5
X230.8Y-58.49
X231.0Y-55.875
X232.35Y-62.4
X233.1Y-26.3
X233.1Y-27.3
X233.1Y-28.3
X233.1Y-29.3
X233.1Y-30.3
X233.1Y-31.3
X234.1Y-26.3
X234.1Y-27.3
X234.1Y-28.3
X234.1Y-29.3
X234.1Y-30.3
X234.1Y-31.3
X234.35Y-58.4
X235.1Y-26.3
X235.1Y-27.3
X235.1Y-28.3
X235.1Y-29.3
X235.1Y-30.3
X235.1Y-31.3
X253.7Y-36.6
X253.7Y-37.6
X253.7Y-38.6
X253.7Y-39.6
X253.7Y-40.6
X253.7Y-41.6
X253.7Y-42.6
X254.7Y-36.6
X254.7Y-37.6
X254.7Y-38.6
X254.7Y-39.6
X254.7Y-40.6
X254.7Y-41.6
X254.7Y-42.6
X255.7Y-36.6
X255.7Y-37.6
X255.7Y-38.6
X255.7Y-39.6
X255.7Y-40.6
X255.7Y-41.6
X255.7Y-42.6
X256.7Y-36.6
X256.7Y-37.6
X256.7Y-38.6
X256.7Y-39.6
X256.7Y-40.6
X256.7Y-41.6
X256.7Y-42.6
T2
X181.5Y-102.2
X193.08Y-109.11
X196.5Y-96.1
X196.6Y-73.0
X196.8Y-68.1
X198.7Y-65.2
X204.1Y-70.3
X208.9Y-57.0
X211.701Y-99.101
X215.785Y-59.985
X217.3Y-62.7
X218.0Y-91.4
X218.1Y-93.0
X218.1Y-95.6
X218.6Y-94.4
X222.3Y-68.2
X228.4Y-57.4
X231.583Y-64.833
X232.5Y-51.3
T3
X204.9Y-38.9
X205.2Y-28.0
X206.9Y-34.6
X207.1Y-39.1
X210.28Y-103.3
X211.0Y-50.8
X212.0Y-74.9
X214.058Y-60.994
X215.154Y-103.2
X216.7Y-54.7
X219.2Y-31.9
X219.7Y-69.025
X220.177Y-92.644
X220.8Y-54.5
X221.4Y-86.1
X221.9Y-48.1
X221.9Y-49.3
X224.4Y-63.0
X226.4Y-52.9
X226.9Y-66.8
X254.65Y-47.6
X261.6Y-66.3
X261.7Y-52.1
X264.3Y-52.1
X264.3Y-66.3
T5
X226.828Y-34.4
X228.828Y-34.4
X238.203Y-26.35
X241.703Y-26.35
T6
X247.89Y-53.59
X247.89Y-64.77
X249.42Y-53.59
X249.42Y-64.77
T7
X183.9Y-35.8
X183.9Y-39.3
X183.9Y-42.8
X183.9Y-46.3
X183.9Y-49.8
X183.9Y-53.3
X183.9Y-56.8
X183.9Y-60.3
X183.9Y-63.8
X183.9Y-67.3
X183.9Y-70.8
X183.9Y-74.3
X207.59Y-22.05
X210.13Y-22.05
X212.67Y-22.05
X215.21Y-22.05
X217.75Y-22.05
X220.29Y-22.05
X222.83Y-22.05
X225.37Y-22.05
X227.91Y-22.05
X230.45Y-22.05
X260.0Y-37.0
X260.0Y-40.5
X260.9Y-77.6
X260.9Y-81.1
X260.9Y-84.6
X260.9Y-88.1
X260.9Y-91.6
X260.9Y-95.1
T8
X238.24Y-53.06
X238.24Y-55.1
X238.24Y-57.14
X238.24Y-61.22
X238.24Y-63.26
X238.24Y-65.3
X240.78Y-54.08
X240.78Y-56.12
X240.78Y-58.16
X240.78Y-60.2
X240.78Y-62.24
X240.78Y-64.28
T9
X237.15Y-106.15
X237.15Y-110.65
X243.65Y-106.15
X243.65Y-110.65
T10
X235.7Y-53.085
X235.7Y-55.625
X235.7Y-62.735
X235.7Y-65.275
T11
X227.86Y-89.0
X227.86Y-96.62
X227.9Y-74.465
X227.9Y-82.085
X238.02Y-96.62
X238.06Y-82.085
X243.1Y-89.0
X243.14Y-74.465
X245.64Y-96.62
X245.68Y-82.085
T12
X259.19Y-51.115
X259.19Y-67.245
T13
X182.0Y-24.0
X182.0Y-109.0
X262.0Y-24.0
X262.0Y-109.0
T4
X208.38Y-104.86G85X208.38Y-105.96
G05
X208.38Y-109.21G85X208.38Y-110.01
G05
X217.02Y-104.86G85X217.02Y-105.96
G05
X217.02Y-109.21G85X217.02Y-110.01
G05
T0
M30
