G04 #@! TF.GenerationSoftware,KiCad,Pcbnew,7.0.8*
G04 #@! TF.CreationDate,2024-01-02T14:17:18+01:00*
G04 #@! TF.ProjectId,ESP32-POE-Wiegand-Relay-REV-B,45535033-322d-4504-9f45-2d5769656761,rev?*
G04 #@! TF.SameCoordinates,Original*
G04 #@! TF.FileFunction,Soldermask,Bot*
G04 #@! TF.FilePolarity,Negative*
%FSLAX46Y46*%
G04 Gerber Fmt 4.6, Leading zero omitted, Abs format (unit mm)*
G04 Created by KiCad (PCBNEW 7.0.8) date 2024-01-02 14:17:18*
%MOMM*%
%LPD*%
G01*
G04 APERTURE LIST*
%ADD10C,1.500000*%
%ADD11R,1.600000X1.600000*%
%ADD12C,1.600000*%
%ADD13C,6.400000*%
%ADD14R,1.700000X1.700000*%
%ADD15O,1.700000X1.700000*%
%ADD16C,0.650000*%
%ADD17O,1.000000X2.100000*%
%ADD18O,1.000000X1.800000*%
%ADD19C,3.250000*%
%ADD20C,1.550000*%
%ADD21C,1.200000*%
%ADD22C,1.650000*%
%ADD23C,2.355000*%
%ADD24C,2.100000*%
%ADD25C,2.000000*%
G04 APERTURE END LIST*
D10*
X260000000Y-40500000D03*
X260000000Y-37000000D03*
D11*
X241702651Y-26350000D03*
D12*
X238202651Y-26350000D03*
D13*
X182000000Y-109000000D03*
X262000000Y-109000000D03*
D14*
X230450000Y-22050000D03*
D15*
X227910000Y-22050000D03*
X225370000Y-22050000D03*
X222830000Y-22050000D03*
X220290000Y-22050000D03*
X217750000Y-22050000D03*
X215210000Y-22050000D03*
X212670000Y-22050000D03*
X210130000Y-22050000D03*
X207590000Y-22050000D03*
D10*
X183900000Y-35800000D03*
X183900000Y-39300000D03*
X183900000Y-42800000D03*
X183900000Y-46300000D03*
X183900000Y-49800000D03*
X183900000Y-53300000D03*
X183900000Y-56800000D03*
X183900000Y-60300000D03*
X183900000Y-63800000D03*
X183900000Y-67300000D03*
X183900000Y-70800000D03*
X183900000Y-74300000D03*
X260900000Y-95100000D03*
X260900000Y-91600000D03*
X260900000Y-88100000D03*
X260900000Y-84600000D03*
X260900000Y-81100000D03*
X260900000Y-77600000D03*
D16*
X209810000Y-105930000D03*
X215590000Y-105930000D03*
D17*
X208380000Y-105410000D03*
D18*
X208380000Y-109610000D03*
D17*
X217020000Y-105410000D03*
D18*
X217020000Y-109610000D03*
D19*
X256020000Y-52830000D03*
X256020000Y-65530000D03*
D20*
X240780000Y-54080000D03*
X240780000Y-56120000D03*
X240780000Y-58160000D03*
X240780000Y-60200000D03*
X240780000Y-62240000D03*
X240780000Y-64280000D03*
X238240000Y-53060000D03*
X238240000Y-55100000D03*
X238240000Y-57140000D03*
X238240000Y-61220000D03*
X238240000Y-63260000D03*
X238240000Y-65300000D03*
D21*
X247890000Y-53590000D03*
X247890000Y-64770000D03*
X249420000Y-53590000D03*
X249420000Y-64770000D03*
D22*
X235700000Y-53085000D03*
X235700000Y-55625000D03*
X235700000Y-62735000D03*
X235700000Y-65275000D03*
D23*
X259190000Y-51115000D03*
X259190000Y-67245000D03*
D11*
X226827621Y-34400000D03*
D12*
X228827621Y-34400000D03*
D24*
X227860000Y-96620000D03*
X238020000Y-96620000D03*
X245640000Y-96620000D03*
X243100000Y-89000000D03*
X227860000Y-89000000D03*
X227900000Y-82085000D03*
X238060000Y-82085000D03*
X245680000Y-82085000D03*
X243140000Y-74465000D03*
X227900000Y-74465000D03*
D13*
X262000000Y-24000000D03*
X182000000Y-24000000D03*
D25*
X243650000Y-110650000D03*
X237150000Y-110650000D03*
X243650000Y-106150000D03*
X237150000Y-106150000D03*
M02*
